<svg width="200" height="254" viewBox="0 0 200 254" fill="none" xmlns="http://www.w3.org/2000/svg">
<path d="M126.919 35.4062C126.919 35.4062 120.341 5.38329 95.2258 7.74793C95.2258 7.74793 95.9377 41.7721 126.919 35.4062Z" fill="#006A25"/>
<path d="M119.601 38.0104C122.02 38.0104 124.584 37.7341 127.287 37.1761L129.091 36.8042L128.7 35.0187C128.631 34.7052 121.464 3.45484 95.0532 5.94169L93.3671 6.1011L93.4046 7.78557C93.4206 8.47105 93.881 24.6622 104.56 33.1164C108.681 36.3737 113.718 38.0104 119.601 38.0104ZM124.643 33.9772C117.363 35.1144 111.379 33.8763 106.845 30.2948C99.3889 24.4071 97.5958 13.6307 97.1729 9.44347C106.032 9.15121 113.333 13.2535 118.905 21.6067C122.101 26.3944 123.862 31.3841 124.638 33.9825L124.643 33.9772Z" fill="#1D1F28"/>
<path d="M87.6866 104.963C87.6866 104.963 80.621 117.28 69.68 120.309C58.739 123.338 49.4788 116.568 49.4788 116.568C49.4788 116.568 25.8679 92.6192 20.3439 102.269C14.8199 111.924 50.5494 146.427 66.2864 145.842C82.018 145.258 93.7138 147.059 97.723 135.353C101.732 123.646 87.6866 104.963 87.6866 104.963Z" fill="#FFBC50"/>
<path d="M65.8822 146.984C66.0267 146.984 66.1766 146.984 66.3211 146.974C68.6014 146.889 70.7853 146.857 72.8996 146.825C85.3126 146.628 95.1134 146.479 98.7961 135.719C102.95 123.588 89.1773 105.069 88.5938 104.283L87.55 102.896L86.6883 104.4C86.6187 104.517 79.719 116.35 69.3668 119.214C59.5874 121.919 51.0551 116.281 50.2148 115.702C48.8016 114.278 32.2135 97.7627 23.5207 98.8998C21.7061 99.1336 20.2609 100.106 19.3456 101.706C17.8201 104.368 18.6925 108.417 21.947 113.731C29.9065 126.739 53.041 146.974 65.8822 146.979V146.984ZM87.7374 107.014C90.7884 111.467 99.8078 125.756 96.639 134.996C93.4702 144.242 85.2751 144.37 72.8675 144.567C70.7425 144.598 68.5425 144.636 66.2408 144.721C66.1231 144.721 66.0053 144.726 65.8822 144.726C54.7539 144.726 32.2456 126.213 23.9007 112.567C21.1923 108.135 20.2769 104.681 21.3314 102.837C21.9042 101.833 22.6964 101.302 23.8151 101.158C30.233 100.34 43.936 112.578 48.6571 117.371L48.7963 117.493C49.1924 117.78 58.6346 124.549 69.977 121.409C79.0446 118.901 85.4304 110.484 87.732 107.019L87.7374 107.014Z" fill="#1D1F28"/>
<path d="M72.1377 250.542H50.7696C50.7696 242.279 61.8926 240.223 61.8926 240.223C62.5509 229.069 77.758 199.211 77.758 199.211C77.758 199.211 80.9001 204.413 91.9428 208.234C86.6543 212.32 76.7839 225.764 72.143 250.547L72.1377 250.542Z" fill="#434449"/>
<path d="M77.751 199.204C77.751 199.204 62.5493 229.062 61.8856 240.216C61.8856 240.216 50.7626 242.272 50.7626 250.535H72.1307C76.7769 225.752 86.6473 212.308 91.9304 208.222C80.8931 204.401 77.7457 199.199 77.7457 199.199M77.6226 191.775L80.7379 197.397C81.7442 198.896 85.5821 202.355 93.0866 204.948L99.1459 207.047L94.0822 210.958C89.6448 214.391 80.0581 227.208 75.5671 251.168L75.0372 254H47.2726V250.535C47.2726 245.896 49.8794 241.89 54.6166 239.254C56.0886 238.436 57.5392 237.867 58.706 237.485C60.9007 224.864 73.1477 200.554 74.6304 197.642L77.6172 191.775H77.6226Z" fill="#1D1F28"/>
<path d="M156.528 250.542H177.896C177.896 242.279 166.773 240.223 166.773 240.223C166.115 229.069 150.907 199.211 150.907 199.211C150.907 199.211 147.765 204.413 136.723 208.234C142.011 212.32 151.882 225.764 156.522 250.547L156.528 250.542Z" fill="#434449"/>
<path d="M150.899 199.204C150.899 199.204 147.757 204.406 136.715 208.227C142.003 212.313 151.874 225.752 156.514 250.541H177.882C177.882 242.278 166.76 240.221 166.76 240.221C166.101 229.068 150.894 199.21 150.894 199.21M151.092 191.664L154.015 197.642C155.497 200.554 167.744 224.864 169.939 237.485C171.111 237.867 172.562 238.436 174.029 239.254C178.766 241.89 181.372 245.896 181.372 250.535V254H153.608L153.078 251.168C151.103 240.636 147.886 230.975 143.764 223.233C139.428 215.087 135.628 211.777 134.563 210.953L129.499 207.042L135.558 204.943C143.063 202.345 146.901 198.891 147.907 197.392L151.087 191.653L151.092 191.664Z" fill="#1D1F28"/>
<path d="M110.749 207.796C104.058 208.131 98.127 208.067 92.8814 207.722C67.1026 206.037 46.4893 185.138 46.3769 159.494C46.3501 152.958 48.4216 147.017 51.2264 141.315C73.012 97.0302 83.1126 102.174 87.4965 85.0901C90.2906 74.1968 89.2415 28.4558 127.605 33.6473C165.968 38.8389 162.478 86.9658 162.478 86.9658C162.478 123.663 182.427 132.234 182.427 167.156C182.427 167.363 182.427 167.565 182.427 167.767C182.325 190.462 168.034 212.148 145.178 212.594C131.887 212.855 110.749 207.801 110.749 207.801V207.796Z" fill="#FFBC50"/>
<path d="M144.159 214.411C144.518 214.411 144.866 214.411 145.214 214.401C156.423 214.183 166.566 208.933 173.781 199.623C180.478 190.977 184.198 179.664 184.251 167.772V167.15C184.251 149.519 179.193 138.275 174.306 127.398C169.392 116.473 164.318 105.181 164.307 87.0238C164.382 85.9185 165.04 74.2176 161.176 61.7196C155.818 44.4072 144.299 34.0772 127.855 31.8508C118.134 30.5383 109.998 32.2971 103.666 37.0848C91.0443 46.6337 88.4429 65.9812 86.8853 77.544C86.4892 80.4985 86.1466 83.0438 85.7344 84.6379C83.9413 91.6309 81.2114 94.5747 76.6937 99.4474C70.8485 105.75 62.0111 115.272 49.5928 140.518C47.4142 144.944 44.5238 151.73 44.5559 159.499C44.6683 185.791 65.8437 207.769 92.7626 209.528C98.2973 209.889 104.287 209.921 110.582 209.613C113.082 210.197 131.441 214.406 144.159 214.406V214.411ZM121.849 35.0497C123.61 35.0497 125.446 35.1772 127.357 35.4376C142.468 37.4834 152.665 46.6497 157.654 62.6867C161.454 74.9031 160.667 86.7103 160.657 86.8272V86.9547C160.657 105.92 165.897 117.583 170.971 128.865C175.923 139.88 180.601 150.284 180.601 167.145V167.751C180.478 195.25 162.236 210.442 145.139 210.771C132.207 211.01 111.385 206.079 111.176 206.031L110.919 205.973L110.657 205.984C104.41 206.292 98.4739 206.27 93.0034 205.914C67.9901 204.278 48.3082 183.883 48.2065 159.483C48.185 154.073 49.6196 148.712 52.8687 142.107C65.0515 117.339 73.6694 108.045 79.3754 101.897C83.9466 96.9712 87.2439 93.411 89.2672 85.5306C89.7276 83.7293 90.0701 81.2105 90.4983 78.0223C91.981 67.0174 94.4594 48.6051 105.877 39.9649C110.196 36.6969 115.554 35.0497 121.855 35.0497H121.849Z" fill="#1D1F28"/>
<path d="M20.8626 115.815C20.9696 115.815 21.0767 115.799 21.1837 115.762C21.719 115.586 22.0134 115.007 21.8368 114.476L17.9132 102.732C17.7366 102.201 17.1531 101.909 16.6179 102.084C16.0826 102.259 15.7882 102.839 15.9648 103.37L19.8884 115.114C20.0329 115.539 20.4344 115.81 20.8626 115.81V115.815Z" fill="#1E1E28"/>
<path d="M170.281 146.018C170.281 146.018 178.968 134.455 185.932 96.738C192.896 59.0208 191.943 43.1219 193.688 40.2897C195.433 37.4574 197.917 15.7293 198.163 10.7875C198.409 5.85102 191.199 2.6415 190.455 10.7875C189.711 18.9336 186.478 18.1949 182.496 16.2182C178.513 14.2415 180.756 3.38011 174.788 1.89757C168.82 0.415019 172.299 18.9336 171.309 26.0912C170.313 33.2489 170.313 40.4119 175.039 42.3886C179.766 44.3653 167.331 102.774 162.353 115.788" fill="#FFBC50"/>
<path d="M170.286 147.83C170.842 147.83 171.388 147.581 171.747 147.102C172.111 146.619 180.766 134.764 187.73 97.0624C191.996 73.9527 193.297 59.0954 194.073 50.216C194.459 45.7897 194.796 41.9691 195.251 41.2251C197.424 37.6861 199.828 14.178 199.993 10.8728C200.165 7.43476 197.537 4.22523 194.368 4.00206C191.905 3.84264 189.117 5.47929 188.646 10.6177C188.282 14.619 187.34 15.432 187.061 15.5861C186.242 16.0378 184.117 14.9856 183.32 14.5924C182.351 14.1089 181.848 11.707 181.409 9.58684C180.638 5.86719 179.674 1.23889 175.237 0.138934C173.61 -0.264914 172.47 0.28772 171.806 0.824412C169.172 2.94993 169.188 8.32216 169.531 16.9146C169.67 20.4217 169.799 23.7321 169.51 25.847C168.616 32.298 168.123 41.1242 174.006 43.9086C176.254 49.3818 166.137 100.809 160.662 115.145C160.303 116.08 160.779 117.127 161.721 117.483C162.658 117.839 163.718 117.366 164.077 116.431C166.608 109.81 170.933 92.1259 174.14 75.2865C180.36 42.6439 177.367 41.3898 175.762 40.7203C172.818 39.4875 171.956 34.7848 173.128 26.3412C173.465 23.9075 173.326 20.4429 173.182 16.7764C173.037 13.0727 172.695 4.4059 174.129 3.62478C174.129 3.62478 174.134 3.62478 174.15 3.62478C174.183 3.62478 174.247 3.62478 174.359 3.65666C176.42 4.16678 177.078 6.62707 177.844 10.3255C178.481 13.3968 179.145 16.5745 181.698 17.8392C184.107 19.0401 186.644 19.9753 188.849 18.7584C190.808 17.6744 191.905 15.1929 192.291 10.9525C192.441 9.29459 193.013 7.53041 194.122 7.62606C195.069 7.68982 196.45 8.9545 196.359 10.6974C196.038 17.0474 193.452 37.2132 192.146 39.344C191.247 40.8106 190.996 43.6641 190.45 49.9078C189.679 58.7234 188.389 73.4692 184.155 96.4141C177.384 133.063 168.916 144.828 168.83 144.945C168.236 145.747 168.407 146.884 169.215 147.474C169.542 147.713 169.922 147.83 170.302 147.83H170.286Z" fill="#1D1F28"/>
<path d="M188.133 14.3324C188.133 14.3324 190.611 17.7598 189.107 23.9132C187.603 30.0665 184.236 26.8145 184.236 26.8145C184.236 26.8145 181.923 29.3651 180.248 26.9048C178.573 24.4445 176.448 13.716 180.516 13.5885C182.876 13.5141 183.866 14.0136 184.284 14.4493C184.471 14.6459 184.776 14.6353 184.953 14.4334C185.408 13.9179 186.35 13.4078 188.127 14.343L188.133 14.3324Z" fill="#FFBC50"/>
<path d="M181.996 29.5445C182.922 29.5445 183.735 29.1726 184.34 28.774C185.068 29.1407 186.058 29.4223 187.161 29.1088C188.81 28.6359 189.987 27.0152 190.656 24.2839C192.316 17.5088 189.548 13.5819 189.431 13.4172L189.217 13.1196L188.89 12.9443C186.867 11.8762 185.459 12.2003 184.597 12.7158C183.628 12.1897 182.269 11.9612 180.481 12.0143C179.132 12.0569 178.029 12.7848 177.366 14.0655C175.572 17.5513 177.323 25.4051 178.945 27.7803C179.865 29.1354 180.984 29.4808 181.76 29.5339C181.84 29.5392 181.915 29.5392 181.99 29.5392L181.996 29.5445ZM184.164 24.5868L183.072 25.7611C182.783 26.0693 182.247 26.4413 181.98 26.3988C181.883 26.3934 181.723 26.2447 181.573 26.0215C180.449 24.3742 179.03 17.7532 180.192 15.4949C180.363 15.1601 180.476 15.1548 180.583 15.1548C182.67 15.0857 183.157 15.5268 183.157 15.5321C183.548 15.9412 184.126 16.1378 184.667 16.1538C185.234 16.1432 185.78 15.8881 186.16 15.463C186.283 15.3248 186.647 15.3939 187.033 15.5533C187.509 16.4407 188.649 19.1773 187.579 23.5453C187.129 25.3838 186.556 26.0109 186.289 26.0906C186.053 26.165 185.577 25.8993 185.341 25.6761L184.164 24.5921V24.5868Z" fill="#1D1F28"/>
<path d="M184.244 27.829C184.806 27.829 185.267 27.3773 185.272 26.814L185.326 14.4435C185.326 13.8803 184.871 13.4233 184.303 13.418C183.741 13.418 183.281 13.8696 183.275 14.4329L183.222 26.8034C183.222 27.3667 183.677 27.8236 184.244 27.829Z" fill="#1D1F28"/>
<path d="M179.19 27.9736C179.19 27.9736 184.206 30.0938 188.322 29.1692C192.438 28.2392 190.388 20.9168 180.994 22.0274C171.6 23.1327 170.926 29.5464 171.033 33.2395" fill="#FFBC50"/>
<path d="M169.442 33.2811L172.605 33.1854C172.493 29.5083 173.264 24.5133 181.17 23.5781C186.206 22.9883 188.476 25.0607 188.728 26.506C188.888 27.42 188.192 27.5794 187.962 27.6272C184.408 28.4296 179.847 26.5379 179.799 26.522L178.557 29.418C178.782 29.5136 184.097 31.7295 188.658 30.6986C190.928 30.1885 192.234 28.2436 191.843 25.9746C191.265 22.6535 187.288 19.7044 180.789 20.4589C175.453 21.086 169.147 23.8226 169.431 33.2811H169.442Z" fill="#1D1F28"/>
<path d="M95.7342 164.872L30.2864 115.703C30.2864 115.703 27.2354 118.291 20.5819 113.966L17.0973 111.309C8.01904 103.428 12.6813 96.2653 3.20694 88.0024C-3.60173 82.0562 1.67073 78.5544 7.54266 78.8892C11.129 79.8298 15.5343 81.663 16.653 82.3857C22.6534 86.2701 34.9647 94.2407 37.9569 96.2812C41.9554 99.0072 38.5349 103.938 38.5349 103.938L101.638 147.905C98.9566 128.812 104.636 124.646 115.844 135.55C127.058 146.454 134.991 156.715 157.622 161.37C180.254 166.025 184.408 173.023 180.928 183.576C177.449 194.129 155.551 197.413 148.801 197.7C142.046 197.987 149.663 232.946 139.755 232.84C129.847 232.739 114.688 202.036 109.598 195.08C104.513 188.125 81.2176 185.638 77.5938 178.284C73.97 170.929 95.7289 164.861 95.7289 164.861L95.7342 164.872Z" fill="#1D1F28"/>
<path d="M108.283 148.978C108.283 148.978 107.619 143.351 112.094 146.513C116.569 149.68 120.444 159.133 137.632 162.762C154.82 166.392 150.393 175.388 146.485 179.549C142.578 183.709 133.462 188.391 136.278 199.247C139.093 210.103 127.023 213.01 120.38 200.48C113.737 187.95 112.688 182.971 101.266 181.361C89.8429 179.756 82.3597 179.522 82.5685 176.504C83.0342 169.771 99.2315 169.824 102.186 166.679C108.813 159.633 113.775 155.844 108.283 148.973V148.978Z" fill="white"/>
<path d="M113.666 160.668C113.666 160.668 119.115 160.041 113.393 166.726C107.671 173.416 106.403 173.937 104.791 171.487C103.175 169.037 110.84 163.256 113.672 160.668H113.666Z" fill="#1D1F28"/>
<path d="M124.85 167.986C124.85 167.986 130.299 167.359 124.577 174.044C118.855 180.734 117.586 181.255 115.975 178.805C114.359 176.356 122.024 170.574 124.855 167.986H124.85Z" fill="#1D1F28"/>
<path d="M135.319 176.736C135.319 176.736 140.768 176.109 135.046 182.794C129.324 189.484 128.055 190.005 126.444 187.555C124.827 185.106 132.492 179.324 135.324 176.736H135.319Z" fill="#1D1F28"/>
<path d="M127.114 197.498C125.453 197.498 124.106 196.161 124.106 194.512C124.106 192.862 125.453 191.525 127.114 191.525C128.776 191.525 130.122 192.862 130.122 194.512C130.122 196.161 128.776 197.498 127.114 197.498Z" fill="#1D1F28"/>
<path d="M105.428 154.438L136.005 179.301L134.849 180.703L104.272 155.84L105.428 154.438Z" fill="#1D1F28"/>
<path d="M102.612 157.969L133.189 182.832L132.032 184.234L101.455 159.371L102.612 157.969Z" fill="#1D1F28"/>
<path d="M99.6158 161.723L130.193 186.586L129.036 187.988L98.4592 163.125L99.6158 161.723Z" fill="#1D1F28"/>
<path d="M23.9576 101.637C23.9576 101.637 28.5181 101.552 28.4378 105.643C28.3575 109.73 23.7702 118.503 18.637 113.067C13.5091 107.625 23.9576 101.642 23.9576 101.642V101.637Z" fill="#FFBC50"/>
<path d="M21.9629 115.926C22.5945 115.926 23.1565 115.793 23.6329 115.607C27.1657 114.263 29.5102 108.816 29.5745 105.66C29.6012 104.204 29.1569 103.009 28.247 102.105C26.6305 100.5 24.211 100.49 23.9327 100.5H23.6383L23.3814 100.649C23.1137 100.803 16.8189 104.454 16.1391 109.013C15.8768 110.761 16.4389 112.382 17.8038 113.833C19.3079 115.427 20.7532 115.921 21.9575 115.921L21.9629 115.926ZM24.2485 102.78C24.7731 102.823 25.9239 102.993 26.6412 103.715C27.0961 104.172 27.3103 104.794 27.2942 105.618C27.246 108.062 25.2976 112.552 22.814 113.498C22.4125 113.652 21.1867 114.114 19.4685 112.292C18.5907 111.362 18.2427 110.4 18.398 109.358C18.8048 106.633 22.5249 103.843 24.2485 102.785V102.78Z" fill="#1D1F28"/>
<path d="M12.6529 92.7521C12.6529 92.7521 17.2134 92.6671 17.1331 96.7587C17.0528 100.85 12.4656 109.618 7.33229 104.182C2.20438 98.7407 12.6529 92.7574 12.6529 92.7574V92.7521Z" fill="#FFBC50"/>
<path d="M10.6465 107.046C11.2781 107.046 11.8401 106.913 12.3165 106.727C15.8493 105.382 18.1938 99.9357 18.258 96.7793C18.2848 95.3286 17.8405 94.133 16.9306 93.2244C15.3141 91.6196 12.8893 91.6037 12.6163 91.6196H12.3219L12.065 91.7684C11.7973 91.9225 5.5025 95.5731 4.81735 100.132C4.55507 101.881 5.1171 103.501 6.48204 104.952C7.98616 106.546 9.4314 107.04 10.6358 107.04L10.6465 107.046ZM12.9374 93.8992C13.462 93.9417 14.6128 94.1118 15.3301 94.8344C15.7851 95.2914 15.9992 95.9131 15.9831 96.7368C15.935 99.1864 13.9866 103.671 11.5029 104.617C11.1015 104.771 9.87568 105.234 8.15745 103.411C7.2796 102.481 6.93168 101.519 7.08691 100.478C7.49371 97.7517 11.2139 94.962 12.9374 93.9045V93.8992Z" fill="#1D1F28"/>
<path d="M22.8697 100.713C22.8697 100.713 24.2132 104.714 20.932 110.145C17.6561 115.576 15.4133 111.479 15.4133 111.479C15.4133 111.479 12.4425 113.232 11.5808 110.384C10.719 107.536 11.8966 96.6692 15.8255 97.7479C18.1004 98.3749 18.8979 99.1454 19.1656 99.6821C19.2887 99.9212 19.5831 100.001 19.8133 99.8627C20.4021 99.5067 21.4512 99.2942 22.8697 100.713Z" fill="#FFBC50"/>
<path d="M17.5878 114.092C19.108 114.092 20.5639 112.961 21.9128 110.729C25.4188 104.921 24.0164 100.542 23.9522 100.356L23.8666 100.106L23.6792 99.9205C22.068 98.3051 20.671 98.3476 19.8199 98.624C19.1347 97.8056 17.8983 97.1467 16.1319 96.6632C14.9917 96.355 13.8783 96.6791 12.9791 97.5878C10.3723 100.239 9.70322 108.12 10.4901 110.718C10.9129 112.116 11.7587 112.695 12.3903 112.939C13.3431 113.306 14.3387 113.125 15.0452 112.881C15.5645 113.444 16.3888 114.071 17.5182 114.092H17.5824H17.5878ZM21.8486 101.313C22.0466 102.205 22.4855 105.378 19.9537 109.565C19.0973 110.984 18.2141 111.829 17.5824 111.829C17.5824 111.829 17.5771 111.829 17.5717 111.829C17.0365 111.823 16.544 111.164 16.4102 110.931L15.8375 109.921L14.8311 110.506C14.51 110.686 13.6857 111.01 13.2093 110.824C13.1236 110.793 12.8613 110.686 12.6686 110.059C12.0531 108.024 12.69 101.111 14.6063 99.166C15.0024 98.7674 15.2754 98.7727 15.5163 98.8418C17.7163 99.4476 18.107 100.112 18.1445 100.186C18.3425 100.579 18.7012 100.877 19.124 100.999C19.5576 101.121 20.0179 101.058 20.4033 100.824C20.8316 100.563 21.3882 100.898 21.8432 101.307L21.8486 101.313ZM20.1892 99.1766C20.1892 99.1766 20.1892 99.1766 20.1892 99.1819C20.1892 99.1819 20.1892 99.1819 20.1892 99.1766Z" fill="#1D1F28"/>
<path d="M19.1654 99.6826C19.1654 99.6826 17.8433 108.674 15.4132 111.479L19.1654 99.6826Z" fill="#BFF187"/>
<path d="M16.2837 112.219C18.8584 109.248 20.1591 100.799 20.2982 99.848L18.0394 99.5186C17.6861 101.931 16.3694 108.648 14.5494 110.741L16.2783 112.219H16.2837Z" fill="#1D1F28"/>
<path d="M20.4561 80.1485C20.4561 80.1485 24.8667 78.9901 25.766 82.9807C26.6652 86.9714 24.31 96.5734 18.0259 92.503C11.7418 88.4274 20.4561 80.1485 20.4561 80.1485Z" fill="#FFBC50"/>
<path d="M20.8906 94.6226C21.9825 94.6226 22.855 94.24 23.4973 93.7937C26.6073 91.6522 27.5815 85.8124 26.8856 82.7304C26.5644 81.3116 25.8472 80.2541 24.7445 79.5899C22.7908 78.4103 20.4356 78.9788 20.1679 79.0479L19.8842 79.1223L19.6701 79.3242C19.4453 79.5368 14.205 84.5689 14.6332 89.1547C14.7992 90.9136 15.7305 92.359 17.4059 93.443C18.7388 94.3038 19.9003 94.6173 20.8852 94.6173L20.8906 94.6226ZM21.8647 81.1203C22.4 81.1203 23.037 81.2053 23.5723 81.5294C24.1236 81.8695 24.4822 82.4222 24.6642 83.2245C25.2049 85.6104 24.3859 90.43 22.202 91.9338C21.8487 92.1783 20.7728 92.9169 18.6638 91.5513C17.5879 90.8551 17.0152 90.0049 16.9188 88.9528C16.6619 86.2109 19.6059 82.6188 21.0297 81.1894C21.2331 81.1575 21.5275 81.1203 21.8701 81.1203H21.8647Z" fill="#1D1F28"/>
<path d="M130.432 8.16113C130.432 8.16113 122.21 26.2439 124.956 37.5145C124.956 37.5145 128.419 39.1246 130.432 37.5145C130.432 37.5145 131.192 18.0713 140.677 13.8575C140.677 13.8575 137.653 8.90506 130.432 8.16113Z" fill="#4B4B55"/>
<path d="M128.124 40.0464C129.286 40.0464 130.528 39.7754 131.587 38.9252L132.23 38.4098L132.262 37.5861C132.465 32.4902 134.51 18.584 141.426 15.5127L143.31 14.6784L142.239 12.9249C142.095 12.6911 138.653 7.19129 130.624 6.36234L129.313 6.22949L128.772 7.41978C128.424 8.17965 120.325 26.204 123.184 37.9422L123.387 38.7871L124.179 39.1537C124.468 39.2866 126.181 40.0411 128.114 40.0411L128.124 40.0464ZM128.681 36.3693C128.044 36.4968 127.204 36.3533 126.54 36.162C124.929 27.2668 129.885 14.2214 131.566 10.1564C134.681 10.7622 136.737 12.2447 137.904 13.3712C130.522 18.6797 128.975 32.3786 128.676 36.364L128.681 36.3693Z" fill="#1D1F28"/>
<path d="M88.9448 83.9176C97.5413 80.3467 102.873 81.6061 102.873 81.6061C102.873 81.6061 103.638 83.2799 104.216 85.0228C105.603 83.6891 106.989 82.5785 106.989 82.5785C106.989 82.5785 113.107 84.0185 120.071 92.0902C127.029 100.156 133.083 99.3647 133.083 99.3647C133.083 99.3647 122.667 107.431 116.634 105.205C110.65 102.999 104.553 90.496 102.038 89.4598C98.2264 91.1549 90.9628 95.9586 86.4558 95.4591C80.8836 94.848 78.5659 85.4532 78.5659 85.4532C78.5659 85.4532 80.3537 87.4937 88.9502 83.9229L88.9448 83.9176Z" fill="#1D1F28"/>
<path d="M114.559 75.4199C114.559 75.4199 116.299 82.636 123.958 79.1183" stroke="black" stroke-width="5.51" stroke-miterlimit="10" stroke-linecap="round"/>
<path d="M95.8053 73.5818C95.8053 73.5818 100.874 79.0338 105.826 72.248" stroke="black" stroke-width="5.51" stroke-miterlimit="10" stroke-linecap="round"/>
<path d="M104.732 90.574C104.732 90.574 100.289 87.2104 97.875 86.3017C95.4609 85.393 94.749 88.7726 97.2594 91.217C97.2594 91.217 93.93 94.7878 94.476 96.4989C95.022 98.2099 98.3674 95.5902 102.885 96.9771" fill="#FFBC50"/>
<path d="M104.732 90.574C104.732 90.574 100.289 87.2104 97.875 86.3017C95.4609 85.393 94.749 88.7726 97.2594 91.217C97.2594 91.217 93.93 94.7878 94.476 96.4989C95.022 98.2099 98.3674 95.5902 102.885 96.9771" stroke="black" stroke-width="3.87" stroke-miterlimit="10" stroke-linecap="round"/>
<path d="M78.6876 86.7109C78.6876 86.7109 85.9352 74.1597 80.6199 69.8555C75.3047 65.5514 75.6205 75.7379 75.6205 75.7379C75.6205 75.7379 72.5801 68.1339 67.0508 72.911C61.5214 77.6881 77.6438 80.515 78.6822 86.7162L78.6876 86.7109Z" fill="#FFA9DA"/>
<path d="M65.6954 68.7939C65.6954 68.7939 72.943 56.2427 67.6277 51.9385C62.3125 47.6344 62.6283 57.8209 62.6283 57.8209C62.6283 57.8209 59.5879 50.2169 54.0586 54.994C48.5292 59.7711 64.6516 62.598 65.6901 68.7992L65.6954 68.7939Z" fill="#FFA9DA"/>
<path d="M56.2189 79.9905C56.2189 79.9905 61.5984 70.6755 57.6534 67.4766C53.7084 64.283 53.944 71.8392 53.944 71.8392C53.944 71.8392 51.6851 66.1959 47.5849 69.7402C43.4794 73.2845 55.4481 75.3835 56.2189 79.9852V79.9905Z" fill="#FFA9DA"/>
</svg>
