<svg width="200" height="252" viewBox="0 0 200 252" fill="none" xmlns="http://www.w3.org/2000/svg">
<path d="M73.0664 35.0265C73.0664 35.0265 79.6467 5.30782 104.758 7.64679C104.758 7.64679 104.048 41.326 73.0664 35.0265Z" fill="#28682E"/>
<path d="M80.3928 37.6116C77.9727 37.6116 75.4125 37.3365 72.7024 36.7861L70.9023 36.4225L71.2924 34.6535C71.3624 34.339 78.5327 3.41157 104.944 5.86847L106.634 6.02571L106.604 7.68658C106.594 8.36468 106.134 24.3935 95.4434 32.7568C91.3232 35.9802 86.283 37.6018 80.4028 37.6018L80.3928 37.6116ZM75.3425 33.6216C82.6229 34.742 88.6031 33.5233 93.1433 29.9756C100.604 24.1478 102.394 13.4849 102.814 9.32779C93.9534 9.04279 86.653 13.1016 81.0828 21.3666C77.8926 26.1035 76.1226 31.0468 75.3525 33.6118L75.3425 33.6216Z" fill="#1D1F27"/>
<path d="M112.311 103.89C112.311 103.89 119.371 116.086 130.312 119.084C141.252 122.081 150.513 115.379 150.513 115.379C150.513 115.379 174.124 91.6649 179.654 101.227C185.174 110.78 149.443 144.94 133.712 144.36C117.981 143.781 106.281 145.569 102.271 133.973C98.2605 122.386 112.311 103.89 112.311 103.89Z" fill="#FFBC50"/>
<path d="M134.11 145.488C133.96 145.488 133.82 145.488 133.67 145.488C131.39 145.399 129.2 145.37 127.09 145.34C114.679 145.144 104.879 144.996 101.189 134.353C97.0383 122.344 110.809 104.006 111.389 103.239L112.429 101.863L113.289 103.347C113.359 103.465 120.259 115.18 130.61 118.01C140.39 120.693 148.921 115.111 149.761 114.531C151.171 113.126 167.761 96.7724 176.452 97.9026C178.262 98.1385 179.712 99.0918 180.632 100.684C182.162 103.318 181.282 107.327 178.032 112.585C170.072 125.459 146.941 145.498 134.09 145.498L134.11 145.488ZM112.249 105.912C109.199 110.325 100.178 124.467 103.349 133.606C106.519 142.756 114.709 142.884 127.12 143.08C129.25 143.11 131.45 143.149 133.75 143.228C133.87 143.228 133.99 143.228 134.11 143.228C145.24 143.228 167.751 124.899 176.092 111.396C178.802 107.013 179.712 103.593 178.662 101.765C178.092 100.772 177.302 100.242 176.172 100.104C169.752 99.2981 156.051 111.406 151.331 116.152L151.191 116.27C150.791 116.555 141.35 123.258 130.01 120.152C120.949 117.666 114.559 109.332 112.259 105.912H112.249Z" fill="#1D1F27"/>
<path d="M125.665 250.192L125.385 248.708C120.555 223.196 110.404 209.614 105.174 205.604L102.504 203.56L105.704 202.469C116.435 198.794 119.675 193.86 119.705 193.811L121.435 191.089L122.915 193.939C123.555 195.177 138.035 223.451 139.716 236.139C143.116 237.062 151.586 240.188 151.586 248.374V250.182H125.665V250.192Z" fill="#434449"/>
<path d="M121.265 194.754C121.265 194.754 137.305 225.947 138.005 237.592C138.005 237.592 149.746 239.745 149.746 248.373H127.195C122.295 222.487 111.884 208.444 106.304 204.179C117.954 200.189 121.265 194.754 121.265 194.754ZM121.395 187L118.114 192.867C117.834 193.25 114.634 197.486 105.074 200.759L98.6836 202.95L104.024 207.038C114.734 215.235 121.485 238.094 123.555 249.042L124.115 252H153.406V248.383C153.406 243.538 150.656 239.352 145.656 236.6C144.106 235.745 142.576 235.145 141.335 234.752C139.025 221.574 126.095 196.179 124.535 193.132L121.385 187.01L121.395 187Z" fill="#1E1E27"/>
<path d="M13.7539 250.193V248.384C13.7539 240.198 22.2243 237.073 25.6244 236.149C27.3045 223.461 41.7851 195.187 42.4252 193.949L43.9352 191.021L45.6553 193.831C45.6553 193.831 48.9155 198.794 59.6459 202.479L62.8461 203.57L60.1759 205.615C54.9357 209.624 44.7853 223.206 39.9651 248.718L39.685 250.202H13.7639L13.7539 250.193Z" fill="#434449"/>
<path d="M44.0794 194.755C44.0794 194.755 47.3995 200.189 59.04 204.179C53.4598 208.445 43.0493 222.488 38.1491 248.374H15.5981C15.5981 239.746 27.3286 237.593 27.3286 237.593C28.0287 225.938 44.0694 194.755 44.0694 194.755M43.8694 186.883L40.7892 193.123C39.2292 196.17 26.2986 221.555 23.9885 234.743C22.7584 235.146 21.2184 235.736 19.6683 236.591C14.6681 239.343 11.918 243.529 11.918 248.374V251.991H41.2093L41.7693 249.033C43.8394 238.085 50.5897 215.226 61.3001 207.029L66.6404 202.941L60.2501 200.75C50.6897 197.477 47.4895 193.241 47.2095 192.858L43.8594 186.873L43.8694 186.883Z" fill="#1E1E27"/>
<path d="M89.2552 205.684C95.9455 206.018 101.876 205.949 107.126 205.615C132.907 203.944 153.518 183.257 153.628 157.872C153.658 151.406 151.588 145.519 148.778 139.878C126.997 96.037 116.896 101.128 112.506 84.2144C109.706 73.4335 110.766 28.1479 72.4044 33.2878C34.0428 38.4276 37.5329 86.0718 37.5329 86.0718C37.5329 122.404 17.582 130.886 17.582 165.459C17.582 165.666 17.582 165.862 17.582 166.069C17.682 188.534 31.9727 210.008 54.8337 210.44C68.1243 210.696 89.2652 205.693 89.2652 205.693L89.2552 205.684Z" fill="#FFBC50"/>
<path d="M55.8379 212.229C55.4778 212.229 55.1278 212.229 54.7878 212.219C43.5773 212.003 33.4369 206.804 26.2166 197.595C19.5163 189.035 15.7961 177.842 15.7461 166.059V165.449C15.7461 147.995 20.8063 136.861 25.6965 126.099C30.6068 115.289 35.687 104.105 35.697 86.1306C35.627 85.0397 34.9569 73.453 38.8271 61.08C44.1873 43.9407 55.7078 33.72 72.1486 31.5088C81.869 30.2115 90.0094 31.951 96.3396 36.6879C108.96 46.1421 111.56 65.2961 113.12 76.7354C113.52 79.6542 113.86 82.1799 114.27 83.7622C116.06 90.6906 118.791 93.5996 123.311 98.4249C129.161 104.665 137.991 114.09 150.412 139.082C152.592 143.465 155.482 150.177 155.442 157.872C155.332 183.905 134.151 205.654 107.23 207.393C101.7 207.747 95.6996 207.777 89.4093 207.482C86.9092 208.062 68.5484 212.229 55.8278 212.229H55.8379ZM78.1488 34.6831C76.3888 34.6831 74.5487 34.8109 72.6386 35.0664C57.5279 37.0909 47.3275 46.1716 42.3373 62.0431C38.5371 74.1409 39.3271 85.826 39.3371 85.9439V86.0716C39.3371 104.842 34.0969 116.39 29.0267 127.564C24.0765 138.472 19.3963 148.772 19.3963 165.459V166.059C19.5163 193.281 37.7571 208.317 54.8578 208.651C67.7884 208.887 88.6093 204.003 88.8193 203.954L89.0793 203.895H89.3393C95.5896 204.219 101.52 204.19 107 203.836C132.011 202.214 151.692 182.028 151.802 157.872C151.822 152.516 150.382 147.209 147.142 140.674C134.961 116.154 126.341 106.955 120.641 100.872C116.071 95.9975 112.77 92.4694 110.75 84.6663C110.29 82.8875 109.95 80.3913 109.52 77.2366C108.04 66.3476 105.56 48.1174 94.1395 39.5576C89.8194 36.3243 84.4591 34.6929 78.1588 34.6929L78.1488 34.6831Z" fill="#1D1F27"/>
<path d="M179.141 114.63C179.031 114.63 178.921 114.611 178.821 114.581C178.281 114.404 177.991 113.834 178.171 113.304L182.091 101.678C182.271 101.147 182.851 100.862 183.391 101.039C183.931 101.216 184.221 101.786 184.041 102.316L180.121 113.942C179.981 114.365 179.581 114.63 179.151 114.63H179.141Z" fill="#1E1E27"/>
<path d="M29.704 144.527C29.704 144.527 21.0136 133.077 14.0533 95.7424C7.08299 58.4073 8.04304 42.6635 6.30296 39.8626C4.56288 37.0519 2.07277 15.5491 1.82276 10.655C1.57275 5.76082 8.78306 2.5865 9.5331 10.655C10.2831 18.7234 13.5133 17.9864 17.4934 16.0307C21.4736 14.075 19.2335 3.32357 25.2038 1.85926C31.1741 0.394947 27.6939 18.7234 28.6839 25.8091C29.674 32.8948 29.674 39.9805 24.9538 41.9362C20.2236 43.8919 32.6641 101.718 37.6343 114.602" fill="#FFBC50"/>
<path d="M29.7091 146.324C29.1491 146.324 28.6091 146.079 28.249 145.607C27.889 145.125 19.2287 133.391 12.2683 96.0759C7.99816 73.1972 6.6981 58.4853 5.92806 49.6994C5.53805 45.3163 5.20803 41.5327 4.74801 40.8055C2.57792 37.3068 0.177813 14.0351 0.00780584 10.7625C-0.162202 7.36212 2.46791 4.17798 5.63805 3.96177C8.09816 3.80453 10.8883 5.42609 11.3583 10.507C11.7283 14.4675 12.6684 15.2733 12.9384 15.4306C13.7584 15.8827 15.8785 14.8409 16.6785 14.4478C17.6486 13.9761 18.1486 11.588 18.5886 9.49471C19.3587 5.80936 20.3187 1.2297 24.7589 0.138836C26.389 -0.264095 27.529 0.28625 28.189 0.816941C30.8192 2.92005 30.8092 8.23678 30.4691 16.7475C30.3291 20.2166 30.1991 23.499 30.4891 25.5923C31.3892 31.9803 31.8792 40.717 25.9989 43.4687C23.7488 48.8837 33.8693 99.8005 39.3495 113.992C39.7095 114.915 39.2295 115.957 38.2895 116.301C37.3494 116.655 36.2894 116.183 35.9394 115.259C33.4093 108.704 29.0791 91.2014 25.8689 74.5239C19.6487 42.2108 22.6388 40.9725 24.2489 40.3042C27.189 39.0856 28.059 34.4273 26.879 26.0739C26.539 23.6661 26.679 20.2363 26.829 16.6001C26.979 12.9344 27.319 4.35488 25.8789 3.5785C25.8789 3.5785 25.8789 3.5785 25.8589 3.5785C25.8289 3.5785 25.7589 3.5785 25.6489 3.60798C23.5888 4.11902 22.9288 6.54643 22.1688 10.2121C21.5287 13.2489 20.8687 16.3937 18.3186 17.6516C15.9085 18.8408 13.3684 19.7646 11.1683 18.5656C9.20821 17.4944 8.11816 15.0375 7.72815 10.8411C7.57814 9.19989 7.00811 7.45057 5.89806 7.54885C4.94802 7.61764 3.56796 8.86575 3.65797 10.5954C3.97798 16.8851 6.56809 36.8449 7.86815 38.9579C8.76819 40.4123 9.0182 43.2329 9.56822 49.4144C10.3383 58.1413 11.6283 72.7452 15.8585 95.4567C22.6288 131.74 31.0992 143.386 31.1792 143.504C31.7792 144.3 31.5992 145.42 30.7992 146.01C30.4691 146.246 30.0891 146.364 29.7091 146.364V146.324Z" fill="#1D1F27"/>
<path d="M79.3738 79.4669C79.1338 79.4669 78.8937 79.4177 78.6537 79.3194L62.703 72.5777C61.773 72.1846 61.353 71.1331 61.743 70.2191C62.143 69.3051 63.2131 68.8924 64.1431 69.2756L80.0938 76.0174C81.0238 76.4105 81.4439 77.462 81.0538 78.376C80.7538 79.0541 80.0838 79.457 79.3738 79.457V79.4669Z" fill="#1D1F27"/>
<path d="M11.8443 14.1723C11.8443 14.1723 9.36417 17.5629 10.8742 23.656C12.3843 29.7491 15.7444 26.5256 15.7444 26.5256C15.7444 26.5256 18.0545 29.0513 19.7346 26.6141C21.4147 24.1768 23.5348 13.5532 19.4646 13.4254C17.1045 13.3566 16.1145 13.848 15.6944 14.2804C15.5044 14.477 15.2044 14.4672 15.0244 14.2608C14.5744 13.7497 13.6244 13.2485 11.8543 14.1723H11.8443Z" fill="#FFBC50"/>
<path d="M17.9953 29.2293C17.0753 29.2293 16.2552 28.8559 15.6552 28.4627C14.9252 28.8264 13.9351 29.1015 12.8351 28.7969C11.185 28.335 10.015 26.7233 9.34493 24.0207C7.68486 17.3182 10.455 13.4265 10.575 13.2594L10.795 12.9646L11.125 12.7975C13.1451 11.746 14.5552 12.0605 15.4152 12.5715C16.3852 12.0507 17.7453 11.8246 19.5254 11.8738C20.8754 11.9131 21.9755 12.6403 22.6355 13.9081C24.4356 17.3576 22.6755 25.1312 21.0555 27.4898C20.1354 28.8264 19.0154 29.1703 18.2353 29.2293C18.1553 29.2293 18.0753 29.2293 18.0053 29.2293H17.9953ZM15.8252 24.3253L16.9153 25.485C17.2053 25.7896 17.7453 26.1533 18.0053 26.114C18.1053 26.114 18.2653 25.9567 18.4153 25.7405C19.5354 24.1091 20.9554 17.5541 19.7954 15.3232C19.6254 14.9891 19.5154 14.9891 19.4054 14.9891C17.3153 14.9203 16.8353 15.3527 16.8253 15.3626C16.4352 15.7655 15.8552 15.962 15.3152 15.9817C14.7452 15.9719 14.2051 15.7163 13.8251 15.2938C13.7051 15.1562 13.3351 15.225 12.9551 15.3822C12.4751 16.2569 11.345 18.9693 12.4051 23.2934C12.8551 25.1115 13.4251 25.7307 13.6951 25.8093C13.9351 25.8879 14.4052 25.6226 14.6452 25.3965L15.8252 24.3253Z" fill="#1D1F27"/>
<path d="M15.7441 27.5284C15.1841 27.5284 14.7241 27.0763 14.7141 26.526L14.6641 14.2808C14.6641 13.7206 15.1241 13.2686 15.6841 13.2686C16.2441 13.2686 16.7042 13.7206 16.7142 14.271L16.7642 26.5162C16.7642 27.0763 16.3041 27.5284 15.7441 27.5284Z" fill="#1D1F27"/>
<path d="M20.8099 27.6653C20.8099 27.6653 15.7997 29.7684 11.6795 28.8446C7.55934 27.9306 9.61943 20.6778 19.0098 21.7687C28.4003 22.8596 29.0803 29.2082 28.9703 32.8739" fill="#FFBC50"/>
<path d="M30.541 32.9251L27.3709 32.8367C27.4809 29.2004 26.7108 24.2473 18.8105 23.3235C13.7703 22.7437 11.5102 24.7878 11.2502 26.2227C11.0902 27.1268 11.7902 27.2841 12.0102 27.3332C15.5604 28.1292 20.1306 26.2522 20.1706 26.2325L21.4106 29.0923C21.1906 29.1906 15.8704 31.3822 11.3102 30.3601C9.04006 29.8491 7.73 27.9327 8.13002 25.6822C8.71005 22.3997 12.6802 19.4711 19.1805 20.2278C24.5207 20.847 30.821 23.5594 30.541 32.9251Z" fill="#1D1F27"/>
<path d="M69.5714 74.249C69.5714 74.249 67.5713 83.6933 72.0015 86.3271C76.4317 88.9609 79.6818 77.7673 79.6818 77.7673L69.5714 74.249Z" fill="#1D1F27"/>
<path d="M85.3636 78.8393C84.7036 78.8393 84.0636 78.4855 83.7436 77.8762C83.2835 77.0015 83.6235 75.9107 84.5236 75.4586L99.9243 67.5867C100.814 67.1346 101.924 67.4688 102.384 68.3533C102.844 69.2279 102.504 70.3188 101.604 70.7708L86.2037 78.6428C85.9336 78.7803 85.6436 78.8491 85.3636 78.8491V78.8393Z" fill="#1D1F27"/>
<path d="M94.8751 72.9326C94.8751 72.9326 97.5752 82.2099 93.3551 85.1582C89.1349 88.1064 85.0547 77.1781 85.0547 77.1781L94.8751 72.9326Z" fill="#1D1F27"/>
<path d="M99.6219 89.6886C92.0916 85.6494 86.6113 85.6494 86.6113 85.6494C86.6113 85.6494 85.4813 86.7304 84.5112 87.8901C83.4712 86.6911 82.3811 85.6494 82.3811 85.6494C82.3811 85.6494 76.0908 85.6494 67.4405 90.288C58.7901 94.9267 53.0898 93.3248 53.0898 93.3248C53.0898 93.3248 61.3502 100.912 67.7305 100.332C74.0708 99.752 82.9012 91.772 85.5913 91.4575C88.9014 93.3248 94.8517 98.0322 99.3519 98.4351C104.912 98.9363 112.102 92.3322 112.102 92.3322C112.102 92.3322 107.142 93.7277 99.6019 89.6886H99.6219Z" fill="#1D1F27"/>
<path d="M104.261 163.189L169.704 114.522C169.704 114.522 172.754 117.087 179.414 112.802L182.904 110.169C191.985 102.366 187.325 95.2799 196.795 87.0935C203.605 81.2067 198.325 77.7474 192.455 78.0717C188.865 79.0054 184.465 80.8136 183.344 81.5311C177.344 85.3737 165.034 93.2652 162.044 95.2897C158.043 97.9923 161.463 102.867 161.463 102.867L98.3607 146.393C101.041 127.495 95.3606 123.367 84.1501 134.168C72.9396 144.958 64.9993 155.12 42.3683 159.729C19.7373 164.338 15.5771 171.267 19.0573 181.714C22.5374 192.16 44.4384 195.413 51.1887 195.698C57.939 195.983 50.3286 230.586 60.2391 230.488C70.1495 230.39 85.3102 199.993 90.3904 193.114C95.4806 186.224 118.772 183.768 122.392 176.485C126.012 169.203 104.261 163.198 104.261 163.198V163.189Z" fill="#252732"/>
<path d="M91.7054 147.464C91.7054 147.464 92.3654 141.892 87.8952 145.027C83.415 148.162 79.5449 157.518 62.3541 161.115C45.1634 164.712 49.5935 173.616 53.5037 177.733C57.4139 181.851 66.5243 186.49 63.7142 197.231C60.894 207.983 72.9746 210.852 79.6149 198.45C86.2551 186.048 87.3052 181.114 98.7257 179.522C110.146 177.93 117.637 177.704 117.427 174.716C116.966 168.053 100.766 168.102 97.8057 164.987C91.1754 158.009 86.2152 154.265 91.7154 147.464H91.7054Z" fill="white"/>
<path d="M86.3169 159.031C86.3169 159.031 80.8667 158.412 86.5869 165.026C92.3072 171.65 93.5772 172.161 95.1873 169.743C96.8074 167.316 89.137 161.596 86.3069 159.031H86.3169Z" fill="#1D1F27"/>
<path d="M75.1411 166.274C75.1411 166.274 69.6909 165.655 75.4111 172.269C81.1314 178.893 82.4015 179.404 84.0115 176.986C85.6316 174.559 77.9613 168.839 75.1311 166.274H75.1411Z" fill="#1D1F27"/>
<path d="M64.6685 174.933C64.6685 174.933 59.2182 174.314 64.9385 180.928C70.6587 187.552 71.9288 188.063 73.5389 185.645C75.1589 183.218 67.4886 177.498 64.6585 174.933H64.6685Z" fill="#1D1F27"/>
<path d="M72.8734 195.493C74.5359 195.493 75.8835 194.169 75.8835 192.535C75.8835 190.902 74.5359 189.577 72.8734 189.577C71.211 189.577 69.8633 190.902 69.8633 192.535C69.8633 194.169 71.211 195.493 72.8734 195.493Z" fill="#1D1F27"/>
<path d="M94.5708 152.865L63.9883 177.481L65.1416 178.865L95.7241 154.249L94.5708 152.865Z" fill="#1D1F27"/>
<path d="M97.395 156.36L66.8125 180.977L67.9658 182.36L98.5483 157.744L97.395 156.36Z" fill="#1D1F27"/>
<path d="M100.368 160.068L69.7852 184.685L70.9384 186.068L101.521 161.452L100.368 160.068Z" fill="#1D1F27"/>
<path d="M176.032 100.598C176.032 100.598 171.472 100.519 171.552 104.558C171.632 108.607 176.222 117.295 181.352 111.909C186.482 106.524 176.032 100.598 176.032 100.598Z" fill="#FFBC50"/>
<path d="M178.034 114.74C177.404 114.74 176.844 114.603 176.364 114.426C172.833 113.099 170.483 107.704 170.423 104.578C170.393 103.144 170.843 101.954 171.753 101.06C173.363 99.468 175.794 99.4582 176.064 99.468H176.354L176.614 99.6154C176.884 99.7629 183.174 103.379 183.854 107.89C184.114 109.62 183.554 111.222 182.194 112.657C180.694 114.239 179.244 114.73 178.044 114.73L178.034 114.74ZM175.744 101.728C175.213 101.768 174.073 101.945 173.353 102.652C172.893 103.104 172.683 103.723 172.703 104.539C172.753 106.957 174.703 111.399 177.184 112.342C177.584 112.499 178.804 112.952 180.534 111.143C181.414 110.219 181.764 109.276 181.604 108.234C181.194 105.532 177.474 102.77 175.754 101.728H175.744Z" fill="#1D1F27"/>
<path d="M187.345 91.7999C187.345 91.7999 182.784 91.7213 182.864 95.7604C182.944 99.8094 187.535 108.497 192.665 103.111C197.795 97.726 187.345 91.7999 187.345 91.7999Z" fill="#FFBC50"/>
<path d="M189.334 105.951C188.704 105.951 188.144 105.813 187.664 105.637C184.134 104.31 181.784 98.9145 181.724 95.7893C181.694 94.3545 182.144 93.1654 183.054 92.271C184.664 90.679 187.094 90.6691 187.364 90.679H187.654L187.914 90.8264C188.184 90.9738 194.475 94.5904 195.165 99.1012C195.425 100.831 194.865 102.433 193.505 103.868C192.005 105.45 190.554 105.941 189.354 105.941L189.334 105.951ZM187.054 92.9295C186.524 92.9688 185.384 93.1457 184.664 93.8533C184.204 94.3054 183.994 94.9245 184.014 95.7304C184.064 98.1578 186.004 102.59 188.494 103.533C188.894 103.681 190.124 104.143 191.845 102.335C192.725 101.411 193.075 100.467 192.915 99.4255C192.505 96.723 188.784 93.9614 187.064 92.9197L187.054 92.9295Z" fill="#1D1F27"/>
<path d="M177.126 99.684C177.126 99.684 175.786 103.644 179.067 109.02C182.347 114.396 184.587 110.337 184.587 110.337C184.587 110.337 187.557 112.067 188.417 109.256C189.287 106.445 188.097 95.6743 184.177 96.7455C181.897 97.3647 181.107 98.1312 180.837 98.6619C180.717 98.8978 180.417 98.9764 180.187 98.8388C179.597 98.485 178.546 98.2786 177.126 99.684Z" fill="#FFBC50"/>
<path d="M182.403 112.929C180.883 112.929 179.423 111.809 178.073 109.598C174.563 103.849 175.973 99.5147 176.033 99.3279L176.113 99.0822L176.303 98.8955C177.913 97.2936 179.313 97.3329 180.163 97.6179C180.853 96.8121 182.083 96.1536 183.853 95.6721C184.993 95.3674 186.113 95.6917 187.003 96.586C189.614 99.21 190.284 107.013 189.494 109.588C189.073 110.974 188.223 111.544 187.593 111.789C186.643 112.153 185.643 111.976 184.933 111.73C184.413 112.291 183.583 112.91 182.463 112.929H182.393H182.403ZM178.143 100.271C177.943 101.156 177.513 104.291 180.033 108.438C180.893 109.843 181.773 110.679 182.403 110.679C182.943 110.679 183.433 110.02 183.563 109.794L184.133 108.792L185.143 109.372C185.463 109.549 186.283 109.873 186.763 109.686C186.853 109.657 187.113 109.549 187.303 108.93C187.923 106.915 187.283 100.065 185.363 98.1486C184.973 97.7555 184.693 97.7555 184.453 97.8243C182.253 98.4238 181.863 99.0823 181.823 99.151C181.623 99.5442 181.273 99.839 180.843 99.9569C180.413 100.075 179.943 100.016 179.563 99.7898C179.133 99.5343 178.573 99.8685 178.123 100.262L178.143 100.271Z" fill="#1D1F27"/>
<path d="M180.824 98.6602C180.824 98.6602 182.144 107.564 184.574 110.335L180.824 98.6602Z" fill="#CAF194"/>
<path d="M183.713 111.071C181.143 108.133 179.833 99.7697 179.703 98.8263L181.963 98.502C182.313 100.89 183.633 107.534 185.453 109.607L183.723 111.071H183.713Z" fill="#1D1F27"/>
<path d="M179.538 79.3217C179.538 79.3217 175.128 78.1718 174.228 82.1225C173.328 86.0732 175.678 95.5765 181.968 91.5472C188.259 87.5179 179.538 79.3217 179.538 79.3217Z" fill="#FFBC50"/>
<path d="M179.098 93.6487C178.008 93.6487 177.138 93.2655 176.488 92.833C173.378 90.7103 172.408 84.9316 173.098 81.8851C173.418 80.4797 174.138 79.438 175.238 78.7796C177.188 77.6101 179.548 78.1703 179.808 78.239L180.088 78.3177L180.298 78.5142C180.518 78.7206 185.758 83.713 185.328 88.2435C185.168 89.983 184.228 91.4179 182.558 92.4891C181.228 93.3441 180.068 93.6487 179.078 93.6487H179.098ZM178.128 80.2832C177.588 80.2832 176.958 80.3716 176.418 80.6861C175.868 81.0203 175.508 81.5706 175.328 82.3666C174.788 84.7351 175.608 89.5015 177.788 90.9854C178.138 91.2213 179.218 91.9584 181.328 90.6022C182.408 89.9142 182.978 89.0691 183.078 88.0273C183.338 85.3149 180.388 81.7573 178.968 80.3422C178.768 80.3127 178.468 80.2734 178.128 80.2734V80.2832Z" fill="#1D1F27"/>
<path d="M69.5569 8.05957C69.5569 8.05957 77.7772 25.9556 75.0371 37.1198C75.0371 37.1198 71.567 38.7119 69.5569 37.1198C69.5569 37.1198 68.7968 17.8675 59.3164 13.7006C59.3164 13.7006 62.3365 8.79664 69.5569 8.05957Z" fill="#4B4B54"/>
<path d="M71.8665 39.6262C70.7064 39.6262 69.4663 39.351 68.4063 38.5157L67.7663 38.0046L67.7363 37.189C67.5363 32.1376 65.4862 18.3789 58.5659 15.3422L56.6758 14.5167L57.7458 12.7772C57.8858 12.5413 61.326 7.09683 69.3663 6.28114L70.6764 6.14355L71.2164 7.32287C71.5664 8.07959 79.6568 25.9167 76.8067 37.5428L76.5967 38.3781L75.8066 38.7417C75.5166 38.8695 73.8065 39.6262 71.8764 39.6262H71.8665ZM71.3164 35.9802C71.9565 36.1079 72.7865 35.9605 73.4565 35.7738C75.0666 26.9682 70.1064 14.0548 68.4263 10.0353C65.3162 10.6348 63.2561 12.0991 62.086 13.2194C69.4663 18.4772 71.0164 32.0295 71.3164 35.9802Z" fill="#1D1F27"/>
</svg>
