<svg width="202" height="263" viewBox="0 0 202 263" fill="none" xmlns="http://www.w3.org/2000/svg">
<path d="M109.605 105.028C109.605 105.028 117.007 118.071 128.478 121.28C139.943 124.49 149.649 117.319 149.649 117.319C149.649 117.319 174.397 91.9516 180.186 102.175C185.975 112.399 148.527 148.942 132.033 148.325C115.545 147.708 103.282 149.613 99.0789 137.219C94.8759 124.82 109.6 105.033 109.6 105.033L109.605 105.028Z" fill="#FFBC50"/>
<path d="M132.451 149.532C132.295 149.532 132.144 149.532 131.993 149.521C129.603 149.429 127.315 149.397 125.098 149.359C112.09 149.153 101.817 148.991 97.954 137.598C93.6 124.749 108.032 105.136 108.647 104.308L109.737 102.841L110.644 104.432C110.714 104.557 117.949 117.086 128.799 120.122C139.05 122.985 147.99 117.015 148.875 116.398C150.358 114.888 167.747 97.4016 176.855 98.6085C178.754 98.8575 180.27 99.8858 181.23 101.585C182.827 104.405 181.91 108.691 178.505 114.32C170.164 128.1 145.918 149.532 132.457 149.532H132.451ZM109.548 107.192C106.349 111.906 96.9019 127.039 100.22 136.824C103.538 146.615 112.133 146.75 125.135 146.956C127.364 146.988 129.667 147.026 132.085 147.118C132.209 147.118 132.333 147.124 132.462 147.124C144.127 147.124 167.715 127.515 176.466 113.064C179.309 108.372 180.264 104.713 179.158 102.76C178.559 101.699 177.729 101.131 176.552 100.979C169.83 100.113 155.468 113.075 150.515 118.147L150.369 118.271C149.954 118.58 140.059 125.745 128.168 122.422C118.666 119.765 111.971 110.851 109.559 107.187L109.548 107.192Z" fill="#1D1F28"/>
<path d="M127.425 259.198H150.592C150.592 250.149 138.534 247.892 138.534 247.892C137.816 235.671 121.334 202.96 121.334 202.96C121.334 202.96 117.924 208.659 105.957 212.843C111.692 217.319 122.391 232.045 127.425 259.198Z" fill="#434449"/>
<path d="M121.329 202.961C121.329 202.961 137.811 235.673 138.529 247.893C138.529 247.893 150.587 250.15 150.587 259.2H127.42C122.386 232.046 111.682 217.32 105.952 212.844C117.919 208.66 121.329 202.961 121.329 202.961ZM121.469 194.821L118.091 200.98C116.996 202.62 112.836 206.409 104.7 209.256L98.1289 211.556L103.621 215.842C108.434 219.598 118.825 233.643 123.692 259.898L124.269 262.999H154.369V259.2C154.369 254.117 151.542 249.728 146.406 246.838C144.809 245.94 143.239 245.317 141.971 244.895C139.592 231.067 126.314 204.433 124.706 201.246L121.469 194.821Z" fill="#1D1F28"/>
<path d="M35.9212 259.198H12.7539C12.7539 250.149 24.8124 247.892 24.8124 247.892C25.5299 235.671 42.0125 202.96 42.0125 202.96C42.0125 202.96 45.4223 208.659 57.3891 212.843C51.6539 217.319 40.955 232.045 35.9212 259.198Z" fill="#434449"/>
<path d="M42.0134 202.963C42.0134 202.963 45.4232 208.662 57.3899 212.845C51.6547 217.321 40.9559 232.048 35.9221 259.201H12.7547C12.7547 250.146 24.8132 247.895 24.8132 247.895C25.5308 235.674 42.0134 202.963 42.0134 202.963ZM41.8029 194.698L38.6359 201.247C37.0281 204.44 23.7503 231.074 21.371 244.896C20.1031 245.319 18.5277 245.941 16.9361 246.839C11.7998 249.73 8.97266 254.119 8.97266 259.201V263H39.0729L39.6502 259.899C41.7921 248.36 45.2829 237.779 49.7502 229.298C54.4495 220.374 58.5715 216.748 59.7261 215.849L65.2184 211.563L58.647 209.262C50.5109 206.416 46.3512 202.627 45.2559 200.987L41.8083 194.704L41.8029 194.698Z" fill="#1D1F28"/>
<path d="M85.4247 213.938C92.4385 214.29 98.6539 214.225 104.152 213.862C131.171 212.076 152.774 189.94 152.893 162.782C152.925 155.86 150.751 149.565 147.81 143.525C124.977 96.6229 114.392 102.073 109.795 83.9746C106.866 72.4358 107.966 23.9911 67.7605 29.4899C27.5549 34.9887 31.2075 85.9555 31.2075 85.9555C31.2075 124.821 10.3008 133.902 10.3008 170.884C10.3008 171.1 10.3008 171.317 10.3008 171.533C10.4087 195.569 25.386 218.538 49.341 219.009C63.2716 219.285 85.4247 213.933 85.4247 213.933V213.938Z" fill="#FFBC50"/>
<path d="M50.413 220.943C50.0407 220.943 49.6738 220.943 49.3123 220.932C37.5668 220.699 26.9327 215.141 19.3685 205.28C12.3493 196.122 8.44848 184.145 8.39453 171.545V170.891C8.39453 152.218 13.6927 140.306 18.8182 128.784C23.9653 117.212 29.2904 105.251 29.3012 86.0217C29.2257 84.8527 28.5297 72.4587 32.5816 59.2205C38.1981 40.8839 50.2727 29.9458 67.5052 27.5861C77.6915 26.1952 86.2214 28.057 92.8576 33.1336C106.087 43.249 108.817 63.7397 110.446 75.9821C110.862 79.1103 111.223 81.811 111.649 83.4996C113.532 90.9089 116.392 94.021 121.124 99.1842C127.253 105.857 136.511 115.946 149.524 142.682C151.806 147.369 154.839 154.556 154.801 162.788C154.682 190.634 132.486 213.912 104.274 215.774C98.4741 216.158 92.194 216.185 85.601 215.866C82.9843 216.488 63.7393 220.943 50.4076 220.943H50.413ZM73.7961 30.9796C71.9455 30.9796 70.0248 31.1149 68.0232 31.3909C52.1826 33.5558 41.5 43.2707 36.2665 60.2542C32.2794 73.1948 33.1103 85.697 33.1157 85.8215V85.9568C33.1157 106.041 27.6233 118.398 22.3036 130.348C17.1133 142.016 12.209 153.036 12.209 170.891V171.529C12.3385 200.652 31.454 216.743 49.3771 217.095C62.93 217.349 84.7539 212.126 84.9751 212.072L85.2449 212.007L85.5201 212.023C92.0645 212.353 98.2907 212.326 104.026 211.948C130.247 210.216 150.868 188.616 150.981 162.772C151.008 157.041 149.497 151.363 146.093 144.365C133.322 118.132 124.291 108.293 118.313 101.782C113.522 96.5647 110.063 92.7978 107.943 84.4468C107.457 82.5417 107.101 79.8735 106.653 76.4908C105.1 64.8383 102.504 45.3327 90.5377 36.1861C86.0056 32.7223 80.3945 30.9796 73.7907 30.9796H73.7961Z" fill="#1D1F28"/>
<path d="M25.1476 122.357C25.1476 122.357 1.4569 141.278 1.50006 158.397C1.5702 188.403 7.95821 190.53 7.13273 192.992C6.30725 195.455 8.17942 212.465 8.84844 216.275C9.44731 219.696 14.3354 221.017 14.7239 216.665C14.7509 216.373 15.1447 216.292 15.2904 216.546C15.8353 217.488 16.3317 217.937 16.3317 217.937C17.837 218.348 18.4574 217.791 18.711 217.325C18.8135 217.141 19.0401 217.082 19.2128 217.196C19.6012 217.455 20.4375 217.666 22.2071 217.201C22.887 217.022 23.2376 216.503 23.3671 215.778C23.4157 215.491 23.7988 215.437 23.9336 215.691C24.8832 217.493 26.0702 218.992 28.0287 219.036C32.7927 219.139 26.9658 205.608 26.4802 199.974C25.9946 194.34 22.2503 191.904 20.8475 188.181C8.59485 155.578 30.3972 138.913 33.4563 137.073" fill="#FFBC50"/>
<path d="M25.1476 122.357C25.1476 122.357 1.4569 141.278 1.50006 158.397C1.5702 188.403 7.95821 190.53 7.13273 192.992C6.30725 195.455 8.17942 212.465 8.84844 216.275C9.44731 219.696 14.3354 221.017 14.7239 216.665C14.7509 216.373 15.1447 216.292 15.2904 216.546C15.8353 217.488 16.3317 217.937 16.3317 217.937C17.837 218.348 18.4574 217.791 18.711 217.325C18.8135 217.141 19.0401 217.082 19.2128 217.196C19.6012 217.455 20.4375 217.666 22.2071 217.201C22.887 217.022 23.2376 216.503 23.3671 215.778C23.4157 215.491 23.7988 215.437 23.9336 215.691C24.8832 217.493 26.0702 218.992 28.0287 219.036C32.7927 219.139 26.9658 205.608 26.4802 199.974C25.9946 194.34 22.2503 191.904 20.8475 188.181C8.59485 155.578 30.3972 138.913 33.4563 137.073" stroke="black" stroke-width="3" stroke-miterlimit="10" stroke-linecap="round"/>
<path d="M68.4727 31.3579C68.4727 31.3579 75.3732 -0.444217 101.691 2.06705C101.691 2.06705 100.947 38.1015 68.4727 31.3579Z" fill="#006A25"/>
<path d="M76.1403 34.1165C73.6045 34.1165 70.9177 33.8242 68.0851 33.2343L66.1914 32.8392L66.6014 30.9449C66.6716 30.6094 74.1872 -2.48629 101.865 0.149453L103.635 0.317231L103.597 2.09785C103.581 2.82308 103.1 19.9744 91.9053 28.9262C87.5891 32.3792 82.3071 34.1111 76.1403 34.1111V34.1165ZM70.8529 29.8408C78.4818 31.0423 84.7512 29.7326 89.5044 25.9386C97.3168 19.7038 99.1997 8.28941 99.6367 3.8514C90.3515 3.54291 82.701 7.8835 76.8579 16.7325C73.5128 21.7983 71.6622 27.086 70.8475 29.8354L70.8529 29.8408Z" fill="#1D1F28"/>
<path d="M179.642 116.518C179.528 116.518 179.415 116.502 179.302 116.464C178.741 116.274 178.433 115.668 178.622 115.1L182.733 102.663C182.922 102.1 183.526 101.786 184.093 101.981C184.654 102.17 184.962 102.776 184.773 103.345L180.661 115.782C180.51 116.237 180.09 116.523 179.642 116.523V116.518Z" fill="#1E1E28"/>
<path d="M101.157 168.469L169.753 116.398C169.753 116.398 172.952 119.142 179.928 114.558L183.581 111.744C193.098 103.398 188.21 95.8156 198.137 87.0587C205.275 80.7643 199.745 77.0569 193.589 77.4087C189.829 78.4046 185.21 80.3476 184.039 81.1107C177.749 85.224 164.848 93.667 161.708 95.8265C157.516 98.7112 161.104 103.939 161.104 103.939L94.9688 150.506C97.7797 130.286 91.8287 125.875 80.0778 137.419C68.3269 148.969 60.0074 159.837 36.2897 164.762C12.5667 169.687 8.21269 177.107 11.8599 188.283C15.5071 199.459 38.4586 202.939 45.5372 203.243C52.6159 203.546 44.6308 240.571 55.0167 240.462C65.4027 240.354 81.2918 207.838 86.6223 200.471C91.9528 193.105 116.366 190.47 120.165 182.682C123.963 174.888 101.157 168.469 101.157 168.469Z" fill="#1D1F28"/>
<path d="M88.0087 151.644C88.0087 151.644 88.7047 145.679 84.0108 149.035C79.3223 152.39 75.2543 162.403 57.2448 166.246C39.23 170.088 43.8699 179.614 47.965 184.019C52.06 188.425 61.615 193.383 58.6638 204.884C55.7126 216.379 68.3645 219.459 75.3298 206.188C82.2897 192.923 83.3904 187.64 95.3625 185.941C107.335 184.241 115.179 183.998 114.958 180.799C114.473 173.671 97.4936 173.725 94.3967 170.392C87.453 162.933 82.252 158.918 88.0087 151.644Z" fill="white"/>
<path d="M82.3645 164.023C82.3645 164.023 76.6563 163.358 82.6504 170.442C88.6446 177.527 89.9772 178.079 91.6659 175.487C93.3601 172.889 85.3265 166.767 82.3591 164.023H82.3645Z" fill="#1D1F28"/>
<path d="M70.6496 171.771C70.6496 171.771 64.9414 171.105 70.9356 178.189C76.9297 185.274 78.2624 185.826 79.9511 183.234C81.6452 180.636 73.6116 174.515 70.6442 171.771H70.6496Z" fill="#1D1F28"/>
<path d="M59.677 181.037C59.677 181.037 53.9688 180.371 59.9629 187.456C65.9571 194.541 67.2897 195.093 68.9785 192.5C70.6726 189.902 62.639 183.781 59.6716 181.037H59.677Z" fill="#1D1F28"/>
<path d="M68.2758 203.022C70.016 203.022 71.4267 201.607 71.4267 199.861C71.4267 198.115 70.016 196.7 68.2758 196.7C66.5357 196.7 65.125 198.115 65.125 199.861C65.125 201.607 66.5357 203.022 68.2758 203.022Z" fill="#1D1F28"/>
<path d="M91.0083 157.419L58.957 183.754L60.1673 185.236L92.2186 158.901L91.0083 157.419Z" fill="#1D1F28"/>
<path d="M93.9615 161.159L61.9102 187.494L63.1204 188.976L95.1717 162.642L93.9615 161.159Z" fill="#1D1F28"/>
<path d="M97.0943 165.136L65.043 191.471L66.2532 192.953L98.3045 166.618L97.0943 165.136Z" fill="#1D1F28"/>
<path d="M176.402 101.499C176.402 101.499 171.622 101.413 171.708 105.742C171.795 110.072 176.602 119.365 181.975 113.601C187.354 107.837 176.402 101.499 176.402 101.499Z" fill="#FFBC50"/>
<path d="M178.49 116.632C177.832 116.632 177.239 116.491 176.737 116.296C173.036 114.873 170.576 109.109 170.505 105.764C170.473 104.222 170.942 102.961 171.897 102.003C173.592 100.303 176.127 100.292 176.419 100.303H176.726L176.996 100.466C177.277 100.628 183.875 104.498 184.587 109.32C184.862 111.171 184.274 112.887 182.844 114.424C181.269 116.112 179.753 116.637 178.49 116.637V116.632ZM176.095 102.712C175.545 102.755 174.342 102.939 173.586 103.702C173.106 104.189 172.885 104.844 172.901 105.715C172.955 108.308 174.994 113.06 177.595 114.061C178.016 114.223 179.3 114.716 181.102 112.784C182.019 111.799 182.391 110.781 182.224 109.677C181.798 106.792 177.897 103.832 176.09 102.717L176.095 102.712Z" fill="#1D1F28"/>
<path d="M188.246 92.0929C188.246 92.0929 183.466 92.0063 183.552 96.3361C183.638 100.666 188.445 109.959 193.819 104.195C199.198 98.4306 188.246 92.0929 188.246 92.0929Z" fill="#FFBC50"/>
<path d="M190.333 107.224C189.675 107.224 189.081 107.083 188.579 106.889C184.878 105.465 182.418 99.6958 182.353 96.351C182.321 94.814 182.79 93.5475 183.745 92.5896C185.439 90.8901 187.98 90.8739 188.266 90.8901H188.574L188.844 91.0525C189.124 91.2149 195.723 95.0846 196.44 99.9069C196.715 101.758 196.127 103.474 194.698 105.011C193.122 106.699 191.606 107.224 190.344 107.224H190.333ZM187.932 93.304C187.382 93.3473 186.178 93.5313 185.423 94.2944C184.943 94.7815 184.722 95.4364 184.738 96.3077C184.792 98.9002 186.826 103.652 189.432 104.653C189.853 104.816 191.137 105.308 192.939 103.376C193.861 102.391 194.228 101.374 194.061 100.269C193.635 97.3848 189.734 94.4243 187.926 93.3094L187.932 93.304Z" fill="#1D1F28"/>
<path d="M177.528 100.525C177.528 100.525 176.12 104.763 179.556 110.516C182.993 116.269 185.34 111.929 185.34 111.929C185.34 111.929 188.453 113.785 189.36 110.77C190.266 107.756 189.025 96.244 184.914 97.386C182.529 98.0463 181.693 98.8635 181.412 99.4318C181.288 99.6862 180.975 99.7728 180.733 99.6212C180.118 99.2424 179.012 99.0205 177.528 100.52V100.525Z" fill="#FFBC50"/>
<path d="M183.065 114.693C181.468 114.693 179.946 113.497 178.533 111.132C174.859 104.978 176.332 100.34 176.396 100.145L176.483 99.8796L176.682 99.6793C178.371 97.9691 179.838 98.0124 180.729 98.31C181.446 97.4441 182.747 96.7459 184.597 96.2317C185.789 95.907 186.96 96.248 187.899 97.2114C190.634 100.02 191.336 108.366 190.505 111.115C190.063 112.593 189.178 113.21 188.514 113.47C187.516 113.859 186.475 113.664 185.73 113.41C185.185 114.005 184.322 114.671 183.135 114.693H183.065ZM178.598 101.157C178.387 102.099 177.934 105.46 180.583 109.898C181.479 111.402 182.407 112.295 183.065 112.295C183.065 112.295 183.07 112.295 183.076 112.295C183.637 112.29 184.155 111.592 184.29 111.348L184.888 110.276L185.946 110.893C186.28 111.088 187.144 111.429 187.645 111.229C187.737 111.191 188.012 111.083 188.212 110.417C188.859 108.263 188.185 100.94 186.183 98.8783C185.773 98.4562 185.482 98.4616 185.228 98.5319C182.925 99.1706 182.515 99.8796 182.477 99.9553C182.272 100.372 181.894 100.691 181.446 100.821C180.993 100.951 180.508 100.886 180.103 100.637C179.655 100.361 179.067 100.718 178.592 101.146L178.598 101.157ZM180.34 98.8946C180.34 98.8946 180.34 98.8945 180.34 98.9C180.34 98.9 180.34 98.9 180.34 98.8946Z" fill="#1D1F28"/>
<path d="M181.418 99.4307C181.418 99.4307 182.799 108.951 185.351 111.927L181.418 99.4307Z" fill="#BFF187"/>
<path d="M184.443 112.707C181.745 109.563 180.38 100.616 180.234 99.6042L182.597 99.2578C182.97 101.812 184.351 108.924 186.256 111.143L184.443 112.707Z" fill="#1D1F28"/>
<path d="M180.055 78.7398C180.055 78.7398 175.431 77.5167 174.487 81.7382C173.543 85.9651 176.009 96.1347 182.602 91.8211C189.189 87.5076 180.055 78.7398 180.055 78.7398Z" fill="#FFBC50"/>
<path d="M179.611 94.0735C178.468 94.0735 177.556 93.6676 176.876 93.1967C173.617 90.929 172.592 84.7429 173.32 81.4793C173.655 79.9747 174.41 78.8598 175.565 78.1562C177.61 76.906 180.081 77.5068 180.361 77.5825L180.658 77.6637L180.879 77.8802C181.111 78.1021 186.604 83.4385 186.156 88.2933C185.983 90.1551 185.007 91.6867 183.253 92.8341C181.856 93.7488 180.642 94.0789 179.606 94.0789L179.611 94.0735ZM178.592 79.7691C178.031 79.7691 177.362 79.8611 176.8 80.2074C176.223 80.5647 175.845 81.1492 175.657 81.9989C175.09 84.5264 175.948 89.6301 178.241 91.2213C178.613 91.4757 179.741 92.2658 181.953 90.8154C183.08 90.0793 183.679 89.1755 183.782 88.066C184.052 85.1596 180.966 81.3548 179.476 79.8394C179.266 79.8069 178.953 79.7691 178.597 79.7691H178.592Z" fill="#1D1F28"/>
<path d="M64.7952 2.50488C64.7952 2.50488 73.4114 21.6533 70.5358 33.5926C70.5358 33.5926 66.9047 35.2975 64.7952 33.5926C64.7952 33.5926 63.9967 12.9992 54.0586 8.53949C54.0586 8.53949 57.2256 3.29507 64.7952 2.50488Z" fill="#4B4B55"/>
<path d="M67.2247 36.2701C66.0053 36.2701 64.7051 35.9833 63.599 35.0849L62.9246 34.5382L62.8923 33.6669C62.6764 28.2655 60.5345 13.5389 53.2833 10.2861L51.3086 9.39853L52.4308 7.54214C52.5819 7.29318 56.1859 1.46964 64.608 0.592866L65.9784 0.452148L66.5449 1.71319C66.9063 2.51961 75.3985 21.6031 72.3987 34.0403L72.1829 34.9387L71.3521 35.3284C71.0499 35.4691 69.2533 36.2701 67.2301 36.2701H67.2247ZM66.642 32.3734C67.311 32.5032 68.185 32.3571 68.8864 32.1569C70.5751 22.7342 65.3795 8.91684 63.6206 4.61414C60.3565 5.25819 58.2038 6.82773 56.9736 8.02383C64.7105 13.6471 66.329 28.1518 66.642 32.3734Z" fill="#1D1F28"/>
<path d="M102.584 92.687C94.5022 88.7361 88.7832 84.2656 88.7832 84.2656C88.7832 84.2656 87.6502 85.4725 86.6952 86.7552C85.5514 85.5267 84.3536 84.4659 84.3536 84.4659C84.3536 84.4659 77.7498 89.5046 68.9177 94.8735C60.0911 100.248 54.043 98.8082 54.043 98.8082C54.043 98.8082 63.0585 106.521 69.7217 105.595C76.3309 104.675 85.2115 90.9822 88.0116 90.5113C91.5725 92.3515 98.0145 101.823 102.746 102.039C108.595 102.31 115.803 94.9006 115.803 94.9006C115.803 94.9006 110.672 96.6325 102.59 92.6762L102.584 92.687Z" fill="#1D1F28"/>
<path d="M77.4697 77.0146C77.4697 77.0146 71.4648 83.8049 65.3789 77.3663" stroke="black" stroke-width="3" stroke-miterlimit="10" stroke-linecap="round"/>
<path d="M85.947 67.2286L90.4143 69.0525C91.3423 69.4313 92.4106 69.2202 93.1228 68.5167L97.5307 64.1707C98.1242 63.5861 99.1277 64.0245 99.1061 64.8634L98.9497 70.254C98.9119 71.4501 99.7266 72.5109 100.887 72.7869L104.809 73.7124C105.661 73.9126 105.785 75.0817 104.992 75.4551L100.579 77.5496C99.7805 77.9285 99.2356 78.7024 99.1493 79.59L98.6421 84.8832C98.5612 85.7491 97.439 86.036 96.9534 85.3107L93.8403 80.6671C93.2522 79.7903 92.1894 79.3735 91.1643 79.6225L84.7277 81.1704C83.8806 81.3761 83.2494 80.3964 83.7727 79.7037L87.3066 75.0492C87.9864 74.1562 87.9918 72.9222 87.3282 72.0238L84.841 68.6466C84.2853 67.8943 85.0676 66.8822 85.9362 67.234L85.947 67.2286Z" fill="#1D1F28"/>
</svg>
