<svg width="200" height="253" viewBox="0 0 200 253" fill="none" xmlns="http://www.w3.org/2000/svg">
<path d="M126.922 35.5834C126.922 35.5834 120.339 5.40826 95.2271 7.78471C95.2271 7.78471 95.9369 41.9783 126.922 35.5834Z" fill="#006A25"/>
<path d="M119.607 38.2071C122.031 38.2071 124.592 37.9291 127.294 37.373L129.098 37.0005L128.703 35.2011C128.635 34.8864 121.468 3.47846 95.0578 5.98081L93.37 6.13819L93.4069 7.82741C93.4226 8.51464 93.8801 24.7878 104.564 33.2863C108.686 36.5651 113.723 38.2071 119.607 38.2071ZM124.649 34.1519C117.367 35.2903 111.389 34.0523 106.851 30.4482C99.3956 24.5307 97.6027 13.703 97.182 9.4904C106.042 9.19662 113.34 13.32 118.918 21.7136C122.11 26.5242 123.877 31.5394 124.649 34.1519Z" fill="#1D1F28"/>
<path d="M87.6861 105.496C87.6861 105.496 80.6194 117.876 69.6829 120.919C58.7412 123.962 49.482 117.163 49.482 117.163C49.482 117.163 25.8686 93.0887 20.3426 102.794C14.8165 112.494 50.5493 147.175 66.2863 146.588C82.018 146 93.7169 147.81 97.7287 136.048C101.74 124.282 87.6913 105.501 87.6913 105.501L87.6861 105.496Z" fill="#FFBC50"/>
<path d="M65.8853 147.733C66.0325 147.733 66.1798 147.733 66.3217 147.722C68.5984 147.639 70.7857 147.602 72.8994 147.57C85.3081 147.376 95.1141 147.219 98.7947 136.412C102.948 124.22 89.1779 105.602 88.589 104.821L87.548 103.43L86.6857 104.941C86.6173 105.062 79.7136 116.949 69.366 119.829C59.5863 122.547 51.0527 116.881 50.2114 116.299C48.797 114.867 32.2083 98.2683 23.5169 99.4119C21.703 99.648 20.257 100.624 19.3421 102.234C17.8174 104.915 18.6902 108.981 21.9448 114.321C29.9053 127.394 53.0349 147.733 65.8853 147.738V147.733ZM87.7372 107.554C90.7921 112.029 99.8042 126.392 96.6389 135.678C93.4736 144.968 85.2765 145.099 72.8678 145.294C70.7436 145.325 68.5406 145.362 66.2376 145.446C66.1219 145.446 66.001 145.451 65.88 145.451C54.749 145.451 32.2398 126.843 23.8955 113.13C21.1824 108.676 20.2728 105.204 21.3296 103.346C21.9028 102.339 22.6914 101.804 23.8166 101.657C30.2313 100.834 43.9387 113.135 48.6603 117.951L48.797 118.072C49.1914 118.361 58.6346 125.165 69.9812 122.012C79.0459 119.488 85.4343 111.027 87.7372 107.554Z" fill="#1D1F28"/>
<path d="M71.7389 249.317H49.1613C49.1613 240.546 60.9128 238.358 60.9128 238.358C61.6121 226.513 77.6751 194.806 77.6751 194.806C77.6751 194.806 80.9981 200.33 92.6602 204.385C87.071 208.723 76.6445 222.998 71.7389 249.317Z" fill="#434449"/>
<path d="M77.6761 194.806C77.6761 194.806 61.6131 226.513 60.9138 238.358C60.9138 238.358 49.1623 240.546 49.1623 249.317H71.7399C76.6455 222.998 87.0772 208.724 92.6612 204.385C80.9991 200.33 77.6761 194.806 77.6761 194.806ZM77.5394 186.916L80.8308 192.886C81.8982 194.476 85.952 198.148 93.881 200.907L100.285 203.137L94.9326 207.292C90.2425 210.932 80.1158 224.546 75.3731 249.994L74.8105 253H45.4765V249.317C45.4765 244.391 48.2317 240.137 53.2372 237.336C54.7936 236.465 56.3236 235.861 57.5592 235.452C59.878 222.049 72.8177 196.233 74.3846 193.143L77.5394 186.916Z" fill="#1D1F28"/>
<path d="M160.895 249.317H183.473C183.473 240.546 171.721 238.358 171.721 238.358C171.022 226.513 154.959 194.806 154.959 194.806C154.959 194.806 151.636 200.33 139.974 204.385C145.563 208.723 155.989 222.998 160.895 249.317Z" fill="#434449"/>
<path d="M154.963 194.806C154.963 194.806 151.64 200.33 139.978 204.385C145.567 208.723 155.994 222.998 160.899 249.317H183.477C183.477 240.54 171.725 238.358 171.725 238.358C171.026 226.513 154.963 194.806 154.963 194.806ZM155.174 186.795L158.26 193.143C159.827 196.238 172.767 222.053 175.085 235.452C176.321 235.861 177.856 236.464 179.407 237.335C184.413 240.136 187.168 244.391 187.168 249.317V253H157.834L157.271 249.994C155.184 238.809 151.782 228.553 147.429 220.333C142.849 211.682 138.832 208.167 137.707 207.296L132.354 203.142L138.758 200.912C146.687 198.153 150.741 194.48 151.808 192.891L155.168 186.8L155.174 186.795Z" fill="#1D1F28"/>
<path d="M110.742 208.849C104.049 209.184 98.1177 209.121 92.8755 208.775C67.0959 207.081 46.4848 186.076 46.3692 160.302C46.3429 153.734 48.4145 147.759 51.217 142.03C73.0005 97.5175 83.101 102.69 87.4861 85.5146C90.2833 74.5661 89.2318 28.59 127.594 33.8098C165.955 39.0296 162.469 87.3979 162.469 87.3979C162.469 124.283 182.418 132.897 182.418 167.993C182.418 168.197 182.418 168.402 182.418 168.606C182.318 191.416 168.022 213.213 145.166 213.659C131.874 213.921 110.737 208.843 110.737 208.843L110.742 208.849Z" fill="#FFBC50"/>
<path d="M144.154 215.497C144.512 215.497 144.859 215.497 145.206 215.486C156.416 215.266 166.558 209.994 173.778 200.635C180.476 191.947 184.194 180.579 184.246 168.618V167.994C184.246 150.273 179.188 138.968 174.298 128.035C169.387 117.055 164.308 105.703 164.298 87.4571C164.371 86.3449 165.034 74.5886 161.164 62.0244C155.806 44.6233 144.286 34.2415 127.844 32.0066C118.128 30.6847 109.983 32.4526 103.653 37.2684C91.0283 46.8686 88.4257 66.3156 86.8693 77.9303C86.475 80.8996 86.128 83.4596 85.7178 85.0596C83.9249 92.0893 81.196 95.0481 76.6742 99.9426C70.8274 106.28 61.9941 115.849 49.5749 141.224C47.3981 145.672 44.5062 152.492 44.5378 160.303C44.6534 186.733 65.8271 208.818 92.7477 210.586C98.279 210.948 104.273 210.98 110.567 210.676C113.064 211.263 131.425 215.491 144.149 215.491L144.154 215.497ZM121.845 35.2277C123.606 35.2277 125.447 35.3589 127.355 35.6159C142.467 37.6724 152.662 46.8896 157.652 63.0054C161.453 75.2863 160.664 87.1528 160.654 87.2682V87.3994C160.654 106.458 165.896 118.183 170.97 129.525C175.923 140.594 180.602 151.055 180.602 167.999V168.608C180.476 196.244 162.242 211.515 145.138 211.851C132.208 212.092 111.382 207.135 111.171 207.082L110.914 207.019L110.651 207.035C104.404 207.344 98.4631 207.323 92.9948 206.961C67.9776 205.319 48.3024 184.818 48.192 160.293C48.1657 154.853 49.6064 149.465 52.8558 142.829C65.0384 117.931 73.6562 108.599 79.361 102.419C83.9301 97.4665 87.2321 93.8887 89.2564 85.9672C89.7191 84.1573 90.0556 81.6287 90.4868 78.4182C91.9695 67.3596 94.446 48.8516 105.861 40.1695C110.183 36.8802 115.541 35.2277 121.84 35.2277H121.845Z" fill="#1D1F28"/>
<path d="M20.85 116.403C20.9551 116.403 21.0655 116.387 21.1707 116.35C21.707 116.172 22.0014 115.595 21.8227 115.055L17.9003 103.256C17.7215 102.721 17.1431 102.428 16.6016 102.606C16.0652 102.784 15.7708 103.361 15.9496 103.902L19.872 115.7C20.0139 116.13 20.4136 116.403 20.8447 116.403H20.85Z" fill="#1E1E28"/>
<path d="M170.287 146.755C170.287 146.755 178.973 135.13 185.94 97.2221C192.906 59.3143 191.955 43.3349 193.695 40.4864C195.435 37.6378 197.922 15.7986 198.17 10.8358C198.417 5.87311 191.208 2.64681 190.461 10.8358C189.715 19.0249 186.481 18.2799 182.501 16.297C178.521 14.314 180.761 3.39174 174.793 1.90187C168.825 0.412005 172.306 19.0249 171.312 26.2224C170.318 33.42 170.318 40.6175 175.045 42.6005C179.772 44.5835 167.337 103.297 162.363 116.375" fill="#FFBC50"/>
<path d="M170.285 148.577C170.842 148.577 171.389 148.325 171.746 147.848C172.109 147.36 180.769 135.446 187.73 97.554C192 74.3247 193.299 59.3945 194.071 50.471C194.461 46.0224 194.792 42.1823 195.249 41.4374C197.421 37.8806 199.824 14.2577 199.992 10.9318C200.165 7.47463 197.536 4.25357 194.366 4.02799C191.9 3.86536 189.113 5.51261 188.645 10.6747C188.277 14.6984 187.341 15.5168 187.063 15.6689C186.242 16.1253 184.118 15.0656 183.319 14.6669C182.352 14.1843 181.852 11.7659 181.41 9.63599C180.637 5.90082 179.675 1.2476 175.238 0.140691C173.608 -0.268498 172.472 0.292826 171.809 0.82792C169.175 2.96305 169.191 8.3612 169.533 17.0014C169.669 20.5267 169.801 23.8527 169.506 25.9773C168.613 32.4614 168.118 41.3324 174.002 44.1338C176.252 49.6316 166.136 101.326 160.652 115.731C160.295 116.671 160.768 117.72 161.709 118.082C162.645 118.438 163.702 117.966 164.064 117.027C166.594 110.375 170.921 92.5965 174.128 75.6729C180.348 42.8643 177.357 41.6052 175.748 40.9285C172.803 39.6904 171.941 34.9638 173.113 26.4757C173.45 24.0311 173.313 20.5477 173.166 16.8598C173.019 13.1403 172.677 4.42669 174.112 3.64503C174.112 3.64503 174.118 3.64503 174.133 3.64503C174.165 3.64503 174.233 3.64503 174.338 3.67651C176.4 4.19062 177.057 6.66149 177.824 10.3757C178.461 13.4603 179.123 16.6552 181.679 17.9299C184.092 19.1365 186.626 20.0808 188.829 18.8532C190.791 17.7621 191.884 15.2702 192.273 11.0052C192.426 9.33696 192.999 7.56381 194.108 7.65824C195.06 7.72644 196.432 8.99073 196.348 10.7481C196.027 17.1325 193.441 37.3979 192.137 39.5435C191.237 41.0177 190.985 43.882 190.438 50.1562C189.671 59.0168 188.377 73.8368 184.144 96.8983C177.378 133.736 168.907 145.56 168.823 145.676C168.229 146.484 168.397 147.622 169.207 148.22C169.533 148.461 169.917 148.577 170.295 148.577H170.285Z" fill="#1D1F28"/>
<path d="M188.14 14.4052C188.14 14.4052 190.617 17.8518 189.113 24.0316C187.609 30.2167 184.244 26.9484 184.244 26.9484C184.244 26.9484 181.936 29.5085 180.259 27.0376C178.581 24.5667 176.457 13.7809 180.527 13.6498C182.888 13.5763 183.881 14.0799 184.297 14.5154C184.486 14.7095 184.791 14.699 184.97 14.4996C185.422 13.9855 186.363 13.4662 188.14 14.4104V14.4052Z" fill="#FFBC50"/>
<path d="M182.005 29.6921C182.93 29.6921 183.745 29.3144 184.35 28.9157C185.075 29.2829 186.069 29.5715 187.173 29.2567C188.824 28.7846 189.997 27.1531 190.664 24.4041C192.321 17.5948 189.555 13.6498 189.439 13.4819L189.224 13.1829L188.898 13.0098C186.873 11.9396 185.464 12.2596 184.607 12.779C183.64 12.2491 182.278 12.0183 180.495 12.0708C179.149 12.1127 178.04 12.8472 177.383 14.1324C175.585 17.6368 177.341 25.5268 178.965 27.919C179.886 29.2777 181.005 29.6292 181.784 29.6816C181.863 29.6869 181.941 29.6869 182.015 29.6869L182.005 29.6921ZM184.171 24.7137L183.082 25.894C182.793 26.2035 182.257 26.576 181.994 26.534C181.899 26.5288 181.736 26.3766 181.584 26.1511C180.459 24.4933 179.039 17.8414 180.201 15.5751C180.375 15.2393 180.485 15.2341 180.595 15.2341C182.683 15.1659 183.167 15.6066 183.172 15.6118C183.566 16.021 184.144 16.2204 184.686 16.2413C185.254 16.2308 185.801 15.9738 186.179 15.5436C186.3 15.402 186.668 15.4754 187.052 15.6328C187.525 16.5246 188.666 19.2735 187.599 23.6645C187.147 25.5163 186.579 26.1406 186.311 26.2245C186.074 26.3032 185.601 26.0304 185.359 25.8101L184.181 24.7189L184.171 24.7137Z" fill="#1D1F28"/>
<path d="M184.246 27.9712C184.809 27.9712 185.272 27.5148 185.272 26.9535L185.324 14.5204C185.324 13.9538 184.867 13.4922 184.304 13.4922C183.742 13.4922 183.279 13.9486 183.279 14.5099L183.226 26.943C183.226 27.5096 183.684 27.9712 184.246 27.9712Z" fill="#1D1F28"/>
<path d="M179.189 28.1122C179.189 28.1122 184.205 30.242 188.322 29.3135C192.439 28.3797 190.383 21.0195 180.992 22.1317C171.596 23.2439 170.923 29.686 171.034 33.4001" fill="#FFBC50"/>
<path d="M169.448 33.4483L172.614 33.3539C172.503 29.6554 173.271 24.635 181.179 23.7012C186.216 23.1084 188.482 25.1911 188.734 26.6442C188.892 27.5623 188.198 27.7197 187.972 27.7721C184.418 28.58 179.854 26.6809 179.812 26.66L178.571 29.5662C178.797 29.6607 184.107 31.8902 188.671 30.8515C190.943 30.3374 192.247 28.3859 191.858 26.1039C191.279 22.7674 187.304 19.7982 180.805 20.5641C175.469 21.1936 169.164 23.9478 169.448 33.4535V33.4483Z" fill="#1D1F28"/>
<path d="M130.427 75.4053C130.427 75.4053 132.431 85.0002 127.998 87.6705C123.571 90.3407 120.316 78.9831 120.316 78.9831L130.427 75.4053Z" fill="#1D1F28"/>
<path d="M105.108 74.0625C105.108 74.0625 102.405 83.4844 106.627 86.4693C110.85 89.4596 114.93 78.3695 114.93 78.3695L105.108 74.0625Z" fill="#1D1F28"/>
<path d="M100.37 91.0815C107.904 86.9844 113.383 86.9844 113.383 86.9844C113.383 86.9844 114.519 88.0755 115.481 89.2559C116.517 88.0388 117.61 86.9844 117.61 86.9844C117.61 86.9844 123.899 86.9844 132.553 91.6901C141.203 96.3957 146.902 94.7695 146.902 94.7695C146.902 94.7695 138.647 102.476 132.259 101.888C125.923 101.306 117.085 93.1957 114.393 92.8757C111.08 94.7747 105.128 99.5486 100.627 99.963C95.0645 100.477 87.8716 93.7622 87.8716 93.7622C87.8716 93.7622 92.8351 95.1787 100.37 91.0763V91.0815Z" fill="#1D1F28"/>
<path d="M95.7372 165.706L30.2918 116.289C30.2918 116.289 27.2369 118.891 20.5856 114.542L17.0996 111.872C8.0192 103.95 12.683 96.7526 3.20819 88.4482C-3.60081 82.473 1.67288 78.9529 7.54597 79.2886C11.1319 80.2329 15.538 82.0743 16.658 82.8035C22.6625 86.7065 34.9713 94.7224 37.9631 96.7684C41.9644 99.5068 38.5415 104.464 38.5415 104.464L101.647 148.657C98.9655 129.467 104.644 125.281 115.854 136.239C127.064 147.198 135.003 157.512 157.633 162.186C180.269 166.86 184.423 173.901 180.942 184.508C177.461 195.116 155.567 198.42 148.811 198.704C142.059 198.992 149.673 234.125 139.762 234.025C129.851 233.92 114.692 203.063 109.608 196.076C104.518 189.088 81.2253 186.585 77.6026 179.189C73.9799 171.797 95.7372 165.701 95.7372 165.701V165.706Z" fill="#1D1F28"/>
<path d="M108.288 149.737C108.288 149.737 107.626 144.077 112.1 147.261C116.575 150.445 120.455 159.946 137.638 163.597C154.826 167.243 150.399 176.287 146.492 180.468C142.586 184.649 133.469 189.355 136.287 200.267C139.105 211.178 127.028 214.095 120.387 201.505C113.746 188.914 112.695 183.904 101.269 182.289C89.8488 180.673 82.3615 180.442 82.5718 177.41C83.0345 170.642 99.2342 170.695 102.194 167.537C108.819 160.455 113.783 156.646 108.288 149.742V149.737Z" fill="white"/>
<path d="M113.678 161.483C113.678 161.483 119.125 160.848 113.404 167.573C107.684 174.294 106.416 174.823 104.802 172.358C103.188 169.897 110.849 164.085 113.683 161.483H113.678Z" fill="#1D1F28"/>
<path d="M124.849 168.834C124.849 168.834 130.297 168.2 124.576 174.925C118.855 181.645 117.588 182.175 115.974 179.709C114.36 177.249 122.021 171.436 124.855 168.834H124.849Z" fill="#1D1F28"/>
<path d="M135.326 177.629C135.326 177.629 140.773 176.995 135.053 183.72C129.332 190.44 128.065 190.97 126.451 188.504C124.836 186.039 132.497 180.231 135.331 177.629H135.326Z" fill="#1D1F28"/>
<path d="M127.121 198.499C125.46 198.499 124.114 197.156 124.114 195.499C124.114 193.842 125.46 192.498 127.121 192.498C128.782 192.498 130.129 193.842 130.129 195.499C130.129 197.156 128.782 198.499 127.121 198.499Z" fill="#1D1F28"/>
<path d="M105.423 155.212L136.004 180.203L134.848 181.611L104.267 156.62L105.423 155.212Z" fill="#1D1F28"/>
<path d="M102.611 158.767L133.191 183.758L132.035 185.166L101.455 160.175L102.611 158.767Z" fill="#1D1F28"/>
<path d="M99.6188 162.537L130.199 187.528L129.043 188.937L98.4627 163.946L99.6188 162.537Z" fill="#1D1F28"/>
<path d="M23.9449 102.15C23.9449 102.15 28.5088 102.066 28.4246 106.173C28.3405 110.281 23.7556 119.099 18.6239 113.633C13.4921 108.167 23.9449 102.15 23.9449 102.15Z" fill="#FFBC50"/>
<path d="M21.9592 116.514C22.5901 116.514 23.1527 116.377 23.6312 116.194C27.1645 114.84 29.5096 109.368 29.5727 106.195C29.6042 104.731 29.1573 103.53 28.2477 102.622C26.6335 101.012 24.2096 101.001 23.9362 101.006H23.6417L23.3841 101.158C23.1159 101.311 16.8222 104.983 16.1387 109.563C15.8758 111.32 16.4384 112.952 17.8002 114.405C19.3039 116.01 20.7499 116.508 21.9539 116.508L21.9592 116.514ZM24.2464 103.304C24.7722 103.346 25.9237 103.519 26.6387 104.243C27.0962 104.705 27.3065 105.329 27.2907 106.153C27.2434 108.613 25.2927 113.119 22.811 114.069C22.4114 114.226 21.1863 114.688 19.4669 112.852C18.5889 111.918 18.2366 110.953 18.3943 109.904C18.7992 107.165 22.5218 104.359 24.2464 103.299V103.304Z" fill="#1D1F28"/>
<path d="M12.6402 93.2257C12.6402 93.2257 17.2041 93.1418 17.1199 97.2494C17.0358 101.357 12.4509 110.176 7.31917 104.709C2.18743 99.2429 12.6402 93.2257 12.6402 93.2257Z" fill="#FFBC50"/>
<path d="M10.6467 107.586C11.2776 107.586 11.8402 107.449 12.3187 107.266C15.852 105.912 18.1971 100.441 18.2602 97.2668C18.2917 95.8084 17.8448 94.6071 16.9352 93.6943C15.321 92.0785 12.8918 92.068 12.6237 92.0785H12.3292L12.0716 92.2306C11.8034 92.3828 5.5097 96.055 4.82617 100.635C4.56327 102.392 5.12586 104.024 6.49292 105.477C7.99669 107.082 9.44263 107.58 10.6467 107.58V107.586ZM12.9339 94.3763C13.4597 94.4182 14.6112 94.5913 15.3262 95.3153C15.7837 95.7769 15.994 96.4012 15.9782 97.2248C15.9309 99.6852 13.9855 104.192 11.4985 105.146C11.0936 105.298 9.87378 105.765 8.14918 103.929C7.27111 102.995 6.9188 102.03 7.07654 100.981C7.4814 98.2426 11.204 95.4359 12.9286 94.3763H12.9339Z" fill="#1D1F28"/>
<path d="M22.8651 101.225C22.8651 101.225 24.2058 105.249 20.9301 110.705C17.6545 116.161 15.4146 112.043 15.4146 112.043C15.4146 112.043 12.4438 113.805 11.5815 110.946C10.714 108.087 11.897 97.1596 15.8247 98.2455C18.1014 98.875 18.9006 99.6462 19.1687 100.187C19.2897 100.428 19.5841 100.512 19.8155 100.37C20.4043 100.013 21.4559 99.7983 22.8703 101.225H22.8651Z" fill="#FFBC50"/>
<path d="M17.58 114.672C19.0995 114.672 20.556 113.533 21.9072 111.288C25.4143 105.449 24.0104 101.048 23.9473 100.864L23.8632 100.612L23.6739 100.424C22.0597 98.7973 20.6611 98.8392 19.8146 99.1225C19.1258 98.2989 17.8902 97.6379 16.1235 97.15C14.9826 96.8405 13.8679 97.1658 12.9688 98.0786C10.3609 100.744 9.6931 108.665 10.4818 111.272C10.9077 112.673 11.7489 113.261 12.3799 113.507C13.3316 113.874 14.3253 113.691 15.0352 113.449C15.5504 114.016 16.3812 114.645 17.5116 114.666H17.58V114.672ZM21.8442 101.824C22.044 102.721 22.4804 105.911 19.9513 110.118C19.0943 111.545 18.2109 112.395 17.58 112.395C17.58 112.395 17.5747 112.395 17.5695 112.395C17.0332 112.39 16.5389 111.723 16.4075 111.493L15.8344 110.48L14.8248 111.068C14.5041 111.251 13.6839 111.577 13.2054 111.388C13.1213 111.356 12.8584 111.251 12.6638 110.622C12.0434 108.581 12.6849 101.625 14.5987 99.6734C14.9931 99.2694 15.2718 99.2747 15.5084 99.3428C17.7062 99.9514 18.0953 100.623 18.1321 100.696C18.3266 101.095 18.6841 101.394 19.1153 101.515C19.5464 101.641 20.0091 101.572 20.3982 101.342C20.8241 101.079 21.3867 101.42 21.8389 101.824H21.8442ZM20.1827 99.6786C20.1827 99.6786 20.1827 99.6786 20.1827 99.6838C20.1827 99.6838 20.1827 99.6838 20.1827 99.6786Z" fill="#1D1F28"/>
<path d="M19.168 100.188C19.168 100.188 17.8482 109.221 15.4191 112.044L19.168 100.188Z" fill="#BFF187"/>
<path d="M16.2759 112.789C18.847 109.804 20.151 101.311 20.293 100.356L18.0373 100.025C17.6798 102.449 16.3653 109.201 14.5513 111.304L16.2812 112.789H16.2759Z" fill="#1D1F28"/>
<path d="M20.4539 80.5516C20.4539 80.5516 24.8653 79.387 25.7644 83.4002C26.6635 87.4081 24.3132 97.0661 18.0248 92.9689C11.7363 88.877 20.4539 80.5516 20.4539 80.5516Z" fill="#FFBC50"/>
<path d="M20.8862 95.1064C21.9746 95.1064 22.8474 94.7182 23.4941 94.2723C26.6016 92.1215 27.5796 86.2512 26.8855 83.1508C26.5648 81.7238 25.8444 80.6641 24.7455 79.9979C22.7948 78.8123 20.434 79.3841 20.1711 79.4523L19.8872 79.5258L19.6769 79.7304C19.4508 79.9454 14.2139 85.0026 14.6398 89.6139C14.8028 91.3818 15.7387 92.8349 17.4107 93.9208C18.741 94.7864 19.903 95.1012 20.8862 95.1012V95.1064ZM21.8642 81.535C22.4005 81.535 23.0367 81.6242 23.573 81.9494C24.1251 82.2904 24.4826 82.8465 24.6614 83.6491C25.1977 86.0518 24.3827 90.8886 22.1954 92.4047C21.8432 92.6461 20.7653 93.3962 18.6568 92.0165C17.579 91.3188 17.0111 90.4637 16.9112 89.404C16.6536 86.6446 19.598 83.0353 21.0229 81.5979C21.2227 81.5665 21.5224 81.5297 21.8642 81.5297V81.535Z" fill="#1D1F28"/>
<path d="M130.433 8.20312C130.433 8.20312 122.215 26.3753 124.96 37.7067C124.96 37.7067 128.425 39.3225 130.433 37.7067C130.433 37.7067 131.196 18.1653 140.676 13.9318C140.676 13.9318 137.652 8.95331 130.433 8.20312Z" fill="#4B4B55"/>
<path d="M128.118 40.2471C129.28 40.2471 130.521 39.9743 131.578 39.1192L132.225 38.5999L132.256 37.771C132.461 32.6457 134.507 18.6703 141.421 15.5856L143.309 14.7462L142.236 12.9836C142.094 12.7475 138.65 7.2182 130.621 6.38933L129.312 6.25293L128.77 7.44902C128.423 8.21494 120.326 26.3242 123.187 38.1277L123.392 38.9776L124.186 39.3501C124.475 39.4865 126.189 40.2419 128.118 40.2419V40.2471ZM128.676 36.5539C128.04 36.6798 127.204 36.5382 126.536 36.3493C124.922 27.4101 129.885 14.2951 131.562 10.2137C134.675 10.8222 136.731 12.3121 137.903 13.4452C130.521 18.7804 128.975 32.546 128.676 36.5539Z" fill="#1D1F28"/>
<path d="M134.07 69.6773C134.07 69.6773 128.77 64.4156 124.117 71.4453" stroke="black" stroke-width="5.61" stroke-miterlimit="10" stroke-linecap="round"/>
<path d="M105.786 68.2334C105.786 68.2334 108.741 63.0346 113.395 70.0643" stroke="black" stroke-width="5.61" stroke-miterlimit="10" stroke-linecap="round"/>
<path d="M128.398 94.8936C128.398 94.8936 125.391 109.441 115.517 108.879C105.642 108.318 104.496 95.6543 104.496 95.6543C104.496 95.6543 107.298 88.142 128.398 94.8936Z" fill="#1D1F28"/>
<path d="M123.699 101.044C123.699 101.044 121.675 104.742 118.331 106.253C114.982 107.764 111.822 105.938 111.822 105.938C111.822 105.938 114.666 97.8489 123.699 101.044Z" fill="#F8736D"/>
</svg>
