<svg width="200" height="272" viewBox="0 0 200 272" fill="none" xmlns="http://www.w3.org/2000/svg">
<path d="M137.771 32.4586C137.771 32.4586 130.63 -0.456738 103.366 2.13571C103.366 2.13571 104.139 39.4378 137.771 32.4586Z" fill="#006A25"/>
<path d="M129.828 35.3127C132.454 35.3127 135.238 35.0098 138.172 34.3981L140.13 33.9903L139.706 32.0329C139.63 31.6891 131.85 -2.57196 103.18 0.154482L101.35 0.329253L101.391 2.17601C101.408 2.92753 101.908 20.6785 113.5 29.9472C117.974 33.5184 123.442 35.3127 129.828 35.3127ZM135.302 30.891C127.399 32.1377 120.903 30.7803 115.981 26.8538C107.887 20.3989 105.941 8.58431 105.481 3.99363C115.098 3.67322 123.024 8.17068 129.073 17.3287C132.542 22.5777 134.453 28.0481 135.296 30.8968L135.302 30.891Z" fill="#1D1F28"/>
<path d="M95.1648 108.717C95.1648 108.717 87.4948 122.221 75.6179 125.542C63.741 128.862 53.6886 121.44 53.6886 121.44C53.6886 121.44 28.0579 95.1837 22.0613 105.763C16.0648 116.349 54.8507 154.175 71.9339 153.534C89.0172 152.893 101.708 154.868 106.06 142.034C110.412 129.2 95.1648 108.717 95.1648 108.717Z" fill="#FFBC50"/>
<path d="M71.5116 154.786C71.6684 154.786 71.8311 154.786 71.988 154.775C74.4633 154.681 76.8341 154.646 79.1293 154.612C92.6041 154.396 103.243 154.233 107.241 142.436C111.75 129.136 96.7994 108.833 96.166 107.971L95.033 106.45L94.0975 108.099C94.0219 108.227 86.532 121.201 75.2943 124.341C64.6783 127.306 55.4161 121.125 54.5038 120.49C52.9698 118.929 34.9627 100.823 25.5262 102.069C23.5564 102.326 21.9876 103.392 20.994 105.145C19.3379 108.064 20.2851 112.503 23.8179 118.329C32.4583 132.59 57.5719 154.775 71.5116 154.78V154.786ZM95.2363 110.959C98.5484 115.841 108.339 131.507 104.899 141.638C101.46 151.774 92.5635 151.914 79.0944 152.13C76.7876 152.165 74.3994 152.206 71.9009 152.299C71.773 152.299 71.6452 152.305 71.5116 152.305C59.4313 152.305 34.9976 132.008 25.9388 117.047C22.9986 112.189 22.005 108.402 23.1497 106.38C23.7714 105.279 24.6314 104.697 25.8458 104.539C32.8128 103.642 47.688 117.059 52.8129 122.314L52.964 122.448C53.394 122.762 63.644 130.184 75.9567 126.741C85.7999 123.992 92.732 114.764 95.2305 110.965L95.2363 110.959Z" fill="#1D1F28"/>
<path d="M77.6543 268.2H54.4583C54.4583 259.141 66.5328 256.887 66.5328 256.887C67.2475 244.659 83.7555 211.924 83.7555 211.924C83.7555 211.924 87.1663 217.627 99.1537 221.816C93.4128 226.296 82.698 241.035 77.6602 268.206L77.6543 268.2Z" fill="#434449"/>
<path d="M83.7489 211.925C83.7489 211.925 67.2467 244.659 66.5262 256.888C66.5262 256.888 54.4517 259.142 54.4517 268.201H77.6477C82.6914 241.03 93.4062 226.291 99.1412 221.811C87.1597 217.622 83.7431 211.919 83.7431 211.919M83.6094 203.78L86.9912 209.944C88.0836 211.587 92.2498 215.379 100.396 218.222L106.974 220.523L101.477 224.811C96.6601 228.575 86.2533 242.626 81.3782 268.894L80.8029 272H50.6632V268.201C50.6632 263.115 53.493 258.723 58.6354 255.833C60.2333 254.936 61.808 254.313 63.0747 253.893C65.457 240.057 78.7517 213.404 80.3613 210.212L83.6036 203.78H83.6094Z" fill="#1D1F28"/>
<path d="M169.262 268.2H192.458C192.458 259.141 180.384 256.887 180.384 256.887C179.669 244.659 163.161 211.924 163.161 211.924C163.161 211.924 159.75 217.627 147.763 221.816C153.504 226.296 164.219 241.035 169.257 268.206L169.262 268.2Z" fill="#434449"/>
<path d="M163.168 211.925C163.168 211.925 159.757 217.628 147.769 221.817C153.51 226.297 164.225 241.03 169.263 268.207H192.459C192.459 259.148 180.384 256.894 180.384 256.894C179.67 244.665 163.162 211.931 163.162 211.931M163.377 203.658L166.549 210.212C168.159 213.405 181.454 240.057 183.836 253.893C185.108 254.313 186.683 254.936 188.275 255.833C193.418 258.723 196.247 263.115 196.247 268.201V272H166.108L165.532 268.895C163.388 257.348 159.896 246.757 155.422 238.269C150.715 229.338 146.59 225.709 145.433 224.806L139.937 220.518L146.514 218.217C154.661 215.368 158.827 211.581 159.919 209.938L163.371 203.646L163.377 203.658Z" fill="#1D1F28"/>
<path d="M120.203 221.457C112.94 221.824 106.502 221.754 100.807 221.375C72.8231 219.529 50.4464 196.616 50.3244 168.501C50.2953 161.335 52.5441 154.822 55.5888 148.571C79.2381 100.02 90.2027 105.659 94.9616 86.9293C97.9948 74.9866 96.8559 24.8387 138.501 30.5305C180.145 36.2222 176.357 88.9858 176.357 88.9858C176.357 129.218 198.013 138.615 198.013 176.902C198.013 177.129 198.013 177.35 198.013 177.572C197.903 202.453 182.388 226.228 157.577 226.718C143.149 227.003 120.203 221.463 120.203 221.463V221.457Z" fill="#FFBC50"/>
<path d="M156.48 228.705C156.869 228.705 157.247 228.705 157.624 228.693C169.792 228.454 180.803 222.699 188.636 212.492C195.905 203.014 199.943 190.611 200.001 177.573V176.891C200.001 157.561 194.51 145.234 189.205 133.309C183.871 121.331 178.363 108.951 178.351 89.0449C178.432 87.8331 179.147 75.0049 174.952 61.3028C169.135 42.3226 156.631 30.9973 138.781 28.5564C128.228 27.1174 119.396 29.0457 112.522 34.2947C98.8209 44.7635 95.9969 65.975 94.306 78.6518C93.8761 81.8909 93.5042 84.6814 93.0568 86.4291C91.1102 94.0958 88.1468 97.3232 83.2426 102.665C76.8974 109.575 67.3041 120.014 53.8234 147.692C51.4585 152.545 48.3208 159.985 48.3556 168.502C48.4777 197.328 71.4645 221.423 100.686 223.351C106.694 223.747 113.196 223.782 120.03 223.444C122.743 224.085 142.674 228.699 156.48 228.699V228.705ZM132.261 32.0693C134.173 32.0693 136.166 32.2091 138.24 32.4946C154.644 34.7375 165.713 44.7868 171.128 62.3689C175.254 75.7622 174.4 88.707 174.388 88.8351V88.975C174.388 109.767 180.077 122.554 185.585 134.922C190.96 146.999 196.038 158.406 196.038 176.891V177.555C195.905 207.703 176.102 224.359 157.543 224.72C143.505 224.982 120.901 219.576 120.675 219.524L120.396 219.46L120.111 219.471C113.33 219.809 106.886 219.786 100.948 219.395C73.7945 217.601 52.4289 195.242 52.3185 168.49C52.2952 162.56 53.8525 156.682 57.3795 149.44C70.6045 122.286 79.9596 112.097 86.1537 105.357C91.116 99.9565 94.6954 96.0532 96.8918 87.4137C97.3915 85.4387 97.7634 82.6774 98.2282 79.1819C99.8378 67.1168 102.528 46.9307 114.922 37.4581C119.611 33.8753 125.428 32.0693 132.267 32.0693H132.261Z" fill="#1D1F28"/>
<path d="M22.6303 120.613C22.7465 120.613 22.8627 120.596 22.9789 120.555C23.56 120.363 23.8795 119.728 23.6878 119.145L19.4286 106.27C19.2369 105.688 18.6035 105.368 18.0224 105.56C17.4414 105.752 17.1218 106.387 17.3135 106.97L21.5727 119.844C21.7296 120.31 22.1654 120.608 22.6303 120.608V120.613Z" fill="#1E1E28"/>
<path d="M103.924 174.395L32.8773 120.489C32.8773 120.489 29.5652 123.326 22.3426 118.584L18.5599 115.671C8.70505 107.032 13.7661 99.1788 3.48128 90.1198C-3.90984 83.6008 1.81366 79.7616 8.18791 80.1286C12.081 81.1598 16.8632 83.1697 18.0776 83.962C24.5913 88.2206 37.9557 96.9592 41.2039 99.1962C45.5444 102.185 41.8314 107.591 41.8314 107.591L110.333 155.793C107.422 134.861 113.587 130.294 125.754 142.248C137.928 154.203 146.539 165.452 171.106 170.556C195.674 175.659 200.183 183.331 196.406 194.901C192.629 206.471 168.858 210.071 161.53 210.386C154.197 210.701 162.466 249.028 151.71 248.912C140.955 248.801 124.499 215.14 118.973 207.514C113.453 199.888 88.1653 197.162 84.2315 189.099C80.2978 181.036 103.918 174.383 103.918 174.383L103.924 174.395Z" fill="#1D1F28"/>
<path d="M117.553 156.972C117.553 156.972 116.832 150.803 121.69 154.269C126.548 157.741 130.755 168.105 149.413 172.084C168.07 176.063 163.265 185.926 159.023 190.487C154.782 195.049 144.886 200.181 147.942 212.083C150.999 223.985 137.896 227.172 130.685 213.435C123.474 199.698 122.335 194.239 109.935 192.474C97.5353 190.715 89.412 190.458 89.6387 187.149C90.1442 179.768 107.727 179.826 110.935 176.378C118.128 168.653 123.515 164.499 117.553 156.966V156.972Z" fill="white"/>
<path d="M123.392 169.789C123.392 169.789 129.307 169.101 123.095 176.43C116.884 183.765 115.507 184.335 113.758 181.65C112.003 178.964 120.324 172.626 123.397 169.789H123.392Z" fill="#1D1F28"/>
<path d="M135.524 177.811C135.524 177.811 141.44 177.124 135.228 184.452C129.016 191.787 127.639 192.358 125.89 189.672C124.136 186.987 132.456 180.648 135.53 177.811H135.524Z" fill="#1D1F28"/>
<path d="M146.892 187.398C146.892 187.398 152.807 186.711 146.595 194.039C140.384 201.374 139.007 201.945 137.258 199.259C135.503 196.574 143.824 190.235 146.897 187.398H146.892Z" fill="#1D1F28"/>
<path d="M137.978 210.162C136.174 210.162 134.712 208.697 134.712 206.888C134.712 205.08 136.174 203.614 137.978 203.614C139.781 203.614 141.243 205.08 141.243 206.888C141.243 208.697 139.781 210.162 137.978 210.162Z" fill="#1D1F28"/>
<path d="M114.43 162.957L147.622 190.215L146.367 191.752L113.174 164.494L114.43 162.957Z" fill="#1D1F28"/>
<path d="M111.371 166.83L144.564 194.088L143.308 195.625L110.116 168.367L111.371 166.83Z" fill="#1D1F28"/>
<path d="M108.141 170.943L141.333 198.201L140.078 199.738L106.885 172.48L108.141 170.943Z" fill="#1D1F28"/>
<path d="M25.9961 105.067C25.9961 105.067 30.9467 104.973 30.8595 109.459C30.7724 113.939 25.7927 123.557 20.2203 117.598C14.6537 111.632 25.9961 105.072 25.9961 105.072V105.067Z" fill="#FFBC50"/>
<path d="M23.8272 120.735C24.5129 120.735 25.123 120.589 25.6401 120.385C29.4752 118.911 32.0202 112.94 32.0899 109.48C32.119 107.883 31.6367 106.573 30.6489 105.582C28.8941 103.823 26.2677 103.811 25.9655 103.823H25.6459L25.367 103.986C25.0765 104.155 18.2432 108.157 17.5053 113.156C17.2205 115.072 17.8306 116.849 19.3124 118.44C20.9451 120.187 22.514 120.729 23.8214 120.729L23.8272 120.735ZM26.3084 106.322C26.8778 106.369 28.1271 106.555 28.9057 107.347C29.3996 107.848 29.632 108.53 29.6146 109.433C29.5623 112.113 27.4472 117.036 24.7511 118.073C24.3153 118.241 22.9847 118.748 21.1195 116.75C20.1665 115.731 19.7888 114.676 19.9573 113.534C20.399 110.546 24.4373 107.487 26.3084 106.328V106.322Z" fill="#1D1F28"/>
<path d="M13.7265 95.3322C13.7265 95.3322 18.6772 95.239 18.59 99.7248C18.5029 104.205 13.5232 113.823 7.95076 107.863C2.38418 101.898 13.7265 95.338 13.7265 95.338V95.3322Z" fill="#FFBC50"/>
<path d="M11.5616 110.995C12.2472 110.995 12.8574 110.849 13.3745 110.645C17.2095 109.171 19.7546 103.2 19.8243 99.7395C19.8533 98.1491 19.3711 96.8383 18.3833 95.8421C16.6285 94.0827 13.9962 94.0653 13.6999 94.0827H13.3803L13.1014 94.2459C12.8109 94.4148 5.97758 98.4171 5.23382 103.416C4.9491 105.332 5.55921 107.109 7.04092 108.699C8.6737 110.447 10.2426 110.989 11.55 110.989L11.5616 110.995ZM14.0485 96.582C14.618 96.6286 15.8673 96.815 16.6459 97.6073C17.1398 98.1083 17.3722 98.7899 17.3548 99.6929C17.3025 102.379 15.1874 107.295 12.4913 108.332C12.0555 108.501 10.7249 109.008 8.85965 107.01C7.9067 105.991 7.52901 104.936 7.69752 103.794C8.13913 100.806 12.1775 97.7471 14.0485 96.5878V96.582Z" fill="#1D1F28"/>
<path d="M24.8111 104.059C24.8111 104.059 26.2696 108.445 22.7077 114.399C19.1516 120.353 16.7169 115.861 16.7169 115.861C16.7169 115.861 13.4921 117.784 12.5565 114.661C11.6152 111.545 12.8994 99.6252 17.1644 100.808C19.6339 101.495 20.4997 102.34 20.7902 102.928C20.9238 103.191 21.2434 103.278 21.4933 103.126C22.1325 102.736 23.2713 102.503 24.8111 104.059Z" fill="#FFBC50"/>
<path d="M19.0775 118.728C20.7277 118.728 22.3082 117.487 23.7725 115.04C27.5785 108.673 26.0561 103.872 25.9864 103.668L25.8934 103.394L25.69 103.191C23.941 101.42 22.4245 101.466 21.5006 101.769C20.7568 100.872 19.4145 100.15 17.497 99.6194C16.2594 99.2815 15.0508 99.6369 14.0746 100.633C11.2448 103.54 10.5185 112.18 11.3726 115.028C11.8317 116.561 12.7498 117.196 13.4354 117.464C14.4697 117.866 15.5505 117.667 16.3175 117.4C16.8811 118.017 17.7759 118.704 19.002 118.728H19.0717H19.0775ZM23.7028 104.711C23.9178 105.69 24.3943 109.168 21.6458 113.758C20.7161 115.314 19.7574 116.24 19.0717 116.24C19.0717 116.24 19.0659 116.24 19.0601 116.24C18.479 116.234 17.9444 115.512 17.7992 115.256L17.1775 114.149L16.0851 114.79C15.7364 114.988 14.8416 115.343 14.3244 115.139C14.2315 115.104 13.9467 114.988 13.7376 114.3C13.0693 112.069 13.7608 104.49 15.841 102.357C16.271 101.921 16.5673 101.926 16.8288 102.002C19.217 102.666 19.6412 103.394 19.6818 103.476C19.8968 103.907 20.2861 104.233 20.7452 104.367C21.2158 104.501 21.7156 104.431 22.1339 104.175C22.5988 103.89 23.2031 104.257 23.697 104.705L23.7028 104.711ZM21.9015 102.375C21.9015 102.375 21.9015 102.375 21.9015 102.381C21.9015 102.381 21.9015 102.381 21.9015 102.375Z" fill="#1D1F28"/>
<path d="M20.7943 102.927C20.7943 102.927 19.3591 112.784 16.721 115.86L20.7943 102.927Z" fill="#BFF187"/>
<path d="M17.6629 116.671C20.4578 113.414 21.8698 104.151 22.0208 103.108L19.5688 102.747C19.1853 105.392 17.7559 112.756 15.7802 115.051L17.6571 116.671H17.6629Z" fill="#1D1F28"/>
<path d="M22.1969 81.5044C22.1969 81.5044 26.9849 80.2343 27.9611 84.6095C28.9372 88.9846 26.3806 99.5117 19.5589 95.0492C12.7372 90.5808 22.1969 81.5044 22.1969 81.5044Z" fill="#FFBC50"/>
<path d="M22.668 97.3794C23.8534 97.3794 24.8005 96.96 25.4978 96.4706C28.8737 94.1228 29.9313 87.7204 29.1759 84.3415C28.8273 82.786 28.0486 81.6267 26.8516 80.8985C24.7308 79.6051 22.1741 80.2285 21.8836 80.3042L21.5756 80.3858L21.3432 80.6072C21.0991 80.8402 15.4105 86.3572 15.8754 91.3848C16.0555 93.3131 17.0666 94.8977 18.8853 96.0861C20.3321 97.0299 21.593 97.3736 22.6622 97.3736L22.668 97.3794ZM23.7255 82.5763C24.3066 82.5763 24.998 82.6695 25.5791 83.0248C26.1776 83.3977 26.5669 84.0036 26.7645 84.8832C27.3514 87.499 26.4623 92.7829 24.0916 94.4316C23.7081 94.6996 22.5402 95.5094 20.2508 94.0122C19.0828 93.249 18.4611 92.3169 18.3565 91.1634C18.0776 88.1573 21.2734 84.2191 22.8191 82.652C23.0399 82.617 23.3595 82.5763 23.7313 82.5763H23.7255Z" fill="#1D1F28"/>
<path d="M141.587 2.58984C141.587 2.58984 132.662 22.4148 135.643 34.7711C135.643 34.7711 139.402 36.5363 141.587 34.7711C141.587 34.7711 142.412 13.4548 152.708 8.83502C152.708 8.83502 149.425 3.40545 141.587 2.58984Z" fill="#4B4B55"/>
<path d="M139.075 37.5427C140.336 37.5427 141.684 37.2456 142.835 36.3135L143.532 35.7484L143.567 34.8454C143.788 29.2585 146.007 14.0126 153.515 10.6453L155.56 9.73068L154.398 7.80819C154.241 7.55185 150.505 1.52223 141.789 0.613417L140.365 0.467773L139.778 1.77274C139.401 2.60581 130.609 22.3667 133.712 35.2357L133.933 36.162L134.793 36.564C135.107 36.7096 136.966 37.5369 139.064 37.5369L139.075 37.5427ZM139.679 33.5113C138.988 33.6511 138.076 33.4938 137.355 33.2841C135.606 23.5318 140.987 9.22966 142.811 4.77298C146.193 5.43712 148.424 7.06249 149.691 8.29755C141.678 14.1174 139.999 29.1362 139.674 33.5055L139.679 33.5113Z" fill="#1D1F28"/>
<path d="M143.935 63.9433C143.935 63.9433 138.182 58.205 133.127 65.8716" stroke="black" stroke-width="3" stroke-miterlimit="10" stroke-linecap="round"/>
<path d="M123.81 70.5405C123.81 70.5405 122.38 62.5301 113.856 65.9032" stroke="black" stroke-width="3" stroke-miterlimit="10" stroke-linecap="round"/>
<path d="M130.618 78.682C130.618 78.682 133.099 88.2012 137.817 87.5604C143.105 86.8438 141.617 77.511 141.617 77.511C141.617 77.511 139.653 69.2618 134.11 70.8289C128.979 72.2795 130.618 78.6878 130.618 78.6878V78.682Z" fill="#1D1F28"/>
<path d="M112.81 75.8355C112.81 75.8355 110.306 85.3489 114.727 87.1083C119.684 89.089 122.967 80.2281 122.967 80.2281C122.967 80.2281 125.303 72.0779 119.707 70.7088C114.53 69.4388 112.816 75.8355 112.816 75.8355H112.81Z" fill="#1D1F28"/>
<path d="M107.786 91.6519C115.962 87.1777 121.912 87.1777 121.912 87.1777C121.912 87.1777 123.144 88.372 124.19 89.6537C125.317 88.3254 126.502 87.1777 126.502 87.1777C126.502 87.1777 133.33 87.1777 142.72 92.3102C152.11 97.4427 158.298 95.6716 158.298 95.6716C158.298 95.6716 149.338 104.078 142.4 103.437C135.521 102.802 125.927 93.9589 123.004 93.6093C119.408 95.6833 112.952 100.886 108.065 101.34C102.028 101.899 94.2186 94.5764 94.2186 94.5764C94.2186 94.5764 99.6051 96.1202 107.786 91.6519Z" fill="#1D1F28"/>
<path d="M127.349 101.365C127.349 101.365 123.003 100.293 121.225 101.365" stroke="black" stroke-width="3" stroke-miterlimit="10" stroke-linecap="round"/>
<path d="M182.759 124.909C182.759 124.909 191.115 155.215 180.685 169.528C162.405 194.608 155.769 192.488 154.961 195.057C154.16 197.62 142.259 210.716 139.389 213.507C136.815 216.006 131.911 214.124 134.229 210.244C134.386 209.982 134.101 209.673 133.822 209.802C132.794 210.262 132.102 210.332 132.102 210.332C130.592 209.755 130.412 208.916 130.481 208.363C130.51 208.147 130.353 207.955 130.138 207.949C129.656 207.926 128.825 207.594 127.622 206.126C127.163 205.566 127.181 204.908 127.518 204.226C127.651 203.958 127.361 203.679 127.094 203.807C125.205 204.739 123.299 205.269 121.632 204.104C117.576 201.284 130.673 193.513 134.502 189.091C138.331 184.669 142.945 184.92 146.379 182.654C176.437 162.84 168.297 135.57 166.85 132.168" fill="#FFBC50"/>
<path d="M182.759 124.909C182.759 124.909 191.115 155.215 180.685 169.528C162.405 194.608 155.769 192.488 154.961 195.057C154.16 197.62 142.259 210.716 139.389 213.507C136.815 216.006 131.911 214.124 134.229 210.244C134.386 209.982 134.101 209.673 133.822 209.802C132.794 210.262 132.102 210.332 132.102 210.332C130.592 209.755 130.412 208.916 130.481 208.363C130.51 208.147 130.353 207.955 130.138 207.949C129.656 207.926 128.825 207.594 127.622 206.126C127.163 205.566 127.181 204.908 127.518 204.226C127.651 203.958 127.361 203.679 127.094 203.807C125.205 204.739 123.299 205.269 121.632 204.104C117.576 201.284 130.673 193.513 134.502 189.091C138.331 184.669 142.945 184.92 146.379 182.654C176.437 162.84 168.297 135.57 166.85 132.168" stroke="black" stroke-width="3" stroke-miterlimit="10" stroke-linecap="round"/>
</svg>
