<svg width="572" height="12" viewBox="0 0 572 12" fill="none" xmlns="http://www.w3.org/2000/svg">
<path d="M211.463 9.14414C185.944 9.92314 158.006 10.7633 132.379 11.3873C129.234 11.4642 129.445 11.3572 128.562 11.368C128.389 11.3701 128.22 11.3728 128.056 11.3762L127.33 8.87644C129.168 7.82477 130.301 7.05052 131.717 6.23798C134.861 4.43329 137.917 2.67459 140.949 0.929L141.659 3.31449C136.907 3.49132 132.206 3.6674 127.376 3.8428C118.738 4.15618 122.811 3.73136 119.808 3.79358C113.94 3.91979 118.942 4.04109 116.641 4.20979C109.919 4.4606 103.137 4.69906 96.4029 4.93927C98.0454 4.84675 99.6881 4.75354 101.348 4.65991C98.4138 4.77326 94.2121 4.9052 99.1224 4.62499C98.0354 4.64984 97.0204 4.66869 95.9034 4.69637C95.6022 4.81244 90.4073 5.03578 89.935 5.11234C89.4636 5.18901 92.3841 5.05768 92.3663 5.06346C92.1761 5.14383 80.1887 5.52767 79.3244 5.55797C77.039 5.63154 79.0369 5.44279 77.0938 5.53039C73.7521 5.68312 75.9883 5.79269 71.451 5.70975C69.6552 5.87187 69.496 5.83253 67.2166 5.92237C66.9165 5.93417 67.1515 5.97208 67.0196 5.97877C63.5713 6.15496 66.2191 5.95954 66.2009 5.95497C65.8838 5.8875 62.1835 6.08095 61.4032 6.1062C51.6128 6.43206 44.4409 6.70779 34.115 7.1573C31.8829 7.25562 25.0855 7.57268 22.9252 7.66251C20.7947 7.75228 21.9367 7.68074 20.8214 7.72207C19.0367 7.85213 17.3316 7.92203 13.3185 8.08069C11.8257 8.16896 12.017 8.1428 9.15525 8.27373C6.77347 8.38519 2.62197 8.56717 0 8.67827C3.00605 8.5475 2.69478 8.56054 6.07854 8.40612C7.2049 8.35494 18.9512 7.82754 18.0756 7.8337C17.6189 7.83932 13.7269 8.03668 13.5763 8.04071C12.6999 8.06996 14.8716 7.94841 16.7975 7.86044C16.3177 7.88704 15.7397 7.91815 15.224 7.9459C19.5501 7.7601 16.5718 7.81771 19.8625 7.73516C20.2695 7.72574 20.1124 7.74328 20.783 7.72315C20.9205 7.7122 20.1002 7.73944 20.8062 7.70448C21.5262 7.66829 22.8948 7.62763 23.0978 7.59866C23.4012 7.55544 20.4181 7.70885 20.1936 7.71772C20.1912 7.71798 20.1888 7.71825 20.1864 7.71851C18.2008 7.80046 22.3463 7.59979 22.5441 7.58728C23.8256 7.50727 22.9506 7.53682 24.874 7.42494C25.9712 7.36062 28.7675 7.22501 29.799 7.16977C30.8239 7.11433 29.2282 7.17795 29.9178 7.13914C30.6074 7.09994 31.4668 7.06968 32.2763 7.02391C32.6227 7.00421 32.6041 6.98413 32.7718 6.97472C34.5703 6.87344 33.3924 6.9791 35.0236 6.89356C36.0805 6.8394 39.6255 6.60937 37.1799 6.72243C38.3549 6.65625 39.5007 6.59255 40.6697 6.52714C39.9319 6.55819 39.1697 6.59328 38.4498 6.62286C40.6505 6.51858 41.6439 6.42156 43.0226 6.34351C44.4017 6.2652 45.641 6.25835 47.1569 6.149C50.3925 5.91181 42.3747 6.37245 41.3787 6.41605C40.9905 6.43343 42.4783 6.30962 42.7077 6.29535C43.7265 6.23341 44.9336 6.1993 45.7191 6.15526C48.5314 5.99691 50.2514 5.85553 52.9312 5.69625C62.0566 5.15612 73.3769 4.48608 82.0234 3.98877C85.2434 3.80286 87.1851 3.7824 88.6303 3.70149C92.0114 3.51129 92.422 3.40911 95.371 3.2416C99.7603 2.99122 105.948 2.72825 109.613 2.54877C112.151 2.42416 114.443 2.20938 115.102 2.17086C123.689 1.67242 134.019 1.11239 141.537 0.70925L142.272 3.17649C141.834 3.43813 141.408 3.69313 140.994 3.94078C137.922 5.7778 136.4 6.54192 135.767 6.92347C133.047 8.56432 133.833 8.22111 131.616 9.53199C130.419 10.2403 130.142 10.2826 129.98 10.3744C129.389 10.71 129.006 10.9556 128.683 11.1752L127.968 8.70998C128.517 8.65595 128.937 8.59072 129.686 8.55893C137.036 8.24582 144.12 8.06852 151.4 7.80923C151.928 7.79042 151.884 7.85937 152.226 7.8431C153.694 7.77149 153.008 7.69093 154.543 7.62506C157.735 7.48756 161.014 7.38156 164.399 7.26883C164.735 7.25763 164.888 7.34181 165.655 7.3134C166.424 7.28495 167.003 7.17765 168.209 7.13743C171.361 7.03218 174.473 7.02156 177.811 6.90546C178.363 6.88614 179.043 6.74879 179.871 6.71946C182.47 6.6272 186.321 6.59006 188.548 6.51348C195.895 6.25949 202.67 5.94952 209.59 5.7018C211.216 5.64383 212.661 5.70389 213.507 5.67675C215.414 5.61516 213.972 5.56062 215.904 5.49179C231.689 4.93037 247.537 4.43283 263.509 3.88606C269.782 3.67143 277.413 3.30197 283.476 3.13363C284.19 3.11391 284.738 3.11087 285.199 3.11534C286.365 3.12669 286.964 3.18621 288.243 3.14521C291.423 3.04261 291.993 2.82707 295.347 2.69813C298.024 2.59558 301.098 2.692 303.883 2.58982C306.668 2.4877 307.947 2.25648 311.145 2.1315C313.78 2.02878 317.462 1.99746 320.331 1.89278C337.206 1.27655 353.917 0.706736 370.721 0.215779L377.517 2.71797e-05L371.74 3.57897C367.447 6.22426 363.142 8.86774 358.821 11.5126L357.877 8.29314C362.23 8.25761 366.594 8.22761 370.973 8.20324C380.312 8.14979 390.673 8.02699 400.326 8.08119C401.233 8.08616 399.848 8.24632 402.754 8.18549C404.315 8.15253 406.493 8.00684 410.102 7.9667C431.56 7.73685 454.452 7.75424 476.27 7.52519C508.95 7.05379 542.824 6.95693 571.227 6.87315C572.62 6.86149 571.865 6.8664 571.03 6.87909C570.256 6.88862 569.54 6.8959 568.729 6.90271C567.709 6.9271 567.889 6.92487 564.105 6.97277C561.776 7.00255 563.637 6.99048 562.396 7.01294C560.786 7.03924 553.231 7.19456 554.683 7.12977C554.215 7.14398 553.783 7.15787 553.326 7.17279C547.856 7.26878 542.542 7.37294 537.192 7.49099C536.268 7.51137 536.225 7.53782 535.271 7.55986C532.707 7.61965 530.672 7.63928 528.03 7.69063C526.595 7.71861 526.396 7.75959 524.516 7.79336C522.638 7.82747 522.678 7.77049 520.117 7.87961C521.787 7.91777 514.34 8.01292 511.692 8.06729C511.307 8.07453 508.156 8.21239 506.481 8.23828C504.8 8.26413 502.247 8.26115 499.648 8.34259C498.429 8.38098 497.69 8.46414 496.376 8.49544C495.451 8.51753 494.339 8.4774 493.168 8.49768C491.998 8.51784 489.466 8.62249 489.002 8.63317C487.327 8.67073 489.174 8.58629 488.029 8.60675C482.499 8.70635 476.073 8.80099 470.621 8.94332C469.951 8.96091 470.879 9.00816 470.79 9.01199C466.241 9.18414 468.669 9.04959 467.439 9.01372C466.248 8.9791 457.538 9.17459 457.476 9.30265C457.206 9.15117 455.271 9.30822 454.769 9.32324C452.812 9.3799 453.194 9.23269 451.297 9.31195C450.601 9.34122 451.958 9.41041 451.21 9.42218C449.36 9.45212 447.694 9.32819 445.232 9.35699C444.637 9.36399 444.445 9.43868 443.388 9.45618C442.33 9.47403 437.893 9.4669 439.942 9.58288C437.251 9.50985 436.71 9.58719 433.582 9.64235C432.789 9.65626 431.767 9.55209 430.081 9.62059C429.511 9.64391 429.53 9.76341 428.671 9.78052C426.708 9.82023 424.856 9.72801 422.364 9.76721C417.704 9.84018 412.746 10.023 407.887 10.0765C406.567 10.0908 406.894 9.95184 404.974 9.98231C404.692 9.98693 402.381 10.1439 401.054 10.1565C400.255 10.1643 396.115 10.1525 395.281 10.1597C393.9 10.1723 393.656 10.3117 392.9 10.2985C390.713 10.2602 392.463 10.0285 389.837 10.3487C388.97 10.2109 387.433 10.2521 386.938 10.0704C386.047 10.2933 384.884 10.1122 383.149 10.2107C381.415 10.309 379.998 10.7455 379.571 10.3095C378.761 10.3765 375.309 10.5272 374.727 10.5441C373.01 10.5923 373.926 10.4523 372.631 10.4906C372.403 10.4973 372.643 10.5787 371.179 10.5949C370.218 10.6056 363.178 10.7178 362.758 10.7126C357.96 10.6541 365.37 10.5825 366.406 10.4717C366.589 10.4935 366.771 10.5153 366.967 10.5364C369.087 10.5424 367.877 10.3671 366.916 10.3367C365.954 10.3063 364.16 10.4226 363.361 10.3704C362.962 10.3441 363.205 10.103 364.409 10.1134C363.12 10.06 364.878 9.95657 364.368 9.89578C363.807 9.82921 358.02 9.88913 357.991 10.0221C359.072 10.0108 360.417 9.98633 361.51 9.97558C362.542 10.1243 360.581 10.604 357.913 10.7721L355.253 10.8154L357.513 9.40663C358.365 8.81872 359.334 8.21685 360.324 7.70364C362.896 6.37072 358.951 9.04312 364.65 5.26744C363.753 5.81486 362.987 6.26623 362.171 6.76269C361.993 6.66818 363.409 6.0123 364.057 5.54287C364.369 5.31672 362.297 6.46201 364.017 5.34105C365.648 4.62047 366.668 3.68765 369.178 2.11866C368.504 2.5923 367.828 3.06612 367.154 3.53942C371.498 1.05146 361.664 7.24185 369.978 2.19043C368.988 2.81563 367.998 3.42892 367.005 4.0609C367.539 3.83847 366.907 4.55107 367.371 4.33053C368.384 3.84927 369.688 2.9913 370.9 2.22675L371.622 1.77986L370.773 1.8068C370.485 1.81819 370.202 1.82811 369.928 1.83477C369.214 1.85238 369.655 1.76385 369.595 1.76537C368.616 1.78882 368.836 1.89061 367.977 1.92554C366.898 1.96958 363.774 1.96462 363.269 1.99308C361.961 2.06679 364.147 2.21252 364.022 2.23263C363.191 2.36504 361.484 2.33419 361.578 2.46894C364.048 2.32983 369.325 2.1771 370.786 2.2032L370.691 1.88985C370.279 2.11769 370.201 2.13156 370.645 1.81488L370.789 2.29141C370.222 2.34639 368.981 2.42921 366.813 2.54797C369.768 2.66912 368.926 2.99939 364.69 3.17059C361.185 3.31175 363.443 3.11126 361.614 3.0386C361.377 3.02992 356.68 3.12439 356.443 3.22888C356.624 3.00083 355.09 2.85515 356.107 2.59193C356.256 2.55329 358.183 2.50299 357.505 2.34138C357.166 2.26017 356.195 2.09023 356.346 1.96743C355.953 2.06201 355.542 2.16757 355.142 2.26621C352.256 2.38414 351.843 2.30909 350.259 2.20604C350.333 2.26813 351.801 2.49049 349.583 2.48063C349.469 2.47941 349.368 2.38562 348.241 2.37387C345.963 2.35098 345.487 2.3354 347.224 1.99362C342.518 2.30776 341.493 2.01985 336.665 2.26806C337.637 2.60948 339.333 2.46167 343.754 2.24845C343.949 2.33006 344.042 2.41402 344.243 2.49623C338.349 2.48795 341.259 2.4131 337.929 2.70079C337.114 2.77127 332.759 2.86589 334.22 3.06974C334.565 3.11761 337.269 3.02201 336.962 3.12509C336.903 3.14471 333.617 3.29822 333.326 3.28371C329.679 3.10553 336.172 2.68521 326.159 3.12065C325.883 3.13285 325.789 3.24547 325.25 3.27837C324.237 3.34005 324.22 3.2135 323.315 3.27242C322.41 3.33138 321.16 3.54382 319.792 3.43014C317.292 3.22275 323.162 2.86604 325.785 2.93371C326.835 2.52445 308.136 3.11931 306.979 3.1905C301.925 3.49683 310.341 3.14094 310.778 3.23205C310.959 3.27072 310.888 3.83709 313.007 3.40191C313.633 3.27315 310.994 3.21616 312.564 3.10532C314.135 2.99458 313.517 3.18055 313.632 3.18841C314.024 3.21529 315.695 3.0995 315.913 3.11594C319.262 3.36314 318.973 3.91097 314.523 3.26063C312.602 3.50355 317.035 3.64518 314.644 3.84584C311.737 4.09023 309.604 3.90331 309.238 3.90365C304.847 3.91061 309.917 4.12005 304.555 4.17639C301.57 4.2076 309.012 3.77922 302.2 4.0277C296.498 4.23606 299.582 4.26614 299.177 4.57806C299.082 4.65107 295.96 4.83993 300.214 4.66864C300.331 4.58698 300.555 4.4771 300.823 4.39656C301.868 4.41894 303.621 4.74991 304.175 4.74506C306.884 4.71981 306.747 4.52288 308.351 4.70688C307.202 4.48548 309.063 4.58012 309.757 4.5023C312.336 4.21494 308.944 4.25289 314.755 4.31891C313.995 4.22292 313.307 4.12662 312.571 4.02998C313.267 4.00285 313.963 3.97561 314.659 3.94848C315.706 4.18106 319.403 4.0238 316.063 4.40345C320.093 4.34541 321.719 4.23273 322.594 3.99707C322.761 3.9521 323.365 3.91627 324.076 3.88888C323.94 3.83538 323.762 3.66192 323.873 3.63625C324.869 3.41014 326.434 3.69228 325.908 3.83692C326.406 3.82648 326.8 3.82053 326.939 3.819C327.82 3.8094 326.097 3.98185 326.812 3.99745C327.048 4.00239 329.53 3.8945 329.579 3.93949C329.888 4.22805 325.796 4.15052 334.005 4.04739C334.194 3.77005 330.386 3.95717 331.355 3.63601C332.395 3.29159 334.551 3.63534 335.007 3.24091C335.183 3.29744 335.262 3.34681 335.414 3.4127C338.728 3.13801 338.782 3.45113 339.798 3.48639C341.771 3.55553 350.822 3.23196 342.686 3.23322C343.874 3.16662 345.087 3.11379 346.268 3.05071C346.557 3.59978 345.829 3.40222 351.528 3.29473C352.783 3.27118 353.199 3.50009 354.42 3.16987C354.262 3.45847 357.966 3.16113 358.314 3.18365C360.542 3.32815 352.307 3.92508 351.233 3.45886C349.847 3.70204 349.844 3.44307 348.291 3.53009C346.048 3.6559 345.738 3.71787 343.066 3.61522C340.452 3.97661 353.339 3.38446 345.536 4.01094C338.441 4.58433 300.195 6.09826 285.315 6.65765C283.825 6.7144 282.569 6.76203 281.602 6.79885C262.367 7.52971 252.254 7.91588 234.972 8.43583C233.267 8.48815 220.398 8.90754 223.063 8.51352C223.445 8.45742 228.977 8.16517 224.221 8.06807C225.192 8.18288 222.403 8.36401 222.169 8.38634C216.808 8.89698 219.921 8.88571 211.463 9.14414ZM186.302 7.2724C197.342 6.9561 189.227 7.04051 191.505 6.51336C190.088 6.56296 188.677 6.61253 187.26 6.66235C187.633 6.67673 188.001 6.69126 188.374 6.70579C188.376 6.70573 188.378 6.70567 188.379 6.70562C187.689 6.8952 186.993 7.08429 186.302 7.2724ZM35.2793 6.75543C35.7089 6.71849 36.1335 6.68135 36.599 6.64182C38.0562 6.56593 39.5078 6.49084 40.9651 6.4161C40.7917 6.43628 40.6243 6.45613 40.4509 6.47605C38.7272 6.56854 37.0089 6.66095 35.2793 6.75543ZM327.326 2.81386C329.397 2.92307 329.2 2.615 331.948 2.66933C331.604 2.44899 331.223 2.23465 330.862 2.01672C328.775 2.11715 328.303 2.2206 326.033 2.23614C326.3 2.30243 326.572 2.36892 326.833 2.43576C327.21 2.40763 327.611 2.37655 327.977 2.35068C328.565 2.54053 324.942 2.68869 327.319 2.81458C327.321 2.81434 327.324 2.8141 327.326 2.81386ZM348.482 2.04023C349.594 2.03443 353.997 2.0037 354.594 1.89128C356.619 1.51112 344.213 2.10425 353.352 1.53358C353.308 1.49049 353.349 1.44567 353.347 1.40171C351.678 1.43824 350.014 1.47677 348.333 1.51682C348.429 1.69031 348.374 1.86629 348.482 2.04023ZM226.223 5.8777C227.93 5.84446 236.061 5.41575 233.402 5.30145C232.62 5.26857 228.998 5.68498 227.617 5.71925C226.722 5.7417 227.719 5.54803 225.956 5.66719C226.037 5.73463 226.088 5.81073 226.228 5.87706C226.226 5.87728 226.225 5.87749 226.223 5.8777ZM223.053 6.90908C224.817 6.82272 226.604 6.7278 228.38 6.63884C227.077 6.50008 224.53 6.70131 224.372 6.45179C224.857 6.41623 225.337 6.38093 225.823 6.3453C226.196 6.38858 226.565 6.43218 226.932 6.47581C228.453 6.28622 227.527 6.2479 230.367 6.19301C228.638 5.86279 228.312 5.6684 223.463 6.22246C224.375 5.98249 223.488 5.33323 220.809 5.91087C220.308 6.01792 222.415 6.00589 222.44 6.01947C222.769 6.18668 221.605 6.33986 221.958 6.49629C222.117 6.56712 223.401 6.523 223.597 6.62246C223.687 6.6712 222.47 6.85883 223.053 6.90908ZM219.506 6.12509C220.049 5.99872 218.174 5.80816 216.555 5.91618C214.031 6.08348 218.024 6.18731 219.506 6.12509ZM35.2697 6.756C35.2729 6.75581 35.2761 6.75562 35.2793 6.75543C35.2777 6.75557 35.2761 6.7557 35.2745 6.75584C35.2729 6.7559 35.2713 6.75595 35.2697 6.756ZM342.752 2.09791C344.057 1.96382 345.994 1.91584 345.846 1.77413C346.484 1.78278 347.128 1.79069 347.765 1.79922C347.758 1.75554 347.744 1.71196 347.737 1.66873C345.821 1.70167 343.911 1.73427 341.996 1.76663C342.24 1.87726 342.466 1.98882 342.752 2.09791ZM363.614 1.53578C366.022 1.47389 363.997 1.34425 364.523 1.23408C365.048 1.12416 367.194 1.13338 366.938 1.00769C365.521 1.04626 364.043 1.08673 362.608 1.12638C362.991 1.26099 363.26 1.40163 363.619 1.53562C363.618 1.53568 363.616 1.53573 363.614 1.53578ZM141.252 8.73119C142.885 8.70742 142.223 8.8578 145.441 8.59429C145.439 8.59438 145.437 8.59446 145.434 8.59455C142.364 8.60071 138.413 8.65712 135.032 8.87793C137.106 8.93127 138.682 8.76934 141.252 8.73119ZM321.602 2.53989C320.916 2.68545 324.13 2.68476 324.835 2.54771C325.975 2.32615 322.646 2.31893 321.602 2.53989ZM104.71 3.7717C102.237 4.09673 106.952 4.1272 111.873 3.80501C112.298 3.77619 109.115 3.84718 110.055 3.76189C110.15 3.75329 111.896 3.67991 112.326 3.62893C112.757 3.57778 112.3 3.52555 113.006 3.46207C114.246 3.35007 117.058 3.32148 117.984 3.2058C118.106 3.19005 116.36 3.17075 116.251 3.1724C114.46 3.19697 112.744 3.40756 112.468 3.42083C111.046 3.4916 111.256 3.3823 110.895 3.37613C110.215 3.36476 109.024 3.46538 108.94 3.46605C106.778 3.48399 111.709 3.27179 112.373 3.20345C114.162 3.01844 112.498 3.00981 116.796 2.73889C117.204 2.71386 122.092 2.4727 115.927 2.66793C128.011 1.80484 109.843 2.84729 107.872 2.99814C106.963 3.06782 108.345 3.0898 107.795 3.15943C106.54 3.31786 104.393 3.44002 104.591 3.56119C105.019 3.81642 107.83 3.50237 109.776 3.45662C109.575 3.5283 109.5 3.59242 109.125 3.6703C109.703 3.56129 104.889 3.74694 104.71 3.77116C104.71 3.77134 104.71 3.77152 104.71 3.7717ZM135.319 1.95337C138.041 1.92264 137.839 1.71755 140.334 1.71894C142.52 1.41545 138.191 1.64309 137.686 1.65767C135.38 1.72379 135.424 1.51568 133.07 1.69902C133.886 1.77845 134.551 1.86822 135.319 1.95337ZM111.68 3.03776C113.493 2.85406 110.241 3.0188 110.109 3.00819C108.664 2.89534 118.403 2.43524 111.68 3.03776ZM236.835 6.13282C237.76 6.11255 237.168 5.98381 237.982 5.91275C238.796 5.84116 241.591 5.87525 241.518 5.78499C241.443 5.69414 236.322 5.62633 241.452 5.40102C241.277 5.35479 241.334 5.31394 241.248 5.26971C239.838 5.31613 238.414 5.36216 237.004 5.40873C237.783 5.53177 238.582 5.66232 239.331 5.78206C238.542 5.92768 238.092 5.78988 238.05 5.79132C238.05 5.79148 238.05 5.79163 238.05 5.79179C236.574 5.85349 234.76 6.17861 236.835 6.13282ZM164.08 8.16415C163.815 8.49752 165.982 8.0605 166.875 7.98802C167.767 7.91621 169 7.99444 168.534 7.86957C167.084 7.82367 164.109 8.12747 164.08 8.16456C164.08 8.16442 164.08 8.16429 164.08 8.16415ZM134.47 6.69973C132.541 7.91817 132.89 7.79741 130.447 9.14597C130.574 9.14972 130.703 9.15467 130.83 9.15736C132.736 8.02829 132.503 7.93941 134.749 6.70072C135.117 6.49757 134.422 7.08972 136.028 6.07949C135.512 6.29036 134.984 6.49656 134.47 6.69973ZM132.032 9.21708C129.415 9.3228 127.358 9.9536 132.169 9.53478C132.883 9.47241 133.999 9.13846 132.032 9.21708ZM212.696 6.95562C217.148 6.82732 212.087 6.88211 210.925 6.81365C221.285 6.37782 209.756 6.88142 208.71 6.55994C207.447 6.70551 205.085 7.01714 207.719 6.99065C208.819 6.97957 208.414 6.88665 208.48 6.88487C210.504 6.84287 210.265 7.02572 212.696 6.95562ZM130.598 2.1966C130.765 2.18467 130.499 2.11322 131.032 2.06989C131.565 2.0265 132.778 2.02638 132.896 1.96803C133.012 1.90901 130.584 1.98983 129.841 2.06493C129.099 2.14026 129.082 2.30297 130.598 2.1966ZM136.426 5.26328C134.543 6.452 137.849 4.89444 138.264 4.64494C141.914 2.46359 136.373 5.42239 136.426 5.26328ZM202.383 8.04853C207.742 7.65191 203.803 7.38617 200.434 7.26864C199.992 7.33069 199.538 7.39308 199.102 7.45427C201.109 7.10131 204.634 6.69658 196.779 7.21396C201.085 7.13477 197.484 7.33388 197.457 7.35063C197 7.88899 203.367 7.43526 202.378 8.04868C202.379 8.04863 202.381 8.04858 202.383 8.04853ZM123.365 2.46532C121.031 2.58313 114.966 2.94106 117.804 2.95257C119.66 2.79256 121.509 2.63028 123.365 2.46532ZM290.236 5.15484C292.15 5.23311 293.909 5.17253 296.262 5.08537C294.137 4.95002 295.528 4.88035 296.241 4.80648C297.322 4.69498 294.697 4.78783 294.689 4.77423C294.731 4.57743 296.404 4.49197 292.593 4.62219C293.533 4.52312 294.461 4.42397 295.401 4.32544C292.496 4.41218 291.808 4.30731 289.96 4.21223C291.761 4.53379 289.398 4.37309 287.268 4.63282C286.204 4.76276 289.263 5.11466 290.244 5.1546C290.241 5.15468 290.239 5.15476 290.236 5.15484ZM207.931 7.94201C208.481 7.85991 208.984 7.75638 209.515 7.66525C210.097 7.63933 210.681 7.61422 211.263 7.58826C211.337 7.64317 211.399 7.70113 211.484 7.75349C212.252 7.74546 211.951 7.67528 212.178 7.66042C212.178 7.66073 212.178 7.66104 212.178 7.66135C215.445 7.44972 216.785 7.41709 219.353 7.51351C219.347 7.33597 219.341 7.15843 219.335 6.98089C218.76 7.01683 218.179 7.0525 217.603 7.08792C217.3 7.19317 216.996 7.2984 216.693 7.40339C216.025 7.37265 215.363 7.34222 214.695 7.31178C214.163 7.36334 213.522 7.4201 213.061 7.46827C210.386 7.06415 216.44 7.19929 216.487 6.99256C216.519 6.85923 210.433 7.06836 209.56 7.18742C209.434 7.20469 210.761 7.52563 208.529 7.40915C208.18 7.3903 208.031 6.61012 205.652 7.32502C205.312 7.42612 206.523 7.87302 207.931 7.94201ZM230.038 7.4922C226.599 7.08408 239.245 7.22534 233.782 6.97333C235.328 6.68356 235.04 6.69552 233.467 6.53487C233.329 6.52041 234.408 6.41895 234.316 6.41361C232.848 6.34497 231.085 6.46558 231.066 6.25375C230.671 6.27828 230.299 6.30076 229.903 6.32526C231.559 6.47019 228.94 6.69169 227.932 6.8929C227.472 6.98416 228.535 6.97296 228.148 7.05233C228.005 7.08135 226.521 7.08111 226.462 7.15275C226.341 7.31432 227.28 7.49706 228.862 7.56315C228.862 7.5633 228.862 7.56346 228.862 7.56362C229.258 7.5406 229.642 7.51571 230.038 7.4922ZM156.897 9.41683C156.307 9.18841 153.97 9.19688 158.45 8.92715C158.227 8.88575 157.997 8.84508 157.773 8.80388C157.017 8.83366 156.285 8.8626 155.517 8.89235C153.236 9.68957 149.002 9.01669 151.713 9.43574C152.009 9.48122 153.801 9.36214 152.035 9.56868C152.037 9.56873 152.04 9.56879 152.042 9.56885C154.513 9.44422 154.822 9.3464 156.897 9.41683ZM173.44 8.70745C179.125 7.9739 165.551 8.66777 167.825 8.73312C168.029 8.73969 173.876 8.42982 173.44 8.70745ZM128.019 9.38844C127.919 9.44688 127.823 9.50329 127.731 9.55772L128.03 10.586C130.266 10.5038 130.402 10.263 130.153 10.1836C129.92 10.1091 128.486 10.2205 128.018 10.2399L127.907 9.85611C127.955 9.82721 127.991 9.80611 128.013 9.79503C128.417 9.59103 128.082 9.81439 127.948 9.92556L128.016 10.1594C128.091 10.1446 128.121 10.1303 128.014 10.1185L127.968 9.96075C128.016 9.94131 128.09 9.90651 128.2 9.8514C128.487 9.70754 132.371 7.52339 132.541 7.41033C133.488 6.78461 131.957 7.44996 132.224 7.26534C133.097 6.66463 134.388 6.02856 134.598 5.78125C135.052 5.2508 132.866 6.81032 132.478 7.04303C131.308 7.74262 131.345 7.57002 130.45 8.0636C129.557 8.55678 129.005 8.93275 128.223 9.37993C127.963 9.52867 128.132 9.3236 128.019 9.38844ZM136.131 9.78775C133.468 10.07 139.976 10.0778 140.746 10.0081C143.01 9.795 137.407 9.64978 136.131 9.78775ZM221.446 6.99178C219.009 7.24811 224.703 7.20571 226.328 7.08146C226.023 7.01711 222.284 6.90307 221.446 6.99178ZM200.894 8.09542C203.137 7.96976 200.148 7.68036 198.275 7.74878C197.185 8.03651 198.217 7.95279 199.442 7.9234C200.665 7.89419 199.144 8.19308 200.894 8.09542ZM129.315 2.89373C129.799 2.87654 137.594 2.3674 133.109 2.51143C132.766 2.52282 127.306 2.80268 126.894 2.84849C126.063 2.94124 128.067 2.94193 129.315 2.89373ZM190.138 8.80654C191.319 8.55507 192.489 8.52001 191.388 8.30266C191.386 8.30271 191.385 8.30276 191.383 8.30281C194.388 8.12796 194.538 8.64326 195.186 8.61194C197.452 8.50146 195.292 8.19867 196.71 8.03104C193.407 8.25256 194.347 7.97219 191.831 8.03892C191.267 8.05415 189.014 8.2754 188.687 8.37747C188.36 8.47964 189.522 8.71781 190.138 8.80654ZM118.295 3.42837C120.931 3.36709 123.331 3.01702 119.677 3.14861C117.894 3.21377 116.685 3.46727 118.295 3.42837ZM352.325 3.20363C351.92 3.1215 351.503 3.04001 351.067 2.95944C352.039 2.90386 353.011 2.84785 353.982 2.792C353.215 2.84775 352.446 2.90317 351.673 2.95886C353.499 2.93152 354.339 3.07684 352.33 3.20347C352.328 3.20352 352.327 3.20357 352.325 3.20363ZM389.262 10.1175C390.08 10.1831 391.685 9.91139 391.481 9.8959C389.942 9.77757 388.127 10.0253 389.262 10.1175ZM225.083 7.74777C228.119 7.69162 226.017 7.28863 224.155 7.31727C225.296 7.37009 223.36 7.77976 225.083 7.74777ZM366.406 10.4717C366.133 10.4394 365.858 10.407 365.552 10.3749C366.513 10.4109 366.68 10.4424 366.406 10.4717ZM130.569 3.11972C131.033 3.12385 134.459 2.99547 134.92 2.94416C135.877 2.83607 133.198 2.77468 131.629 2.9005C131.455 2.91443 130.107 3.11558 130.576 3.11941C130.574 3.11951 130.571 3.11962 130.569 3.11972ZM356.436 3.24163C356.431 3.2374 356.434 3.23309 356.443 3.22888C356.44 3.23312 356.441 3.23734 356.436 3.24163ZM457.502 9.31535C457.484 9.31123 457.474 9.30697 457.476 9.30265C457.483 9.30671 457.498 9.31084 457.502 9.31535ZM129.821 7.8702C128.66 8.1481 126.48 9.62958 128.363 8.7313C128.468 8.68042 129.582 8.00899 129.821 7.8702Z" fill="#DE523E"/>
</svg>
