<svg width="225" height="226" viewBox="0 0 225 226" fill="none" xmlns="http://www.w3.org/2000/svg">
<g filter="url(#filter0_d_483_2231)">
<path d="M211.503 96.6133C247.039 143.573 267.212 200.911 267.212 200.911C267.212 200.911 218.615 158.685 193.446 135.646C168.276 112.608 151.164 99.1856 151.164 99.1856L121.81 172.325C121.81 172.325 67.4006 113.594 45.8206 82.8055C18.4916 43.8156 0.00117318 -8.00002 0.00117318 -8.00002C0.00117318 -8.00002 53.6437 39.337 73.7675 57.265C90.0234 71.7471 105.252 86.0694 105.252 86.0694L134.606 12.93C134.606 12.93 174.662 47.9299 211.503 96.6133Z" fill="white" fill-opacity="0.03" shape-rendering="crispEdges"/>
</g>
<defs>
<filter id="filter0_d_483_2231" x="0" y="-8" width="267.211" height="233.911" filterUnits="userSpaceOnUse" color-interpolation-filters="sRGB">
<feFlood flood-opacity="0" result="BackgroundImageFix"/>
<feColorMatrix in="SourceAlpha" type="matrix" values="0 0 0 0 0 0 0 0 0 0 0 0 0 0 0 0 0 0 127 0" result="hardAlpha"/>
<feOffset dy="25"/>
<feComposite in2="hardAlpha" operator="out"/>
<feColorMatrix type="matrix" values="0 0 0 0 1 0 0 0 0 1 0 0 0 0 1 0 0 0 0.01 0"/>
<feBlend mode="normal" in2="BackgroundImageFix" result="effect1_dropShadow_483_2231"/>
<feBlend mode="normal" in="SourceGraphic" in2="effect1_dropShadow_483_2231" result="shape"/>
</filter>
</defs>
</svg>
