<svg width="102" height="48" viewBox="0 0 102 48" fill="none" xmlns="http://www.w3.org/2000/svg">
<path d="M4.91319 39.5647H0.261986V37.01H12.9943V39.5647H8.32914V47.8104H4.91319V39.5647Z" fill="white"/>
<path d="M19.4832 47.8104H16.0963V37.01H24.8178C28.4223 37.01 29.5121 38.2589 29.5121 39.8112V39.9857C29.5121 41.5392 28.2186 42.1195 27.506 42.3521C28.6109 42.6719 29.5551 43.4404 29.5551 44.8347V46.4174C29.5551 47.2883 29.6563 47.5639 29.7589 47.7383V47.8104H26.3138C26.2126 47.6802 26.1543 47.5196 26.1543 47.1278V45.8789C26.1543 44.5579 25.5734 43.9777 23.9015 43.9777H19.4832V47.8104ZM19.4832 41.5835H24.6141C25.5873 41.5835 25.9797 41.1196 25.9797 40.5242V40.5103C25.9797 39.944 25.6012 39.4649 24.6141 39.4649H19.4832V41.5847V41.5835Z" fill="white"/>
<path d="M36.7717 45.8371L35.7985 47.8117H32.3534L37.8184 37.0113H42.2076L47.9929 47.8117H44.3453L43.3277 45.8371H36.7717ZM39.9839 39.3473L37.9779 43.3974H42.076L39.9827 39.3473H39.9839Z" fill="white"/>
<path d="M61.9908 37.01V39.4636H54.1856V41.0602H61.8022V43.5277H54.1856V47.8104H50.8139V37.01H61.9908Z" fill="white"/>
<path d="M76.5354 37.01V39.4636H68.7303V41.0602H76.3469V43.5277H68.7303V47.8104H65.3586V37.01H76.5354Z" fill="white"/>
<path d="M83.3142 47.8104H79.9273V37.01H83.3142V47.8104Z" fill="white"/>
<path d="M93.8898 48C87.6249 48 86.6517 44.501 86.6517 42.5846V42.1637C86.6517 40.2044 87.4946 36.8217 93.8898 36.8217H94.4859C100.751 36.8217 101.724 39.8125 101.724 41.0753V41.2346H98.1335C98.0462 40.9439 97.6108 39.4345 94.1796 39.4345C90.9384 39.4345 90.1967 40.8857 90.1967 42.2358V42.4102C90.1967 43.6882 91.0548 45.372 94.2088 45.372C97.712 45.372 98.0601 43.7021 98.1474 43.4556H101.738V43.6149C101.738 44.9788 100.662 47.9987 94.4847 47.9987H93.8885L93.8898 48Z" fill="white"/>
<path d="M9.14168 20.9535V33.9636H0V0H9.14168V11.5955H11.1072V0H20.2489V33.9636H11.1072V20.9535H9.14168Z" fill="white"/>
<path d="M22.103 0H37.7349V8.17107H31.0156V12.2339H36.5465V20.5882H31.0156V25.7015H37.9627V33.9636H22.103V0Z" fill="white"/>
<path d="M51.1342 33.9636L50.7228 29.7642H47.3866L46.9753 33.9636H39.1144L43.5479 0H55.0197L59.9556 33.9636H51.1342ZM49.0319 13.1933L48.1637 22.1405H49.9457L49.0319 13.1933Z" fill="white"/>
<path d="M63.6753 33.9636L58.328 0H68.0633L69.9377 19.9031L71.8121 0H80.7247L75.8343 33.9636H63.6753Z" fill="white"/>
<path d="M102 0L96.5616 21.7297V33.9636H87.4667V21.7297L81.5689 0H90.6181L92.2635 10.1797L93.7721 0H102Z" fill="white"/>
</svg>
