<svg width="98" height="66" viewBox="0 0 98 66" fill="none" xmlns="http://www.w3.org/2000/svg">
<g opacity="0.1" filter="url(#filter0_d_578_7771)">
<path d="M70.6794 65.9824C64.3471 65.6064 59.7841 63.2566 56.9905 58.933C54.1968 54.6094 52.8 49.7218 52.8 44.2702C52.8 37.6908 54.1037 31.3933 56.7111 25.3778C59.5048 19.1744 63.0434 13.8168 67.327 9.30522C71.6106 4.7936 76.2667 1.69186 81.2952 0L88 9.30522C85.5788 10.9971 83.1577 13.2529 80.7365 16.0726C78.5016 18.7044 76.4529 21.5242 74.5905 24.5319C72.9143 27.5397 71.7037 30.5474 70.9587 33.5551C74.3111 33.7431 77.1979 34.5891 79.619 36.0929C82.0402 37.4088 83.9026 39.1947 85.2064 41.4505C86.5101 43.7063 87.1619 46.432 87.1619 49.6278C87.1619 54.8913 85.5788 59.027 82.4127 62.0347C79.2466 64.8545 75.3354 66.1704 70.6794 65.9824ZM18.1587 65.9824C11.6402 65.7944 6.98413 63.5386 4.19048 59.215C1.39683 54.7033 0 49.7218 0 44.2702C0 37.6908 1.3037 31.3933 3.91111 25.3778C6.70476 19.1744 10.2434 13.8168 14.527 9.30522C18.8106 4.7936 23.4667 1.69186 28.4952 0L35.2 9.30522C32.7788 10.9971 30.3577 13.2529 27.9365 16.0726C25.7016 18.7044 23.6529 21.5242 21.7905 24.5319C20.1143 27.5397 18.9037 30.5474 18.1587 33.5551C21.5111 33.7431 24.3979 34.5891 26.819 36.0929C29.2402 37.4088 31.1026 39.1947 32.4063 41.4505C33.7101 43.7063 34.3619 46.432 34.3619 49.6278C34.3619 54.8913 32.6857 58.933 29.3333 61.7527C26.1672 64.5725 22.4423 65.9824 18.1587 65.9824Z" fill="white"/>
</g>
<defs>
<filter id="filter0_d_578_7771" x="0" y="0" width="98" height="66" filterUnits="userSpaceOnUse" color-interpolation-filters="sRGB">
<feFlood flood-opacity="0" result="BackgroundImageFix"/>
<feColorMatrix in="SourceAlpha" type="matrix" values="0 0 0 0 0 0 0 0 0 0 0 0 0 0 0 0 0 0 127 0" result="hardAlpha"/>
<feOffset dx="10"/>
<feComposite in2="hardAlpha" operator="out"/>
<feColorMatrix type="matrix" values="0 0 0 0 1 0 0 0 0 1 0 0 0 0 1 0 0 0 0.35 0"/>
<feBlend mode="normal" in2="BackgroundImageFix" result="effect1_dropShadow_578_7771"/>
<feBlend mode="normal" in="SourceGraphic" in2="effect1_dropShadow_578_7771" result="shape"/>
</filter>
</defs>
</svg>
