<svg width="11" height="10" viewBox="0 0 11 10" fill="none" xmlns="http://www.w3.org/2000/svg">
<path d="M4.55837 0.316453C4.72491 -0.105409 5.32196 -0.105409 5.48851 0.316453L6.15541 2.00573C6.25121 2.24838 6.51746 2.3766 6.7669 2.30021L8.50344 1.76837C8.93711 1.63555 9.30936 2.10234 9.08337 2.49558L8.17845 4.07024C8.04847 4.29642 8.11423 4.58453 8.32948 4.73192L9.828 5.75801C10.2022 6.01425 10.0694 6.59633 9.62103 6.66483L7.8257 6.93911C7.56782 6.97851 7.38356 7.20956 7.40254 7.46974L7.53463 9.28109C7.56761 9.73344 7.02969 9.99249 6.6966 9.68466L5.36279 8.45203C5.1712 8.27498 4.87568 8.27498 4.68409 8.45203L3.35027 9.68466C3.01718 9.99249 2.47926 9.73344 2.51225 9.28109L2.64434 7.46974C2.66331 7.20956 2.47906 6.97851 2.22117 6.93911L0.425847 6.66483C-0.0224975 6.59633 -0.155353 6.01425 0.218872 5.75801L1.7174 4.73192C1.93265 4.58453 1.99841 4.29642 1.86842 4.07024L0.9635 2.49558C0.737514 2.10234 1.10977 1.63555 1.54343 1.76837L3.27997 2.30021C3.52941 2.3766 3.79567 2.24838 3.89146 2.00573L4.55837 0.316453Z" fill="#DE523E"/>
</svg>
