<svg width="104" height="65" viewBox="0 0 104 65" fill="none" xmlns="http://www.w3.org/2000/svg">
<g clip-path="url(#clip0_261_7120)">
<path d="M94 0C94.867 0 95.7082 0.110536 96.5104 0.318013C96.813 0.396277 97 0.687444 97 1C97 4.3136 99.6864 6.99983 103 7C103.312 7 103.603 7.18562 103.681 7.48768C103.889 8.29045 104 9.13222 104 10V21.1846C104 22.774 102.721 24.0359 101.253 24.6434C98.1694 25.9188 96.0002 28.9558 96 32.5C96 36.0443 98.1693 39.0813 101.253 40.3566C102.721 40.9641 104 42.226 104 43.8154V55C104 55.8668 103.889 56.7076 103.681 57.5095C103.603 57.8126 103.311 58 102.998 58C99.6845 58.0002 96.998 60.6864 96.998 64C96.9981 64.312 96.8114 64.6026 96.5094 64.6808C95.7075 64.8885 94.8668 65 94 65H10C9.13222 65 8.29045 64.8889 7.48768 64.6809C7.18562 64.6026 7 64.312 7 64C7 60.6863 4.31371 58 1 58C0.687442 58 0.396277 57.813 0.318013 57.5104C0.110536 56.7082 0 55.867 0 55V43.8139C0 42.2247 1.27829 40.9629 2.74672 40.3554C5.82939 39.08 7.99805 36.0439 7.99805 32.5C7.99793 28.9562 5.82933 25.9194 2.74671 24.6438C1.27833 24.0361 0 22.7743 0 21.1851L0 10C0 9.13334 0.110251 8.29244 0.317488 7.49054C0.395982 7.18681 0.688243 7 1.00195 7C4.31561 6.99994 7.00195 4.31367 7.00195 1C7.00195 0.687424 7.188 0.396291 7.49062 0.318026C8.2925 0.11064 9.13331 0 10 0H94Z" fill="#DE523E"/>
<mask id="path-3-inside-1_261_7120" fill="white">
<path d="M91.387 4.99951C92.2107 4.99951 92.9351 5.51358 93.328 6.23755C94.3445 8.11054 95.8888 9.65428 97.762 10.6706C98.486 11.0634 99 11.7878 99 12.6115V18.8713C99 19.6604 98.5289 20.3642 97.8428 20.7538C93.7565 23.0745 91 27.4654 91 32.5005C91.0001 37.5353 93.7568 41.9248 97.8429 44.2452C98.529 44.6349 99 45.3386 99 46.1276V52.3878C99 53.2114 98.4861 53.9357 97.7623 54.3286C95.8901 55.3451 94.347 56.889 93.3309 58.7616C92.9381 59.4855 92.2137 59.9995 91.3901 59.9995H12.6119C11.7883 59.9995 11.0639 59.4855 10.6711 58.7615C9.65476 56.8884 8.11095 55.344 6.23799 54.3275C5.51404 53.9346 5 53.2103 5 52.3866V46.1274C5 45.3385 5.4709 44.6348 6.15685 44.2451C10.2421 41.9242 12.998 37.5339 12.998 32.4995C12.9979 27.4652 10.2422 23.0747 6.15689 20.7539C5.47093 20.3642 5 19.6605 5 18.8715L5 12.6127C5 11.7889 5.51416 11.0644 6.23828 10.6716C8.1119 9.65524 9.65639 8.111 10.673 6.23755C11.0658 5.51356 11.7902 4.99951 12.6139 4.99951H91.387Z"/>
</mask>
<path d="M91 32.5005H90V32.5005L91 32.5005ZM12.998 32.4995H13.998V32.4995L12.998 32.4995ZM6.15685 44.2451L6.65081 45.1146L6.15685 44.2451ZM6.23799 54.3275L6.71499 53.4486L6.23799 54.3275ZM10.6711 58.7615L11.55 58.2846L10.6711 58.7615ZM93.3309 58.7616L94.2099 59.2385L93.3309 58.7616ZM97.8429 44.2452L97.3491 45.1148L97.8429 44.2452ZM97.8428 20.7538L98.3367 21.6234L97.8428 20.7538ZM97.762 10.6706L97.2851 11.5496L97.762 10.6706ZM97.7623 54.3286L98.2395 55.2074L97.7623 54.3286ZM6.15689 20.7539L5.66293 21.6234L6.15689 20.7539ZM93.328 6.23755L92.4491 6.71453L93.328 6.23755ZM93.328 6.23755L92.4491 6.71453C93.5579 8.75768 95.2419 10.441 97.2851 11.5496L97.762 10.6706L98.2389 9.79162C96.5357 8.86755 95.1311 7.46341 94.2069 5.76057L93.328 6.23755ZM99 12.6115H98V18.8713H99H100V12.6115H99ZM97.8428 20.7538L97.349 19.8842C92.9626 22.3753 90 27.0911 90 32.5005H91H92C92 27.8397 94.5504 23.7736 98.3367 21.6234L97.8428 20.7538ZM91 32.5005L90 32.5005C90.0002 37.9097 92.9631 42.624 97.3491 45.1148L97.8429 44.2452L98.3367 43.3757C94.5506 41.2256 92.0001 37.1609 92 32.5005L91 32.5005ZM99 46.1276H98V52.3878H99H100V46.1276H99ZM97.7623 54.3286L97.2852 53.4498C95.2429 54.5586 93.5602 56.2422 92.452 58.2846L93.3309 58.7616L94.2099 59.2385C95.1337 57.5359 96.5374 56.1316 98.2395 55.2074L97.7623 54.3286ZM91.3901 59.9995V58.9995H12.6119V59.9995V60.9995H91.3901V59.9995ZM10.6711 58.7615L11.55 58.2846C10.4415 56.2415 8.75808 54.5575 6.71499 53.4486L6.23799 54.3275L5.76099 55.2064C7.46382 56.1306 8.86803 57.5352 9.79211 59.2384L10.6711 58.7615ZM5 52.3866H6V46.1274H5H4V52.3866H5ZM6.15685 44.2451L6.65081 45.1146C11.0361 42.6233 13.998 37.9081 13.998 32.4995H12.998H11.998C11.998 37.1596 9.44821 41.2251 5.66288 43.3757L6.15685 44.2451ZM12.998 32.4995L13.998 32.4995C13.9979 27.091 11.0361 22.3757 6.65085 19.8844L6.15689 20.7539L5.66293 21.6234C9.4482 23.7738 11.9979 27.8395 11.998 32.4995L12.998 32.4995ZM5 18.8715H6V12.6127H5H4V18.8715H5ZM6.23828 10.6716L6.71511 11.5506C8.75883 10.442 10.443 8.75806 11.5519 6.71449L10.673 6.23755L9.79405 5.7606C8.86976 7.46394 7.46496 8.86852 5.76146 9.79261L6.23828 10.6716ZM12.6139 4.99951V5.99951H91.387V4.99951V3.99951H12.6139V4.99951ZM10.673 6.23755L11.5519 6.71449C11.8042 6.24957 12.2237 5.99951 12.6139 5.99951V4.99951V3.99951C11.3567 3.99951 10.3275 4.77756 9.79405 5.7606L10.673 6.23755ZM5 46.1274H6C6 45.7502 6.22972 45.3539 6.65081 45.1146L6.15685 44.2451L5.66288 43.3757C4.71209 43.9158 4 44.9268 4 46.1274H5ZM6.23799 54.3275L6.71499 53.4486C6.25005 53.1963 6 52.7768 6 52.3866H5H4C4 53.6438 4.77803 54.673 5.76099 55.2064L6.23799 54.3275ZM12.6119 59.9995V58.9995C12.2217 58.9995 11.8023 58.7495 11.55 58.2846L10.6711 58.7615L9.79211 59.2384C10.3255 60.2215 11.3548 60.9995 12.6119 60.9995V59.9995ZM93.3309 58.7616L92.452 58.2846C92.1997 58.7495 91.7803 58.9995 91.3901 58.9995V59.9995V60.9995C92.6472 60.9995 93.6764 60.2216 94.2099 59.2385L93.3309 58.7616ZM97.8429 44.2452L97.3491 45.1148C97.7702 45.354 98 45.7504 98 46.1276H99H100C100 44.9269 99.2877 43.9158 98.3367 43.3757L97.8429 44.2452ZM99 18.8713H98C98 19.2486 97.7702 19.645 97.349 19.8842L97.8428 20.7538L98.3367 21.6234C99.2877 21.0833 100 20.0721 100 18.8713H99ZM5 12.6127H6C6 12.2224 6.25011 11.8028 6.71511 11.5506L6.23828 10.6716L5.76146 9.79261C4.77821 10.326 4 11.3553 4 12.6127H5ZM97.762 10.6706L97.2851 11.5496C97.75 11.8018 98 12.2212 98 12.6115H99H100C100 11.3543 99.222 10.325 98.2389 9.79162L97.762 10.6706ZM99 52.3878H98C98 52.778 97.75 53.1974 97.2852 53.4498L97.7623 54.3286L98.2395 55.2074C99.2222 54.6739 100 53.6448 100 52.3878H99ZM6.15689 20.7539L6.65085 19.8844C6.22973 19.6452 6 19.2488 6 18.8715H5H4C4 20.0722 4.71212 21.0832 5.66293 21.6234L6.15689 20.7539ZM93.328 6.23755L94.2069 5.76057C93.6735 4.77758 92.6442 3.99951 91.387 3.99951V4.99951V5.99951C91.7772 5.99951 92.1968 6.24958 92.4491 6.71453L93.328 6.23755Z" fill="#FF6A54" mask="url(#path-3-inside-1_261_7120)"/>
</g>
<defs>
<clipPath id="clip0_261_7120">
<rect width="104" height="65" rx="10" fill="white"/>
</clipPath>
</defs>
</svg>
