<svg width="104" height="65" viewBox="0 0 104 65" fill="none" xmlns="http://www.w3.org/2000/svg">
<g clip-path="url(#clip0_261_7263)">
<path d="M17 0C18.6569 0 19.9378 1.42357 20.7334 2.87691C21.7522 4.73798 23.7287 6 26 6C28.2713 6 30.2478 4.73798 31.2666 2.87691C32.0622 1.42357 33.3431 0 35 0H40.999C42.6559 0 43.9369 1.42357 44.7325 2.87691C45.7513 4.73794 47.7278 5.99996 49.999 6C52.2703 6 54.2468 4.73798 55.2656 2.87691C56.0612 1.42357 57.3422 0 58.999 0H64.998C66.6549 0 67.9359 1.42358 68.7315 2.8769C69.7503 4.73789 71.7269 5.99989 73.998 6C76.2693 6 78.2458 4.73798 79.2646 2.87691C80.0602 1.42357 81.3412 0 82.998 0L94 0C94.867 0 95.7082 0.110536 96.5104 0.318013C96.813 0.396277 97 0.687444 97 1C97 4.3136 99.6864 6.99983 103 7C103.312 7 103.603 7.18562 103.681 7.48768C103.889 8.29045 104 9.13222 104 10V21.1846C104 22.774 102.721 24.0359 101.253 24.6434C98.1694 25.9188 96.0002 28.9558 96 32.5C96 36.0443 98.1693 39.0813 101.253 40.3566C102.721 40.9641 104 42.226 104 43.8154V55C104 55.8668 103.889 56.7076 103.681 57.5095C103.603 57.8126 103.311 58 102.998 58C99.6845 58.0002 96.998 60.6864 96.998 64C96.9981 64.312 96.8114 64.6026 96.5094 64.6808C95.7075 64.8885 94.8668 65 94 65H83.0019C81.3451 65 80.0641 63.5765 79.2685 62.1231C78.2497 60.2621 76.2732 59 74.002 59C71.7307 59 69.7542 60.2621 68.7354 62.1231C67.9398 63.5765 66.6588 65 65.002 65H58.9989C57.3421 65 56.0611 63.5765 55.2655 62.1232C54.2467 60.2622 52.2702 59.0001 49.999 59C47.7278 59 45.7513 60.2621 44.7325 62.1232C43.9369 63.5765 42.656 65 40.9992 65H34.9999C33.3431 65 32.0621 63.5765 31.2665 62.1232C30.2476 60.2622 28.2711 59.0002 26 59C23.7287 59 21.7522 60.2621 20.7334 62.1232C19.9379 63.5765 18.6569 65 17.0001 65H10C9.13222 65 8.29045 64.8889 7.48768 64.6809C7.18562 64.6026 7 64.312 7 64C7 60.6863 4.31371 58 1 58C0.687442 58 0.396277 57.813 0.318013 57.5104C0.110536 56.7082 0 55.867 0 55V43.8139C0 42.2247 1.27829 40.9629 2.74672 40.3554C5.82939 39.08 7.99805 36.0439 7.99805 32.5C7.99793 28.9562 5.82933 25.9194 2.74671 24.6438C1.27833 24.0361 0 22.7743 0 21.1851L0 10C0 9.13334 0.110251 8.29244 0.317488 7.49054C0.395982 7.18681 0.688243 7 1.00195 7C4.31561 6.99994 7.00195 4.31367 7.00195 1C7.00195 0.687424 7.188 0.396291 7.49062 0.318026C8.2925 0.11064 9.13331 0 10 0H17Z" fill="#DE523E"/>
<mask id="path-3-inside-1_261_7263" fill="white">
<path d="M14.9785 4.99951C15.7296 4.99951 16.4047 5.42922 16.8187 6.05581C18.7867 9.03402 22.1631 10.9995 26 10.9995C29.8367 10.9994 33.2125 9.03389 35.1803 6.0558C35.5943 5.42921 36.2694 4.99951 37.0205 4.99951L38.9786 4.99951C39.7296 4.99951 40.4047 5.42921 40.8187 6.0558C42.7865 9.03399 46.1622 10.9995 49.999 10.9995C53.8359 10.9995 57.2115 9.034 59.1793 6.05583C59.5934 5.42922 60.2685 4.99951 61.0195 4.99951H62.9815C63.7325 4.99951 64.4076 5.42919 64.8216 6.05575C66.7895 9.03386 70.1652 10.9995 74.002 10.9995C77.8387 10.9995 81.2144 9.03386 83.1823 6.05576C83.5963 5.42919 84.2714 4.99951 85.0224 4.99951H91.387C92.2107 4.99951 92.9351 5.51358 93.328 6.23755C94.3445 8.11054 95.8888 9.65428 97.762 10.6706C98.486 11.0634 99 11.7878 99 12.6115V18.8713C99 19.6604 98.5289 20.3642 97.8428 20.7538C93.7565 23.0745 91 27.4654 91 32.5005C91.0001 37.5353 93.7568 41.9248 97.8429 44.2452C98.529 44.6349 99 45.3386 99 46.1276V52.3878C99 53.2114 98.4861 53.9357 97.7623 54.3286C95.8901 55.3451 94.347 56.889 93.3309 58.7616C92.9381 59.4855 92.2137 59.9995 91.3901 59.9995H85.0224C84.2714 59.9995 83.5963 59.5698 83.1823 58.9432C81.2145 55.965 77.8387 53.9996 74.002 53.9995C70.165 53.9995 66.7886 55.9649 64.8207 58.9432C64.4066 59.5698 63.7315 59.9995 62.9805 59.9995H61.0195C60.2685 59.9995 59.5934 59.5698 59.1793 58.9432C57.2113 55.9651 53.8349 53.9995 49.998 53.9995C46.1614 53.9997 42.7856 55.9652 40.8177 58.9432C40.4037 59.5698 39.7286 59.9995 38.9776 59.9995H37.0205C36.2694 59.9995 35.5944 59.5698 35.1803 58.9432C33.2123 55.965 29.8359 53.9995 25.999 53.9995C22.1623 53.9996 18.7866 55.9652 16.8187 58.9432C16.4047 59.5698 15.7296 59.9995 14.9786 59.9995H12.6119C11.7883 59.9995 11.0639 59.4855 10.6711 58.7615C9.65476 56.8884 8.11095 55.344 6.23799 54.3275C5.51404 53.9346 5 53.2103 5 52.3866V46.1274C5 45.3385 5.4709 44.6348 6.15685 44.2451C10.2421 41.9242 12.998 37.5339 12.998 32.4995C12.9979 27.4652 10.2422 23.0747 6.15689 20.7539C5.47093 20.3642 5 19.6605 5 18.8715V12.6127C5 11.7889 5.51416 11.0644 6.23828 10.6716C8.1119 9.65524 9.65639 8.111 10.673 6.23755C11.0658 5.51356 11.7902 4.99951 12.6139 4.99951H14.9785Z"/>
</mask>
<path d="M26 10.9995V11.9995H26L26 10.9995ZM49.999 10.9995V11.9995H49.999L49.999 10.9995ZM74.002 10.9995V11.9995V11.9995V10.9995ZM91 32.5005H90V32.5005L91 32.5005ZM74.002 53.9995L74.002 52.9995H74.002V53.9995ZM49.998 53.9995V52.9995H49.998L49.998 53.9995ZM25.999 53.9995V52.9995H25.999L25.999 53.9995ZM12.998 32.4995H13.998V32.4995L12.998 32.4995ZM6.15685 44.2451L5.66288 43.3757L6.15685 44.2451ZM16.8187 58.9432L17.653 59.4945L16.8187 58.9432ZM35.1803 58.9432L36.0146 58.3919L35.1803 58.9432ZM40.8177 58.9432L39.9834 58.3919L40.8177 58.9432ZM59.1793 58.9432L60.0136 58.3919L59.1793 58.9432ZM64.8207 58.9432L65.655 59.4945L64.8207 58.9432ZM83.1823 58.9432L84.0166 58.3919L83.1823 58.9432ZM93.3309 58.7616L94.2099 59.2385L93.3309 58.7616ZM97.762 10.6706L97.2851 11.5496L97.762 10.6706ZM99 12.6115H100H99ZM93.328 6.23755L92.4491 6.71453L93.328 6.23755ZM83.1823 6.05576L82.348 5.50446L83.1823 6.05576ZM6.15689 20.7539L5.66293 21.6234L6.15689 20.7539ZM64.8216 6.05575L63.9873 6.60705L64.8216 6.05575ZM99 52.3878H100H99ZM97.7623 54.3286L98.2395 55.2074L97.7623 54.3286ZM6.23799 54.3275L5.76099 55.2064L6.23799 54.3275ZM40.8187 6.0558L39.9844 6.60708L40.8187 6.0558ZM97.8429 44.2452L97.3491 45.1148L97.8429 44.2452ZM99 46.1276H98H99ZM10.6711 58.7615L9.79211 59.2384L10.6711 58.7615ZM59.1793 6.05583L60.0137 6.6071L59.1793 6.05583ZM99 18.8713H98H99ZM97.8428 20.7538L98.3367 21.6234L97.8428 20.7538ZM16.8187 6.05581L15.9844 6.60711L16.8187 6.05581ZM16.8187 6.05581L15.9844 6.60711C18.1295 9.8533 21.813 11.9995 26 11.9995V10.9995V9.99951C22.5132 9.99951 19.4439 8.21474 17.653 5.5045L16.8187 6.05581ZM26 10.9995L26 11.9995C30.1869 11.9994 33.8697 9.85311 36.0146 6.60709L35.1803 6.0558L34.346 5.50451C32.5552 8.21466 29.4865 9.9994 26 9.99951L26 10.9995ZM37.0205 4.99951V5.99951H38.9786V4.99951V3.99951H37.0205V4.99951ZM40.8187 6.0558L39.9844 6.60708C42.1293 9.8532 45.8119 11.9995 49.999 11.9995V10.9995V9.99951C46.5124 9.99951 43.4438 8.21478 41.653 5.50453L40.8187 6.0558ZM49.999 10.9995L49.999 11.9995C54.1861 11.9995 57.8688 9.85323 60.0137 6.6071L59.1793 6.05583L58.345 5.50455C56.5543 8.21478 53.4857 9.99946 49.999 9.99951L49.999 10.9995ZM61.0195 4.99951V5.99951H62.9815V4.99951V3.99951H61.0195V4.99951ZM64.8216 6.05575L63.9873 6.60705C66.1322 9.85305 69.8149 11.9995 74.002 11.9995V10.9995V9.99951C70.5154 9.99951 67.4468 8.21466 65.6559 5.50446L64.8216 6.05575ZM74.002 10.9995V11.9995C78.189 11.9995 81.8717 9.85305 84.0166 6.60705L83.1823 6.05576L82.348 5.50446C80.5571 8.21466 77.4885 9.99951 74.002 9.99951V10.9995ZM85.0224 4.99951V5.99951H91.387V4.99951V3.99951H85.0224V4.99951ZM93.328 6.23755L92.4491 6.71453C93.5579 8.75768 95.2419 10.441 97.2851 11.5496L97.762 10.6706L98.2389 9.79162C96.5357 8.86755 95.1311 7.46341 94.2069 5.76057L93.328 6.23755ZM99 12.6115H98V18.8713H99H100V12.6115H99ZM97.8428 20.7538L97.349 19.8842C92.9626 22.3753 90 27.0911 90 32.5005H91H92C92 27.8397 94.5504 23.7736 98.3367 21.6234L97.8428 20.7538ZM91 32.5005L90 32.5005C90.0002 37.9097 92.9631 42.624 97.3491 45.1148L97.8429 44.2452L98.3367 43.3757C94.5506 41.2256 92.0001 37.1609 92 32.5005L91 32.5005ZM99 46.1276H98V52.3878H99H100V46.1276H99ZM97.7623 54.3286L97.2852 53.4498C95.2429 54.5586 93.5602 56.2422 92.452 58.2846L93.3309 58.7616L94.2099 59.2385C95.1337 57.5359 96.5374 56.1316 98.2395 55.2074L97.7623 54.3286ZM91.3901 59.9995V58.9995H85.0224V59.9995V60.9995H91.3901V59.9995ZM83.1823 58.9432L84.0166 58.3919C81.8717 55.1458 78.1889 52.9997 74.002 52.9995L74.002 53.9995L74.0019 54.9995C77.4885 54.9996 80.5572 56.7843 82.348 59.4945L83.1823 58.9432ZM74.002 53.9995V52.9995C69.8149 52.9995 66.1314 55.1456 63.9864 58.3919L64.8207 58.9432L65.655 59.4945C67.4458 56.7842 70.5151 54.9995 74.002 54.9995V53.9995ZM62.9805 59.9995V58.9995H61.0195V59.9995V60.9995H62.9805V59.9995ZM59.1793 58.9432L60.0136 58.3919C57.8685 55.1458 54.185 52.9995 49.998 52.9995V53.9995V54.9995C53.4847 54.9995 56.5541 56.7843 58.345 59.4946L59.1793 58.9432ZM49.998 53.9995L49.998 52.9995C45.8112 52.9997 42.1283 55.146 39.9834 58.3919L40.8177 58.9432L41.652 59.4945C43.4429 56.7844 46.5116 54.9996 49.9981 54.9995L49.998 53.9995ZM38.9776 59.9995V58.9995H37.0205V59.9995V60.9995H38.9776V59.9995ZM35.1803 58.9432L36.0146 58.3919C33.8695 55.1457 30.186 52.9995 25.999 52.9995V53.9995V54.9995C29.4858 54.9995 32.5551 56.7843 34.346 59.4945L35.1803 58.9432ZM25.999 53.9995L25.999 52.9995C21.8121 52.9996 18.1293 55.146 15.9844 58.392L16.8187 58.9432L17.653 59.4945C19.4438 56.7844 22.5125 54.9996 25.999 54.9995L25.999 53.9995ZM14.9786 59.9995V58.9995H12.6119V59.9995V60.9995H14.9786V59.9995ZM10.6711 58.7615L11.55 58.2846C10.4415 56.2415 8.75808 54.5575 6.71499 53.4486L6.23799 54.3275L5.76099 55.2064C7.46382 56.1306 8.86803 57.5352 9.79211 59.2384L10.6711 58.7615ZM5 52.3866H6V46.1274H5H4V52.3866H5ZM6.15685 44.2451L6.65081 45.1146C11.0361 42.6233 13.998 37.9081 13.998 32.4995H12.998H11.998C11.998 37.1596 9.44821 41.2251 5.66288 43.3757L6.15685 44.2451ZM12.998 32.4995L13.998 32.4995C13.9979 27.091 11.0361 22.3757 6.65085 19.8844L6.15689 20.7539L5.66293 21.6234C9.4482 23.7738 11.9979 27.8395 11.998 32.4995L12.998 32.4995ZM5 18.8715H6V12.6127H5H4V18.8715H5ZM6.23828 10.6716L6.71511 11.5506C8.75883 10.442 10.443 8.75806 11.5519 6.71449L10.673 6.23755L9.79405 5.7606C8.86976 7.46394 7.46496 8.86852 5.76146 9.79261L6.23828 10.6716ZM12.6139 4.99951V5.99951H14.9785V4.99951V3.99951H12.6139V4.99951ZM10.673 6.23755L11.5519 6.71449C11.8042 6.24957 12.2237 5.99951 12.6139 5.99951V4.99951V3.99951C11.3567 3.99951 10.3275 4.77756 9.79405 5.7606L10.673 6.23755ZM5 12.6127H6C6 12.2224 6.25011 11.8028 6.71511 11.5506L6.23828 10.6716L5.76146 9.79261C4.77821 10.326 4 11.3553 4 12.6127H5ZM5 46.1274H6C6 45.7502 6.22972 45.3539 6.65081 45.1146L6.15685 44.2451L5.66288 43.3757C4.71209 43.9158 4 44.9268 4 46.1274H5ZM16.8187 58.9432L15.9844 58.392C15.7207 58.791 15.3353 58.9995 14.9786 58.9995V59.9995V60.9995C16.1239 60.9995 17.0886 60.3487 17.653 59.4945L16.8187 58.9432ZM37.0205 59.9995V58.9995C36.6638 58.9995 36.2783 58.791 36.0146 58.3919L35.1803 58.9432L34.346 59.4945C34.9104 60.3486 35.8751 60.9995 37.0205 60.9995V59.9995ZM40.8177 58.9432L39.9834 58.3919C39.7197 58.791 39.3343 58.9995 38.9776 58.9995V59.9995V60.9995C40.123 60.9995 41.0877 60.3487 41.652 59.4945L40.8177 58.9432ZM61.0195 59.9995V58.9995C60.6628 58.9995 60.2773 58.791 60.0136 58.3919L59.1793 58.9432L58.345 59.4946C58.9094 60.3486 59.8741 60.9995 61.0195 60.9995V59.9995ZM64.8207 58.9432L63.9864 58.3919C63.7226 58.791 63.3372 58.9995 62.9805 58.9995V59.9995V60.9995C64.1259 60.9995 65.0906 60.3486 65.655 59.4945L64.8207 58.9432ZM85.0224 59.9995V58.9995C84.6658 58.9995 84.2803 58.791 84.0166 58.3919L83.1823 58.9432L82.348 59.4945C82.9123 60.3486 83.8771 60.9995 85.0224 60.9995V59.9995ZM93.3309 58.7616L92.452 58.2846C92.1997 58.7495 91.7803 58.9995 91.3901 58.9995V59.9995V60.9995C92.6472 60.9995 93.6764 60.2216 94.2099 59.2385L93.3309 58.7616ZM97.762 10.6706L97.2851 11.5496C97.75 11.8018 98 12.2212 98 12.6115H99H100C100 11.3543 99.222 10.325 98.2389 9.79162L97.762 10.6706ZM91.387 4.99951V5.99951C91.7773 5.99951 92.1968 6.24957 92.4491 6.71453L93.328 6.23755L94.2069 5.76057C93.6735 4.77758 92.6442 3.99951 91.387 3.99951V4.99951ZM83.1823 6.05576L84.0166 6.60705C84.2803 6.20802 84.6657 5.99951 85.0224 5.99951V4.99951V3.99951C83.877 3.99951 82.9123 4.65035 82.348 5.50446L83.1823 6.05576ZM6.15689 20.7539L6.65085 19.8844C6.22973 19.6452 6 19.2488 6 18.8715H5H4C4 20.0722 4.71212 21.0832 5.66293 21.6234L6.15689 20.7539ZM62.9815 4.99951V5.99951C63.3382 5.99951 63.7237 6.20802 63.9873 6.60705L64.8216 6.05575L65.6559 5.50446C65.0916 4.65035 64.1269 3.99951 62.9815 3.99951V4.99951ZM99 52.3878H98C98 52.778 97.75 53.1974 97.2852 53.4498L97.7623 54.3286L98.2395 55.2074C99.2222 54.6739 100 53.6448 100 52.3878H99ZM6.23799 54.3275L6.71499 53.4486C6.25005 53.1963 6 52.7768 6 52.3866H5H4C4 53.6438 4.77803 54.673 5.76099 55.2064L6.23799 54.3275ZM38.9786 4.99951V5.99951C39.3352 5.99951 39.7207 6.20803 39.9844 6.60708L40.8187 6.0558L41.653 5.50453C41.0886 4.65039 40.1239 3.99951 38.9786 3.99951V4.99951ZM97.8429 44.2452L97.3491 45.1148C97.7702 45.354 98 45.7504 98 46.1276H99H100C100 44.9269 99.2877 43.9158 98.3367 43.3757L97.8429 44.2452ZM12.6119 59.9995V58.9995C12.2217 58.9995 11.8023 58.7495 11.55 58.2846L10.6711 58.7615L9.79211 59.2384C10.3255 60.2215 11.3548 60.9995 12.6119 60.9995V59.9995ZM35.1803 6.0558L36.0146 6.60709C36.2783 6.20803 36.6638 5.99951 37.0205 5.99951V4.99951V3.99951C35.8751 3.99951 34.9104 4.65039 34.346 5.50451L35.1803 6.0558ZM59.1793 6.05583L60.0137 6.6071C60.2774 6.20804 60.6628 5.99951 61.0195 5.99951V4.99951V3.99951C59.8741 3.99951 58.9094 4.6504 58.345 5.50455L59.1793 6.05583ZM99 18.8713H98C98 19.2486 97.7702 19.645 97.349 19.8842L97.8428 20.7538L98.3367 21.6234C99.2877 21.0833 100 20.0721 100 18.8713H99ZM16.8187 6.05581L17.653 5.5045C17.0886 4.6504 16.1239 3.99951 14.9785 3.99951V4.99951V5.99951C15.3352 5.99951 15.7207 6.20804 15.9844 6.60711L16.8187 6.05581Z" fill="#FF6A54" mask="url(#path-3-inside-1_261_7263)"/>
</g>
<defs>
<clipPath id="clip0_261_7263">
<rect width="104" height="65" rx="10" fill="white"/>
</clipPath>
</defs>
</svg>
