<svg width="104" height="65" viewBox="0 0 104 65" fill="none" xmlns="http://www.w3.org/2000/svg">
<g clip-path="url(#clip0_261_7066)">
<path d="M94 0C99.5229 5.15405e-07 104 4.47715 104 10V21.1852C104 22.7743 102.722 24.0361 101.253 24.6437C98.1707 25.9194 96.002 28.9561 96.002 32.5C96.002 36.0439 98.1706 39.08 101.253 40.3554C102.722 40.9629 104 42.2247 104 43.8138V55C104 60.5228 99.5229 65 94 65H10C4.47715 65 2.01337e-07 60.5228 0 55V43.8154C0 42.226 1.27864 40.9641 2.74732 40.3566C5.83065 39.0812 8 36.0443 8 32.5C8 28.9557 5.83066 25.9181 2.74731 24.6425C1.27866 24.0349 0 22.773 0 21.1836L0 10C0 4.47715 4.47715 9.66386e-08 10 0L94 0Z" fill="#DE523E"/>
<g opacity="0.5">
<mask id="path-3-inside-1_261_7066" fill="white">
<path d="M99 16.925C99 18.8974 97.7839 20.622 96.2262 21.8321C93.0469 24.302 91.0011 28.1619 91.001 32.4995C91.001 36.837 93.0471 40.6964 96.2264 43.166C97.784 44.376 99 46.1005 99 48.0729V54.9995C99 57.7609 96.7614 59.9995 94 59.9995H10C7.23858 59.9995 5 57.7609 5 54.9995V48.0732C5 46.1007 6.21617 44.376 7.77402 43.1661C10.9537 40.6966 13 36.8373 13 32.4995C12.9999 28.1616 10.9538 24.3017 7.77415 21.832C6.21628 20.622 5 18.8973 5 16.9247V9.99951C5 7.23809 7.23858 4.99951 10 4.99951H94C96.7614 4.99951 99 7.23809 99 9.99951V16.925Z"/>
</mask>
<path d="M91.001 32.4995L90.001 32.4995V32.4995H91.001ZM13 32.4995H14V32.4995L13 32.4995ZM99 54.9995H98H99ZM99 48.0729H98H99ZM7.77402 43.1661L8.38741 43.9559L7.77402 43.1661ZM96.2262 21.8321L95.6128 21.0424L96.2262 21.8321ZM96.2262 21.8321L95.6128 21.0424C92.2001 23.6935 90.0011 27.8401 90.001 32.4995L91.001 32.4995L92.001 32.4995C92.0011 28.4838 93.8938 24.9104 96.8397 22.6218L96.2262 21.8321ZM91.001 32.4995H90.001C90.001 37.159 92.2003 41.3049 95.6129 43.9558L96.2264 43.166L96.8398 42.3763C93.8938 40.0879 92.001 36.5151 92.001 32.4995H91.001ZM99 48.0729H98V54.9995H99H100V48.0729H99ZM94 59.9995V58.9995H10V59.9995V60.9995H94V59.9995ZM5 54.9995H6V48.0732H5H4V54.9995H5ZM7.77402 43.1661L8.38741 43.9559C11.8004 41.3051 14 37.1593 14 32.4995H13H12C12 36.5154 10.107 40.088 7.16063 42.3763L7.77402 43.1661ZM13 32.4995L14 32.4995C13.9999 27.8397 11.8006 23.6932 8.38757 21.0423L7.77415 21.832L7.16073 22.6218C10.107 24.9102 11.9999 28.4835 12 32.4995L13 32.4995ZM5 16.9247H6V9.99951H5H4V16.9247H5ZM10 4.99951V5.99951H94V4.99951V3.99951H10V4.99951ZM99 9.99951H98V16.925H99H100V9.99951H99ZM94 4.99951V5.99951C96.2091 5.99951 98 7.79037 98 9.99951H99H100C100 6.6858 97.3137 3.99951 94 3.99951V4.99951ZM5 9.99951H6C6 7.79037 7.79086 5.99951 10 5.99951V4.99951V3.99951C6.68629 3.99951 4 6.6858 4 9.99951H5ZM7.77415 21.832L8.38757 21.0423C6.96342 19.9361 6 18.4716 6 16.9247H5H4C4 19.323 5.46914 21.3079 7.16073 22.6218L7.77415 21.832ZM10 59.9995V58.9995C7.79086 58.9995 6 57.2087 6 54.9995H5H4C4 58.3132 6.68629 60.9995 10 60.9995V59.9995ZM99 54.9995H98C98 57.2087 96.2091 58.9995 94 58.9995V59.9995V60.9995C97.3137 60.9995 100 58.3132 100 54.9995H99ZM96.2264 43.166L95.6129 43.9558C97.0368 45.0618 98 46.5262 98 48.0729H99H100C100 45.6749 98.5312 43.6901 96.8398 42.3763L96.2264 43.166ZM5 48.0732H6C6 46.5264 6.96332 45.0619 8.38741 43.9559L7.77402 43.1661L7.16063 42.3763C5.46901 43.6901 4 45.675 4 48.0732H5ZM96.2262 21.8321L96.8397 22.6218C98.5311 21.3079 100 19.3231 100 16.925H99H98C98 18.4718 97.0367 19.9362 95.6128 21.0424L96.2262 21.8321Z" fill="#FF6A54" mask="url(#path-3-inside-1_261_7066)"/>
</g>
</g>
<defs>
<clipPath id="clip0_261_7066">
<rect width="104" height="65" rx="10" fill="white"/>
</clipPath>
</defs>
</svg>
