<svg width="104" height="65" viewBox="0 0 104 65" fill="none" xmlns="http://www.w3.org/2000/svg">
<g clip-path="url(#clip0_261_7186)">
<path d="M41.001 0C42.6578 0 43.9388 1.42357 44.7344 2.87691C45.7532 4.73798 47.7297 6 50.001 6C53.2111 5.99979 55.8327 3.47887 55.9932 0.308594C55.9975 0.136913 56.1379 0 56.3097 0H94C94.867 0 95.7082 0.110536 96.5104 0.318013C96.813 0.396277 97 0.687444 97 1C97 4.3136 99.6864 6.99983 103 7C103.312 7 103.603 7.18562 103.681 7.48768C103.889 8.29045 104 9.13222 104 10V21.1861C104 22.7753 102.722 24.0371 101.253 24.6447C98.1706 25.9203 96.002 28.9571 96.002 32.501C96.0021 36.0447 98.1707 39.0809 101.253 40.3563C102.722 40.9639 104 42.2257 104 43.8148V55C104 55.8668 103.889 56.7076 103.681 57.5095C103.603 57.8126 103.311 58 102.998 58C99.6845 58.0002 96.998 60.6864 96.998 64C96.9981 64.312 96.8114 64.6026 96.5094 64.6808C95.7075 64.8885 94.8668 65 94 65H59.0008C57.344 65 56.063 63.5766 55.2675 62.1233C54.2487 60.2622 52.2722 59 50.001 59C47.7297 59 45.7532 60.2622 44.7344 62.1233C43.9389 63.5766 42.6579 65 41.0012 65H10C9.13222 65 8.29045 64.8889 7.48768 64.6809C7.18562 64.6026 7 64.312 7 64C6.9999 60.6865 4.31353 58.0001 1 58C0.687439 58 0.396278 57.813 0.318013 57.5104C0.110536 56.7082 0 55.867 0 55L0 43.8154C0 42.226 1.27866 40.9641 2.74739 40.3567C5.83059 39.0815 7.99983 36.0451 8 32.501C8 28.9566 5.83071 25.919 2.74736 24.6435C1.27869 24.0359 0 22.7739 0 21.1846V10C0 9.13334 0.110251 8.29244 0.317488 7.49054C0.395982 7.18681 0.688242 7 1.00195 7C4.31556 6.99988 7.00195 4.31364 7.00195 1C7.00194 0.687426 7.188 0.39629 7.49062 0.318026C8.2925 0.11064 9.13331 0 10 0H41.001Z" fill="#DE523E"/>
<mask id="path-3-inside-1_261_7186" fill="white">
<path d="M38.3678 4.99951C39.4943 4.99951 40.4988 5.65255 41.1709 6.55659C43.1751 9.2523 46.3826 10.9995 50 10.9995C53.6174 10.9995 56.8249 9.2523 58.8291 6.55659C59.5012 5.65255 60.5057 4.99951 61.6322 4.99951H90.7041C91.9397 4.99951 93.0165 5.78005 93.6722 6.82729C94.5582 8.24226 95.757 9.44074 97.1722 10.3265C98.2195 10.982 99 12.0588 99 13.2944V18.223C99 19.4064 98.2869 20.4543 97.2871 21.0876C93.5092 23.4806 91.001 27.6977 91.001 32.5005C91.001 37.3032 93.5094 41.5196 97.2871 43.9125C98.2869 44.5457 99 45.5935 99 46.777V51.705C99 52.9403 98.2197 54.0171 97.1727 54.6727C95.7581 55.5586 94.5597 56.757 93.6741 58.1717C93.0185 59.219 91.9416 59.9995 90.7061 59.9995H61.6332C60.5067 59.9995 59.5022 59.3465 58.83 58.4424C56.8258 55.7468 53.6183 53.9996 50.001 53.9995C46.3835 53.9995 43.1754 55.7467 41.171 58.4424C40.4988 59.3464 39.4943 59.9995 38.3677 59.9995H13.2948C12.0593 59.9995 10.9825 59.219 10.3268 58.1718C9.44106 56.757 8.2425 55.5584 6.82762 54.6727C5.78042 54.0171 5 52.9402 5 51.7047V46.7771C5 45.5936 5.71319 44.5457 6.71305 43.9125C10.4912 41.5198 12.9999 37.3034 13 32.5005C13 27.6974 10.4913 23.4804 6.71308 21.0875C5.71321 20.4543 5 19.4064 5 18.2228V13.2957C5 12.06 5.78068 10.983 6.82816 10.3275C8.2437 9.44158 9.44276 8.2427 10.3288 6.8273C10.9844 5.78002 12.0613 4.99951 13.2969 4.99951L38.3678 4.99951Z"/>
</mask>
<path d="M91.001 32.5005H90.001V32.5005L91.001 32.5005ZM50.001 53.9995L50.001 52.9995H50.001V53.9995ZM13 32.5005L14 32.5005V32.5005H13ZM6.71305 43.9125L6.17802 43.0677L6.71305 43.9125ZM6.82762 54.6727L6.29699 55.5203L6.82762 54.6727ZM58.83 58.4424L59.6325 57.8458L58.83 58.4424ZM93.6741 58.1717L92.8265 57.6411L93.6741 58.1717ZM97.1727 54.6727L96.642 53.8252L97.1727 54.6727ZM97.2871 43.9125L96.752 44.7573L97.2871 43.9125ZM97.1722 10.3265L96.6417 11.1741L97.1722 10.3265ZM93.6722 6.82729L94.5198 6.29661L93.6722 6.82729ZM10.3268 58.1718L11.1744 57.6412L10.3268 58.1718ZM97.2871 21.0876L97.8222 21.9323L97.2871 21.0876ZM41.1709 6.55659L40.3684 7.15324L41.1709 6.55659ZM41.1709 6.55659L40.3684 7.15324C42.553 10.0915 46.0527 11.9995 50 11.9995V10.9995V9.99951C46.7125 9.99951 43.7973 8.41308 41.9734 5.95994L41.1709 6.55659ZM50 10.9995V11.9995C53.9473 11.9995 57.447 10.0915 59.6316 7.15324L58.8291 6.55659L58.0266 5.95994C56.2027 8.41308 53.2875 9.99951 50 9.99951V10.9995ZM61.6322 4.99951V5.99951H90.7041V4.99951V3.99951H61.6322V4.99951ZM93.6722 6.82729L92.8247 7.35796C93.7909 8.90129 95.0982 10.2081 96.6417 11.1741L97.1722 10.3265L97.7028 9.47881C96.4158 8.67335 95.3254 7.58324 94.5198 6.29661L93.6722 6.82729ZM99 13.2944H98V18.223H99H100V13.2944H99ZM97.2871 21.0876L96.752 20.2428C92.6969 22.8114 90.001 27.3408 90.001 32.5005H91.001H92.001C92.001 28.0545 94.3216 24.1497 97.8222 21.9323L97.2871 21.0876ZM91.001 32.5005L90.001 32.5005C90.001 37.6601 92.6971 42.1888 96.752 44.7573L97.2871 43.9125L97.8222 43.0677C94.3216 40.8504 92.001 36.9462 92.001 32.5005L91.001 32.5005ZM99 46.777H98V51.705H99H100V46.777H99ZM97.1727 54.6727L96.642 53.8252C95.0991 54.7913 93.7924 56.0981 92.8265 57.6411L93.6741 58.1717L94.5217 58.7024C95.3271 57.4159 96.4171 56.3258 97.7034 55.5203L97.1727 54.6727ZM90.7061 59.9995V58.9995H61.6332V59.9995V60.9995H90.7061V59.9995ZM58.83 58.4424L59.6325 57.8458C57.448 54.9075 53.9482 52.9997 50.001 52.9995L50.001 53.9995L50.0009 54.9995C53.2883 54.9996 56.2037 56.586 58.0275 59.0391L58.83 58.4424ZM50.001 53.9995V52.9995C46.0537 52.9995 42.5533 54.9074 40.3685 57.8457L41.171 58.4424L41.9734 59.0391C43.7974 56.5859 46.7134 54.9995 50.001 54.9995V53.9995ZM38.3677 59.9995V58.9995H13.2948V59.9995V60.9995H38.3677V59.9995ZM10.3268 58.1718L11.1744 57.6412C10.2083 56.098 8.90141 54.7911 7.35826 53.8251L6.82762 54.6727L6.29699 55.5203C7.5836 56.3257 8.67378 57.4159 9.47924 58.7025L10.3268 58.1718ZM5 51.7047H6V46.7771H5H4V51.7047H5ZM6.71305 43.9125L7.24809 44.7573C11.3034 42.1891 13.9999 37.6604 14 32.5005L13 32.5005L12 32.5005C11.9999 36.9464 9.67897 40.8505 6.17802 43.0677L6.71305 43.9125ZM13 32.5005H14C14 27.3405 11.3036 22.8111 7.24813 20.2427L6.71308 21.0875L6.17803 21.9323C9.67905 24.1496 12 28.0543 12 32.5005H13ZM5 18.2228H6V13.2957H5H4V18.2228H5ZM6.82816 10.3275L7.35867 11.1751C8.90254 10.209 10.21 8.90166 11.1764 7.35791L10.3288 6.8273L9.48121 6.29668C8.67549 7.58375 7.58486 8.67422 6.29766 9.47978L6.82816 10.3275ZM13.2969 4.99951V5.99951H38.3678V4.99951V3.99951H13.2969V4.99951ZM10.3288 6.8273L11.1764 7.35791C11.7066 6.51095 12.5017 5.99951 13.2969 5.99951V4.99951V3.99951C11.6209 3.99951 10.2622 5.0491 9.48121 6.29668L10.3288 6.8273ZM5 13.2957H6C6 12.5004 6.51155 11.7053 7.35867 11.1751L6.82816 10.3275L6.29766 9.47978C5.04982 10.2607 4 11.6195 4 13.2957H5ZM6.71308 21.0875L7.24813 20.2427C6.46781 19.7485 6 18.9884 6 18.2228H5H4C4 19.8244 4.95862 21.16 6.17803 21.9323L6.71308 21.0875ZM5 46.7771H6C6 46.0116 6.46779 45.2515 7.24809 44.7573L6.71305 43.9125L6.17802 43.0677C4.95859 43.84 4 45.1756 4 46.7771H5ZM6.82762 54.6727L7.35826 53.8251C6.51138 53.2949 6 52.4999 6 51.7047H5H4C4 53.3806 5.04947 54.7393 6.29699 55.5203L6.82762 54.6727ZM41.171 58.4424L40.3685 57.8457C39.8282 58.5724 39.0937 58.9995 38.3677 58.9995V59.9995V60.9995C39.8949 60.9995 41.1693 60.1205 41.9734 59.0391L41.171 58.4424ZM61.6332 59.9995V58.9995C60.9073 58.9995 60.1728 58.5724 59.6325 57.8458L58.83 58.4424L58.0275 59.0391C58.8316 60.1205 60.1061 60.9995 61.6332 60.9995V59.9995ZM93.6741 58.1717L92.8265 57.6411C92.2963 58.4881 91.5012 58.9995 90.7061 58.9995V59.9995V60.9995C92.382 60.9995 93.7407 59.9499 94.5217 58.7024L93.6741 58.1717ZM99 51.705H98C98 52.5 97.4887 53.295 96.642 53.8252L97.1727 54.6727L97.7034 55.5203C98.9507 54.7393 100 53.3807 100 51.705H99ZM97.2871 43.9125L96.752 44.7573C97.5323 45.2514 98 46.0115 98 46.777H99H100C100 45.1756 99.0415 43.84 97.8222 43.0677L97.2871 43.9125ZM97.1722 10.3265L96.6417 11.1741C97.4886 11.7042 98 12.4992 98 13.2944H99H100C100 11.6185 98.9505 10.2597 97.7028 9.47881L97.1722 10.3265ZM90.7041 4.99951V5.99951C91.4993 5.99951 92.2943 6.51096 92.8247 7.35796L93.6722 6.82729L94.5198 6.29661C93.7387 5.04914 92.3801 3.99951 90.7041 3.99951V4.99951ZM13.2948 59.9995V58.9995C12.4997 58.9995 11.7047 58.4881 11.1744 57.6412L10.3268 58.1718L9.47924 58.7025C10.2603 59.95 11.6189 60.9995 13.2948 60.9995V59.9995ZM58.8291 6.55659L59.6316 7.15324C60.1718 6.42664 60.9063 5.99951 61.6322 5.99951V4.99951V3.99951C60.1051 3.99951 58.8306 4.87847 58.0266 5.95994L58.8291 6.55659ZM99 18.223H98C98 18.9885 97.5322 19.7485 96.752 20.2428L97.2871 21.0876L97.8222 21.9323C99.0415 21.16 100 19.8244 100 18.223H99ZM41.1709 6.55659L41.9734 5.95994C41.1694 4.87846 39.8949 3.99951 38.3678 3.99951V4.99951V5.99951C39.0937 5.99951 39.8282 6.42664 40.3684 7.15324L41.1709 6.55659Z" fill="#FF6A54" mask="url(#path-3-inside-1_261_7186)"/>
</g>
<defs>
<clipPath id="clip0_261_7186">
<rect width="104" height="65" rx="10" fill="white"/>
</clipPath>
</defs>
</svg>
