<svg width="940" height="900" viewBox="0 0 940 900" fill="none" xmlns="http://www.w3.org/2000/svg">
<path d="M633.62 -5.74875L689.004 -143.858L722.046 -130.608C730.214 -127.332 735.137 -123.131 736.816 -118.005C738.619 -112.828 738.057 -106.589 735.129 -99.2879L726.643 -78.126C722.573 -67.9782 716.552 -62.9945 708.58 -63.1747C715.383 -56.8552 716.701 -48.4977 712.532 -38.1024L700.547 -8.21588C697.421 -0.4194 693.083 5.02389 687.534 8.11397C682.159 11.1299 675.697 11.1243 668.148 8.09708L633.62 -5.74875ZM686.143 -57.7348L679.832 -60.2658L662.413 -16.8282L668.724 -14.2973C671.942 -13.007 674.405 -12.881 676.115 -13.9195C677.824 -14.9579 679.324 -17.0859 680.614 -20.3035L690.738 -45.5492C691.978 -48.6431 692.315 -51.0939 691.747 -52.9019C691.229 -54.8336 689.361 -56.4445 686.143 -57.7348ZM708.773 -114.167L702.461 -116.697L688.095 -80.8708L694.406 -78.3398C699.232 -76.4044 702.936 -78.6543 705.516 -85.0895L712.514 -102.539C713.754 -105.633 714.091 -108.083 713.523 -109.891C713.079 -111.65 711.495 -113.075 708.773 -114.167ZM731.971 33.691L739.608 6.58616L724.201 0.407649L711.181 25.3538L692.432 17.8353L764.708 -113.5L789.582 -103.525L752.205 41.805L731.971 33.691ZM760.546 -68.1937L734.691 -19.3041L745.644 -14.9121L760.546 -68.1937ZM793.676 58.4353L800.271 -8.52069L776.227 51.438L755.25 43.0263L810.634 -95.0829L831.61 -86.6711L809.427 -31.3532L848.131 -80.046L868.55 -71.8576L823.303 -15.4456L815.209 67.0704L793.676 58.4353ZM853.429 82.3968L861.066 55.292L845.658 49.1135L832.638 74.0596L813.889 66.5411L886.165 -64.7939L911.04 -54.819L873.662 90.5108L853.429 82.3968ZM882.003 -19.4879L856.149 29.4017L867.101 33.7937L882.003 -19.4879ZM922.026 39.4426L897.684 100.144L876.708 91.7321L932.091 -46.377L953.067 -37.9653L930.884 17.3526L945.178 23.0844L967.361 -32.2335L988.337 -23.8217L932.954 114.287L911.978 105.876L936.32 45.1745L922.026 39.4426ZM986.653 103.284L999.531 71.1695L1020.14 79.4323L1007.33 111.361C999.343 131.285 986.994 137.897 970.287 131.198L965.647 129.337C948.445 122.439 943.74 109.275 951.531 89.8457L985.327 5.56947C988.503 -2.35077 993.113 -8.11568 999.158 -11.7253C1005.25 -15.4586 1012.69 -15.5636 1021.48 -12.0401L1026.3 -10.1047C1031.75 -7.92108 1035.94 -5.30531 1038.89 -2.25734C1041.96 0.840257 1043.67 4.25855 1044.04 7.99754C1044.41 11.7365 1044.25 15.1903 1043.55 18.3589C1043.03 21.4534 1041.97 24.9807 1040.38 28.9408L1030.48 53.6297L1009.88 45.3668L1019.63 21.0492C1022.06 14.9853 1020.93 11.0104 1016.22 9.12461C1013.75 8.13208 1011.72 8.17983 1010.13 9.26785C1008.72 10.2818 1007.37 12.3975 1006.08 15.6151L973.176 97.6638C970.645 103.975 971.608 108.024 976.063 109.811C980.642 111.647 984.172 109.471 986.653 103.284ZM1038.35 156.551L1068.35 81.7421L1023.31 150.522L1002.33 142.11L1057.72 4.00076L1078.69 12.4125L1048.7 87.2216L1093.73 18.4421L1114.71 26.8538L1059.32 164.963L1038.35 156.551ZM1123.69 123.545L1121.28 122.577L1082.64 174.315L1061.11 165.68L1102.53 110.75C1095.85 105.198 1094.25 98.091 1097.72 89.4282L1113.13 51.0027C1116.21 43.33 1120.12 38.5796 1124.88 36.7515C1129.69 34.7997 1135.68 35.263 1142.85 38.1414L1176.82 51.7639L1121.44 189.873L1100.47 181.461L1123.69 123.545ZM1131.73 103.496L1148.33 62.1008L1142.76 59.8676C1139.67 58.627 1137.35 58.4888 1135.82 59.453C1134.28 60.4173 1132.87 62.5083 1131.58 65.7259L1122.5 88.3728C1119.87 94.9317 1121.09 99.2285 1126.16 101.263L1131.73 103.496Z" fill="white" fill-opacity="0.03"/>
<path d="M185.534 -3.35324L240.918 -141.462L273.96 -128.212C282.128 -124.937 287.051 -120.736 288.73 -115.609C290.533 -110.433 289.971 -104.194 287.043 -96.8924L278.557 -75.7305C274.487 -65.5827 268.466 -60.599 260.494 -60.7792C267.297 -54.4596 268.615 -46.1022 264.446 -35.7069L252.461 -5.82038C249.335 1.97611 244.997 7.41939 239.448 10.5095C234.073 13.5254 227.611 13.5198 220.062 10.4926L185.534 -3.35324ZM238.057 -55.3393L231.746 -57.8703L214.327 -14.4327L220.638 -11.9018C223.856 -10.6115 226.319 -10.4855 228.029 -11.5239C229.738 -12.5624 231.238 -14.6904 232.528 -17.9079L242.652 -43.1537C243.893 -46.2475 244.229 -48.6984 243.661 -50.5064C243.143 -52.438 241.275 -54.049 238.057 -55.3393ZM260.687 -111.771L254.376 -114.302L240.009 -78.4753L246.32 -75.9443C251.146 -74.0089 254.85 -76.2588 257.431 -82.6939L264.428 -100.143C265.669 -103.237 266.005 -105.688 265.437 -107.496C264.993 -109.254 263.41 -110.679 260.687 -111.771ZM283.885 36.0865L291.522 8.98167L276.115 2.80316L263.095 27.7493L244.346 20.2308L316.622 -111.104L341.496 -101.129L304.119 44.2005L283.885 36.0865ZM312.46 -65.7982L286.605 -16.9086L297.558 -12.5166L312.46 -65.7982ZM345.59 60.8308L352.185 -6.12518L328.141 53.8335L307.164 45.4218L362.548 -92.6873L383.524 -84.2756L361.341 -28.9577L400.045 -77.6505L420.465 -69.4621L375.217 -13.0501L367.123 69.4659L345.59 60.8308ZM405.343 84.7924L412.98 57.6875L397.573 51.509L384.552 76.4551L365.803 68.9367L438.079 -62.3984L462.954 -52.4235L425.576 92.9063L405.343 84.7924ZM433.917 -17.0924L408.063 31.7973L419.015 36.1892L433.917 -17.0924ZM473.94 41.8381L449.598 102.539L428.622 94.1276L484.005 -43.9815L504.982 -35.5698L482.798 19.7481L497.092 25.48L519.275 -29.8379L540.251 -21.4262L484.868 116.683L463.892 108.271L488.234 47.57L473.94 41.8381ZM538.567 105.679L551.445 73.565L572.05 81.8278L559.246 113.756C551.257 133.681 538.908 140.293 522.202 133.593L517.561 131.732C500.359 124.834 495.654 111.671 503.445 92.2412L537.241 7.96497C540.417 0.0447427 545.027 -5.72017 551.072 -9.32978C557.166 -13.0631 564.606 -13.1681 573.393 -9.64459L578.219 -7.70915C583.664 -5.52558 587.859 -2.9098 590.802 0.138167C593.87 3.23576 595.588 6.65406 595.956 10.393C596.324 14.132 596.16 17.5858 595.464 20.7544C594.941 23.8489 593.886 27.3762 592.298 31.3363L582.397 56.0252L561.792 47.7623L571.544 23.4447C573.976 17.3808 572.84 13.4059 568.138 11.5201C565.662 10.5276 563.632 10.5753 562.047 11.6634C560.634 12.6773 559.283 14.793 557.993 18.0106L525.09 100.059C522.56 106.371 523.522 110.42 527.977 112.206C532.556 114.042 536.086 111.867 538.567 105.679ZM590.261 158.947L620.26 84.1376L575.225 152.917L554.249 144.505L609.632 6.39627L630.608 14.808L600.609 89.6171L645.644 20.8376L666.621 29.2493L611.237 167.358L590.261 158.947ZM675.605 125.94L673.191 124.972L634.559 176.711L613.026 168.076L654.446 113.146C647.766 107.594 646.163 100.486 649.637 91.8237L665.046 53.3982C668.123 45.7255 672.039 40.9751 676.794 39.1471C681.599 37.1952 687.591 37.6585 694.768 40.5369L728.739 54.1594L673.356 192.268L652.379 183.857L675.605 125.94ZM683.644 105.892L700.244 64.4963L694.675 62.2631C691.581 61.0225 689.266 60.8843 687.731 61.8486C686.195 62.8128 684.782 64.9038 683.491 68.1214L674.41 90.7683C671.779 97.3272 673.001 101.624 678.075 103.659L683.644 105.892Z" fill="white" fill-opacity="0.03"/>
<path d="M700.659 203.217L756.043 65.108L789.085 78.3583C797.253 81.6336 802.176 85.8346 803.855 90.9613C805.658 96.1376 805.096 102.376 802.168 109.678L793.682 130.84C789.612 140.988 783.591 145.971 775.619 145.791C782.422 152.111 783.74 160.468 779.571 170.863L767.586 200.75C764.46 208.546 760.122 213.99 754.573 217.08C749.198 220.096 742.736 220.09 735.187 217.063L700.659 203.217ZM753.182 151.231L746.871 148.7L729.452 192.138L735.763 194.669C738.981 195.959 741.444 196.085 743.154 195.046C744.863 194.008 746.363 191.88 747.653 188.662L757.777 163.417C759.018 160.323 759.354 157.872 758.786 156.064C758.268 154.132 756.4 152.521 753.182 151.231ZM775.812 94.7993L769.501 92.2683L755.134 128.095L761.445 130.626C766.271 132.561 769.975 130.312 772.556 123.876L779.553 106.427C780.794 103.333 781.13 100.882 780.562 99.0744C780.118 97.3161 778.535 95.8911 775.812 94.7993ZM799.01 242.657L806.647 215.552L791.24 209.373L778.22 234.32L759.471 226.801L831.747 95.4661L856.621 105.441L819.244 250.771L799.01 242.657ZM827.585 140.772L801.73 189.662L812.683 194.054L827.585 140.772ZM860.715 267.401L867.31 200.445L843.266 260.404L822.289 251.992L877.673 113.883L898.649 122.295L876.466 177.613L915.17 128.92L935.59 137.108L890.342 193.52L882.248 276.036L860.715 267.401ZM920.468 291.363L928.105 264.258L912.698 258.079L899.677 283.025L880.928 275.507L953.204 144.172L978.079 154.147L940.701 299.477L920.468 291.363ZM949.042 189.478L923.188 238.368L934.14 242.76L949.042 189.478ZM989.065 248.408L964.723 309.11L943.747 300.698L999.13 162.589L1020.11 171L997.923 226.318L1012.22 232.05L1034.4 176.732L1055.38 185.144L999.993 323.253L979.017 314.841L1003.36 254.14L989.065 248.408ZM1053.69 312.249L1066.57 280.135L1087.18 288.398L1074.37 320.327C1066.38 340.251 1054.03 346.863 1037.33 340.164L1032.69 338.303C1015.48 331.405 1010.78 318.241 1018.57 298.812L1052.37 214.535C1055.54 206.615 1060.15 200.85 1066.2 197.241C1072.29 193.507 1079.73 193.402 1088.52 196.926L1093.34 198.861C1098.79 201.045 1102.98 203.661 1105.93 206.708C1108.99 209.806 1110.71 213.224 1111.08 216.963C1111.45 220.702 1111.28 224.156 1110.59 227.325C1110.07 230.419 1109.01 233.946 1107.42 237.907L1097.52 262.595L1076.92 254.333L1086.67 230.015C1089.1 223.951 1087.97 219.976 1083.26 218.09C1080.79 217.098 1078.76 217.146 1077.17 218.234C1075.76 219.248 1074.41 221.363 1073.12 224.581L1040.22 306.63C1037.68 312.941 1038.65 316.99 1043.1 318.777C1047.68 320.613 1051.21 318.437 1053.69 312.249ZM1105.39 365.517L1135.39 290.708L1090.35 359.487L1069.37 351.076L1124.76 212.967L1145.73 221.378L1115.73 296.187L1160.77 227.408L1181.75 235.82L1126.36 373.929L1105.39 365.517ZM1190.73 332.51L1188.32 331.543L1149.68 383.281L1128.15 374.646L1169.57 319.716C1162.89 314.164 1161.29 307.057 1164.76 298.394L1180.17 259.969C1183.25 252.296 1187.16 247.545 1191.92 245.717C1196.72 243.766 1202.72 244.229 1209.89 247.107L1243.86 260.73L1188.48 398.839L1167.5 390.427L1190.73 332.51ZM1198.77 312.462L1215.37 271.067L1209.8 268.833C1206.71 267.593 1204.39 267.455 1202.86 268.419C1201.32 269.383 1199.91 271.474 1198.62 274.692L1189.53 297.339C1186.9 303.898 1188.13 308.194 1193.2 310.229L1198.77 312.462Z" fill="white" fill-opacity="0.03"/>
<path d="M-165.094 38.1253L-109.711 -99.9838L-76.6689 -86.7335C-68.5012 -83.4582 -63.5777 -79.2572 -61.8986 -74.1305C-60.0956 -68.9542 -60.6582 -62.7154 -63.5861 -55.4139L-72.0723 -34.252C-76.1417 -24.1042 -82.1626 -19.1204 -90.1349 -19.3007C-83.3316 -12.9811 -82.0142 -4.62369 -86.1829 5.77162L-98.1677 35.6581C-101.294 43.4546 -105.632 48.8979 -111.181 51.988C-116.556 55.004 -123.018 54.9983 -130.567 51.9711L-165.094 38.1253ZM-112.572 -13.8608L-118.883 -16.3918L-136.302 27.0458L-129.991 29.5767C-126.773 30.867 -124.31 30.993 -122.6 29.9546C-120.891 28.9162 -119.391 26.7882 -118.101 23.5706L-107.977 -1.67518C-106.736 -4.76903 -106.4 -7.21991 -106.968 -9.02785C-107.486 -10.9595 -109.354 -12.5705 -112.572 -13.8608ZM-89.9419 -70.2925L-96.2534 -72.8234L-110.62 -36.9968L-104.309 -34.4658C-99.4824 -32.5304 -95.779 -34.7802 -93.1984 -41.2154L-86.201 -58.6647C-84.9603 -61.7585 -84.624 -64.2094 -85.1919 -66.0174C-85.636 -67.7757 -87.2193 -69.2007 -89.9419 -70.2925ZM-66.7437 77.5651L-59.1065 50.4602L-74.5139 44.2817L-87.5343 69.2278L-106.283 61.7094L-34.0073 -69.6257L-9.13279 -59.6508L-46.5099 85.679L-66.7437 77.5651ZM-38.1692 -24.3197L-64.0235 24.57L-53.0713 28.9619L-38.1692 -24.3197ZM-5.03891 102.309L1.55591 35.3533L-22.4882 95.312L-43.4644 86.9003L11.9189 -51.2088L32.8951 -42.7971L10.712 12.5208L49.4162 -36.172L69.8356 -27.9836L24.5882 28.4284L16.4942 110.944L-5.03891 102.309ZM54.7138 126.271L62.351 99.166L46.9436 92.9875L33.9232 117.934L15.1745 110.415L87.4502 -20.9199L112.325 -10.945L74.9475 134.385L54.7138 126.271ZM83.2883 24.3861L57.434 73.2758L68.3862 77.6677L83.2883 24.3861ZM123.311 83.3166L98.9693 144.018L77.993 135.606L133.376 -2.50302L154.353 5.90869L132.17 61.2266L146.463 66.9585L168.646 11.6406L189.622 20.0523L134.239 158.161L113.263 149.75L137.605 89.0485L123.311 83.3166ZM187.938 147.158L200.816 115.043L221.421 123.306L208.618 155.235C200.628 175.159 188.279 181.771 171.573 175.072L166.932 173.211C149.73 166.313 145.025 153.149 152.816 133.72L186.612 49.4435C189.788 41.5233 194.398 35.7583 200.443 32.1487C206.537 28.4154 213.977 28.3104 222.764 31.8339L227.59 33.7694C233.035 35.9529 237.23 38.5687 240.173 41.6167C243.241 44.7143 244.959 48.1326 245.327 51.8716C245.695 55.6106 245.531 59.0643 244.835 62.2329C244.312 65.3274 243.257 68.8547 241.669 72.8148L231.768 97.5037L211.163 89.2408L220.915 64.9232C223.347 58.8593 222.211 54.8844 217.509 52.9986C215.034 52.0061 213.003 52.0539 211.418 53.1419C210.006 54.1558 208.654 56.2715 207.364 59.4891L174.462 141.538C171.931 147.849 172.893 151.898 177.348 153.685C181.927 155.521 185.457 153.345 187.938 147.158ZM239.632 200.425L269.632 125.616L224.596 194.396L203.62 185.984L259.003 47.8748L279.98 56.2865L249.98 131.096L295.016 62.3161L315.992 70.7278L260.609 208.837L239.632 200.425ZM324.976 167.419L322.562 166.451L283.93 218.189L262.397 209.554L303.817 154.624C297.137 149.072 295.534 141.965 299.008 133.302L314.417 94.8767C317.494 87.204 321.41 82.4536 326.165 80.6256C330.97 78.6738 336.962 79.137 344.14 82.0154L378.11 95.6379L322.727 233.747L301.75 225.335L324.976 167.419ZM333.015 147.37L349.615 105.975L344.046 103.742C340.952 102.501 338.638 102.363 337.102 103.327C335.566 104.291 334.153 106.382 332.862 109.6L323.781 132.247C321.15 138.806 322.372 143.103 327.446 145.137L333.015 147.37Z" fill="white" fill-opacity="0.03"/>
<path d="M350.031 244.696L405.414 106.586L438.456 119.837C446.624 123.112 451.547 127.313 453.226 132.44C455.029 137.616 454.467 143.855 451.539 151.156L443.053 172.318C438.983 182.466 432.962 187.45 424.99 187.27C431.793 193.589 433.111 201.947 428.942 212.342L416.957 242.228C413.831 250.025 409.493 255.468 403.944 258.558C398.569 261.574 392.107 261.569 384.558 258.541L350.031 244.696ZM402.553 192.71L396.242 190.179L378.823 233.616L385.134 236.147C388.352 237.437 390.815 237.563 392.525 236.525C394.234 235.486 395.734 233.358 397.024 230.141L407.148 204.895C408.389 201.801 408.725 199.35 408.157 197.542C407.639 195.611 405.771 194 402.553 192.71ZM425.183 136.278L418.872 133.747L404.505 169.574L410.816 172.105C415.643 174.04 419.346 171.79 421.927 165.355L428.924 147.906C430.165 144.812 430.501 142.361 429.933 140.553C429.489 138.795 427.906 137.37 425.183 136.278ZM448.381 284.135L456.018 257.03L440.611 250.852L427.591 275.798L408.842 268.28L481.118 136.945L505.992 146.92L468.615 292.249L448.381 284.135ZM476.956 182.251L451.102 231.14L462.054 235.532L476.956 182.251ZM510.086 308.88L516.681 241.924L492.637 301.882L471.661 293.471L527.044 155.361L548.02 163.773L525.837 219.091L564.541 170.398L584.961 178.587L539.713 234.999L531.619 317.515L510.086 308.88ZM569.839 332.841L577.476 305.736L562.069 299.558L549.048 324.504L530.3 316.985L602.575 185.65L627.45 195.625L590.073 340.955L569.839 332.841ZM598.413 230.956L572.559 279.846L583.511 284.238L598.413 230.956ZM638.436 289.887L614.094 350.588L593.118 342.176L648.501 204.067L669.478 212.479L647.295 267.797L661.588 273.529L683.771 218.211L704.747 226.623L649.364 364.732L628.388 356.32L652.73 295.619L638.436 289.887ZM703.063 353.728L715.941 321.614L736.546 329.877L723.743 361.805C715.753 381.729 703.404 388.342 686.698 381.642L682.057 379.781C664.855 372.883 660.15 359.719 667.941 340.29L701.737 256.014C704.913 248.094 709.523 242.329 715.568 238.719C721.662 234.986 729.102 234.881 737.889 238.404L742.715 240.34C748.16 242.523 752.355 245.139 755.298 248.187C758.366 251.285 760.084 254.703 760.452 258.442C760.82 262.181 760.656 265.635 759.96 268.803C759.437 271.898 758.382 275.425 756.794 279.385L746.893 304.074L726.288 295.811L736.04 271.494C738.472 265.43 737.336 261.455 732.634 259.569C730.159 258.576 728.128 258.624 726.543 259.712C725.131 260.726 723.779 262.842 722.489 266.059L689.587 348.108C687.056 354.42 688.018 358.469 692.473 360.255C697.052 362.091 700.582 359.916 703.063 353.728ZM754.757 406.996L784.757 332.186L739.721 400.966L718.745 392.554L774.128 254.445L795.105 262.857L765.105 337.666L810.141 268.886L831.117 277.298L775.734 415.407L754.757 406.996ZM840.101 373.989L837.687 373.021L799.055 424.759L777.522 416.124L818.942 361.195C812.262 355.643 810.659 348.535 814.133 339.873L829.542 301.447C832.619 293.774 836.535 289.024 841.29 287.196C846.095 285.244 852.087 285.707 859.265 288.586L893.235 302.208L837.852 440.317L816.875 431.906L840.101 373.989ZM848.14 353.941L864.74 312.545L859.171 310.312C856.077 309.071 853.763 308.933 852.227 309.897C850.691 310.862 849.278 312.953 847.987 316.17L838.906 338.817C836.275 345.376 837.497 349.673 842.571 351.708L848.14 353.941Z" fill="white" fill-opacity="0.03"/>
<path d="M865.156 451.267L920.539 313.158L953.581 326.408C961.749 329.683 966.672 333.884 968.351 339.011C970.154 344.187 969.592 350.426 966.664 357.728L958.178 378.89C954.108 389.037 948.087 394.021 940.115 393.841C946.918 400.16 948.236 408.518 944.067 418.913L932.082 448.8C928.956 456.596 924.618 462.04 919.069 465.13C913.694 468.146 907.232 468.14 899.683 465.113L865.156 451.267ZM917.678 399.281L911.367 396.75L893.948 440.187L900.259 442.718C903.477 444.009 905.94 444.135 907.65 443.096C909.359 442.058 910.859 439.93 912.149 436.712L922.273 411.466C923.514 408.373 923.85 405.922 923.282 404.114C922.764 402.182 920.896 400.571 917.678 399.281ZM940.308 342.849L933.997 340.318L919.63 376.145L925.941 378.676C930.768 380.611 934.471 378.361 937.052 371.926L944.049 354.477C945.29 351.383 945.626 348.932 945.058 347.124C944.614 345.366 943.031 343.941 940.308 342.849ZM963.506 490.707L971.143 463.602L955.736 457.423L942.716 482.369L923.967 474.851L996.243 343.516L1021.12 353.491L983.74 498.821L963.506 490.707ZM992.081 388.822L966.227 437.712L977.179 442.104L992.081 388.822ZM1025.21 515.451L1031.81 448.495L1007.76 508.454L986.786 500.042L1042.17 361.933L1063.15 370.344L1040.96 425.662L1079.67 376.97L1100.09 385.158L1054.84 441.57L1046.74 524.086L1025.21 515.451ZM1084.96 539.412L1092.6 512.308L1077.19 506.129L1064.17 531.075L1045.42 523.557L1117.7 392.222L1142.57 402.197L1105.2 547.526L1084.96 539.412ZM1113.54 437.528L1087.68 486.417L1098.64 490.809L1113.54 437.528ZM1153.56 496.458L1129.22 557.159L1108.24 548.748L1163.63 410.639L1184.6 419.05L1162.42 474.368L1176.71 480.1L1198.9 424.782L1219.87 433.194L1164.49 571.303L1143.51 562.891L1167.85 502.19L1153.56 496.458ZM1218.19 560.299L1231.07 528.185L1251.67 536.448L1238.87 568.376C1230.88 588.301 1218.53 594.913 1201.82 588.214L1197.18 586.353C1179.98 579.454 1175.27 566.291 1183.07 546.861L1216.86 462.585C1220.04 454.665 1224.65 448.9 1230.69 445.29C1236.79 441.557 1244.23 441.452 1253.01 444.976L1257.84 446.911C1263.29 449.095 1267.48 451.71 1270.42 454.758C1273.49 457.856 1275.21 461.274 1275.58 465.013C1275.94 468.752 1275.78 472.206 1275.08 475.375C1274.56 478.469 1273.51 481.996 1271.92 485.956L1262.02 510.645L1241.41 502.382L1251.17 478.065C1253.6 472.001 1252.46 468.026 1247.76 466.14C1245.28 465.148 1243.25 465.195 1241.67 466.283C1240.26 467.297 1238.9 469.413 1237.61 472.631L1204.71 554.679C1202.18 560.991 1203.14 565.04 1207.6 566.826C1212.18 568.663 1215.71 566.487 1218.19 560.299ZM1269.88 613.567L1299.88 538.758L1254.85 607.537L1233.87 599.126L1289.25 461.016L1310.23 469.428L1280.23 544.237L1325.27 475.458L1346.24 483.869L1290.86 621.979L1269.88 613.567ZM1355.23 580.56L1352.81 579.592L1314.18 631.331L1292.65 622.696L1334.07 567.766C1327.39 562.214 1325.78 555.107 1329.26 546.444L1344.67 508.018C1347.74 500.346 1351.66 495.595 1356.42 493.767C1361.22 491.815 1367.21 492.279 1374.39 495.157L1408.36 508.779L1352.98 646.889L1332 638.477L1355.23 580.56ZM1363.27 560.512L1379.87 519.116L1374.3 516.883C1371.2 515.643 1368.89 515.504 1367.35 516.469C1365.82 517.433 1364.4 519.524 1363.11 522.741L1354.03 545.388C1351.4 551.947 1352.62 556.244 1357.7 558.279L1363.27 560.512Z" fill="white" fill-opacity="0.03"/>
<path d="M-497.161 87.042L-441.778 -51.0671L-408.735 -37.8168C-400.568 -34.5414 -395.644 -30.3404 -393.965 -25.2138C-392.162 -20.0375 -392.725 -13.7986 -395.653 -6.49715L-404.139 14.6647C-408.208 24.8125 -414.229 29.7963 -422.201 29.616C-415.398 35.9356 -414.081 44.2931 -418.249 54.6884L-430.234 84.5749C-433.361 92.3714 -437.698 97.8147 -443.247 100.905C-448.622 103.921 -455.085 103.915 -462.634 100.888L-497.161 87.042ZM-444.638 35.0559L-450.95 32.525L-468.368 75.9625L-462.057 78.4935C-458.839 79.7838 -456.376 79.9097 -454.667 78.8713C-452.957 77.8329 -451.458 75.7049 -450.167 72.4873L-440.043 47.2416C-438.803 44.1477 -438.466 41.6968 -439.034 39.8889C-439.553 37.9572 -441.42 36.3462 -444.638 35.0559ZM-422.008 -21.3757L-428.32 -23.9067L-442.687 11.92L-436.375 14.4509C-431.549 16.3864 -427.845 14.1365 -425.265 7.70132L-418.267 -9.74795C-417.027 -12.8418 -416.69 -15.2927 -417.258 -17.1006C-417.702 -18.8589 -419.286 -20.284 -422.008 -21.3757ZM-398.81 126.482L-391.173 99.3769L-406.58 93.1984L-419.601 118.145L-438.349 110.626L-366.074 -20.709L-341.199 -10.734L-378.576 134.596L-398.81 126.482ZM-370.236 24.5971L-396.09 73.4867L-385.138 77.8787L-370.236 24.5971ZM-337.105 151.226L-330.51 84.2701L-354.555 144.229L-375.531 135.817L-320.148 -2.29208L-299.171 6.11963L-321.354 61.4375L-282.65 12.7448L-262.231 20.9332L-307.478 77.3451L-315.572 159.861L-337.105 151.226ZM-277.353 175.188L-269.715 148.083L-285.123 141.904L-298.143 166.85L-316.892 159.332L-244.616 27.9968L-219.742 37.9718L-257.119 183.302L-277.353 175.188ZM-248.778 73.3029L-274.632 122.193L-263.68 126.584L-248.778 73.3029ZM-208.755 132.233L-233.097 192.935L-254.073 184.523L-198.69 46.4137L-177.714 54.8254L-199.897 110.143L-185.603 115.875L-163.42 60.5573L-142.444 68.969L-197.827 207.078L-218.804 198.666L-194.462 137.965L-208.755 132.233ZM-144.128 196.074L-131.25 163.96L-110.645 172.223L-123.449 204.152C-131.439 224.076 -143.787 230.688 -160.494 223.989L-165.135 222.128C-182.336 215.23 -187.041 202.066 -179.25 182.637L-145.454 98.3602C-142.278 90.44 -137.668 84.6751 -131.624 81.0655C-125.53 77.3321 -118.089 77.2272 -109.303 80.7507L-104.476 82.6861C-99.0311 84.8697 -94.8367 87.4855 -91.893 90.5334C-88.8255 93.631 -87.1077 97.0493 -86.7396 100.788C-86.3715 104.527 -86.5354 107.981 -87.2314 111.15C-87.7541 114.244 -88.8094 117.771 -90.3975 121.732L-100.298 146.42L-120.903 138.158L-111.151 113.84C-108.72 107.776 -109.855 103.801 -114.558 101.915C-117.033 100.923 -119.063 100.971 -120.649 102.059C-122.061 103.073 -123.412 105.188 -124.702 108.406L-157.605 190.455C-160.136 196.766 -159.174 200.815 -154.719 202.602C-150.14 204.438 -146.61 202.262 -144.128 196.074ZM-92.4341 249.342L-62.4348 174.533L-107.47 243.312L-128.446 234.901L-73.0631 96.7915L-52.0869 105.203L-82.0862 180.012L-37.0508 111.233L-16.0746 119.645L-71.4579 257.754L-92.4341 249.342ZM-7.09079 216.335L-9.50399 215.368L-48.1366 267.106L-69.6697 258.471L-28.2489 203.541C-34.9291 197.989 -36.5323 190.882 -33.0584 182.219L-17.6494 143.793C-14.5725 136.121 -10.6564 131.37 -5.90099 129.542C-1.09597 127.591 4.8954 128.054 12.0731 130.932L46.0435 144.555L-9.3398 282.664L-30.3161 274.252L-7.09079 216.335ZM0.948718 196.287L17.5488 154.892L11.9799 152.658C8.88606 151.418 6.57118 151.28 5.03526 152.244C3.49934 153.208 2.08623 155.299 0.795939 158.517L-8.28573 181.164C-10.9159 187.723 -9.6941 192.019 -4.6202 194.054L0.948718 196.287Z" fill="white" fill-opacity="0.03"/>
<path d="M17.9641 293.612L73.3474 155.503L106.39 168.754C114.557 172.029 119.481 176.23 121.16 181.357C122.963 186.533 122.4 192.772 119.472 200.073L110.986 221.235C106.917 231.383 100.896 236.367 92.9237 236.186C99.727 242.506 101.044 250.863 96.8757 261.259L84.8909 291.145C81.7644 298.942 77.4268 304.385 71.878 307.475C66.5026 310.491 60.0404 310.485 52.4914 307.458L17.9641 293.612ZM70.4869 241.626L64.1755 239.095L46.7565 282.533L53.068 285.064C56.2856 286.354 58.749 286.48 60.4583 285.442C62.1676 284.403 63.6674 282.275 64.9577 279.058L75.0816 253.812C76.3222 250.718 76.6586 248.267 76.0907 246.459C75.5725 244.528 73.7045 242.917 70.4869 241.626ZM93.1167 185.195L86.8052 182.664L72.4383 218.49L78.7498 221.021C83.5762 222.957 87.2796 220.707 89.8602 214.272L96.8576 196.822C98.0982 193.729 98.4346 191.278 97.8667 189.47C97.4226 187.711 95.8392 186.286 93.1167 185.195ZM116.315 333.052L123.952 305.947L108.545 299.769L95.5243 324.715L76.7756 317.196L149.051 185.861L173.926 195.836L136.549 341.166L116.315 333.052ZM144.889 231.167L119.035 280.057L129.987 284.449L144.889 231.167ZM178.02 357.796L184.615 290.84L160.57 350.799L139.594 342.387L194.977 204.278L215.954 212.69L193.771 268.008L232.475 219.315L252.894 227.503L207.647 283.915L199.553 366.431L178.02 357.796ZM237.772 381.758L245.41 354.653L230.002 348.475L216.982 373.421L198.233 365.902L270.509 234.567L295.383 244.542L258.006 389.872L237.772 381.758ZM266.347 279.873L240.493 328.763L251.445 333.155L266.347 279.873ZM306.37 338.804L282.028 399.505L261.052 391.093L316.435 252.984L337.411 261.396L315.228 316.714L329.522 322.446L351.705 267.128L372.681 275.539L317.298 413.648L296.321 405.237L320.663 344.536L306.37 338.804ZM370.997 402.645L383.875 370.531L404.48 378.793L391.676 410.722C383.686 430.646 371.338 437.259 354.631 430.559L349.99 428.698C332.789 421.8 328.084 408.636 335.875 389.207L369.671 304.931C372.847 297.01 377.457 291.245 383.501 287.636C389.595 283.902 397.036 283.798 405.822 287.321L410.649 289.256C416.094 291.44 420.288 294.056 423.232 297.104C426.299 300.201 428.017 303.62 428.385 307.359C428.754 311.098 428.59 314.551 427.894 317.72C427.371 320.814 426.316 324.342 424.728 328.302L414.827 352.991L394.222 344.728L403.974 320.41C406.405 314.346 405.27 310.372 400.567 308.486C398.092 307.493 396.062 307.541 394.476 308.629C393.064 309.643 391.713 311.759 390.423 314.976L357.52 397.025C354.989 403.336 355.951 407.385 360.406 409.172C364.985 411.008 368.515 408.832 370.997 402.645ZM422.691 455.912L452.69 381.103L407.655 449.883L386.679 441.471L442.062 303.362L463.038 311.774L433.039 386.583L478.074 317.803L499.05 326.215L443.667 464.324L422.691 455.912ZM508.034 422.906L505.621 421.938L466.988 473.676L445.455 465.041L486.876 410.111C480.196 404.559 478.593 397.452 482.067 388.789L497.476 350.364C500.552 342.691 504.469 337.941 509.224 336.113C514.029 334.161 520.02 334.624 527.198 337.502L561.169 351.125L505.785 489.234L484.809 480.822L508.034 422.906ZM516.074 402.858L532.674 361.462L527.105 359.229C524.011 357.988 521.696 357.85 520.16 358.814C518.624 359.778 517.211 361.869 515.921 365.087L506.839 387.734C504.209 394.293 505.431 398.59 510.505 400.624L516.074 402.858Z" fill="white" fill-opacity="0.03"/>
<path d="M533.089 500.184L588.472 362.075L621.515 375.325C629.682 378.6 634.606 382.801 636.285 387.928C638.088 393.104 637.525 399.343 634.597 406.645L626.111 427.807C622.042 437.954 616.021 442.938 608.049 442.758C614.852 449.077 616.169 457.435 612.001 467.83L600.016 497.717C596.889 505.513 592.552 510.957 587.003 514.047C581.628 517.063 575.165 517.057 567.616 514.03L533.089 500.184ZM585.612 448.198L579.3 445.667L561.882 489.104L568.193 491.635C571.411 492.926 573.874 493.052 575.583 492.013C577.293 490.975 578.792 488.847 580.083 485.629L590.207 460.383C591.447 457.29 591.784 454.839 591.216 453.031C590.697 451.099 588.83 449.488 585.612 448.198ZM608.242 391.766L601.93 389.235L587.563 425.062L593.875 427.593C598.701 429.528 602.405 427.278 604.985 420.843L611.983 403.394C613.223 400.3 613.56 397.849 612.992 396.041C612.548 394.283 610.964 392.858 608.242 391.766ZM631.44 539.624L639.077 512.519L623.67 506.34L610.649 531.286L591.901 523.768L664.176 392.433L689.051 402.408L651.674 547.738L631.44 539.624ZM660.014 437.739L634.16 486.629L645.112 491.021L660.014 437.739ZM693.145 564.368L699.74 497.412L675.695 557.371L654.719 548.959L710.102 410.85L731.079 419.261L708.896 474.579L747.6 425.887L768.019 434.075L722.772 490.487L714.678 573.003L693.145 564.368ZM752.897 588.329L760.535 561.225L745.127 555.046L732.107 579.992L713.358 572.474L785.634 441.139L810.508 451.114L773.131 596.443L752.897 588.329ZM781.472 486.445L755.618 535.334L766.57 539.726L781.472 486.445ZM821.495 545.375L797.153 606.076L776.177 597.665L831.56 459.556L852.536 467.967L830.353 523.285L844.647 529.017L866.83 473.699L887.806 482.111L832.423 620.22L811.446 611.808L835.788 551.107L821.495 545.375ZM886.122 609.216L899 577.102L919.605 585.365L906.801 617.293C898.811 637.218 886.463 643.83 869.756 637.13L865.115 635.27C847.914 628.371 843.209 615.208 851 595.778L884.796 511.502C887.972 503.582 892.582 497.817 898.626 494.207C904.72 490.474 912.161 490.369 920.947 493.893L925.774 495.828C931.219 498.012 935.413 500.627 938.357 503.675C941.424 506.773 943.142 510.191 943.51 513.93C943.879 517.669 943.715 521.123 943.019 524.292C942.496 527.386 941.441 530.913 939.853 534.873L929.952 559.562L909.347 551.299L919.099 526.982C921.53 520.918 920.395 516.943 915.692 515.057C913.217 514.065 911.187 514.112 909.601 515.2C908.189 516.214 906.838 518.33 905.548 521.548L872.645 603.596C870.114 609.908 871.076 613.957 875.531 615.743C880.11 617.58 883.64 615.404 886.122 609.216ZM937.816 662.484L967.815 587.675L922.78 656.454L901.804 648.042L957.187 509.933L978.163 518.345L948.164 593.154L993.199 524.375L1014.18 532.786L958.792 670.896L937.816 662.484ZM1023.16 629.477L1020.75 628.509L982.113 680.248L960.58 671.613L1002 616.683C995.321 611.131 993.718 604.024 997.192 595.361L1012.6 556.935C1015.68 549.263 1019.59 544.512 1024.35 542.684C1029.15 540.732 1035.15 541.196 1042.32 544.074L1076.29 557.696L1020.91 695.806L999.934 687.394L1023.16 629.477ZM1031.2 609.429L1047.8 568.033L1042.23 565.8C1039.14 564.56 1036.82 564.421 1035.29 565.386C1033.75 566.35 1032.34 568.441 1031.05 571.658L1021.96 594.305C1019.33 600.864 1020.56 605.161 1025.63 607.196L1031.2 609.429Z" fill="white" fill-opacity="0.03"/>
<path d="M-221.286 379.752L-165.903 241.643L-132.86 254.893C-124.693 258.169 -119.769 262.37 -118.09 267.496C-116.287 272.672 -116.85 278.911 -119.778 286.213L-128.264 307.375C-132.333 317.523 -138.354 322.506 -146.326 322.326C-139.523 328.646 -138.206 337.003 -142.374 347.398L-154.359 377.285C-157.486 385.081 -161.823 390.525 -167.372 393.615C-172.747 396.631 -179.21 396.625 -186.759 393.598L-221.286 379.752ZM-168.763 327.766L-175.075 325.235L-192.493 368.672L-186.182 371.203C-182.964 372.494 -180.501 372.62 -178.792 371.581C-177.082 370.543 -175.583 368.415 -174.292 365.197L-164.168 339.952C-162.928 336.858 -162.591 334.407 -163.159 332.599C-163.678 330.667 -165.545 329.056 -168.763 327.766ZM-146.133 271.334L-152.445 268.803L-166.812 304.63L-160.5 307.161C-155.674 309.096 -151.97 306.846 -149.39 300.411L-142.392 282.962C-141.152 279.868 -140.815 277.417 -141.383 275.609C-141.827 273.851 -143.411 272.426 -146.133 271.334ZM-122.935 419.192L-115.298 392.087L-130.705 385.908L-143.726 410.854L-162.474 403.336L-90.1987 272.001L-65.3242 281.976L-102.701 427.306L-122.935 419.192ZM-94.3606 317.307L-120.215 366.197L-109.263 370.589L-94.3606 317.307ZM-61.2303 443.936L-54.6355 376.98L-78.6796 436.939L-99.6558 428.527L-44.2725 290.418L-23.2963 298.83L-45.4794 354.147L-6.77517 305.455L13.6442 313.643L-31.6032 370.055L-39.6972 452.571L-61.2303 443.936ZM-1.47759 467.898L6.15954 440.793L-9.24779 434.614L-22.2682 459.56L-41.0169 452.042L31.2588 320.707L56.1333 330.682L18.7561 476.012L-1.47759 467.898ZM27.0969 366.013L1.24261 414.902L12.1948 419.294L27.0969 366.013ZM67.1197 424.943L42.7779 485.645L21.8016 477.233L77.1849 339.124L98.1612 347.535L75.9781 402.853L90.2717 408.585L112.455 353.267L133.431 361.679L78.0477 499.788L57.0714 491.376L81.4133 430.675L67.1197 424.943ZM131.747 488.784L144.625 456.67L165.23 464.933L152.426 496.861C144.436 516.786 132.088 523.398 115.381 516.699L110.74 514.838C93.5387 507.94 88.8335 494.776 96.6249 475.346L130.421 391.07C133.597 383.15 138.207 377.385 144.251 373.775C150.345 370.042 157.786 369.937 166.572 373.461L171.399 375.396C176.844 377.58 181.038 380.195 183.982 383.243C187.049 386.341 188.767 389.759 189.135 393.498C189.504 397.237 189.34 400.691 188.644 403.86C188.121 406.954 187.066 410.481 185.478 414.442L175.577 439.13L154.972 430.868L164.724 406.55C167.155 400.486 166.02 396.511 161.317 394.625C158.842 393.633 156.812 393.681 155.226 394.769C153.814 395.782 152.463 397.898 151.173 401.116L118.27 483.165C115.739 489.476 116.701 493.525 121.156 495.312C125.735 497.148 129.265 494.972 131.747 488.784ZM183.441 542.052L213.44 467.243L168.405 536.022L147.429 527.611L202.812 389.501L223.788 397.913L193.789 472.722L238.824 403.943L259.8 412.355L204.417 550.464L183.441 542.052ZM268.784 509.045L266.371 508.078L227.738 559.816L206.205 551.181L247.626 496.251C240.946 490.699 239.343 483.592 242.817 474.929L258.226 436.503C261.302 428.831 265.219 424.08 269.974 422.252C274.779 420.3 280.77 420.764 287.948 423.642L321.919 437.265L266.535 575.374L245.559 566.962L268.784 509.045ZM276.824 488.997L293.424 447.602L287.855 445.368C284.761 444.128 282.446 443.99 280.91 444.954C279.374 445.918 277.961 448.009 276.671 451.227L267.589 473.874C264.959 480.432 266.181 484.729 271.255 486.764L276.824 488.997Z" fill="white" fill-opacity="0.03"/>
<path d="M293.839 586.324L349.222 448.214L382.265 461.465C390.432 464.74 395.356 468.941 397.035 474.068C398.838 479.244 398.275 485.483 395.347 492.784L386.861 513.946C382.792 524.094 376.771 529.078 368.799 528.898C375.602 535.217 376.919 543.575 372.751 553.97L360.766 583.856C357.639 591.653 353.302 597.096 347.753 600.186C342.378 603.202 335.915 603.197 328.366 600.169L293.839 586.324ZM346.362 534.337L340.05 531.806L322.632 575.244L328.943 577.775C332.161 579.065 334.624 579.191 336.333 578.153C338.043 577.114 339.542 574.986 340.833 571.769L350.957 546.523C352.197 543.429 352.534 540.978 351.966 539.17C351.447 537.239 349.58 535.628 346.362 534.337ZM368.992 477.906L362.68 475.375L348.313 511.201L354.625 513.732C359.451 515.668 363.155 513.418 365.735 506.983L372.733 489.534C373.973 486.44 374.31 483.989 373.742 482.181C373.298 480.423 371.714 478.998 368.992 477.906ZM392.19 625.763L399.827 598.658L384.42 592.48L371.399 617.426L352.651 609.908L424.926 478.573L449.801 488.547L412.424 633.877L392.19 625.763ZM420.764 523.879L394.91 572.768L405.862 577.16L420.764 523.879ZM453.895 650.508L460.49 583.552L436.445 643.51L415.469 635.099L470.852 496.989L491.829 505.401L469.646 560.719L508.35 512.026L528.769 520.215L483.522 576.627L475.428 659.143L453.895 650.508ZM513.647 674.469L521.285 647.364L505.877 641.186L492.857 666.132L474.108 658.613L546.384 527.278L571.258 537.253L533.881 682.583L513.647 674.469ZM542.222 572.584L516.368 621.474L527.32 625.866L542.222 572.584ZM582.245 631.515L557.903 692.216L536.927 683.804L592.31 545.695L613.286 554.107L591.103 609.425L605.397 615.157L627.58 559.839L648.556 568.251L593.173 706.36L572.196 697.948L596.538 637.247L582.245 631.515ZM646.872 695.356L659.75 663.242L680.355 671.505L667.551 703.433C659.561 723.357 647.213 729.97 630.506 723.27L625.865 721.409C608.664 714.511 603.959 701.347 611.75 681.918L645.546 597.642C648.722 589.722 653.332 583.957 659.376 580.347C665.47 576.614 672.911 576.509 681.697 580.032L686.524 581.968C691.969 584.151 696.163 586.767 699.107 589.815C702.174 592.913 703.892 596.331 704.26 600.07C704.629 603.809 704.465 607.263 703.769 610.431C703.246 613.526 702.191 617.053 700.603 621.013L690.702 645.702L670.097 637.439L679.849 613.121C682.28 607.058 681.145 603.083 676.442 601.197C673.967 600.204 671.937 600.252 670.351 601.34C668.939 602.354 667.588 604.47 666.298 607.687L633.395 689.736C630.864 696.048 631.826 700.097 636.281 701.883C640.86 703.719 644.39 701.544 646.872 695.356ZM698.566 748.623L728.565 673.814L683.53 742.594L662.554 734.182L717.937 596.073L738.913 604.485L708.914 679.294L753.949 610.514L774.925 618.926L719.542 757.035L698.566 748.623ZM783.909 715.617L781.496 714.649L742.863 766.387L721.33 757.752L762.751 702.823C756.071 697.271 754.468 690.163 757.942 681.5L773.351 643.075C776.427 635.402 780.344 630.652 785.099 628.824C789.904 626.872 795.895 627.335 803.073 630.214L837.044 643.836L781.66 781.945L760.684 773.534L783.909 715.617ZM791.949 695.569L808.549 654.173L802.98 651.94C799.886 650.699 797.571 650.561 796.035 651.525C794.499 652.49 793.086 654.581 791.796 657.798L782.714 680.445C780.084 687.004 781.306 691.301 786.38 693.336L791.949 695.569Z" fill="white" fill-opacity="0.03"/>
<path d="M808.964 792.894L864.347 654.785L897.39 668.035C905.557 671.31 910.481 675.511 912.16 680.638C913.963 685.814 913.4 692.053 910.472 699.355L901.986 720.517C897.917 730.664 891.896 735.648 883.924 735.468C890.727 741.787 892.044 750.145 887.876 760.54L875.891 790.427C872.764 798.223 868.427 803.666 862.878 806.757C857.503 809.773 851.04 809.767 843.491 806.74L808.964 792.894ZM861.487 740.908L855.175 738.377L837.757 781.814L844.068 784.345C847.286 785.636 849.749 785.762 851.458 784.723C853.168 783.685 854.667 781.557 855.958 778.339L866.082 753.093C867.322 750 867.659 747.549 867.091 745.741C866.572 743.809 864.705 742.198 861.487 740.908ZM884.117 684.476L877.805 681.945L863.438 717.772L869.75 720.303C874.576 722.238 878.28 719.988 880.86 713.553L887.858 696.104C889.098 693.01 889.435 690.559 888.867 688.751C888.423 686.993 886.839 685.568 884.117 684.476ZM907.315 832.334L914.952 805.229L899.545 799.05L886.524 823.996L867.776 816.478L940.051 685.143L964.926 695.118L927.549 840.448L907.315 832.334ZM935.889 730.449L910.035 779.339L920.987 783.73L935.889 730.449ZM969.02 857.078L975.615 790.122L951.57 850.081L930.594 841.669L985.977 703.56L1006.95 711.971L984.771 767.289L1023.47 718.597L1043.89 726.785L998.647 783.197L990.553 865.713L969.02 857.078ZM1028.77 881.039L1036.41 853.935L1021 847.756L1007.98 872.702L989.233 865.184L1061.51 733.849L1086.38 743.824L1049.01 889.153L1028.77 881.039ZM1057.35 779.155L1031.49 828.044L1042.44 832.436L1057.35 779.155ZM1097.37 838.085L1073.03 898.786L1052.05 890.375L1107.43 752.266L1128.41 760.677L1106.23 815.995L1120.52 821.727L1142.7 766.409L1163.68 774.821L1108.3 912.93L1087.32 904.518L1111.66 843.817L1097.37 838.085ZM1162 901.926L1174.87 869.812L1195.48 878.075L1182.68 910.003C1174.69 929.928 1162.34 936.54 1145.63 929.84L1140.99 927.979C1123.79 921.081 1119.08 907.918 1126.87 888.488L1160.67 804.212C1163.85 796.292 1168.46 790.527 1174.5 786.917C1180.6 783.184 1188.04 783.079 1196.82 786.602L1201.65 788.538C1207.09 790.721 1211.29 793.337 1214.23 796.385C1217.3 799.483 1219.02 802.901 1219.39 806.64C1219.75 810.379 1219.59 813.833 1218.89 817.001C1218.37 820.096 1217.32 823.623 1215.73 827.583L1205.83 852.272L1185.22 844.009L1194.97 819.692C1197.41 813.628 1196.27 809.653 1191.57 807.767C1189.09 806.775 1187.06 806.822 1185.48 807.91C1184.06 808.924 1182.71 811.04 1181.42 814.258L1148.52 896.306C1145.99 902.618 1146.95 906.667 1151.41 908.453C1155.99 910.29 1159.52 908.114 1162 901.926ZM1213.69 955.194L1243.69 880.385L1198.65 949.164L1177.68 940.752L1233.06 802.643L1254.04 811.055L1224.04 885.864L1269.07 817.085L1290.05 825.496L1234.67 963.606L1213.69 955.194ZM1299.03 922.187L1296.62 921.219L1257.99 972.958L1236.46 964.323L1277.88 909.393C1271.2 903.841 1269.59 896.734 1273.07 888.071L1288.48 849.645C1291.55 841.973 1295.47 837.222 1300.22 835.394C1305.03 833.442 1311.02 833.906 1318.2 836.784L1352.17 850.406L1296.79 988.516L1275.81 980.104L1299.03 922.187ZM1307.07 902.139L1323.67 860.743L1318.1 858.51C1315.01 857.27 1312.7 857.131 1311.16 858.096C1309.62 859.06 1308.21 861.151 1306.92 864.368L1297.84 887.015C1295.21 893.574 1296.43 897.871 1301.5 899.906L1307.07 902.139Z" fill="white" fill-opacity="0.03"/>
<path d="M-497.661 451.004L-442.278 312.895L-409.235 326.145C-401.068 329.42 -396.144 333.621 -394.465 338.748C-392.662 343.924 -393.225 350.163 -396.153 357.465L-404.639 378.627C-408.708 388.774 -414.729 393.758 -422.701 393.578C-415.898 399.898 -414.581 408.255 -418.749 418.65L-430.734 448.537C-433.861 456.333 -438.198 461.777 -443.747 464.867C-449.122 467.883 -455.585 467.877 -463.134 464.85L-497.661 451.004ZM-445.138 399.018L-451.45 396.487L-468.868 439.924L-462.557 442.455C-459.339 443.746 -456.876 443.872 -455.167 442.833C-453.457 441.795 -451.958 439.667 -450.667 436.449L-440.543 411.203C-439.303 408.11 -438.966 405.659 -439.534 403.851C-440.053 401.919 -441.92 400.308 -445.138 399.018ZM-422.508 342.586L-428.82 340.055L-443.187 375.882L-436.875 378.413C-432.049 380.348 -428.345 378.098 -425.765 371.663L-418.767 354.214C-417.527 351.12 -417.19 348.669 -417.758 346.861C-418.202 345.103 -419.786 343.678 -422.508 342.586ZM-399.31 490.444L-391.673 463.339L-407.08 457.16L-420.101 482.106L-438.849 474.588L-366.574 343.253L-341.699 353.228L-379.076 498.558L-399.31 490.444ZM-370.736 388.559L-396.59 437.449L-385.638 441.841L-370.736 388.559ZM-337.605 515.188L-331.01 448.232L-355.055 508.191L-376.031 499.779L-320.648 361.67L-299.671 370.082L-321.854 425.399L-283.15 376.707L-262.731 384.895L-307.978 441.307L-316.072 523.823L-337.605 515.188ZM-277.853 539.15L-270.215 512.045L-285.623 505.866L-298.643 530.812L-317.392 523.294L-245.116 391.959L-220.242 401.934L-257.619 547.263L-277.853 539.15ZM-249.278 437.265L-275.132 486.154L-264.18 490.546L-249.278 437.265ZM-209.255 496.195L-233.597 556.896L-254.573 548.485L-199.19 410.376L-178.214 418.787L-200.397 474.105L-186.103 479.837L-163.92 424.519L-142.944 432.931L-198.327 571.04L-219.304 562.628L-194.962 501.927L-209.255 496.195ZM-144.628 560.036L-131.75 527.922L-111.145 536.185L-123.949 568.113C-131.939 588.038 -144.287 594.65 -160.994 587.951L-165.635 586.09C-182.836 579.191 -187.541 566.028 -179.75 546.598L-145.954 462.322C-142.778 454.402 -138.168 448.637 -132.124 445.027C-126.03 441.294 -118.589 441.189 -109.803 444.713L-104.976 446.648C-99.5311 448.832 -95.3367 451.447 -92.393 454.495C-89.3255 457.593 -87.6077 461.011 -87.2396 464.75C-86.8715 468.489 -87.0354 471.943 -87.7314 475.112C-88.2541 478.206 -89.3094 481.733 -90.8975 485.693L-100.798 510.382L-121.403 502.12L-111.651 477.802C-109.22 471.738 -110.355 467.763 -115.058 465.877C-117.533 464.885 -119.563 464.933 -121.149 466.021C-122.561 467.034 -123.912 469.15 -125.202 472.368L-158.105 554.416C-160.636 560.728 -159.674 564.777 -155.219 566.563C-150.64 568.4 -147.11 566.224 -144.628 560.036ZM-92.9341 613.304L-62.9348 538.495L-107.97 607.274L-128.946 598.863L-73.5631 460.753L-52.5869 469.165L-82.5862 543.974L-37.5508 475.195L-16.5746 483.607L-71.9579 621.716L-92.9341 613.304ZM-7.59079 580.297L-10.004 579.33L-48.6366 631.068L-70.1697 622.433L-28.7489 567.503C-35.4291 561.951 -37.0323 554.844 -33.5584 546.181L-18.1494 507.755C-15.0725 500.083 -11.1564 495.332 -6.40099 493.504C-1.59597 491.552 4.3954 492.016 11.5731 494.894L45.5435 508.517L-9.8398 646.626L-30.8161 638.214L-7.59079 580.297ZM0.448718 560.249L17.0488 518.854L11.4799 516.62C8.38606 515.38 6.07118 515.241 4.53526 516.206C2.99934 517.17 1.58623 519.261 0.295939 522.479L-8.78573 545.125C-11.4159 551.684 -10.1941 555.981 -5.1202 558.016L0.448718 560.249Z" fill="white" fill-opacity="0.03"/>
<path d="M17.4641 657.575L72.8474 519.466L105.89 532.717C114.057 535.992 118.981 540.193 120.66 545.32C122.463 550.496 121.9 556.735 118.972 564.036L110.486 585.198C106.417 595.346 100.396 600.33 92.4237 600.149C99.227 606.469 100.544 614.827 96.3757 625.222L84.3909 655.108C81.2644 662.905 76.9268 668.348 71.378 671.438C66.0026 674.454 59.5404 674.449 51.9914 671.421L17.4641 657.575ZM69.9869 605.589L63.6755 603.058L46.2565 646.496L52.568 649.027C55.7856 650.317 58.249 650.443 59.9583 649.405C61.6676 648.366 63.1674 646.238 64.4577 643.021L74.5816 617.775C75.8222 614.681 76.1586 612.23 75.5907 610.422C75.0725 608.491 73.2045 606.88 69.9869 605.589ZM92.6167 549.158L86.3052 546.627L71.9383 582.453L78.2498 584.984C83.0762 586.92 86.7796 584.67 89.3602 578.235L96.3576 560.785C97.5982 557.692 97.9346 555.241 97.3667 553.433C96.9226 551.675 95.3392 550.249 92.6167 549.158ZM115.815 697.015L123.452 669.91L108.045 663.732L95.0243 688.678L76.2756 681.16L148.551 549.824L173.426 559.799L136.049 705.129L115.815 697.015ZM144.389 595.131L118.535 644.02L129.487 648.412L144.389 595.131ZM177.52 721.76L184.115 654.804L160.07 714.762L139.094 706.35L194.477 568.241L215.454 576.653L193.271 631.971L231.975 583.278L252.394 591.467L207.147 647.879L199.053 730.395L177.52 721.76ZM237.272 745.721L244.91 718.616L229.502 712.438L216.482 737.384L197.733 729.865L270.009 598.53L294.883 608.505L257.506 753.835L237.272 745.721ZM265.847 643.836L239.993 692.726L250.945 697.118L265.847 643.836ZM305.87 702.767L281.528 763.468L260.552 755.056L315.935 616.947L336.911 625.359L314.728 680.677L329.022 686.409L351.205 631.091L372.181 639.502L316.798 777.612L295.821 769.2L320.163 708.499L305.87 702.767ZM370.497 766.608L383.375 734.494L403.98 742.757L391.176 774.685C383.186 794.609 370.838 801.222 354.131 794.522L349.49 792.661C332.289 785.763 327.584 772.599 335.375 753.17L369.171 668.894C372.347 660.973 376.957 655.209 383.001 651.599C389.095 647.866 396.536 647.761 405.322 651.284L410.149 653.22C415.594 655.403 419.788 658.019 422.732 661.067C425.799 664.164 427.517 667.583 427.885 671.322C428.254 675.061 428.09 678.515 427.394 681.683C426.871 684.778 425.816 688.305 424.228 692.265L414.327 716.954L393.722 708.691L403.474 684.373C405.905 678.31 404.77 674.335 400.067 672.449C397.592 671.456 395.562 671.504 393.976 672.592C392.564 673.606 391.213 675.722 389.923 678.939L357.02 760.988C354.489 767.299 355.451 771.348 359.906 773.135C364.485 774.971 368.015 772.795 370.497 766.608ZM422.191 819.875L452.19 745.066L407.155 813.846L386.179 805.434L441.562 667.325L462.538 675.737L432.539 750.546L477.574 681.766L498.55 690.178L443.167 828.287L422.191 819.875ZM507.534 786.869L505.121 785.901L466.488 837.639L444.955 829.004L486.376 774.074C479.696 768.523 478.093 761.415 481.567 752.752L496.976 714.327C500.052 706.654 503.969 701.904 508.724 700.076C513.529 698.124 519.52 698.587 526.698 701.466L560.669 715.088L505.285 853.197L484.309 844.785L507.534 786.869ZM515.574 766.821L532.174 725.425L526.605 723.192C523.511 721.951 521.196 721.813 519.66 722.777C518.124 723.742 516.711 725.832 515.421 729.05L506.339 751.697C503.709 758.256 504.931 762.553 510.005 764.587L515.574 766.821Z" fill="white" fill-opacity="0.03"/>
<path d="M532.589 864.146L587.972 726.037L621.015 739.287C629.182 742.562 634.106 746.763 635.785 751.89C637.588 757.066 637.025 763.305 634.097 770.607L625.611 791.768C621.542 801.916 615.521 806.9 607.549 806.72C614.352 813.039 615.669 821.397 611.501 831.792L599.516 861.679C596.389 869.475 592.052 874.918 586.503 878.009C581.128 881.024 574.665 881.019 567.116 877.992L532.589 864.146ZM585.112 812.16L578.8 809.629L561.382 853.066L567.693 855.597C570.911 856.888 573.374 857.013 575.083 855.975C576.793 854.937 578.292 852.809 579.583 849.591L589.707 824.345C590.947 821.251 591.284 818.801 590.716 816.993C590.197 815.061 588.33 813.45 585.112 812.16ZM607.742 755.728L601.43 753.197L587.063 789.024L593.375 791.555C598.201 793.49 601.905 791.24 604.485 784.805L611.483 767.356C612.723 764.262 613.06 761.811 612.492 760.003C612.048 758.245 610.464 756.82 607.742 755.728ZM630.94 903.586L638.577 876.481L623.17 870.302L610.149 895.248L591.401 887.73L663.676 756.395L688.551 766.37L651.174 911.7L630.94 903.586ZM659.514 801.701L633.66 850.59L644.612 854.982L659.514 801.701ZM692.645 928.33L699.24 861.374L675.195 921.333L654.219 912.921L709.602 774.812L730.579 783.223L708.396 838.541L747.1 789.849L767.519 798.037L722.272 854.449L714.178 936.965L692.645 928.33ZM752.397 952.291L760.035 925.187L744.627 919.008L731.607 943.954L712.858 936.436L785.134 805.101L810.008 815.076L772.631 960.405L752.397 952.291ZM780.972 850.407L755.118 899.296L766.07 903.688L780.972 850.407ZM820.995 909.337L796.653 970.038L775.677 961.627L831.06 823.517L852.036 831.929L829.853 887.247L844.147 892.979L866.33 837.661L887.306 846.073L831.923 984.182L810.946 975.77L835.288 915.069L820.995 909.337ZM885.622 973.178L898.5 941.064L919.105 949.327L906.301 981.255C898.311 1001.18 885.963 1007.79 869.256 1001.09L864.615 999.231C847.414 992.333 842.709 979.17 850.5 959.74L884.296 875.464C887.472 867.544 892.082 861.779 898.126 858.169C904.22 854.436 911.661 854.331 920.447 857.854L925.274 859.79C930.719 861.973 934.913 864.589 937.857 867.637C940.924 870.735 942.642 874.153 943.01 877.892C943.379 881.631 943.215 885.085 942.519 888.253C941.996 891.348 940.941 894.875 939.353 898.835L929.452 923.524L908.847 915.261L918.599 890.944C921.03 884.88 919.895 880.905 915.192 879.019C912.717 878.027 910.687 878.074 909.101 879.162C907.689 880.176 906.338 882.292 905.048 885.51L872.145 967.558C869.614 973.87 870.576 977.919 875.031 979.705C879.61 981.542 883.14 979.366 885.622 973.178ZM937.316 1026.45L967.315 951.637L922.28 1020.42L901.304 1012L956.687 873.895L977.663 882.307L947.664 957.116L992.699 888.337L1013.68 896.748L958.292 1034.86L937.316 1026.45ZM1022.66 993.439L1020.25 992.471L981.613 1044.21L960.08 1035.57L1001.5 980.645C994.821 975.093 993.218 967.986 996.692 959.323L1012.1 920.897C1015.18 913.225 1019.09 908.474 1023.85 906.646C1028.65 904.694 1034.65 905.158 1041.82 908.036L1075.79 921.658L1020.41 1059.77L999.434 1051.36L1022.66 993.439ZM1030.7 973.391L1047.3 931.995L1041.73 929.762C1038.64 928.521 1036.32 928.383 1034.79 929.348C1033.25 930.312 1031.84 932.403 1030.55 935.62L1021.46 958.267C1018.83 964.826 1020.06 969.123 1025.13 971.158L1030.7 973.391Z" fill="white" fill-opacity="0.03"/>
<path d="M-258.915 728.827L-203.531 590.718L-170.489 603.969C-162.322 607.244 -157.398 611.445 -155.719 616.572C-153.916 621.748 -154.478 627.987 -157.406 635.288L-165.893 656.45C-169.962 666.598 -175.983 671.582 -183.955 671.401C-177.152 677.721 -175.835 686.078 -180.003 696.474L-191.988 726.36C-195.115 734.157 -199.452 739.6 -205.001 742.69C-210.376 745.706 -216.839 745.7 -224.388 742.673L-258.915 728.827ZM-206.392 676.841L-212.703 674.31L-230.122 717.748L-223.811 720.279C-220.593 721.569 -218.13 721.695 -216.421 720.657C-214.711 719.618 -213.211 717.49 -211.921 714.273L-201.797 689.027C-200.557 685.933 -200.22 683.482 -200.788 681.674C-201.306 679.743 -203.174 678.132 -206.392 676.841ZM-183.762 620.41L-190.074 617.879L-204.441 653.705L-198.129 656.236C-193.303 658.172 -189.599 655.922 -187.019 649.487L-180.021 632.037C-178.781 628.944 -178.444 626.493 -179.012 624.685C-179.456 622.926 -181.04 621.501 -183.762 620.41ZM-160.564 768.267L-152.927 741.162L-168.334 734.984L-181.355 759.93L-200.103 752.412L-127.828 621.076L-102.953 631.051L-140.33 776.381L-160.564 768.267ZM-131.99 666.382L-157.844 715.272L-146.892 719.664L-131.99 666.382ZM-98.8592 793.012L-92.2644 726.055L-116.308 786.014L-137.285 777.602L-81.9014 639.493L-60.9252 647.905L-83.1083 703.223L-44.4041 654.53L-23.9847 662.719L-69.2321 719.131L-77.3261 801.647L-98.8592 793.012ZM-39.1065 816.973L-31.4694 789.868L-46.8767 783.69L-59.8971 808.636L-78.6458 801.117L-6.37012 669.782L18.5044 679.757L-18.8728 825.087L-39.1065 816.973ZM-10.532 715.088L-36.3863 763.978L-25.4341 768.37L-10.532 715.088ZM29.4908 774.019L5.14898 834.72L-15.8273 826.308L39.556 688.199L60.5323 696.611L38.3492 751.929L52.6427 757.661L74.8258 702.343L95.8021 710.754L40.4188 848.864L19.4425 840.452L43.7844 779.751L29.4908 774.019ZM94.1179 837.86L106.996 805.746L127.601 814.008L114.797 845.937C106.807 865.861 94.4591 872.474 77.7523 865.774L73.1116 863.913C55.9098 857.015 51.2046 843.851 58.996 824.422L92.7917 740.146C95.9678 732.225 100.578 726.46 106.623 722.851C112.717 719.118 120.157 719.013 128.943 722.536L133.77 724.472C139.215 726.655 143.409 729.271 146.353 732.319C149.421 735.416 151.138 738.835 151.506 742.574C151.875 746.313 151.711 749.766 151.015 752.935C150.492 756.03 149.437 759.557 147.849 763.517L137.948 788.206L117.343 779.943L127.095 755.625C129.526 749.561 128.391 745.587 123.688 743.701C121.213 742.708 119.183 742.756 117.597 743.844C116.185 744.858 114.834 746.974 113.544 750.191L80.6413 832.24C78.1103 838.551 79.0724 842.6 83.5275 844.387C88.1064 846.223 91.6365 844.047 94.1179 837.86ZM145.812 891.127L175.811 816.318L130.776 885.098L109.8 876.686L165.183 738.577L186.159 746.989L156.16 821.798L201.195 753.018L222.172 761.43L166.788 899.539L145.812 891.127ZM231.155 858.121L228.742 857.153L190.11 908.891L168.576 900.256L209.997 845.326C203.317 839.775 201.714 832.667 205.188 824.004L220.597 785.579C223.674 777.906 227.59 773.156 232.345 771.328C237.15 769.376 243.141 769.839 250.319 772.718L284.29 786.34L228.906 924.449L207.93 916.037L231.155 858.121ZM239.195 838.073L255.795 796.677L250.226 794.444C247.132 793.203 244.817 793.065 243.281 794.029C241.745 794.993 240.332 797.084 239.042 800.302L229.96 822.949C227.33 829.508 228.552 833.805 233.626 835.839L239.195 838.073Z" fill="white" fill-opacity="0.03"/>
<path d="M256.21 935.398L311.594 797.289L344.636 810.539C352.803 813.814 357.727 818.015 359.406 823.142C361.209 828.318 360.647 834.557 357.719 841.859L349.232 863.02C345.163 873.168 339.142 878.152 331.17 877.972C337.973 884.291 339.29 892.649 335.122 903.044L323.137 932.931C320.01 940.727 315.673 946.17 310.124 949.26C304.749 952.276 298.286 952.271 290.737 949.244L256.21 935.398ZM308.733 883.412L302.422 880.881L285.003 924.318L291.314 926.849C294.532 928.139 296.995 928.265 298.704 927.227C300.414 926.189 301.914 924.061 303.204 920.843L313.328 895.597C314.568 892.503 314.905 890.053 314.337 888.245C313.819 886.313 311.951 884.702 308.733 883.412ZM331.363 826.98L325.051 824.449L310.684 860.276L316.996 862.807C321.822 864.742 325.526 862.492 328.106 856.057L335.104 838.608C336.344 835.514 336.681 833.063 336.113 831.255C335.669 829.497 334.085 828.072 331.363 826.98ZM354.561 974.838L362.198 947.733L346.791 941.554L333.77 966.5L315.022 958.982L387.297 827.647L412.172 837.622L374.795 982.951L354.561 974.838ZM383.135 872.953L357.281 921.842L368.233 926.234L383.135 872.953ZM416.266 999.582L422.861 932.626L398.817 992.584L377.84 984.173L433.224 846.064L454.2 854.475L432.017 909.793L470.721 861.1L491.14 869.289L445.893 925.701L437.799 1008.22L416.266 999.582ZM476.019 1023.54L483.656 996.438L468.248 990.26L455.228 1015.21L436.479 1007.69L508.755 876.353L533.629 886.327L496.252 1031.66L476.019 1023.54ZM504.593 921.659L478.739 970.548L489.691 974.94L504.593 921.659ZM544.616 980.589L520.274 1041.29L499.298 1032.88L554.681 894.769L575.657 903.181L553.474 958.499L567.768 964.231L589.951 908.913L610.927 917.325L555.544 1055.43L534.568 1047.02L558.909 986.321L544.616 980.589ZM609.243 1044.43L622.121 1012.32L642.726 1020.58L629.922 1052.51C621.932 1072.43 609.584 1079.04 592.877 1072.34L588.237 1070.48C571.035 1063.59 566.33 1050.42 574.121 1030.99L607.917 946.716C611.093 938.796 615.703 933.031 621.748 929.421C627.842 925.688 635.282 925.583 644.068 929.106L648.895 931.042C654.34 933.225 658.534 935.841 661.478 938.889C664.546 941.987 666.263 945.405 666.631 949.144C667 952.883 666.836 956.337 666.14 959.505C665.617 962.6 664.562 966.127 662.974 970.087L653.073 994.776L632.468 986.513L642.22 962.196C644.651 956.132 643.516 952.157 638.813 950.271C636.338 949.279 634.308 949.326 632.722 950.414C631.31 951.428 629.959 953.544 628.669 956.762L595.766 1038.81C593.235 1045.12 594.197 1049.17 598.653 1050.96C603.231 1052.79 606.762 1050.62 609.243 1044.43ZM660.937 1097.7L690.936 1022.89L645.901 1091.67L624.925 1083.26L680.308 945.147L701.284 953.559L671.285 1028.37L716.32 959.589L737.297 968L681.913 1106.11L660.937 1097.7ZM746.28 1064.69L743.867 1063.72L705.235 1115.46L683.701 1106.83L725.122 1051.9C718.442 1046.34 716.839 1039.24 720.313 1030.57L735.722 992.149C738.799 984.476 742.715 979.726 747.47 977.898C752.275 975.946 758.266 976.409 765.444 979.288L799.415 992.91L744.031 1131.02L723.055 1122.61L746.28 1064.69ZM754.32 1044.64L770.92 1003.25L765.351 1001.01C762.257 999.773 759.942 999.635 758.406 1000.6C756.87 1001.56 755.457 1003.65 754.167 1006.87L745.085 1029.52C742.455 1036.08 743.677 1040.38 748.751 1042.41L754.32 1044.64Z" fill="white" fill-opacity="0.03"/>
<path d="M-173.313 945.238L-117.93 807.128L-84.8877 820.379C-76.72 823.654 -71.7965 827.855 -70.1173 832.982C-68.3144 838.158 -68.8769 844.397 -71.8049 851.698L-80.291 872.86C-84.3604 883.008 -90.3813 887.992 -98.3537 887.812C-91.5503 894.131 -90.233 902.489 -94.4016 912.884L-106.386 942.77C-109.513 950.567 -113.851 956.01 -119.399 959.1C-124.775 962.116 -131.237 962.111 -138.786 959.083L-173.313 945.238ZM-120.79 893.251L-127.102 890.721L-144.521 934.158L-138.209 936.689C-134.992 937.979 -132.528 938.105 -130.819 937.067C-129.11 936.028 -127.61 933.9 -126.32 930.683L-116.196 905.437C-114.955 902.343 -114.619 899.892 -115.187 898.084C-115.705 896.153 -117.573 894.542 -120.79 893.251ZM-98.1607 836.82L-104.472 834.289L-118.839 870.116L-112.528 872.647C-107.701 874.582 -103.998 872.332 -101.417 865.897L-94.4198 848.448C-93.1791 845.354 -92.8427 842.903 -93.4106 841.095C-93.8547 839.337 -95.4381 837.912 -98.1607 836.82ZM-74.9624 984.677L-67.3253 957.572L-82.7326 951.394L-95.753 976.34L-114.502 968.822L-42.226 837.487L-17.3515 847.462L-54.7287 992.791L-74.9624 984.677ZM-46.388 882.793L-72.2422 931.682L-61.29 936.074L-46.388 882.793ZM-13.2577 1009.42L-6.66284 942.466L-30.7069 1002.42L-51.6832 994.013L3.70012 855.903L24.6764 864.315L2.49327 919.633L41.1975 870.94L61.6168 879.129L16.3694 935.541L8.27548 1018.06L-13.2577 1009.42ZM46.4951 1033.38L54.1322 1006.28L38.7249 1000.1L25.7044 1025.05L6.95576 1017.53L79.2314 886.192L104.106 896.167L66.7288 1041.5L46.4951 1033.38ZM75.0695 931.498L49.2153 980.388L60.1675 984.78L75.0695 931.498ZM115.092 990.429L90.7505 1051.13L69.7743 1042.72L125.158 904.609L146.134 913.021L123.951 968.339L138.244 974.071L160.427 918.753L181.404 927.165L126.02 1065.27L105.044 1056.86L129.386 996.161L115.092 990.429ZM179.719 1054.27L192.598 1022.16L213.203 1030.42L200.399 1062.35C192.409 1082.27 180.061 1088.88 163.354 1082.18L158.713 1080.32C141.511 1073.43 136.806 1060.26 144.598 1040.83L178.393 956.556C181.569 948.636 186.18 942.871 192.224 939.261C198.318 935.528 205.758 935.423 214.545 938.946L219.371 940.882C224.817 943.065 229.011 945.681 231.955 948.729C235.022 951.827 236.74 955.245 237.108 958.984C237.476 962.723 237.312 966.177 236.616 969.345C236.094 972.44 235.038 975.967 233.45 979.927L223.55 1004.62L202.945 996.353L212.696 972.036C215.128 965.972 213.993 961.997 209.29 960.111C206.815 959.118 204.785 959.166 203.199 960.254C201.787 961.268 200.436 963.384 199.145 966.601L166.243 1048.65C163.712 1054.96 164.674 1059.01 169.129 1060.8C173.708 1062.63 177.238 1060.46 179.719 1054.27ZM231.414 1107.54L261.413 1032.73L216.377 1101.51L195.401 1093.1L250.785 954.987L271.761 963.399L241.761 1038.21L286.797 969.428L307.773 977.84L252.39 1115.95L231.414 1107.54ZM316.757 1074.53L314.344 1073.56L275.711 1125.3L254.178 1116.67L295.599 1061.74C288.919 1056.18 287.315 1049.08 290.789 1040.41L306.198 1001.99C309.275 994.316 313.191 989.566 317.947 987.738C322.752 985.786 328.743 986.249 335.921 989.128L369.891 1002.75L314.508 1140.86L293.532 1132.45L316.757 1074.53ZM324.796 1054.48L341.396 1013.09L335.828 1010.85C332.734 1009.61 330.419 1009.48 328.883 1010.44C327.347 1011.4 325.934 1013.49 324.644 1016.71L315.562 1039.36C312.932 1045.92 314.154 1050.21 319.227 1052.25L324.796 1054.48Z" fill="white" fill-opacity="0.03"/>
</svg>
