<svg width="72" height="72" viewBox="0 0 72 72" fill="none" xmlns="http://www.w3.org/2000/svg">
<rect width="72" height="72" rx="36" fill="#DE523E"/>
<circle cx="36" cy="36" r="30.5" stroke="#FF6A54"/>
<path d="M30.0252 53.8086C30.2314 54.2814 30.4417 57 30.4417 57H37.3533C37.3533 57 37.1168 54.1062 37.3533 52.272C37.4461 51.5521 37.4669 51.1382 37.6834 50.4399C38.1682 48.8759 39.972 47.9601 39.9936 46.8348L39.9938 46.8248C40.0128 45.8297 40.0191 45.502 39.5314 44.4118C39.0027 43.2298 39.1204 42.4911 39.3339 41.3977C39.518 40.4545 39.5314 40.5112 39.7295 39.3883C39.8213 38.8679 39.8273 38.0796 39.3339 37.7926C38.7055 37.427 37.947 37.8516 37.2868 38.5017C36.5033 39.2733 36.0329 40.984 36.0329 40.984C36.0329 40.984 35.0426 39.6247 34.1839 38.029C33.9686 37.629 33.2246 36.7218 32.4674 37.0834C31.4771 37.5562 31.9556 38.7814 32.2033 39.3292C33.3256 41.8114 33.3921 42.1068 33.3921 42.1068C33.3921 42.1068 32.1564 41.5667 31.4776 42.1068C30.9228 42.5483 30.8767 43.1976 30.6188 43.8207C29.9696 43.7645 29.562 43.6434 29.2324 44.0571C28.9028 44.4708 28.9019 44.9437 28.9019 45.6529C28.4818 45.4764 27.9116 45.4756 27.5159 45.7711C27.0197 46.1415 26.9212 46.7758 27.0534 47.485C27.342 49.0331 27.6825 49.1995 28.0437 50.7354C28.3078 51.8583 28.6477 52.3239 29.034 52.8039C29.453 53.3246 29.8189 53.3358 30.0252 53.8086Z" fill="#FFBC50"/>
<path d="M28.9019 45.6529C28.4818 45.4764 27.9116 45.4756 27.5159 45.7711C27.0197 46.1415 26.9212 46.7758 27.0534 47.4849C27.342 49.0331 27.6825 49.1995 28.0437 50.7354C28.3078 51.8583 28.6477 52.3239 29.034 52.8039C29.453 53.3246 29.8189 53.3358 30.0252 53.8086C30.2314 54.2814 30.4417 57 30.4417 57H37.3533C37.3533 57 37.1168 54.1062 37.3533 52.272C37.4461 51.5521 37.4669 51.1382 37.6834 50.4399C38.1682 48.8759 39.972 47.9601 39.9936 46.8348C40.0128 45.8319 40.0207 45.5057 39.5314 44.4118C39.0027 43.2298 39.1204 42.4911 39.3339 41.3977C39.518 40.4545 39.5314 40.5112 39.7295 39.3883C39.8213 38.8679 39.8273 38.0796 39.3339 37.7926C38.7055 37.427 37.947 37.8516 37.2868 38.5017C36.5033 39.2733 36.0329 40.984 36.0329 40.984M28.9019 45.6529C29.2629 46.0452 29.1848 45.9375 29.497 46.362C29.8901 46.8966 30.2892 47.8395 30.2892 47.8395M28.9019 45.6529C28.9019 44.9437 28.9028 44.4708 29.2324 44.0571C29.562 43.6434 29.9696 43.7645 30.6188 43.8207M30.6188 43.8207C31.0056 44.0054 31.786 44.7048 32.0713 45.0027C32.8635 45.8301 33.1936 46.8348 33.1936 46.8348M30.6188 43.8207C30.8767 43.1976 30.9228 42.5483 31.4776 42.1068C32.1564 41.5667 33.3921 42.1068 33.3921 42.1068M33.3921 42.1068C33.3921 42.1068 34.4339 43.0628 34.9766 43.7616C35.4512 44.3728 36.0329 45.4164 36.0329 45.4164M33.3921 42.1068C33.3921 42.1068 33.3256 41.8114 32.2033 39.3292C31.9556 38.7814 31.4771 37.5562 32.4674 37.0834C33.2246 36.7218 33.9686 37.629 34.1839 38.029C35.0426 39.6247 36.0329 40.984 36.0329 40.984M36.0329 40.984L37.2868 42.9343" stroke="#1D1F27" stroke-width="1.5"/>
<path d="M27.8088 25.5699C32.5429 31.2602 35.5 34 35.5 34C35.5 34 38.4571 31.2602 43.1912 25.5699C45.0334 23.3556 45.7557 19.4153 43.98 17.1398C42.6975 15.4964 41.2413 14.8406 39.247 15.0323C37.6 15.1906 35.5 17.1398 35.5 17.1398C35.5 17.1398 33.4 15.1906 31.753 15.0323C29.7587 14.8406 28.3025 15.4964 27.02 17.1398C25.2443 19.4153 25.9666 23.3556 27.8088 25.5699Z" fill="white" stroke="#1D1F27" stroke-width="1.5"/>
</svg>
