<svg width="72" height="72" viewBox="0 0 72 72" fill="none" xmlns="http://www.w3.org/2000/svg">
<rect width="72" height="72" rx="36" fill="#DE523E"/>
<circle cx="36" cy="36" r="30.5" stroke="#FF6A54"/>
<path d="M27.8868 49.7342C28.22 50.5143 28.5597 55 28.5597 55H39.7246C39.7246 55 39.3426 50.2253 39.7246 47.1988C39.8745 46.0109 39.9081 45.3281 40.2578 44.1758C41.0409 41.5953 43.9548 40.0842 43.9896 38.2275L43.9899 38.2109C44.0207 36.5689 44.0308 36.0283 43.2431 34.2294C42.3891 32.2791 42.5791 31.0603 42.924 29.2562C43.2214 27.6999 43.2431 27.7934 43.563 25.9406C43.7113 25.082 43.7211 23.7814 42.924 23.3077C41.9088 22.7046 40.6836 23.4052 39.6171 24.4779C38.3514 25.7509 37.5916 28.5735 37.5916 28.5735C37.5916 28.5735 35.9919 26.3307 34.6047 23.6978C34.257 23.0379 33.0552 21.541 31.8319 22.1376C30.2322 22.9177 31.0052 24.9393 31.4053 25.8431C33.2183 29.9387 33.3258 30.4263 33.3258 30.4263C33.3258 30.4263 31.3296 29.535 30.233 30.4263C29.3368 31.1547 29.2623 32.226 28.8458 33.2542C27.7971 33.1614 27.1386 32.9617 26.6062 33.6443C26.0738 34.3269 26.0723 35.107 26.0723 36.2772C25.3937 35.986 24.4726 35.9847 23.8333 36.4722C23.0319 37.0835 22.8727 38.13 23.0863 39.3002C23.5525 41.8547 24.1024 42.1292 24.6859 44.6635C25.1125 46.5163 25.6616 47.2845 26.2856 48.0765C26.9625 48.9356 27.5536 48.9541 27.8868 49.7342Z" fill="#FFBC50"/>
<path d="M26.0723 36.2772C25.3937 35.986 24.4726 35.9847 23.8333 36.4722C23.0319 37.0835 22.8727 38.13 23.0863 39.3002C23.5525 41.8547 24.1024 42.1292 24.6859 44.6635C25.1125 46.5163 25.6616 47.2845 26.2856 48.0765C26.9625 48.9356 27.5536 48.9541 27.8868 49.7342C28.22 50.5143 28.5597 55 28.5597 55H39.7246C39.7246 55 39.3426 50.2253 39.7246 47.1988C39.8745 46.0109 39.9081 45.3281 40.2578 44.1758C41.0409 41.5953 43.9548 40.0842 43.9896 38.2275C44.0206 36.5726 44.0335 36.0344 43.2431 34.2294C42.3891 32.2791 42.5791 31.0603 42.924 29.2562C43.2214 27.6999 43.2431 27.7934 43.563 25.9406C43.7113 25.082 43.7211 23.7814 42.924 23.3077C41.9088 22.7046 40.6836 23.4052 39.6171 24.4779C38.3514 25.7509 37.5916 28.5735 37.5916 28.5735M26.0723 36.2772C26.6554 36.9246 26.5293 36.7468 27.0336 37.4473C27.6686 38.3294 28.3134 39.8852 28.3134 39.8852M26.0723 36.2772C26.0723 35.107 26.0738 34.3269 26.6062 33.6443C27.1386 32.9617 27.7971 33.1614 28.8458 33.2542M28.8458 33.2542C29.4705 33.5589 30.7313 34.713 31.192 35.2045C32.4718 36.5697 33.005 38.2275 33.005 38.2275M28.8458 33.2542C29.2623 32.226 29.3368 31.1547 30.233 30.4263C31.3296 29.535 33.3258 30.4263 33.3258 30.4263M33.3258 30.4263C33.3258 30.4263 35.0085 32.0036 35.8853 33.1567C36.652 34.165 37.5916 35.8871 37.5916 35.8871M33.3258 30.4263C33.3258 30.4263 33.2183 29.9387 31.4053 25.8431C31.0052 24.9393 30.2322 22.9177 31.8319 22.1376C33.0552 21.541 34.257 23.0379 34.6047 23.6978C35.9919 26.3307 37.5916 28.5735 37.5916 28.5735M37.5916 28.5735L39.6171 31.7915" stroke="#1D1F27" stroke-width="1.5"/>
<path d="M33.8568 19.0068C36.0992 21.7022 37.5 23 37.5 23C37.5 23 38.9008 21.7022 41.1432 19.0068C42.0158 17.9579 42.358 16.0915 41.5168 15.0136C40.9093 14.2352 40.2196 13.9245 39.2749 14.0153C38.4947 14.0903 37.5 15.0136 37.5 15.0136C37.5 15.0136 36.5053 14.0903 35.7251 14.0153C34.7804 13.9245 34.0907 14.2352 33.4832 15.0136C32.642 16.0915 32.9842 17.9579 33.8568 19.0068Z" fill="white" stroke="#1D1F27" stroke-width="1.5"/>
</svg>
