<svg width="440" height="260" viewBox="0 0 440 260" fill="none" xmlns="http://www.w3.org/2000/svg">
<path d="M-5 81L450 81" stroke="#CFD1DC" stroke-dasharray="9 9"/>
<rect opacity="0.2" x="-22" y="140" width="34.2" height="134" rx="5" fill="#DE523E"/>
<rect opacity="0.2" x="16.1992" y="150" width="34.2" height="124" rx="5" fill="#DE523E"/>
<rect opacity="0.2" x="54.3984" y="90" width="34.2" height="184" rx="5" fill="#DE523E"/>
<rect opacity="0.2" x="92.6016" y="100" width="34.2" height="174" rx="5" fill="#DE523E"/>
<rect opacity="0.2" x="130.801" y="110" width="34.2" height="164" rx="5" fill="#DE523E"/>
<rect x="169" y="70" width="34" height="204" rx="5" fill="#DE523E"/>
<path d="M184.887 86.6H182.787V84.72C182.787 84 182.967 83.3667 183.327 82.82C183.7 82.26 184.3 81.98 185.127 81.98H185.687C186.58 81.98 187.247 82.2267 187.687 82.72C188.127 83.2133 188.347 83.8933 188.347 84.76V86.46C188.347 87.7133 188.033 88.4933 187.407 88.8C187.78 88.9333 188.053 89.1333 188.227 89.4C188.4 89.6667 188.487 90.06 188.487 90.58V94.24C188.487 95.1467 188.247 95.8667 187.767 96.4C187.3 96.92 186.667 97.18 185.867 97.18H185.247C184.34 97.18 183.673 96.9467 183.247 96.48C182.833 96.0133 182.627 95.3933 182.627 94.62V91.6H184.867V94.04C184.867 94.6267 185.087 94.92 185.527 94.92C185.94 94.92 186.147 94.6267 186.147 94.04V90.94C186.147 90.6467 186.107 90.4467 186.027 90.34C185.96 90.2333 185.8 90.18 185.547 90.18H184.327V87.86H185.387C185.653 87.86 185.827 87.8067 185.907 87.7C185.987 87.5933 186.027 87.3667 186.027 87.02V84.94C186.027 84.6333 185.98 84.42 185.887 84.3C185.807 84.18 185.66 84.12 185.447 84.12C185.247 84.12 185.1 84.18 185.007 84.3C184.927 84.4067 184.887 84.6133 184.887 84.92V86.6Z" fill="white"/>
<path d="M169 109H203" stroke="#FF6A54"/>
<rect x="207" width="34" height="274" rx="5" fill="#DE523E"/>
<path d="M207 39H241" stroke="#FF6A54"/>
<path d="M222.944 15.6H221.424V13.76C222.09 13.72 222.557 13.5867 222.824 13.36C223.104 13.1333 223.297 12.72 223.404 12.12H225.224V27H222.944V15.6Z" fill="white"/>
<rect x="245" y="30" width="34" height="244" rx="5" fill="#DE523E"/>
<path d="M245 69H279" stroke="#FF6A54"/>
<path d="M262.459 44.14C262.246 44.14 262.099 44.2 262.019 44.32C261.939 44.44 261.899 44.64 261.899 44.92V47.46H259.739V44.74C259.739 43.94 259.933 43.28 260.319 42.76C260.706 42.24 261.333 41.98 262.199 41.98H262.659C264.499 41.98 265.419 42.9 265.419 44.74V45.48C265.419 46.4267 265.346 47.16 265.199 47.68C265.053 48.1867 264.686 48.8867 264.099 49.78C263.939 50.02 263.459 50.7 262.659 51.82C262.046 52.7 261.653 53.34 261.479 53.74C261.319 54.14 261.239 54.52 261.239 54.88H263.239V52.02H265.519V57H259.359V55.88C259.359 54.9067 259.466 54.0733 259.679 53.38C259.906 52.6733 260.379 51.7 261.099 50.46L262.399 48.16C262.599 47.8 262.746 47.4867 262.839 47.22C262.946 46.94 263.006 46.7267 263.019 46.58C263.033 46.42 263.039 46.1867 263.039 45.88V44.92C263.039 44.4 262.846 44.14 262.459 44.14Z" fill="white"/>
<rect opacity="0.2" x="283" y="140" width="34.2" height="134" rx="5" fill="#DE523E"/>
<rect opacity="0.2" x="321.199" y="120" width="34.2" height="154" rx="5" fill="#DE523E"/>
<rect opacity="0.2" x="359.398" y="120" width="34.2" height="154" rx="5" fill="#DE523E"/>
<rect opacity="0.2" x="397.602" y="150" width="34.2" height="124" rx="5" fill="#DE523E"/>
<rect opacity="0.2" x="435.801" y="130" width="34.2" height="144" rx="5" fill="#DE523E"/>
</svg>
