<svg width="440" height="611" viewBox="0 0 440 611" fill="none" xmlns="http://www.w3.org/2000/svg">
<path d="M-29.3004 593.736L-28.8068 592.983L-28.0578 591.853L-7.13762 560.23L13.7656 591.853L14.5145 592.983L17.6296 597.688L18.1573 596.909L20.2169 593.789L19.6722 592.983L18.9233 591.853L18.5828 591.342L-4.56727 556.357L15.2976 526.32L18.5998 521.345L19.6722 519.705L20.2169 518.898L18.3786 516.129L17.6296 514.999L14.5145 519.705L12.7953 522.313L-7.13762 552.458L-28.8068 519.705L-32.1602 514.623L-33.3006 516.371L-34.7305 518.522L-33.9645 519.705L-33.0623 521.05V521.076L-9.72498 556.357L-32.858 591.315L-29.3004 593.736Z" fill="#2C2E37"/>
<path d="M61.9549 519.705L62.3975 518.898L60.2697 514.999L57.6994 519.705L39.8262 552.458L35.7238 544.929L21.9529 519.705L19.1783 514.623L18.3783 516.129L17.0505 518.522L17.6974 519.705L18.5995 521.345L36.66 554.448L37.6984 556.357L36.9664 557.675L36.0813 559.315L18.5825 591.342L18.3102 591.853L17.6974 592.983L16.8633 594.516L18.157 596.909L18.991 598.415L21.9529 592.983L22.5657 591.853L39.8262 560.23L57.0866 591.853L57.6994 592.983L60.2697 597.689L62.3975 593.789L61.9549 592.983L61.3251 591.853L41.9539 556.357L61.9549 519.705Z" fill="#2C2E37"/>
<path d="M244.943 486.669L202.371 486.955C198.307 486.983 196.808 489.898 199.024 493.468L209.686 510.642C211.902 514.212 216.993 517.083 221.057 517.056L263.629 516.769C267.693 516.742 269.192 513.826 266.976 510.257L256.314 493.082C254.098 489.513 249.007 486.642 244.943 486.669Z" fill="#2C2E37"/>
<path d="M244.071 489.278L206.462 489.531C203.003 489.554 201.728 492.036 203.614 495.074L212.253 508.989C214.139 512.027 218.472 514.471 221.931 514.448L259.54 514.195C262.999 514.172 264.274 511.69 262.388 508.652L253.749 494.736C251.863 491.698 247.53 489.255 244.071 489.278Z" fill="#4C4D55"/>
<path d="M221.057 517.056H205.129C201.9 517.056 199.272 514.46 199.233 511.233L199.023 493.468L214.024 514.447L221.057 517.056Z" fill="#2C2E37"/>
<path d="M104.943 486.669L62.3706 486.955C58.3066 486.983 56.8085 489.898 59.0243 493.468L69.6862 510.642C71.9021 514.212 76.9929 517.083 81.0568 517.056L123.629 516.769C127.693 516.742 129.192 513.826 126.976 510.257L116.314 493.082C114.098 489.513 109.007 486.642 104.943 486.669Z" fill="#2C2E37"/>
<path d="M104.071 489.278L66.462 489.531C63.0031 489.554 61.7281 492.036 63.614 495.074L72.2528 508.989C74.1387 512.027 78.472 514.471 81.9308 514.448L119.54 514.195C122.999 514.172 124.274 511.69 122.388 508.652L113.749 494.736C111.863 491.698 107.53 489.255 104.071 489.278Z" fill="white"/>
<path d="M81.0567 517.056H65.1285C61.8995 517.056 59.2717 514.46 59.2334 511.233L59.0234 493.468L74.0245 514.447L81.0567 517.056Z" fill="#2C2E37"/>
<path d="M351.057 486.669L393.629 486.955C397.693 486.983 399.192 489.898 396.976 493.468L386.314 510.642C384.098 514.212 379.007 517.083 374.943 517.056L332.371 516.769C328.307 516.742 326.808 513.826 329.024 510.257L339.686 493.082C341.902 489.513 346.993 486.642 351.057 486.669Z" fill="#2C2E37"/>
<path d="M351.929 489.278L389.538 489.531C392.997 489.554 394.272 492.036 392.386 495.074L383.747 508.989C381.861 512.027 377.528 514.471 374.069 514.448L336.46 514.195C333.001 514.172 331.726 511.69 333.612 508.652L342.251 494.736C344.137 491.698 348.47 489.255 351.929 489.278Z" fill="white"/>
<path d="M374.943 517.056H390.871C394.1 517.056 396.728 514.46 396.767 511.233L396.977 493.468L381.976 514.447L374.943 517.056Z" fill="#2C2E37"/>
<g filter="url(#filter0_f_297_10247)">
<path d="M342.832 505.657L-357 -21.0297L477 -71L381.229 503.012L342.832 505.657Z" fill="url(#paint0_linear_297_10247)"/>
</g>
<g filter="url(#filter1_f_297_10247)">
<path d="M110.168 505.657L810 -21.0297L-34 -71L71.7713 503.012L110.168 505.657Z" fill="url(#paint1_linear_297_10247)"/>
</g>
<path d="M47.8626 598.495V592.982H-30.3711C-30.0136 593.224 -29.6562 593.466 -29.2987 593.708C-27.0688 595.241 -24.8219 596.828 -22.5409 598.468H47.8626V598.495Z" fill="#2C2E37"/>
<path d="M47.8615 519.706V514.193H-331C-329.842 516.048 -328.685 517.877 -327.527 519.706H47.8615Z" fill="#2C2E37"/>
<path d="M376.236 519.705L376.764 518.898L375.726 517.339L374.177 514.999L371.079 519.705L349.409 552.458L347.911 550.199L327.74 519.705L324.455 514.73L324.387 514.623L323.246 516.371L321.817 518.522L322.582 519.705L323.485 521.077L323.91 521.695L346.839 556.357L323.485 591.638L323.348 591.853L322.582 592.983L321.578 594.516L323.008 596.694L324.148 598.415L327.74 592.983L328.489 591.853L346.788 564.21L349.409 560.23L356.984 571.685L370.313 591.853L371.079 592.983L374.177 597.689L375.487 595.726L376.764 593.789L376.219 592.983L375.964 592.606L375.47 591.853L359.418 567.598L351.98 556.357L375.964 520.082L376.236 519.705Z" fill="#2C2E37"/>
<path d="M324.383 519.705L324.928 518.898L324.213 517.823L323.243 516.371L322.341 514.999L319.243 519.705L297.573 552.458L275.904 519.705L272.551 514.623L271.41 516.371L269.981 518.522L270.747 519.705L271.649 521.077L294.986 556.357L271.649 591.638L271.496 591.853L270.747 592.983L269.742 594.516L271.172 596.694L272.313 598.415L275.904 592.983L276.653 591.853L297.573 560.23L318.289 591.558L318.477 591.853L319.243 592.983L322.341 597.689L323.004 596.694L324.928 593.789L324.383 592.983L323.634 591.853L323.481 591.638L318.851 584.62L300.144 556.357L323.481 521.077L324.009 520.27L324.383 519.705Z" fill="#2C2E37"/>
<path d="M481.722 518.898L480.684 517.338L479.186 515.079L479.135 514.999L477.041 518.145L476.718 518.629L476.377 519.14L476.173 519.436L476.02 519.651L461.296 541.916L454.368 552.404L433.992 521.614L432.699 519.678L429.345 514.622L428.205 516.343L427.762 517.016L426.758 518.521L427.524 519.678L428.426 521.049L451.763 556.33L428.426 591.611L428.273 591.826L427.524 592.955L426.52 594.488L427.949 596.666L429.09 598.387L432.682 592.955L433.431 591.826L454.351 560.202L475.271 591.826L476.02 592.955L476.156 593.17C476.173 593.117 476.19 593.036 476.207 592.955C476.309 592.579 476.411 592.202 476.497 591.826C476.871 590.401 477.228 588.975 477.586 587.55L456.921 556.33L464.734 544.525L480.156 521.21L480.905 520.081L481.161 519.678L481.722 518.898Z" fill="#2C2E37"/>
<path d="M429.344 519.705L429.889 518.898L429.497 518.307H429.48L428.204 516.371L427.302 514.999L426.57 516.129L424.204 519.705L419.318 527.073L402.534 552.458L384.576 525.298L380.865 519.705L377.512 514.623L375.724 517.339L374.941 518.522L375.707 519.705L375.963 520.082L382.142 529.413L399.947 556.357L376.456 591.853L375.963 592.606L375.707 592.983L374.703 594.516L375.486 595.726L377.069 598.092L377.273 598.415L380.865 592.983L381.614 591.853L402.534 560.23L423.438 591.853L424.204 592.983L427.302 597.689L427.965 596.694L429.889 593.789L429.344 592.983L428.595 591.853L428.442 591.638L405.105 556.357L428.442 521.077L429.344 519.705Z" fill="#2C2E37"/>
<path d="M220.486 598.415L245.747 560.23L270.514 597.689L273.101 593.789L248.317 556.357L273.101 518.898L270.514 514.999L245.747 552.458L220.724 514.65L218.154 518.522L243.159 556.357L217.898 594.516L220.486 598.415Z" fill="#2C2E37"/>
<path d="M168.65 598.415L193.894 560.23L218.678 597.689L221.248 593.789L196.481 556.357L221.248 518.898L218.678 514.999L193.894 552.458L168.888 514.65L166.301 518.522L191.323 556.357L166.062 594.516L168.65 598.415Z" fill="#2C2E37"/>
<path d="M116.818 598.415L142.062 560.23L166.846 597.689L169.416 593.789L144.649 556.357L169.416 518.898L166.846 514.999L142.062 552.458L117.056 514.65L114.469 518.522L139.491 556.357L114.23 594.516L116.818 598.415Z" fill="#2C2E37"/>
<path d="M64.9688 598.415L90.2296 560.23L115.014 597.689L117.584 593.789L92.8 556.357L117.584 518.898L115.014 514.999L90.2296 552.458L65.2071 514.65L62.6368 518.522L87.6593 556.357L62.3984 594.516L64.9688 598.415Z" fill="#2C2E37"/>
<path d="M476.174 593.197C476.191 593.143 476.208 593.063 476.225 592.982H47.8633V598.495H474.761C475.238 596.747 475.715 594.972 476.174 593.197Z" fill="#2C2E37"/>
<path d="M491 514.193H47.8633V519.706H490.268C490.507 517.877 490.762 516.022 491 514.193Z" fill="#2C2E37"/>
<path d="M-30.3701 592.984C-30.0126 593.226 -29.6552 593.468 -29.2977 593.71C-27.0678 595.243 -24.8209 596.829 -22.5399 598.47C-17.1269 602.369 -11.5266 606.537 -5.7391 610.974H471.136C472.412 606.833 473.604 602.664 474.762 598.47C475.238 596.695 475.715 594.947 476.174 593.172C476.191 593.118 476.208 593.038 476.225 592.957C476.328 592.58 476.43 592.204 476.515 591.827H-31.7148L-30.3701 592.984Z" fill="#2C2E37"/>
<defs>
<filter id="filter0_f_297_10247" x="-407" y="-121" width="934" height="676.657" filterUnits="userSpaceOnUse" color-interpolation-filters="sRGB">
<feFlood flood-opacity="0" result="BackgroundImageFix"/>
<feBlend mode="normal" in="SourceGraphic" in2="BackgroundImageFix" result="shape"/>
<feGaussianBlur stdDeviation="25" result="effect1_foregroundBlur_297_10247"/>
</filter>
<filter id="filter1_f_297_10247" x="-84" y="-121" width="944" height="676.657" filterUnits="userSpaceOnUse" color-interpolation-filters="sRGB">
<feFlood flood-opacity="0" result="BackgroundImageFix"/>
<feBlend mode="normal" in="SourceGraphic" in2="BackgroundImageFix" result="shape"/>
<feGaussianBlur stdDeviation="25" result="effect1_foregroundBlur_297_10247"/>
</filter>
<linearGradient id="paint0_linear_297_10247" x1="326.293" y1="518.336" x2="93.4597" y2="196.356" gradientUnits="userSpaceOnUse">
<stop stop-color="#FFFEFC" stop-opacity="0.1"/>
<stop offset="1" stop-color="white" stop-opacity="0.03"/>
</linearGradient>
<linearGradient id="paint1_linear_297_10247" x1="126.707" y1="518.336" x2="359.54" y2="196.356" gradientUnits="userSpaceOnUse">
<stop stop-color="#FFFEFC" stop-opacity="0.1"/>
<stop offset="1" stop-color="white" stop-opacity="0.03"/>
</linearGradient>
</defs>
</svg>
