<svg width="427" height="232" viewBox="0 0 427 232" fill="none" xmlns="http://www.w3.org/2000/svg">
<path d="M330.559 -116.236C330.559 -116.236 343.352 -93.02 343.899 -23.519C344.465 45.985 337.195 74.1626 339.581 79.73C341.964 85.3151 339.355 124.903 338.151 133.821C336.947 142.74 321.968 146.385 323.302 131.584C324.636 116.783 318.162 117.178 309.823 119.558C301.485 121.938 302.097 142.02 290.095 142.934C278.093 143.849 291.107 111.731 291.64 98.6363C292.174 85.5419 294.614 72.7349 304.378 70.5698C314.16 68.4076 310.116 -39.7194 304.981 -64.4489" fill="#FFBC50"/>
<path d="M331.165 -119.486C332.243 -119.323 333.198 -118.723 333.729 -117.765C334.257 -116.791 346.894 -93.0686 347.448 -23.6031C347.792 18.9881 345.23 45.9564 343.687 62.0599C342.929 70.0954 342.261 77.0298 342.897 78.4778C345.871 85.4311 342.479 128.19 341.68 134.155C340.836 140.35 334.674 145.342 328.495 144.813C323.703 144.383 318.888 140.642 319.733 131.323C320.384 124.057 318.851 122.327 318.385 121.965C316.962 120.91 312.52 122.177 310.844 122.656C308.814 123.227 307.028 127.398 305.46 131.054C302.708 137.492 299.282 145.491 290.356 146.174C287.078 146.429 285.072 145.103 283.983 143.953C279.642 139.388 281.493 129.781 285.078 114.497C286.543 108.268 287.923 102.373 288.086 98.505C288.552 86.698 290.617 70.7645 302.889 67.4973C309.087 58.3629 307.131 -36.6035 301.465 -63.8435C301.089 -65.6177 302.373 -67.3612 304.301 -67.7101C306.234 -68.0768 308.113 -66.9166 308.468 -65.1453C311.084 -52.5632 313.395 -19.6709 313.834 11.4043C314.685 71.6137 308.5 72.9841 305.17 73.7248C299.088 75.0742 295.808 83.2414 295.204 98.6823C295.03 103.133 293.579 109.291 292.038 115.82C290.487 122.402 286.877 137.811 289.383 139.632C289.383 139.632 289.383 139.632 289.422 139.638C289.479 139.646 289.614 139.667 289.836 139.645C293.979 139.319 296.087 135.123 298.813 128.718C301.091 123.415 303.445 117.923 308.789 116.389C313.84 114.939 319.05 114.007 322.874 116.812C326.28 119.317 327.533 124.074 326.839 131.772C326.563 134.782 327.058 138.109 329.229 138.254C331.083 138.405 334.17 136.55 334.593 133.397C336.142 121.936 338.028 85.1081 336.252 80.9118C335.019 78.0217 335.509 72.8512 336.579 61.5187C338.101 45.5218 340.646 18.7518 340.321 -23.5258C339.777 -91.0711 327.476 -114.578 327.362 -114.815C326.481 -116.427 327.213 -118.4 328.957 -119.234C329.674 -119.564 330.446 -119.667 331.178 -119.557L331.165 -119.486Z" fill="#1D1F27"/>
<path d="M320.042 124.552C320.042 124.552 325.986 119.143 325.176 107.692C324.367 96.2409 316.786 101.092 316.786 101.092C316.786 101.092 313.207 95.8566 309.132 99.7743C305.057 103.692 297.316 122.278 305.11 123.69C309.631 124.5 311.707 123.899 312.665 123.239C313.099 122.939 313.673 123.044 313.949 123.469C314.639 124.523 316.296 125.705 320.023 124.549L320.042 124.552Z" fill="#FFBC50"/>
<path d="M313.392 95.5552C315.164 95.8221 316.615 96.7351 317.635 97.6197C319.166 97.1743 321.167 96.9643 323.181 97.8342C326.199 99.1478 327.898 102.4 328.257 107.48C329.146 120.076 322.471 126.306 322.183 126.573L321.657 127.042L320.964 127.248C316.712 128.563 314.105 127.585 312.624 126.412C310.577 127.072 307.88 127.086 304.469 126.48C301.882 126.018 300.014 124.384 299.18 121.901C296.901 115.144 302.968 101.604 306.9 97.8112C309.132 95.6624 311.407 95.3657 312.93 95.4855C313.084 95.5087 313.238 95.5319 313.373 95.5523L313.392 95.5552ZM315.883 105.049L314.183 102.636C313.729 102.001 312.814 101.187 312.3 101.183C312.107 101.154 311.745 101.392 311.382 101.739C308.663 104.363 303.671 115.799 305.137 120.167C305.349 120.821 305.561 120.853 305.773 120.884C309.774 121.615 310.847 120.973 310.87 120.958C311.76 120.343 312.945 120.156 313.991 120.277C315.086 120.46 316.038 121.079 316.624 121.953C316.808 122.237 317.544 122.22 318.33 122.046C319.556 120.604 322.666 116.029 322.114 107.906C321.873 104.489 320.989 103.205 320.496 102.985C320.061 102.773 319.064 103.116 318.524 103.455L315.883 105.049Z" fill="#1D1F27"/>
<path d="M317.135 99.2812C318.214 99.4437 318.944 100.394 318.774 101.392L314.653 123.539C314.46 124.552 313.419 125.235 312.34 125.073C311.262 124.91 310.532 123.959 310.702 122.962L314.822 100.815C315.015 99.8023 316.057 99.1187 317.135 99.2812Z" fill="#1D1F27"/>
<path d="M307.441 97.564C307.441 97.564 317.813 95.2167 325.43 98.082C333.05 100.93 326.585 113.441 308.877 108.744C291.168 104.047 292.045 92.3753 293.519 85.7817" fill="#FFBC50"/>
<path d="M290.496 85.2371L296.571 86.3169C295.107 92.8573 294.884 102.033 309.781 105.996C319.287 108.506 324.344 105.467 325.339 102.949C325.958 101.362 324.664 100.874 324.257 100.722C317.695 98.2526 308.247 100.319 308.163 100.343L306.76 94.8142C307.217 94.7004 318.218 92.2831 326.648 95.4538C330.844 97.0362 332.706 100.88 331.161 104.832C328.914 110.596 320.259 114.737 308.002 111.483C297.931 108.815 286.732 102.084 290.496 85.2371Z" fill="#1D1F27"/>
<path d="M55.7082 -102.694C55.7082 -102.694 49.2828 -76.9773 66.5415 -9.65091C83.7823 57.6832 98.0223 83.0615 97.1401 89.0543C96.2658 95.0633 108.92 132.665 112.367 140.978C115.813 149.291 131.226 148.982 126.148 135.015C121.07 121.048 127.43 119.773 136.1 119.94C144.77 120.106 149.318 139.676 161.154 137.489C172.99 135.301 152.19 107.583 148.323 95.0613C144.456 82.5396 138.819 70.7836 128.827 71.1895C118.816 71.6031 95.0531 -33.9579 93.6877 -59.1779" fill="#FFBC50"/>
<path d="M54.2848 -105.68C53.2839 -105.247 52.5141 -104.421 52.2458 -103.36C51.9854 -102.283 45.8403 -76.1166 63.0834 -8.82287C73.6505 32.4381 83.0299 57.8523 88.6426 73.0247C91.4322 80.5984 93.8522 87.1311 93.6084 88.6935C92.5127 96.1764 106.735 136.643 109.035 142.204C111.436 147.977 118.67 151.226 124.508 149.133C129.03 147.491 132.727 142.643 129.526 133.85C127.036 126.993 128.076 124.929 128.433 124.459C129.539 123.075 134.157 123.163 135.9 123.197C138.009 123.229 140.803 126.805 143.254 129.937C147.562 135.456 152.921 142.312 161.725 140.688C164.959 140.096 166.559 138.301 167.317 136.91C170.345 131.387 166.098 122.573 158.72 108.716C155.71 103.068 152.866 97.7231 151.72 94.0258C148.247 82.7314 142.173 67.8571 129.474 67.8394C121.144 60.5955 98.7297 -31.7085 97.2363 -59.4916C97.1449 -61.3027 95.4583 -62.6598 93.5044 -62.5034C91.5428 -62.3634 90.0233 -60.7609 90.1326 -58.9575C90.8247 -46.1252 97.0083 -13.7368 104.537 16.4157C119.124 74.8378 125.453 74.5797 128.863 74.4432C135.087 74.1912 140.348 81.2469 144.884 96.0189C146.191 100.277 149.17 105.859 152.331 111.776C155.515 117.742 162.947 131.713 160.991 134.115C160.991 134.115 160.991 134.115 160.955 134.13C160.902 134.154 160.777 134.208 160.557 134.244C156.468 134.989 153.357 131.472 149.083 125.978C145.523 121.435 141.842 116.728 136.283 116.613C131.029 116.504 125.754 116.936 122.775 120.627C120.124 123.92 120.13 128.839 122.771 136.103C123.809 138.942 124.181 142.285 122.119 142.981C120.366 143.601 116.907 142.598 115.692 139.659C111.26 128.976 100.012 93.8568 100.655 89.3457C101.107 86.2365 99.3099 81.3636 95.3757 70.6822C89.8099 55.6077 80.4987 30.3806 69.9929 -10.5722C53.2311 -76.007 59.1069 -101.879 59.1561 -102.137C59.5954 -103.922 58.3824 -105.641 56.4834 -106.001C55.7059 -106.137 54.9328 -106.039 54.2536 -105.745L54.2848 -105.68Z" fill="#1D1F27"/>
<path d="M127.486 127.385C127.486 127.385 120.356 123.678 118.208 112.401C116.061 101.124 124.631 103.873 124.631 103.873C124.631 103.873 126.751 97.8964 131.692 100.641C136.634 103.385 148.874 119.371 141.701 122.731C137.537 124.671 135.377 124.621 134.282 124.228C133.786 124.049 133.258 124.298 133.1 124.779C132.702 125.975 131.403 127.541 127.504 127.378L127.486 127.385Z" fill="#FFBC50"/>
<path d="M126.505 97.6516C124.861 98.3632 123.692 99.617 122.932 100.733C121.338 100.695 119.35 101.004 117.626 102.36C115.044 104.402 114.235 107.981 115.187 112.984C117.551 125.388 125.599 129.702 125.946 129.886L126.574 130.205L127.296 130.227C131.744 130.41 134.014 128.797 135.144 127.284C137.293 127.398 139.903 126.721 143.046 125.263C145.428 124.154 146.816 122.097 146.987 119.483C147.46 112.367 138.13 100.831 133.359 98.171C130.651 96.665 128.375 96.9606 126.934 97.466C126.791 97.5279 126.648 97.5898 126.523 97.6439L126.505 97.6516ZM126.527 107.466L127.553 104.699C127.829 103.969 128.505 102.949 129.001 102.813C129.18 102.735 129.591 102.872 130.031 103.115C133.331 104.956 141.083 114.733 140.785 119.331C140.747 120.017 140.55 120.102 140.353 120.187C136.672 121.918 135.47 121.572 135.445 121.563C134.427 121.196 133.234 121.319 132.253 121.704C131.242 122.161 130.48 123.003 130.137 123.998C130.032 124.319 129.316 124.491 128.511 124.524C126.958 123.444 122.78 119.818 121.235 111.823C120.593 108.459 121.12 106.991 121.54 106.652C121.906 106.336 122.957 106.412 123.566 106.602L126.527 107.466Z" fill="#1D1F27"/>
<path d="M123.829 102.213C122.828 102.646 122.366 103.752 122.785 104.673L132.437 125.028C132.883 125.957 134.064 126.351 135.065 125.918C136.066 125.485 136.529 124.379 136.109 123.458L126.458 103.103C126.012 102.174 124.83 101.78 123.829 102.213Z" fill="#1D1F27"/>
<path d="M132.763 98.0701C132.763 98.0701 122.135 98.4557 115.505 103.175C108.868 107.878 118.32 118.318 134.236 109.245C150.153 100.173 146.318 89.114 143.205 83.1172" fill="#FFBC50"/>
<path d="M145.992 81.8176L140.397 84.4161C143.486 90.3639 146.049 99.1773 132.663 106.82C124.116 111.68 118.45 110.037 116.844 107.857C115.839 106.481 116.965 105.679 117.319 105.427C123.031 101.36 132.693 100.94 132.78 100.942L132.722 95.238C132.25 95.2451 120.998 95.7237 113.66 100.946C110.009 103.55 109.192 107.742 111.697 111.167C115.345 116.164 124.771 117.953 135.787 111.67C144.84 106.513 153.943 97.1398 145.992 81.8176Z" fill="#1D1F27"/>
<path d="M210.788 -59.1564C210.788 -59.1564 197.492 -35.756 195.444 33.7635C193.378 103.286 200.041 131.365 197.534 136.967C195.03 142.587 196.785 182.144 197.797 191.046C198.808 199.949 213.711 203.383 212.696 188.598C211.681 173.814 218.148 174.117 226.436 176.379C234.725 178.641 233.68 198.736 245.663 199.48C257.647 200.224 245.325 168.286 245.074 155.197C244.823 142.108 242.659 129.334 232.941 127.307C223.203 125.283 229.582 17.0818 235.251 -7.72421" fill="#FFBC50"/>
<path d="M210.24 -62.3984C209.158 -62.2206 208.189 -61.6062 207.637 -60.6414C207.089 -59.6589 193.938 -35.7542 191.884 33.7298C190.62 76.3324 192.601 103.269 193.796 119.353C194.381 127.379 194.899 134.305 194.232 135.762C191.107 142.758 193.577 185.476 194.248 191.43C194.958 197.614 201.012 202.52 207.204 201.903C212.006 201.405 216.902 197.596 216.259 188.286C215.764 181.029 217.335 179.277 217.808 178.908C219.255 177.833 223.67 179.038 225.336 179.492C227.354 180.035 229.05 184.181 230.54 187.816C233.153 194.215 236.407 202.167 245.32 202.724C248.593 202.932 250.628 201.578 251.741 200.412C256.181 195.785 254.538 186.203 251.282 170.968C249.952 164.758 248.698 158.881 248.619 155.015C248.408 143.213 246.686 127.307 234.483 124.213C228.481 115.165 232.487 20.1561 238.743 -7.16833C239.157 -8.94811 237.911 -10.6738 235.989 -10.9954C234.065 -11.3347 232.16 -10.1477 231.766 -8.37112C228.879 4.24993 225.857 37.18 224.747 68.2662C222.596 128.497 228.752 129.78 232.068 130.473C238.121 131.737 241.225 139.859 241.496 155.294C241.574 159.742 242.892 165.881 244.293 172.389C245.702 178.95 248.98 194.31 246.434 196.167C246.434 196.167 246.434 196.167 246.395 196.173C246.337 196.183 246.202 196.205 245.98 196.187C241.844 195.919 239.827 191.753 237.239 185.385C235.074 180.114 232.839 174.654 227.527 173.196C222.506 171.817 217.316 170.958 213.431 173.818C209.97 176.372 208.614 181.147 209.142 188.837C209.353 191.843 208.786 195.178 206.611 195.353C204.754 195.531 201.706 193.719 201.352 190.572C200.05 179.131 198.959 142.324 200.826 138.102C202.121 135.194 201.742 130.03 200.917 118.711C199.74 102.733 197.773 75.9948 199.011 33.7061C201.012 -33.8572 213.823 -57.5422 213.942 -57.7802C214.858 -59.4059 214.168 -61.3685 212.442 -62.1776C211.732 -62.498 210.962 -62.5899 210.228 -62.4693L210.24 -62.3984Z" fill="#1D1F27"/>
<path d="M216.086 181.519C216.086 181.519 210.258 176.194 211.316 164.73C212.373 153.265 219.85 158.01 219.85 158.01C219.85 158.01 223.543 152.723 227.534 156.583C231.524 160.444 238.866 178.923 231.04 180.446C226.5 181.32 224.437 180.748 223.493 180.102C223.066 179.808 222.489 179.921 222.205 180.35C221.491 181.414 219.808 182.619 216.106 181.516L216.086 181.519Z" fill="#FFBC50"/>
<path d="M223.38 152.423C221.602 152.715 220.131 153.648 219.092 154.548C217.57 154.124 215.573 153.942 213.54 154.841C210.493 156.197 208.724 159.475 208.255 164.56C207.094 177.17 213.635 183.307 213.918 183.57L214.433 184.032L215.122 184.228C219.347 185.482 221.976 184.468 223.481 183.273C225.515 183.904 228.212 183.88 231.637 183.226C234.234 182.727 236.137 181.066 237.025 178.571C239.45 171.781 233.675 158.325 229.824 154.587C227.638 152.47 225.369 152.205 223.843 152.346C223.689 152.372 223.534 152.397 223.399 152.419L223.38 152.423ZM220.684 161.953L222.436 159.516C222.904 158.875 223.836 158.048 224.35 158.036C224.544 158.004 224.901 158.237 225.257 158.579C227.919 161.165 232.665 172.531 231.105 176.922C230.879 177.578 230.666 177.613 230.453 177.648C226.436 178.435 225.376 177.808 225.354 177.794C224.477 177.191 223.296 177.021 222.247 177.157C221.148 177.356 220.183 177.988 219.577 178.87C219.388 179.157 218.652 179.15 217.869 178.987C216.675 177.563 213.662 173.031 214.39 164.899C214.705 161.478 215.617 160.181 216.115 159.954C216.554 159.736 217.544 160.065 218.077 160.396L220.684 161.953Z" fill="#1D1F27"/>
<path d="M219.544 156.203C218.462 156.381 217.711 157.342 217.86 158.337L221.503 180.429C221.674 181.439 222.701 182.108 223.784 181.93C224.866 181.752 225.617 180.791 225.468 179.796L221.825 157.704C221.654 156.694 220.627 156.025 219.544 156.203Z" fill="#1D1F27"/>
<path d="M229.285 154.348C229.285 154.348 218.961 152.147 211.281 155.121C203.599 158.077 209.795 170.498 227.607 165.55C245.42 160.602 244.795 148.94 243.463 142.366" fill="#FFBC50"/>
<path d="M246.49 141.78L240.391 142.946C241.715 149.467 241.739 158.641 226.755 162.815C217.193 165.461 212.201 162.493 211.261 159.989C210.675 158.41 211.98 157.904 212.39 157.745C219.007 155.183 228.412 157.116 228.495 157.139L230.018 151.589C229.563 151.482 218.613 149.22 210.113 152.511C205.882 154.153 203.936 158.024 205.396 161.954C207.52 167.688 216.086 171.707 228.416 168.279C238.546 165.467 249.892 158.576 246.49 141.78Z" fill="#1D1F27"/>
</svg>
