<svg width="492" height="125" viewBox="0 0 492 125" fill="none" xmlns="http://www.w3.org/2000/svg">
<path d="M17 50L472 50" stroke="#CFD1DC" stroke-dasharray="9 9"/>
<rect opacity="0.2" y="80" width="34.2" height="45" rx="5" fill="#DE523E"/>
<rect opacity="0.2" x="38.1992" y="90" width="34.2" height="35" rx="5" fill="#DE523E"/>
<rect opacity="0.2" x="76.3984" y="59" width="34.2" height="66" rx="5" fill="#DE523E"/>
<rect opacity="0.2" x="114.602" y="68" width="34.2" height="57" rx="5" fill="#DE523E"/>
<rect opacity="0.2" x="152.801" y="60" width="34.2" height="65" rx="5" fill="#DE523E"/>
<rect x="191" y="50" width="34" height="75" rx="5" fill="#DE523E"/>
<path d="M206.887 64.0736H204.787V62.1936C204.787 61.4736 204.967 60.8403 205.327 60.2936C205.7 59.7336 206.3 59.4536 207.127 59.4536H207.687C208.58 59.4536 209.247 59.7003 209.687 60.1936C210.127 60.687 210.347 61.367 210.347 62.2336V63.9336C210.347 65.187 210.033 65.967 209.407 66.2736C209.78 66.407 210.053 66.607 210.227 66.8736C210.4 67.1403 210.487 67.5336 210.487 68.0536V71.7136C210.487 72.6203 210.247 73.3403 209.767 73.8736C209.3 74.3936 208.667 74.6536 207.867 74.6536H207.247C206.34 74.6536 205.673 74.4203 205.247 73.9536C204.833 73.487 204.627 72.867 204.627 72.0936V69.0736H206.867V71.5136C206.867 72.1003 207.087 72.3936 207.527 72.3936C207.94 72.3936 208.147 72.1003 208.147 71.5136V68.4136C208.147 68.1203 208.107 67.9203 208.027 67.8136C207.96 67.707 207.8 67.6536 207.547 67.6536H206.327V65.3336H207.387C207.653 65.3336 207.827 65.2803 207.907 65.1736C207.987 65.067 208.027 64.8403 208.027 64.4936V62.4136C208.027 62.107 207.98 61.8936 207.887 61.7736C207.807 61.6536 207.66 61.5936 207.447 61.5936C207.247 61.5936 207.1 61.6536 207.007 61.7736C206.927 61.8803 206.887 62.087 206.887 62.3936V64.0736Z" fill="white"/>
<path d="M191 80.7894H225" stroke="#FF6A54"/>
<rect x="229" width="34" height="125" rx="5" fill="#DE523E"/>
<path d="M229 39H263" stroke="#FF6A54"/>
<path d="M244.944 15.6H243.424V13.76C244.09 13.72 244.557 13.5867 244.824 13.36C245.104 13.1333 245.297 12.72 245.404 12.12H247.224V27H244.944V15.6Z" fill="white"/>
<rect x="267" y="18" width="34" height="107" rx="5" fill="#DE523E"/>
<path d="M267 57H301" stroke="#FF6A54"/>
<path d="M284.459 32.14C284.246 32.14 284.099 32.2 284.019 32.32C283.939 32.44 283.899 32.64 283.899 32.92V35.46H281.739V32.74C281.739 31.94 281.933 31.28 282.319 30.76C282.706 30.24 283.333 29.98 284.199 29.98H284.659C286.499 29.98 287.419 30.9 287.419 32.74V33.48C287.419 34.4267 287.346 35.16 287.199 35.68C287.053 36.1867 286.686 36.8867 286.099 37.78C285.939 38.02 285.459 38.7 284.659 39.82C284.046 40.7 283.653 41.34 283.479 41.74C283.319 42.14 283.239 42.52 283.239 42.88H285.239V40.02H287.519V45H281.359V43.88C281.359 42.9067 281.466 42.0733 281.679 41.38C281.906 40.6733 282.379 39.7 283.099 38.46L284.399 36.16C284.599 35.8 284.746 35.4867 284.839 35.22C284.946 34.94 285.006 34.7267 285.019 34.58C285.033 34.42 285.039 34.1867 285.039 33.88V32.92C285.039 32.4 284.846 32.14 284.459 32.14Z" fill="white"/>
<rect opacity="0.2" x="305" y="90" width="34.2" height="35" rx="5" fill="#DE523E"/>
<rect opacity="0.2" x="343.199" y="70" width="34.2" height="55" rx="5" fill="#DE523E"/>
<rect opacity="0.2" x="381.398" y="60" width="34.2" height="65" rx="5" fill="#DE523E"/>
<rect opacity="0.2" x="419.602" y="90" width="34.2" height="35" rx="5" fill="#DE523E"/>
<rect opacity="0.2" x="457.801" y="70" width="34.2" height="55" rx="5" fill="#DE523E"/>
</svg>
