<svg width="300" height="240" viewBox="0 0 300 240" fill="none" xmlns="http://www.w3.org/2000/svg">
<path d="M95.2652 271.925L95.5006 271.398L95.8578 270.608L105.834 248.49L115.802 270.608L116.159 271.398L117.645 274.69L117.897 274.144L118.879 271.963L118.619 271.398L118.262 270.608L118.099 270.251L107.06 245.782L116.533 224.774L118.108 221.294L118.619 220.147L118.879 219.583L118.002 217.646L117.645 216.856L116.159 220.147L115.34 221.971L105.834 243.055L95.5006 220.147L93.9015 216.592L93.3576 217.815L92.6758 219.319L93.0411 220.147L93.4713 221.087V221.106L104.6 245.782L93.5687 270.232L95.2652 271.925Z" fill="#2C2E37"/>
<path d="M138.784 220.147L138.995 219.583L137.981 216.856L136.755 220.147L128.232 243.055L126.275 237.789L119.708 220.147L118.385 216.593L118.004 217.646L117.371 219.32L117.679 220.147L118.109 221.295L126.722 244.447L127.217 245.782L126.868 246.704L126.446 247.851L118.101 270.251L117.971 270.609L117.679 271.399L117.281 272.471L117.898 274.145L118.296 275.198L119.708 271.399L120.001 270.609L128.232 248.491L136.463 270.609L136.755 271.399L137.981 274.69L138.995 271.963L138.784 271.399L138.484 270.609L129.246 245.782L138.784 220.147Z" fill="#2C2E37"/>
<path d="M94.1561 219.583L93.3606 217.815L92.9303 216.856L91.4448 220.148L81.1114 243.056L70.778 220.148L69.1789 216.612L68.635 217.815L67.9531 219.339L68.3184 220.148L68.7486 221.107L79.8776 245.783L75.1938 256.165C75.8513 256.447 76.5251 256.766 77.2151 257.143L81.1114 248.51L88.9203 265.832C90.3165 267.092 91.7452 268.446 93.2063 269.875L82.3371 245.783L93.4661 221.107L93.8963 220.148L94.1561 219.583Z" fill="#2C2E37"/>
<path d="M69.4373 219.584L68.6418 217.816L68.2116 216.856L66.7261 220.148L56.3927 243.056L46.0592 220.148L44.4601 216.612L43.9162 217.816L43.2344 219.339L43.5997 220.148L44.0299 221.107L55.1588 245.783L48.6568 260.19C49.7689 259.456 50.8972 258.76 52.0417 258.14L56.3845 248.51L59.3555 255.093C60.0942 254.886 60.841 254.717 61.5878 254.585L57.6184 245.783L68.7473 221.107L69.1776 220.148L69.4373 219.584Z" fill="#2C2E37"/>
<path d="M44.7192 219.583L43.9237 217.815L43.4935 216.856L42.008 220.147L31.6746 243.055L21.3411 220.147L19.742 216.611L19.1982 217.815L18.5163 219.339L18.8816 220.147L19.3118 221.106L30.4407 245.782L19.3118 270.458L19.2387 270.609L18.8816 271.399L18.3945 272.471L19.0764 273.994L19.6203 275.198L21.333 271.399L21.6902 270.609L31.6665 248.491L39.9543 266.866C40.5469 266.358 41.1395 265.869 41.7402 265.361L32.9003 245.764L44.0293 221.088L44.4595 220.128L44.7192 219.583Z" fill="#2C2E37"/>
<path d="M-5.08678 275.198L6.95943 248.491L18.7702 274.69L20.0041 271.963L8.18516 245.782L20.0041 219.583L18.7702 216.856L6.95943 243.055L-4.97313 216.611L-6.19885 219.32L5.73371 245.782L-6.3125 272.471L-5.08678 275.198Z" fill="#2C2E37"/>
<path d="M14.368 197.041L34.6697 197.241C36.6077 197.26 37.3221 199.3 36.2654 201.796L31.1811 213.808C30.1244 216.305 27.6967 218.313 25.7588 218.294L5.45704 218.094C3.51905 218.075 2.80459 216.035 3.86127 213.539L8.94567 201.527C10.0024 199.03 12.43 197.022 14.368 197.041Z" fill="#2C2E37"/>
<path d="M14.7876 198.866L32.7222 199.043C34.3717 199.059 34.9797 200.795 34.0803 202.919L29.9608 212.652C29.0614 214.777 26.995 216.486 25.3455 216.47L7.41089 216.293C5.76146 216.277 5.15343 214.541 6.0528 212.416L10.1724 202.684C11.0719 200.559 13.1382 198.85 14.7876 198.866Z" fill="#4C4D55"/>
<path d="M25.7586 218.294H33.3543C34.8941 218.294 36.1472 216.479 36.1655 214.222L36.2656 201.796L29.112 216.47L25.7586 218.294Z" fill="#2C2E37"/>
<path d="M140.364 197.041L160.666 197.241C162.604 197.26 163.318 199.3 162.262 201.796L157.177 213.808C156.12 216.305 153.693 218.313 151.755 218.294L131.453 218.094C129.515 218.075 128.801 216.035 129.857 213.539L134.942 201.527C135.998 199.03 138.426 197.022 140.364 197.041Z" fill="#2C2E37"/>
<path d="M140.78 198.866L158.714 199.043C160.364 199.059 160.972 200.795 160.073 202.919L155.953 212.652C155.054 214.777 152.987 216.486 151.338 216.47L133.403 216.293C131.754 216.277 131.146 214.541 132.045 212.416L136.165 202.684C137.064 200.559 139.13 198.85 140.78 198.866Z" fill="#4C4D55"/>
<path d="M151.751 218.294H159.346C160.886 218.294 162.139 216.478 162.158 214.222L162.258 201.796L155.104 216.469L151.751 218.294Z" fill="#2C2E37"/>
<path d="M276.05 197.041L255.748 197.241C253.81 197.26 253.096 199.3 254.153 201.796L259.237 213.808C260.294 216.305 262.721 218.313 264.659 218.294L284.961 218.094C286.899 218.075 287.613 216.035 286.557 213.539L281.472 201.527C280.416 199.03 277.988 197.022 276.05 197.041Z" fill="#2C2E37"/>
<path d="M275.626 198.866L257.692 199.043C256.042 199.059 255.434 200.795 256.334 202.919L260.453 212.652C261.353 214.777 263.419 216.486 265.069 216.47L283.003 216.293C284.653 216.277 285.261 214.541 284.361 212.416L280.242 202.684C279.342 200.559 277.276 198.85 275.626 198.866Z" fill="#4C4D55"/>
<path d="M264.656 218.294H257.06C255.52 218.294 254.267 216.479 254.249 214.222L254.148 201.796L261.302 216.47L264.656 218.294Z" fill="#2C2E37"/>
<path d="M89.2844 197.041L68.9826 197.241C67.0447 197.26 66.3302 199.3 67.3869 201.796L72.4713 213.808C73.528 216.305 75.9556 218.313 77.8936 218.294L98.1953 218.094C100.133 218.075 100.848 216.035 99.7911 213.539L94.7067 201.527C93.65 199.03 91.2223 197.022 89.2844 197.041Z" fill="#2C2E37"/>
<path d="M88.8647 198.866L70.9301 199.043C69.2807 199.059 68.6726 200.795 69.572 202.919L73.6916 212.652C74.591 214.777 76.6574 216.486 78.3068 216.47L96.2414 216.293C97.8909 216.277 98.4989 214.541 97.5995 212.416L93.48 202.684C92.5804 200.559 90.5142 198.85 88.8647 198.866Z" fill="white"/>
<path d="M77.8899 218.294H70.2942C68.7543 218.294 67.5012 216.479 67.4829 214.222L67.3828 201.796L74.5364 216.47L77.8899 218.294Z" fill="#2C2E37"/>
<path d="M206.649 197.041L226.951 197.241C228.889 197.26 229.603 199.3 228.547 201.796L223.462 213.808C222.406 216.305 219.978 218.313 218.04 218.294L197.738 218.094C195.8 218.075 195.086 216.035 196.143 213.539L201.227 201.527C202.284 199.03 204.711 197.022 206.649 197.041Z" fill="#2C2E37"/>
<path d="M207.069 198.866L225.003 199.043C226.653 199.059 227.261 200.795 226.362 202.919L222.242 212.652C221.343 214.777 219.276 216.486 217.627 216.47L199.692 216.293C198.043 216.277 197.435 214.541 198.334 212.416L202.454 202.684C203.353 200.559 205.419 198.85 207.069 198.866Z" fill="white"/>
<path d="M218.04 218.294H225.636C227.175 218.294 228.428 216.479 228.447 214.222L228.547 201.796L221.393 216.47L218.04 218.294Z" fill="#2C2E37"/>
<g filter="url(#filter0_f_646_7097)">
<path d="M91.777 210.322L378 -56.5L-6.97266 -52.9999L73.4668 208.472L91.777 210.322Z" fill="url(#paint0_linear_646_7097)"/>
</g>
<g filter="url(#filter1_f_646_7097)">
<path d="M205.25 210.322L-80.9727 -56.5L304 -52.9999L223.561 208.472L205.25 210.322Z" fill="url(#paint1_linear_646_7097)"/>
</g>
<path d="M132.063 220.147V216.292H-48.6055C-48.0535 217.59 -47.5015 218.869 -46.9495 220.147H132.063Z" fill="#2C2E37"/>
<path d="M288.659 220.147L288.91 219.583L288.415 218.492L287.676 216.856L286.199 220.147L275.866 243.055L275.151 241.475L265.532 220.147L263.966 216.668L263.933 216.593L263.389 217.815L262.707 219.32L263.073 220.147L263.503 221.106L263.706 221.539L274.64 245.782L263.503 270.458L263.438 270.609L263.073 271.399L262.594 272.471L263.276 273.994L263.819 275.198L265.532 271.399L265.889 270.609L274.616 251.274L275.866 248.491L279.478 256.503L285.834 270.609L286.199 271.399L287.676 274.69L288.302 273.317L288.91 271.963L288.651 271.399L288.529 271.135L288.293 270.609L280.639 253.644L277.091 245.782L288.529 220.411L288.659 220.147Z" fill="#2C2E37"/>
<path d="M263.928 220.147L264.188 219.583L263.847 218.831L263.384 217.815L262.954 216.856L261.476 220.147L251.143 243.055L240.81 220.147L239.21 216.593L238.667 217.815L237.985 219.32L238.35 220.147L238.78 221.106L249.909 245.782L238.78 270.458L238.707 270.609L238.35 271.399L237.871 272.471L238.553 273.994L239.097 275.198L240.81 271.399L241.167 270.609L251.143 248.491L261.022 270.402L261.111 270.609L261.476 271.399L262.954 274.69L263.27 273.994L264.188 271.963L263.928 271.399L263.571 270.609L263.498 270.458L261.29 265.549L252.369 245.782L263.498 221.106L263.749 220.542L263.928 220.147Z" fill="#2C2E37"/>
<path d="M313.983 220.147L314.242 219.583L314.056 219.169H314.048L313.439 217.815L313.009 216.856L312.659 217.646L311.531 220.147L309.201 225.301L301.198 243.055L292.634 224.059L290.864 220.147L289.265 216.593L288.413 218.492L288.039 219.32L288.405 220.147L288.526 220.411L291.473 226.937L299.964 245.782L288.762 270.609L288.526 271.135L288.405 271.399L287.926 272.471L288.299 273.317L289.054 274.972L289.152 275.198L290.864 271.399L291.221 270.609L301.198 248.491L311.166 270.609L311.531 271.399L313.009 274.69L313.325 273.994L314.242 271.963L313.983 271.399L313.625 270.609L313.552 270.458L302.423 245.782L313.552 221.106L313.983 220.147Z" fill="#2C2E37"/>
<path d="M214.386 275.198L226.432 248.491L238.243 274.69L239.477 271.963L227.658 245.782L239.477 219.583L238.243 216.856L226.432 243.055L214.5 216.611L213.274 219.32L225.199 245.782L213.152 272.471L214.386 275.198Z" fill="#2C2E37"/>
<path d="M189.664 275.198L201.702 248.491L213.521 274.69L214.746 271.963L202.935 245.782L214.746 219.583L213.521 216.856L201.702 243.055L189.777 216.611L188.543 219.32L200.476 245.782L188.43 272.471L189.664 275.198Z" fill="#2C2E37"/>
<path d="M164.949 275.198L176.987 248.491L188.806 274.69L190.031 271.963L178.221 245.782L190.031 219.583L188.806 216.856L176.987 243.055L165.062 216.611L163.828 219.32L175.761 245.782L163.715 272.471L164.949 275.198Z" fill="#2C2E37"/>
<path d="M140.222 275.198L152.268 248.491L164.087 274.69L165.313 271.963L153.494 245.782L165.313 219.583L164.087 216.856L152.268 243.055L140.335 216.611L139.11 219.32L151.042 245.782L138.996 272.471L140.222 275.198Z" fill="#2C2E37"/>
<path d="M343.383 216.292H132.062V220.147H343.033C343.147 218.869 343.269 217.571 343.383 216.292Z" fill="#2C2E37"/>
<defs>
<filter id="filter0_f_646_7097" x="-56.9727" y="-106.5" width="484.973" height="366.822" filterUnits="userSpaceOnUse" color-interpolation-filters="sRGB">
<feFlood flood-opacity="0" result="BackgroundImageFix"/>
<feBlend mode="normal" in="SourceGraphic" in2="BackgroundImageFix" result="shape"/>
<feGaussianBlur stdDeviation="25" result="effect1_foregroundBlur_646_7097"/>
</filter>
<filter id="filter1_f_646_7097" x="-130.973" y="-106.5" width="484.973" height="366.822" filterUnits="userSpaceOnUse" color-interpolation-filters="sRGB">
<feFlood flood-opacity="0" result="BackgroundImageFix"/>
<feBlend mode="normal" in="SourceGraphic" in2="BackgroundImageFix" result="shape"/>
<feGaussianBlur stdDeviation="25" result="effect1_foregroundBlur_646_7097"/>
</filter>
<linearGradient id="paint0_linear_646_7097" x1="99.664" y1="219.19" x2="270.846" y2="57.7873" gradientUnits="userSpaceOnUse">
<stop stop-color="#FFFEFC" stop-opacity="0.1"/>
<stop offset="1" stop-color="white" stop-opacity="0.03"/>
</linearGradient>
<linearGradient id="paint1_linear_646_7097" x1="197.363" y1="219.19" x2="26.1812" y2="57.7873" gradientUnits="userSpaceOnUse">
<stop stop-color="#FFFEFC" stop-opacity="0.1"/>
<stop offset="1" stop-color="white" stop-opacity="0.03"/>
</linearGradient>
</defs>
</svg>
