<svg width="326" height="275" viewBox="0 0 326 275" fill="none" xmlns="http://www.w3.org/2000/svg">
<path d="M39.2942 129.717C42.0449 131.533 45.6885 129.429 45.491 126.139L45.1806 120.968C45.0898 119.456 45.8613 118.022 47.1734 117.264L116.505 77.2356C117.817 76.4781 119.445 76.5269 120.709 77.3617L125.033 80.2163C127.783 82.0326 131.427 79.9289 131.229 76.6385L130.919 71.4673C130.828 69.9549 131.6 68.521 132.912 67.7634L203.107 27.2361C204.419 26.4785 206.047 26.5273 207.311 27.3621L211.634 30.2164C214.385 32.0326 218.028 29.929 217.831 26.6387L217.52 21.4677C217.43 19.9553 218.201 18.5215 219.513 17.7639L235.854 8.32941C236.773 7.79897 237.865 7.65523 238.89 7.9298L256.182 12.5632C257.207 12.8378 258.08 13.5082 258.611 14.427L283.045 56.748C283.802 58.0601 283.754 59.6875 282.919 60.9519L280.064 65.2762C278.248 68.0269 280.351 71.6704 283.642 71.4728L288.814 71.1623C290.326 71.0715 291.76 71.8429 292.517 73.1551L316.952 115.477C317.482 116.396 317.626 117.487 317.352 118.512L312.718 135.804C312.444 136.829 311.773 137.703 310.854 138.233L294.514 147.667C293.202 148.425 291.575 148.376 290.31 147.541L285.987 144.687C283.236 142.871 279.593 144.974 279.79 148.265L280.101 153.436C280.192 154.948 279.42 156.382 278.108 157.139L207.912 197.667C206.6 198.424 204.973 198.376 203.708 197.541L199.385 194.686C196.635 192.87 192.991 194.974 193.189 198.264L193.499 203.435C193.59 204.947 192.818 206.381 191.506 207.139L122.174 247.168C120.862 247.925 119.235 247.876 117.97 247.042L113.647 244.187C110.896 242.371 107.253 244.474 107.45 247.765L107.761 252.936C107.852 254.448 107.08 255.882 105.768 256.64L89.4244 266.076C88.5057 266.606 87.4139 266.75 86.3891 266.475L69.1009 261.843C68.0762 261.569 67.2025 260.898 66.6721 259.979L42.2361 217.655C41.4785 216.343 41.5274 214.715 42.3622 213.451L45.2171 209.127C47.0333 206.377 44.9298 202.733 41.6396 202.931L36.4671 203.241C34.9548 203.332 33.521 202.56 32.7635 201.248L8.32794 158.924C7.79751 158.006 7.65376 156.914 7.92834 155.889L12.5607 138.601C12.8353 137.576 13.5057 136.702 14.4244 136.172L30.7672 126.737C32.0793 125.979 33.7068 126.028 34.9711 126.863L39.2942 129.717Z" fill="#DE523E"/>
<rect x="21.1752" y="150.173" width="258" height="119" rx="9.5" transform="rotate(-30 21.1752 150.173)" stroke="#FF6A54"/>
<path d="M54.1797 168.645C54.7319 169.602 54.4338 170.808 53.5137 171.339C52.5935 171.87 51.3999 171.526 50.8477 170.569C50.2954 169.612 50.5935 168.406 51.5137 167.875C52.4338 167.344 53.6274 167.689 54.1797 168.645Z" fill="#FF6A54"/>
<path d="M60.8436 164.798C61.3959 165.754 61.0978 166.96 60.1776 167.492C59.2575 168.023 58.0639 167.678 57.5117 166.722C56.9594 165.765 57.2575 164.559 58.1776 164.028C59.0978 163.496 60.2914 163.841 60.8436 164.798Z" fill="#FF6A54"/>
<path d="M67.5076 160.95C68.0599 161.907 67.7617 163.113 66.8416 163.644C65.9215 164.175 64.7279 163.831 64.1756 162.874C63.6234 161.917 63.9215 160.711 64.8416 160.18C65.7617 159.649 66.9553 159.994 67.5076 160.95Z" fill="#FF6A54"/>
<path d="M74.1716 157.103C74.7239 158.059 74.4257 159.266 73.5056 159.797C72.5855 160.328 71.3919 159.983 70.8396 159.027C70.2873 158.07 70.5855 156.864 71.5056 156.333C72.4257 155.801 73.6193 156.146 74.1716 157.103Z" fill="#FF6A54"/>
<path d="M80.8356 153.255C81.3879 154.212 81.0897 155.418 80.1696 155.949C79.2495 156.481 78.0559 156.136 77.5036 155.179C76.9513 154.223 77.2495 153.016 78.1696 152.485C79.0897 151.954 80.2833 152.299 80.8356 153.255Z" fill="#FF6A54"/>
<path d="M87.4996 149.408C88.0519 150.365 87.7537 151.571 86.8336 152.102C85.9135 152.633 84.7199 152.288 84.1676 151.332C83.6153 150.375 83.9135 149.169 84.8336 148.638C85.7537 148.107 86.9473 148.451 87.4996 149.408Z" fill="#FF6A54"/>
<path d="M94.1636 145.56C94.7159 146.517 94.4177 147.723 93.4976 148.254C92.5775 148.786 91.3839 148.441 90.8316 147.484C90.2793 146.528 90.5775 145.322 91.4976 144.79C92.4177 144.259 93.6113 144.604 94.1636 145.56Z" fill="#FF6A54"/>
<path d="M100.828 141.713C101.38 142.67 101.082 143.876 100.162 144.407C99.2415 144.938 98.0479 144.593 97.4956 143.637C96.9433 142.68 97.2415 141.474 98.1616 140.943C99.0817 140.412 100.275 140.756 100.828 141.713Z" fill="#FF6A54"/>
<path d="M107.492 137.866C108.044 138.822 107.746 140.028 106.826 140.559C105.905 141.091 104.712 140.746 104.16 139.789C103.607 138.833 103.905 137.627 104.826 137.095C105.746 136.564 106.939 136.909 107.492 137.866Z" fill="#FF6A54"/>
<path d="M114.156 134.018C114.708 134.975 114.41 136.181 113.49 136.712C112.569 137.243 111.376 136.898 110.824 135.942C110.271 134.985 110.569 133.779 111.49 133.248C112.41 132.717 113.603 133.062 114.156 134.018Z" fill="#FF6A54"/>
<path d="M120.82 130.171C121.372 131.127 121.074 132.333 120.154 132.865C119.233 133.396 118.04 133.051 117.488 132.094C116.935 131.138 117.233 129.932 118.154 129.4C119.074 128.869 120.267 129.214 120.82 130.171Z" fill="#FF6A54"/>
<path d="M127.484 126.323C128.036 127.28 127.738 128.486 126.818 129.017C125.897 129.548 124.704 129.204 124.152 128.247C123.599 127.29 123.897 126.084 124.818 125.553C125.738 125.022 126.931 125.367 127.484 126.323Z" fill="#FF6A54"/>
<path d="M134.148 122.476C134.7 123.432 134.402 124.638 133.482 125.17C132.561 125.701 131.368 125.356 130.816 124.399C130.263 123.443 130.561 122.237 131.482 121.706C132.402 121.174 133.595 121.519 134.148 122.476Z" fill="#FF6A54"/>
<path d="M140.812 118.628C141.364 119.585 141.066 120.791 140.146 121.322C139.225 121.853 138.032 121.509 137.48 120.552C136.927 119.595 137.225 118.389 138.146 117.858C139.066 117.327 140.259 117.672 140.812 118.628Z" fill="#FF6A54"/>
<path d="M147.476 114.781C148.028 115.737 147.73 116.944 146.81 117.475C145.889 118.006 144.696 117.661 144.144 116.705C143.591 115.748 143.889 114.542 144.81 114.011C145.73 113.479 146.923 113.824 147.476 114.781Z" fill="#FF6A54"/>
<path d="M154.14 110.933C154.692 111.89 154.394 113.096 153.474 113.627C152.553 114.159 151.36 113.814 150.808 112.857C150.255 111.901 150.553 110.694 151.474 110.163C152.394 109.632 153.587 109.977 154.14 110.933Z" fill="#FF6A54"/>
<path d="M160.804 107.086C161.356 108.042 161.058 109.249 160.138 109.78C159.217 110.311 158.024 109.966 157.472 109.01C156.919 108.053 157.217 106.847 158.138 106.316C159.058 105.785 160.251 106.129 160.804 107.086Z" fill="#FF6A54"/>
<path d="M167.467 103.238C168.02 104.195 167.722 105.401 166.802 105.932C165.881 106.464 164.688 106.119 164.136 105.162C163.583 104.206 163.881 102.999 164.802 102.468C165.722 101.937 166.915 102.282 167.467 103.238Z" fill="#FF6A54"/>
<path d="M174.132 99.391C174.684 100.348 174.386 101.554 173.466 102.085C172.545 102.616 171.352 102.271 170.8 101.315C170.247 100.358 170.545 99.152 171.466 98.6208C172.386 98.0896 173.579 98.4344 174.132 99.391Z" fill="#FF6A54"/>
<path d="M180.795 95.5435C181.348 96.5001 181.05 97.7062 180.129 98.2375C179.209 98.7687 178.016 98.4239 177.463 97.4673C176.911 96.5107 177.209 95.3046 178.129 94.7734C179.05 94.2421 180.243 94.587 180.795 95.5435Z" fill="#FF6A54"/>
<path d="M187.459 91.6961C188.012 92.6527 187.714 93.8588 186.793 94.39C185.873 94.9212 184.68 94.5764 184.127 93.6198C183.575 92.6632 183.873 91.4571 184.793 90.9259C185.714 90.3947 186.907 90.7395 187.459 91.6961Z" fill="#FF6A54"/>
<path d="M194.123 87.8486C194.676 88.8052 194.378 90.0113 193.457 90.5425C192.537 91.0738 191.344 90.7289 190.791 89.7724C190.239 88.8158 190.537 87.6097 191.457 87.0784C192.378 86.5472 193.571 86.892 194.123 87.8486Z" fill="#FF6A54"/>
<path d="M200.787 84.0012C201.34 84.9578 201.042 86.1639 200.121 86.6951C199.201 87.2263 198.008 86.8815 197.455 85.9249C196.903 84.9683 197.201 83.7622 198.121 83.231C199.042 82.6998 200.235 83.0446 200.787 84.0012Z" fill="#FF6A54"/>
<path d="M207.451 80.1537C208.004 81.1103 207.706 82.3164 206.785 82.8476C205.865 83.3789 204.672 83.034 204.119 82.0774C203.567 81.1209 203.865 79.9147 204.785 79.3835C205.706 78.8523 206.899 79.1971 207.451 80.1537Z" fill="#FF6A54"/>
<path d="M214.115 76.3063C214.668 77.2628 214.37 78.4689 213.449 79.0002C212.529 79.5314 211.336 79.1866 210.783 78.23C210.231 77.2734 210.529 76.0673 211.449 75.5361C212.37 75.0048 213.563 75.3497 214.115 76.3063Z" fill="#FF6A54"/>
<path d="M220.779 72.4588C221.332 73.4154 221.034 74.6215 220.113 75.1527C219.193 75.6839 218 75.3391 217.447 74.3825C216.895 73.4259 217.193 72.2198 218.113 71.6886C219.034 71.1574 220.227 71.5022 220.779 72.4588Z" fill="#FF6A54"/>
<path d="M227.443 68.6113C227.996 69.5679 227.698 70.774 226.777 71.3053C225.857 71.8365 224.664 71.4916 224.111 70.5351C223.559 69.5785 223.857 68.3724 224.777 67.8412C225.698 67.3099 226.891 67.6548 227.443 68.6113Z" fill="#FF6A54"/>
<path d="M234.107 64.7639C234.66 65.7205 234.362 66.9266 233.441 67.4578C232.521 67.989 231.328 67.6442 230.775 66.6876C230.223 65.731 230.521 64.5249 231.441 63.9937C232.362 63.4625 233.555 63.8073 234.107 64.7639Z" fill="#FF6A54"/>
<path d="M240.771 60.9164C241.324 61.873 241.026 63.0791 240.105 63.6103C239.185 64.1416 237.992 63.7967 237.439 62.8401C236.887 61.8836 237.185 60.6775 238.105 60.1462C239.026 59.615 240.219 59.9598 240.771 60.9164Z" fill="#FF6A54"/>
<path d="M247.435 57.069C247.988 58.0256 247.69 59.2317 246.769 59.7629C245.849 60.2941 244.656 59.9493 244.103 58.9927C243.551 58.0361 243.849 56.83 244.769 56.2988C245.69 55.7676 246.883 56.1124 247.435 57.069Z" fill="#FF6A54"/>
<path d="M50.6797 162.583C51.2319 163.539 50.9338 164.745 50.0137 165.277C49.0935 165.808 47.8999 165.463 47.3477 164.506C46.7954 163.55 47.0935 162.344 48.0137 161.813C48.9338 161.281 50.1274 161.626 50.6797 162.583Z" fill="#FF6A54"/>
<path d="M57.3436 158.735C57.8959 159.692 57.5978 160.898 56.6776 161.429C55.7575 161.96 54.5639 161.616 54.0117 160.659C53.4594 159.702 53.7575 158.496 54.6776 157.965C55.5978 157.434 56.7914 157.779 57.3436 158.735Z" fill="#FF6A54"/>
<path d="M64.0076 154.888C64.5599 155.844 64.2617 157.051 63.3416 157.582C62.4215 158.113 61.2279 157.768 60.6756 156.812C60.1234 155.855 60.4215 154.649 61.3416 154.118C62.2617 153.586 63.4553 153.931 64.0076 154.888Z" fill="#FF6A54"/>
<path d="M70.6716 151.04C71.2239 151.997 70.9257 153.203 70.0056 153.734C69.0855 154.265 67.8919 153.921 67.3396 152.964C66.7873 152.008 67.0855 150.801 68.0056 150.27C68.9257 149.739 70.1193 150.084 70.6716 151.04Z" fill="#FF6A54"/>
<path d="M77.3356 147.193C77.8879 148.149 77.5897 149.356 76.6696 149.887C75.7495 150.418 74.5559 150.073 74.0036 149.117C73.4513 148.16 73.7495 146.954 74.6696 146.423C75.5897 145.891 76.7833 146.236 77.3356 147.193Z" fill="#FF6A54"/>
<path d="M83.9996 143.345C84.5519 144.302 84.2537 145.508 83.3336 146.039C82.4135 146.571 81.2199 146.226 80.6676 145.269C80.1153 144.313 80.4135 143.106 81.3336 142.575C82.2537 142.044 83.4473 142.389 83.9996 143.345Z" fill="#FF6A54"/>
<path d="M90.6636 139.498C91.2159 140.455 90.9177 141.661 89.9976 142.192C89.0775 142.723 87.8839 142.378 87.3316 141.422C86.7793 140.465 87.0775 139.259 87.9976 138.728C88.9177 138.197 90.1113 138.541 90.6636 139.498Z" fill="#FF6A54"/>
<path d="M97.3276 135.651C97.8799 136.607 97.5817 137.813 96.6616 138.344C95.7415 138.876 94.5479 138.531 93.9956 137.574C93.4433 136.618 93.7415 135.412 94.6616 134.88C95.5817 134.349 96.7753 134.694 97.3276 135.651Z" fill="#FF6A54"/>
<path d="M103.992 131.803C104.544 132.76 104.246 133.966 103.326 134.497C102.405 135.028 101.212 134.683 100.66 133.727C100.107 132.77 100.405 131.564 101.326 131.033C102.246 130.502 103.439 130.846 103.992 131.803Z" fill="#FF6A54"/>
<path d="M110.656 127.956C111.208 128.912 110.91 130.118 109.99 130.65C109.069 131.181 107.876 130.836 107.324 129.879C106.771 128.923 107.069 127.717 107.99 127.185C108.91 126.654 110.103 126.999 110.656 127.956Z" fill="#FF6A54"/>
<path d="M117.32 124.108C117.872 125.065 117.574 126.271 116.654 126.802C115.733 127.333 114.54 126.988 113.988 126.032C113.435 125.075 113.733 123.869 114.654 123.338C115.574 122.807 116.767 123.152 117.32 124.108Z" fill="#FF6A54"/>
<path d="M123.984 120.261C124.536 121.217 124.238 122.423 123.318 122.955C122.397 123.486 121.204 123.141 120.652 122.184C120.099 121.228 120.397 120.022 121.318 119.491C122.238 118.959 123.431 119.304 123.984 120.261Z" fill="#FF6A54"/>
<path d="M130.648 116.413C131.2 117.37 130.902 118.576 129.982 119.107C129.061 119.638 127.868 119.294 127.316 118.337C126.763 117.38 127.061 116.174 127.982 115.643C128.902 115.112 130.095 115.457 130.648 116.413Z" fill="#FF6A54"/>
<path d="M137.312 112.566C137.864 113.522 137.566 114.728 136.646 115.26C135.725 115.791 134.532 115.446 133.98 114.49C133.427 113.533 133.725 112.327 134.646 111.796C135.566 111.264 136.759 111.609 137.312 112.566Z" fill="#FF6A54"/>
<path d="M143.976 108.718C144.528 109.675 144.23 110.881 143.31 111.412C142.389 111.943 141.196 111.599 140.644 110.642C140.091 109.685 140.389 108.479 141.31 107.948C142.23 107.417 143.423 107.762 143.976 108.718Z" fill="#FF6A54"/>
<path d="M150.64 104.871C151.192 105.827 150.894 107.034 149.974 107.565C149.053 108.096 147.86 107.751 147.308 106.795C146.755 105.838 147.053 104.632 147.974 104.101C148.894 103.569 150.087 103.914 150.64 104.871Z" fill="#FF6A54"/>
<path d="M157.304 101.023C157.856 101.98 157.558 103.186 156.638 103.717C155.717 104.249 154.524 103.904 153.972 102.947C153.419 101.991 153.717 100.784 154.638 100.253C155.558 99.722 156.751 100.067 157.304 101.023Z" fill="#FF6A54"/>
<path d="M163.967 97.176C164.52 98.1326 164.222 99.3387 163.302 99.8699C162.381 100.401 161.188 100.056 160.636 99.0997C160.083 98.1431 160.381 96.937 161.302 96.4058C162.222 95.8745 163.415 96.2194 163.967 97.176Z" fill="#FF6A54"/>
<path d="M170.632 93.3285C171.184 94.2851 170.886 95.4912 169.966 96.0224C169.045 96.5536 167.852 96.2088 167.3 95.2522C166.747 94.2956 167.045 93.0895 167.966 92.5583C168.886 92.0271 170.079 92.3719 170.632 93.3285Z" fill="#FF6A54"/>
<path d="M177.295 89.481C177.848 90.4376 177.55 91.6437 176.629 92.175C175.709 92.7062 174.516 92.3614 173.963 91.4048C173.411 90.4482 173.709 89.2421 174.629 88.7109C175.55 88.1796 176.743 88.5245 177.295 89.481Z" fill="#FF6A54"/>
<path d="M183.959 85.6336C184.512 86.5902 184.214 87.7963 183.293 88.3275C182.373 88.8587 181.18 88.5139 180.627 87.5573C180.075 86.6007 180.373 85.3946 181.293 84.8634C182.214 84.3322 183.407 84.677 183.959 85.6336Z" fill="#FF6A54"/>
<path d="M190.623 81.7861C191.176 82.7427 190.878 83.9488 189.957 84.48C189.037 85.0113 187.844 84.6664 187.291 83.7099C186.739 82.7533 187.037 81.5472 187.957 81.0159C188.878 80.4847 190.071 80.8295 190.623 81.7861Z" fill="#FF6A54"/>
<path d="M197.287 77.9387C197.84 78.8953 197.542 80.1014 196.621 80.6326C195.701 81.1638 194.508 80.819 193.955 79.8624C193.403 78.9058 193.701 77.6997 194.621 77.1685C195.542 76.6373 196.735 76.9821 197.287 77.9387Z" fill="#FF6A54"/>
<path d="M203.951 74.0912C204.504 75.0478 204.206 76.2539 203.285 76.7851C202.365 77.3164 201.172 76.9715 200.619 76.0149C200.067 75.0584 200.365 73.8522 201.285 73.321C202.206 72.7898 203.399 73.1346 203.951 74.0912Z" fill="#FF6A54"/>
<path d="M210.615 70.2438C211.168 71.2003 210.87 72.4064 209.949 72.9377C209.029 73.4689 207.836 73.1241 207.283 72.1675C206.731 71.2109 207.029 70.0048 207.949 69.4736C208.87 68.9423 210.063 69.2872 210.615 70.2438Z" fill="#FF6A54"/>
<path d="M217.279 66.3963C217.832 67.3529 217.534 68.559 216.613 69.0902C215.693 69.6214 214.5 69.2766 213.947 68.32C213.395 67.3634 213.693 66.1573 214.613 65.6261C215.534 65.0949 216.727 65.4397 217.279 66.3963Z" fill="#FF6A54"/>
<path d="M223.943 62.5488C224.496 63.5054 224.198 64.7115 223.277 65.2428C222.357 65.774 221.164 65.4291 220.611 64.4726C220.059 63.516 220.357 62.3099 221.277 61.7787C222.198 61.2474 223.391 61.5923 223.943 62.5488Z" fill="#FF6A54"/>
<path d="M230.607 58.7014C231.16 59.658 230.862 60.8641 229.941 61.3953C229.021 61.9265 227.828 61.5817 227.275 60.6251C226.723 59.6685 227.021 58.4624 227.941 57.9312C228.862 57.4 230.055 57.7448 230.607 58.7014Z" fill="#FF6A54"/>
<path d="M237.271 54.8539C237.824 55.8105 237.526 57.0166 236.605 57.5478C235.685 58.0791 234.492 57.7342 233.939 56.7776C233.387 55.8211 233.685 54.615 234.605 54.0837C235.526 53.5525 236.719 53.8973 237.271 54.8539Z" fill="#FF6A54"/>
<path d="M243.935 51.0065C244.488 51.9631 244.19 53.1692 243.269 53.7004C242.349 54.2316 241.156 53.8868 240.603 52.9302C240.051 51.9736 240.349 50.7675 241.269 50.2363C242.19 49.7051 243.383 50.0499 243.935 51.0065Z" fill="#FF6A54"/>
<path d="M47.1797 156.521C47.7319 157.478 47.4338 158.684 46.5137 159.215C45.5935 159.746 44.3999 159.402 43.8477 158.445C43.2954 157.488 43.5935 156.282 44.5137 155.751C45.4338 155.22 46.6274 155.565 47.1797 156.521Z" fill="#FF6A54"/>
<path d="M53.8436 152.674C54.3959 153.63 54.0978 154.836 53.1776 155.368C52.2575 155.899 51.0639 155.554 50.5117 154.597C49.9594 153.641 50.2575 152.435 51.1776 151.904C52.0978 151.372 53.2914 151.717 53.8436 152.674Z" fill="#FF6A54"/>
<path d="M60.5076 148.826C61.0599 149.783 60.7617 150.989 59.8416 151.52C58.9215 152.051 57.7279 151.707 57.1756 150.75C56.6234 149.793 56.9215 148.587 57.8416 148.056C58.7617 147.525 59.9553 147.87 60.5076 148.826Z" fill="#FF6A54"/>
<path d="M67.1716 144.979C67.7239 145.935 67.4257 147.142 66.5056 147.673C65.5855 148.204 64.3919 147.859 63.8396 146.903C63.2873 145.946 63.5855 144.74 64.5056 144.209C65.4257 143.677 66.6193 144.022 67.1716 144.979Z" fill="#FF6A54"/>
<path d="M73.8356 141.131C74.3879 142.088 74.0897 143.294 73.1696 143.825C72.2495 144.357 71.0559 144.012 70.5036 143.055C69.9513 142.099 70.2495 140.892 71.1696 140.361C72.0897 139.83 73.2833 140.175 73.8356 141.131Z" fill="#FF6A54"/>
<path d="M80.4996 137.284C81.0519 138.241 80.7537 139.447 79.8336 139.978C78.9135 140.509 77.7199 140.164 77.1676 139.208C76.6153 138.251 76.9135 137.045 77.8336 136.514C78.7537 135.983 79.9473 136.327 80.4996 137.284Z" fill="#FF6A54"/>
<path d="M87.1636 133.436C87.7159 134.393 87.4177 135.599 86.4976 136.13C85.5775 136.662 84.3839 136.317 83.8316 135.36C83.2793 134.404 83.5775 133.198 84.4976 132.666C85.4177 132.135 86.6113 132.48 87.1636 133.436Z" fill="#FF6A54"/>
<path d="M93.8276 129.589C94.3799 130.546 94.0817 131.752 93.1616 132.283C92.2415 132.814 91.0479 132.469 90.4956 131.513C89.9433 130.556 90.2415 129.35 91.1616 128.819C92.0817 128.288 93.2753 128.632 93.8276 129.589Z" fill="#FF6A54"/>
<path d="M100.492 125.742C101.044 126.698 100.746 127.904 99.8256 128.435C98.9055 128.967 97.7119 128.622 97.1596 127.665C96.6073 126.709 96.9055 125.503 97.8256 124.971C98.7457 124.44 99.9393 124.785 100.492 125.742Z" fill="#FF6A54"/>
<path d="M107.156 121.894C107.708 122.851 107.41 124.057 106.49 124.588C105.569 125.119 104.376 124.774 103.824 123.818C103.271 122.861 103.569 121.655 104.49 121.124C105.41 120.593 106.603 120.938 107.156 121.894Z" fill="#FF6A54"/>
<path d="M113.82 118.047C114.372 119.003 114.074 120.209 113.154 120.741C112.233 121.272 111.04 120.927 110.488 119.97C109.935 119.014 110.233 117.808 111.154 117.276C112.074 116.745 113.267 117.09 113.82 118.047Z" fill="#FF6A54"/>
<path d="M120.484 114.199C121.036 115.156 120.738 116.362 119.818 116.893C118.897 117.424 117.704 117.079 117.152 116.123C116.599 115.166 116.897 113.96 117.818 113.429C118.738 112.898 119.931 113.243 120.484 114.199Z" fill="#FF6A54"/>
<path d="M127.148 110.352C127.7 111.308 127.402 112.514 126.482 113.046C125.561 113.577 124.368 113.232 123.816 112.275C123.263 111.319 123.561 110.113 124.482 109.582C125.402 109.05 126.595 109.395 127.148 110.352Z" fill="#FF6A54"/>
<path d="M133.812 106.504C134.364 107.461 134.066 108.667 133.146 109.198C132.225 109.729 131.032 109.385 130.48 108.428C129.927 107.471 130.225 106.265 131.146 105.734C132.066 105.203 133.259 105.548 133.812 106.504Z" fill="#FF6A54"/>
<path d="M140.476 102.657C141.028 103.613 140.73 104.819 139.81 105.351C138.889 105.882 137.696 105.537 137.144 104.581C136.591 103.624 136.889 102.418 137.81 101.887C138.73 101.355 139.923 101.7 140.476 102.657Z" fill="#FF6A54"/>
<path d="M147.14 98.8093C147.692 99.7659 147.394 100.972 146.474 101.503C145.553 102.034 144.36 101.69 143.808 100.733C143.255 99.7765 143.553 98.5704 144.474 98.0392C145.394 97.5079 146.587 97.8528 147.14 98.8093Z" fill="#FF6A54"/>
<path d="M153.804 94.9619C154.356 95.9185 154.058 97.1246 153.138 97.6558C152.217 98.187 151.024 97.8422 150.472 96.8856C149.919 95.929 150.217 94.7229 151.138 94.1917C152.058 93.6605 153.251 94.0053 153.804 94.9619Z" fill="#FF6A54"/>
<path d="M160.467 91.1144C161.02 92.071 160.722 93.2771 159.802 93.8084C158.881 94.3396 157.688 93.9948 157.136 93.0382C156.583 92.0816 156.881 90.8755 157.802 90.3443C158.722 89.813 159.915 90.1579 160.467 91.1144Z" fill="#FF6A54"/>
<path d="M167.132 87.267C167.684 88.2236 167.386 89.4297 166.466 89.9609C165.545 90.4921 164.352 90.1473 163.8 89.1907C163.247 88.2341 163.545 87.028 164.466 86.4968C165.386 85.9656 166.579 86.3104 167.132 87.267Z" fill="#FF6A54"/>
<path d="M173.795 83.4195C174.348 84.3761 174.05 85.5822 173.129 86.1134C172.209 86.6447 171.016 86.2998 170.463 85.3432C169.911 84.3867 170.209 83.1806 171.129 82.6493C172.05 82.1181 173.243 82.4629 173.795 83.4195Z" fill="#FF6A54"/>
<path d="M180.459 79.5721C181.012 80.5286 180.714 81.7348 179.793 82.266C178.873 82.7972 177.68 82.4524 177.127 81.4958C176.575 80.5392 176.873 79.3331 177.793 78.8019C178.714 78.2707 179.907 78.6155 180.459 79.5721Z" fill="#FF6A54"/>
<path d="M187.123 75.7246C187.676 76.6812 187.378 77.8873 186.457 78.4185C185.537 78.9498 184.344 78.6049 183.791 77.6483C183.239 76.6918 183.537 75.4856 184.457 74.9544C185.378 74.4232 186.571 74.768 187.123 75.7246Z" fill="#FF6A54"/>
<path d="M193.787 71.8771C194.34 72.8337 194.042 74.0398 193.121 74.5711C192.201 75.1023 191.008 74.7575 190.455 73.8009C189.903 72.8443 190.201 71.6382 191.121 71.107C192.042 70.5757 193.235 70.9206 193.787 71.8771Z" fill="#FF6A54"/>
<path d="M200.451 68.0297C201.004 68.9863 200.706 70.1924 199.785 70.7236C198.865 71.2548 197.672 70.91 197.119 69.9534C196.567 68.9968 196.865 67.7907 197.785 67.2595C198.706 66.7283 199.899 67.0731 200.451 68.0297Z" fill="#FF6A54"/>
<path d="M207.115 64.1822C207.668 65.1388 207.37 66.3449 206.449 66.8761C205.529 67.4074 204.336 67.0625 203.783 66.106C203.231 65.1494 203.529 63.9433 204.449 63.412C205.37 62.8808 206.563 63.2257 207.115 64.1822Z" fill="#FF6A54"/>
<path d="M213.779 60.3348C214.332 61.2914 214.034 62.4975 213.113 63.0287C212.193 63.5599 211 63.2151 210.447 62.2585C209.895 61.3019 210.193 60.0958 211.113 59.5646C212.034 59.0334 213.227 59.3782 213.779 60.3348Z" fill="#FF6A54"/>
<path d="M220.443 56.4873C220.996 57.4439 220.698 58.65 219.777 59.1812C218.857 59.7125 217.664 59.3676 217.111 58.411C216.559 57.4545 216.857 56.2484 217.777 55.7171C218.698 55.1859 219.891 55.5307 220.443 56.4873Z" fill="#FF6A54"/>
<path d="M227.107 52.6399C227.66 53.5964 227.362 54.8025 226.441 55.3338C225.521 55.865 224.328 55.5202 223.775 54.5636C223.223 53.607 223.521 52.4009 224.441 51.8697C225.362 51.3384 226.555 51.6833 227.107 52.6399Z" fill="#FF6A54"/>
<path d="M233.771 48.7924C234.324 49.749 234.026 50.9551 233.105 51.4863C232.185 52.0175 230.992 51.6727 230.439 50.7161C229.887 49.7595 230.185 48.5534 231.105 48.0222C232.026 47.491 233.219 47.8358 233.771 48.7924Z" fill="#FF6A54"/>
<path d="M240.435 44.9449C240.988 45.9015 240.69 47.1076 239.769 47.6389C238.849 48.1701 237.656 47.8253 237.103 46.8687C236.551 45.9121 236.849 44.706 237.769 44.1748C238.69 43.6435 239.883 43.9884 240.435 44.9449Z" fill="#FF6A54"/>
<path d="M43.6797 150.459C44.2319 151.415 43.9338 152.621 43.0137 153.153C42.0935 153.684 40.8999 153.339 40.3477 152.382C39.7954 151.426 40.0935 150.22 41.0137 149.689C41.9338 149.157 43.1274 149.502 43.6797 150.459Z" fill="#FF6A54"/>
<path d="M50.3436 146.611C50.8959 147.568 50.5978 148.774 49.6776 149.305C48.7575 149.836 47.5639 149.492 47.0117 148.535C46.4594 147.578 46.7575 146.372 47.6776 145.841C48.5978 145.31 49.7914 145.655 50.3436 146.611Z" fill="#FF6A54"/>
<path d="M57.0076 142.764C57.5599 143.72 57.2617 144.926 56.3416 145.458C55.4215 145.989 54.2279 145.644 53.6756 144.688C53.1234 143.731 53.4215 142.525 54.3416 141.994C55.2617 141.462 56.4553 141.807 57.0076 142.764Z" fill="#FF6A54"/>
<path d="M63.6716 138.916C64.2239 139.873 63.9257 141.079 63.0056 141.61C62.0855 142.141 60.8919 141.797 60.3396 140.84C59.7873 139.883 60.0855 138.677 61.0056 138.146C61.9257 137.615 63.1193 137.96 63.6716 138.916Z" fill="#FF6A54"/>
<path d="M70.3356 135.069C70.8879 136.025 70.5897 137.232 69.6696 137.763C68.7495 138.294 67.5559 137.949 67.0036 136.993C66.4513 136.036 66.7495 134.83 67.6696 134.299C68.5897 133.767 69.7833 134.112 70.3356 135.069Z" fill="#FF6A54"/>
<path d="M76.9996 131.221C77.5519 132.178 77.2537 133.384 76.3336 133.915C75.4135 134.447 74.2199 134.102 73.6676 133.145C73.1153 132.189 73.4135 130.982 74.3336 130.451C75.2537 129.92 76.4473 130.265 76.9996 131.221Z" fill="#FF6A54"/>
<path d="M83.6636 127.374C84.2159 128.331 83.9177 129.537 82.9976 130.068C82.0775 130.599 80.8839 130.254 80.3316 129.298C79.7793 128.341 80.0775 127.135 80.9976 126.604C81.9177 126.073 83.1113 126.417 83.6636 127.374Z" fill="#FF6A54"/>
<path d="M90.3276 123.527C90.8799 124.483 90.5817 125.689 89.6616 126.22C88.7415 126.752 87.5479 126.407 86.9956 125.45C86.4433 124.494 86.7415 123.288 87.6616 122.756C88.5817 122.225 89.7753 122.57 90.3276 123.527Z" fill="#FF6A54"/>
<path d="M96.9916 119.679C97.5439 120.636 97.2457 121.842 96.3256 122.373C95.4055 122.904 94.2119 122.559 93.6596 121.603C93.1073 120.646 93.4055 119.44 94.3256 118.909C95.2457 118.378 96.4393 118.722 96.9916 119.679Z" fill="#FF6A54"/>
<path d="M103.656 115.832C104.208 116.788 103.91 117.994 102.99 118.526C102.069 119.057 100.876 118.712 100.324 117.755C99.7713 116.799 100.069 115.593 100.99 115.061C101.91 114.53 103.103 114.875 103.656 115.832Z" fill="#FF6A54"/>
<path d="M110.32 111.984C110.872 112.941 110.574 114.147 109.654 114.678C108.733 115.209 107.54 114.864 106.988 113.908C106.435 112.951 106.733 111.745 107.654 111.214C108.574 110.683 109.767 111.028 110.32 111.984Z" fill="#FF6A54"/>
<path d="M116.984 108.137C117.536 109.093 117.238 110.299 116.318 110.831C115.397 111.362 114.204 111.017 113.652 110.06C113.099 109.104 113.397 107.898 114.318 107.366C115.238 106.835 116.431 107.18 116.984 108.137Z" fill="#FF6A54"/>
<path d="M123.648 104.289C124.2 105.246 123.902 106.452 122.982 106.983C122.061 107.514 120.868 107.17 120.316 106.213C119.763 105.256 120.061 104.05 120.982 103.519C121.902 102.988 123.095 103.333 123.648 104.289Z" fill="#FF6A54"/>
<path d="M130.312 100.442C130.864 101.398 130.566 102.604 129.646 103.136C128.725 103.667 127.532 103.322 126.98 102.365C126.427 101.409 126.725 100.203 127.646 99.6716C128.566 99.1404 129.759 99.4852 130.312 100.442Z" fill="#FF6A54"/>
<path d="M136.976 96.5943C137.528 97.5509 137.23 98.757 136.31 99.2882C135.389 99.8194 134.196 99.4746 133.644 98.518C133.091 97.5614 133.389 96.3553 134.31 95.8241C135.23 95.2929 136.423 95.6377 136.976 96.5943Z" fill="#FF6A54"/>
<path d="M143.64 92.7468C144.192 93.7034 143.894 94.9095 142.974 95.4408C142.053 95.972 140.86 95.6272 140.308 94.6706C139.755 93.714 140.053 92.5079 140.974 91.9767C141.894 91.4454 143.087 91.7903 143.64 92.7468Z" fill="#FF6A54"/>
<path d="M150.304 88.8994C150.856 89.856 150.558 91.0621 149.638 91.5933C148.717 92.1245 147.524 91.7797 146.972 90.8231C146.419 89.8665 146.717 88.6604 147.638 88.1292C148.558 87.598 149.751 87.9428 150.304 88.8994Z" fill="#FF6A54"/>
<path d="M156.967 85.0519C157.52 86.0085 157.222 87.2146 156.302 87.7459C155.381 88.2771 154.188 87.9323 153.636 86.9757C153.083 86.0191 153.381 84.813 154.302 84.2818C155.222 83.7505 156.415 84.0954 156.967 85.0519Z" fill="#FF6A54"/>
<path d="M163.632 81.2045C164.184 82.1611 163.886 83.3672 162.966 83.8984C162.045 84.4296 160.852 84.0848 160.3 83.1282C159.747 82.1716 160.045 80.9655 160.966 80.4343C161.886 79.9031 163.079 80.2479 163.632 81.2045Z" fill="#FF6A54"/>
<path d="M170.295 77.357C170.848 78.3136 170.55 79.5197 169.629 80.0509C168.709 80.5822 167.516 80.2373 166.963 79.2807C166.411 78.3242 166.709 77.1181 167.629 76.5868C168.55 76.0556 169.743 76.4004 170.295 77.357Z" fill="#FF6A54"/>
<path d="M176.959 73.5096C177.512 74.4661 177.214 75.6723 176.293 76.2035C175.373 76.7347 174.18 76.3899 173.627 75.4333C173.075 74.4767 173.373 73.2706 174.293 72.7394C175.214 72.2082 176.407 72.553 176.959 73.5096Z" fill="#FF6A54"/>
<path d="M183.623 69.6621C184.176 70.6187 183.878 71.8248 182.957 72.356C182.037 72.8873 180.844 72.5424 180.291 71.5858C179.739 70.6293 180.037 69.4231 180.957 68.8919C181.878 68.3607 183.071 68.7055 183.623 69.6621Z" fill="#FF6A54"/>
<path d="M190.287 65.8146C190.84 66.7712 190.542 67.9773 189.621 68.5086C188.701 69.0398 187.508 68.695 186.955 67.7384C186.403 66.7818 186.701 65.5757 187.621 65.0445C188.542 64.5132 189.735 64.8581 190.287 65.8146Z" fill="#FF6A54"/>
<path d="M196.951 61.9672C197.504 62.9238 197.206 64.1299 196.285 64.6611C195.365 65.1923 194.172 64.8475 193.619 63.8909C193.067 62.9343 193.365 61.7282 194.285 61.197C195.206 60.6658 196.399 61.0106 196.951 61.9672Z" fill="#FF6A54"/>
<path d="M203.615 58.1197C204.168 59.0763 203.87 60.2824 202.949 60.8136C202.029 61.3449 200.836 61 200.283 60.0435C199.731 59.0869 200.029 57.8808 200.949 57.3495C201.87 56.8183 203.063 57.1632 203.615 58.1197Z" fill="#FF6A54"/>
<path d="M210.279 54.2723C210.832 55.2289 210.534 56.435 209.613 56.9662C208.693 57.4974 207.5 57.1526 206.947 56.196C206.395 55.2394 206.693 54.0333 207.613 53.5021C208.534 52.9709 209.727 53.3157 210.279 54.2723Z" fill="#FF6A54"/>
<path d="M216.943 50.4248C217.496 51.3814 217.198 52.5875 216.277 53.1187C215.357 53.65 214.164 53.3051 213.611 52.3485C213.059 51.392 213.357 50.1859 214.277 49.6546C215.198 49.1234 216.391 49.4682 216.943 50.4248Z" fill="#FF6A54"/>
<path d="M223.607 46.5774C224.16 47.5339 223.862 48.74 222.941 49.2713C222.021 49.8025 220.828 49.4577 220.275 48.5011C219.723 47.5445 220.021 46.3384 220.941 45.8072C221.862 45.2759 223.055 45.6208 223.607 46.5774Z" fill="#FF6A54"/>
<path d="M230.271 42.7299C230.824 43.6865 230.526 44.8926 229.605 45.4238C228.685 45.955 227.492 45.6102 226.939 44.6536C226.387 43.697 226.685 42.4909 227.605 41.9597C228.526 41.4285 229.719 41.7733 230.271 42.7299Z" fill="#FF6A54"/>
<path d="M236.935 38.8824C237.488 39.839 237.19 41.0451 236.269 41.5764C235.349 42.1076 234.156 41.7628 233.603 40.8062C233.051 39.8496 233.349 38.6435 234.269 38.1123C235.19 37.581 236.383 37.9259 236.935 38.8824Z" fill="#FF6A54"/>
<path d="M91.6797 233.597C92.2319 234.554 91.9338 235.76 91.0137 236.291C90.0935 236.823 88.8999 236.478 88.3477 235.521C87.7954 234.565 88.0935 233.358 89.0137 232.827C89.9338 232.296 91.1274 232.641 91.6797 233.597Z" fill="#FF6A54"/>
<path d="M98.3436 229.75C98.8959 230.707 98.5978 231.913 97.6776 232.444C96.7575 232.975 95.5639 232.63 95.0117 231.674C94.4594 230.717 94.7575 229.511 95.6776 228.98C96.5978 228.449 97.7914 228.793 98.3436 229.75Z" fill="#FF6A54"/>
<path d="M105.008 225.902C105.56 226.859 105.262 228.065 104.342 228.596C103.422 229.128 102.228 228.783 101.676 227.826C101.123 226.87 101.422 225.664 102.342 225.132C103.262 224.601 104.455 224.946 105.008 225.902Z" fill="#FF6A54"/>
<path d="M111.672 222.055C112.224 223.012 111.926 224.218 111.006 224.749C110.086 225.28 108.892 224.935 108.34 223.979C107.787 223.022 108.086 221.816 109.006 221.285C109.926 220.754 111.119 221.098 111.672 222.055Z" fill="#FF6A54"/>
<path d="M118.336 218.208C118.888 219.164 118.59 220.37 117.67 220.901C116.75 221.433 115.556 221.088 115.004 220.131C114.451 219.175 114.75 217.969 115.67 217.437C116.59 216.906 117.783 217.251 118.336 218.208Z" fill="#FF6A54"/>
<path d="M125 214.36C125.552 215.317 125.254 216.523 124.334 217.054C123.414 217.585 122.22 217.24 121.668 216.284C121.115 215.327 121.414 214.121 122.334 213.59C123.254 213.059 124.447 213.404 125 214.36Z" fill="#FF6A54"/>
<path d="M131.664 210.513C132.216 211.469 131.918 212.675 130.998 213.207C130.077 213.738 128.884 213.393 128.332 212.436C127.779 211.48 128.077 210.274 128.998 209.742C129.918 209.211 131.111 209.556 131.664 210.513Z" fill="#FF6A54"/>
<path d="M138.328 206.665C138.88 207.622 138.582 208.828 137.662 209.359C136.741 209.89 135.548 209.545 134.996 208.589C134.443 207.632 134.741 206.426 135.662 205.895C136.582 205.364 137.775 205.709 138.328 206.665Z" fill="#FF6A54"/>
<path d="M144.992 202.818C145.544 203.774 145.246 204.98 144.326 205.512C143.405 206.043 142.212 205.698 141.66 204.741C141.107 203.785 141.405 202.579 142.326 202.048C143.246 201.516 144.439 201.861 144.992 202.818Z" fill="#FF6A54"/>
<path d="M151.656 198.97C152.208 199.927 151.91 201.133 150.99 201.664C150.069 202.195 148.876 201.851 148.324 200.894C147.771 199.937 148.069 198.731 148.99 198.2C149.91 197.669 151.103 198.014 151.656 198.97Z" fill="#FF6A54"/>
<path d="M158.32 195.123C158.872 196.079 158.574 197.286 157.654 197.817C156.733 198.348 155.54 198.003 154.988 197.047C154.435 196.09 154.733 194.884 155.654 194.353C156.574 193.821 157.767 194.166 158.32 195.123Z" fill="#FF6A54"/>
<path d="M164.984 191.275C165.536 192.232 165.238 193.438 164.318 193.969C163.397 194.5 162.204 194.156 161.652 193.199C161.099 192.242 161.397 191.036 162.318 190.505C163.238 189.974 164.431 190.319 164.984 191.275Z" fill="#FF6A54"/>
<path d="M171.648 187.428C172.2 188.384 171.902 189.591 170.982 190.122C170.061 190.653 168.868 190.308 168.316 189.352C167.763 188.395 168.061 187.189 168.982 186.658C169.902 186.126 171.095 186.471 171.648 187.428Z" fill="#FF6A54"/>
<path d="M178.312 183.58C178.864 184.537 178.566 185.743 177.646 186.274C176.725 186.806 175.532 186.461 174.98 185.504C174.427 184.548 174.725 183.341 175.646 182.81C176.566 182.279 177.759 182.624 178.312 183.58Z" fill="#FF6A54"/>
<path d="M184.976 179.733C185.528 180.69 185.23 181.896 184.31 182.427C183.389 182.958 182.196 182.613 181.644 181.657C181.091 180.7 181.389 179.494 182.31 178.963C183.23 178.432 184.423 178.776 184.976 179.733Z" fill="#FF6A54"/>
<path d="M191.64 175.886C192.192 176.842 191.894 178.048 190.974 178.579C190.053 179.111 188.86 178.766 188.308 177.809C187.755 176.853 188.053 175.647 188.974 175.115C189.894 174.584 191.087 174.929 191.64 175.886Z" fill="#FF6A54"/>
<path d="M198.304 172.038C198.856 172.995 198.558 174.201 197.638 174.732C196.717 175.263 195.524 174.918 194.972 173.962C194.419 173.005 194.717 171.799 195.638 171.268C196.558 170.737 197.751 171.081 198.304 172.038Z" fill="#FF6A54"/>
<path d="M204.967 168.191C205.52 169.147 205.222 170.353 204.302 170.885C203.381 171.416 202.188 171.071 201.636 170.114C201.083 169.158 201.381 167.952 202.302 167.42C203.222 166.889 204.415 167.234 204.967 168.191Z" fill="#FF6A54"/>
<path d="M211.632 164.343C212.184 165.3 211.886 166.506 210.966 167.037C210.045 167.568 208.852 167.223 208.3 166.267C207.747 165.31 208.045 164.104 208.966 163.573C209.886 163.042 211.079 163.387 211.632 164.343Z" fill="#FF6A54"/>
<path d="M218.295 160.496C218.848 161.452 218.55 162.658 217.629 163.19C216.709 163.721 215.516 163.376 214.963 162.419C214.411 161.463 214.709 160.257 215.629 159.726C216.55 159.194 217.743 159.539 218.295 160.496Z" fill="#FF6A54"/>
<path d="M224.959 156.648C225.512 157.605 225.214 158.811 224.293 159.342C223.373 159.873 222.18 159.529 221.627 158.572C221.075 157.615 221.373 156.409 222.293 155.878C223.214 155.347 224.407 155.692 224.959 156.648Z" fill="#FF6A54"/>
<path d="M231.623 152.801C232.176 153.757 231.878 154.963 230.957 155.495C230.037 156.026 228.844 155.681 228.291 154.725C227.739 153.768 228.037 152.562 228.957 152.031C229.878 151.499 231.071 151.844 231.623 152.801Z" fill="#FF6A54"/>
<path d="M238.287 148.953C238.84 149.91 238.542 151.116 237.621 151.647C236.701 152.178 235.508 151.834 234.955 150.877C234.403 149.92 234.701 148.714 235.621 148.183C236.542 147.652 237.735 147.997 238.287 148.953Z" fill="#FF6A54"/>
<path d="M244.951 145.106C245.504 146.062 245.206 147.269 244.285 147.8C243.365 148.331 242.172 147.986 241.619 147.03C241.067 146.073 241.365 144.867 242.285 144.336C243.206 143.804 244.399 144.149 244.951 145.106Z" fill="#FF6A54"/>
<path d="M251.615 141.258C252.168 142.215 251.87 143.421 250.949 143.952C250.029 144.484 248.836 144.139 248.283 143.182C247.731 142.226 248.029 141.019 248.949 140.488C249.87 139.957 251.063 140.302 251.615 141.258Z" fill="#FF6A54"/>
<path d="M258.279 137.411C258.832 138.368 258.534 139.574 257.613 140.105C256.693 140.636 255.5 140.291 254.947 139.335C254.395 138.378 254.693 137.172 255.613 136.641C256.534 136.11 257.727 136.454 258.279 137.411Z" fill="#FF6A54"/>
<path d="M264.943 133.563C265.496 134.52 265.198 135.726 264.277 136.257C263.357 136.789 262.164 136.444 261.611 135.487C261.059 134.531 261.357 133.325 262.277 132.793C263.198 132.262 264.391 132.607 264.943 133.563Z" fill="#FF6A54"/>
<path d="M271.607 129.716C272.16 130.673 271.862 131.879 270.941 132.41C270.021 132.941 268.828 132.596 268.275 131.64C267.723 130.683 268.021 129.477 268.941 128.946C269.862 128.415 271.055 128.759 271.607 129.716Z" fill="#FF6A54"/>
<path d="M278.271 125.869C278.824 126.825 278.526 128.031 277.605 128.562C276.685 129.094 275.492 128.749 274.939 127.792C274.387 126.836 274.685 125.63 275.605 125.098C276.526 124.567 277.719 124.912 278.271 125.869Z" fill="#FF6A54"/>
<path d="M284.935 122.021C285.488 122.978 285.19 124.184 284.269 124.715C283.349 125.246 282.156 124.901 281.603 123.945C281.051 122.988 281.349 121.782 282.269 121.251C283.19 120.72 284.383 121.065 284.935 122.021Z" fill="#FF6A54"/>
<path d="M88.1797 227.535C88.7319 228.491 88.4338 229.698 87.5137 230.229C86.5935 230.76 85.3999 230.415 84.8477 229.459C84.2954 228.502 84.5935 227.296 85.5137 226.765C86.4338 226.233 87.6274 226.578 88.1797 227.535Z" fill="#FF6A54"/>
<path d="M94.8436 223.687C95.3959 224.644 95.0978 225.85 94.1776 226.381C93.2575 226.913 92.0639 226.568 91.5117 225.611C90.9594 224.655 91.2575 223.448 92.1776 222.917C93.0978 222.386 94.2914 222.731 94.8436 223.687Z" fill="#FF6A54"/>
<path d="M101.508 219.84C102.06 220.797 101.762 222.003 100.842 222.534C99.9215 223.065 98.7279 222.72 98.1756 221.764C97.6234 220.807 97.9215 219.601 98.8416 219.07C99.7617 218.539 100.955 218.883 101.508 219.84Z" fill="#FF6A54"/>
<path d="M108.172 215.993C108.724 216.949 108.426 218.155 107.506 218.686C106.586 219.218 105.392 218.873 104.84 217.916C104.287 216.96 104.586 215.754 105.506 215.222C106.426 214.691 107.619 215.036 108.172 215.993Z" fill="#FF6A54"/>
<path d="M114.836 212.145C115.388 213.102 115.09 214.308 114.17 214.839C113.25 215.37 112.056 215.025 111.504 214.069C110.951 213.112 111.25 211.906 112.17 211.375C113.09 210.844 114.283 211.188 114.836 212.145Z" fill="#FF6A54"/>
<path d="M121.5 208.298C122.052 209.254 121.754 210.46 120.834 210.992C119.914 211.523 118.72 211.178 118.168 210.221C117.615 209.265 117.914 208.059 118.834 207.527C119.754 206.996 120.947 207.341 121.5 208.298Z" fill="#FF6A54"/>
<path d="M128.164 204.45C128.716 205.407 128.418 206.613 127.498 207.144C126.577 207.675 125.384 207.33 124.832 206.374C124.279 205.417 124.577 204.211 125.498 203.68C126.418 203.149 127.611 203.494 128.164 204.45Z" fill="#FF6A54"/>
<path d="M134.828 200.603C135.38 201.559 135.082 202.765 134.162 203.297C133.241 203.828 132.048 203.483 131.496 202.526C130.943 201.57 131.241 200.364 132.162 199.832C133.082 199.301 134.275 199.646 134.828 200.603Z" fill="#FF6A54"/>
<path d="M141.492 196.755C142.044 197.712 141.746 198.918 140.826 199.449C139.905 199.98 138.712 199.636 138.16 198.679C137.607 197.722 137.905 196.516 138.826 195.985C139.746 195.454 140.939 195.799 141.492 196.755Z" fill="#FF6A54"/>
<path d="M148.156 192.908C148.708 193.864 148.41 195.07 147.49 195.602C146.569 196.133 145.376 195.788 144.824 194.831C144.271 193.875 144.569 192.669 145.49 192.138C146.41 191.606 147.603 191.951 148.156 192.908Z" fill="#FF6A54"/>
<path d="M154.82 189.06C155.372 190.017 155.074 191.223 154.154 191.754C153.233 192.285 152.04 191.941 151.488 190.984C150.935 190.027 151.233 188.821 152.154 188.29C153.074 187.759 154.267 188.104 154.82 189.06Z" fill="#FF6A54"/>
<path d="M161.484 185.213C162.036 186.169 161.738 187.376 160.818 187.907C159.897 188.438 158.704 188.093 158.152 187.137C157.599 186.18 157.897 184.974 158.818 184.443C159.738 183.911 160.931 184.256 161.484 185.213Z" fill="#FF6A54"/>
<path d="M168.148 181.365C168.7 182.322 168.402 183.528 167.482 184.059C166.561 184.591 165.368 184.246 164.816 183.289C164.263 182.333 164.561 181.126 165.482 180.595C166.402 180.064 167.595 180.409 168.148 181.365Z" fill="#FF6A54"/>
<path d="M174.812 177.518C175.364 178.475 175.066 179.681 174.146 180.212C173.225 180.743 172.032 180.398 171.48 179.442C170.927 178.485 171.225 177.279 172.146 176.748C173.066 176.217 174.259 176.561 174.812 177.518Z" fill="#FF6A54"/>
<path d="M181.476 173.67C182.028 174.627 181.73 175.833 180.81 176.364C179.889 176.896 178.696 176.551 178.144 175.594C177.591 174.638 177.889 173.432 178.81 172.9C179.73 172.369 180.923 172.714 181.476 173.67Z" fill="#FF6A54"/>
<path d="M188.14 169.823C188.692 170.78 188.394 171.986 187.474 172.517C186.553 173.048 185.36 172.703 184.808 171.747C184.255 170.79 184.553 169.584 185.474 169.053C186.394 168.522 187.587 168.866 188.14 169.823Z" fill="#FF6A54"/>
<path d="M194.804 165.976C195.356 166.932 195.058 168.138 194.138 168.669C193.217 169.201 192.024 168.856 191.472 167.899C190.919 166.943 191.217 165.737 192.138 165.205C193.058 164.674 194.251 165.019 194.804 165.976Z" fill="#FF6A54"/>
<path d="M201.467 162.128C202.02 163.085 201.722 164.291 200.802 164.822C199.881 165.353 198.688 165.008 198.136 164.052C197.583 163.095 197.881 161.889 198.802 161.358C199.722 160.827 200.915 161.172 201.467 162.128Z" fill="#FF6A54"/>
<path d="M208.132 158.281C208.684 159.237 208.386 160.443 207.466 160.975C206.545 161.506 205.352 161.161 204.8 160.204C204.247 159.248 204.545 158.042 205.466 157.51C206.386 156.979 207.579 157.324 208.132 158.281Z" fill="#FF6A54"/>
<path d="M214.795 154.433C215.348 155.39 215.05 156.596 214.129 157.127C213.209 157.658 212.016 157.314 211.463 156.357C210.911 155.4 211.209 154.194 212.129 153.663C213.05 153.132 214.243 153.477 214.795 154.433Z" fill="#FF6A54"/>
<path d="M221.459 150.586C222.012 151.542 221.714 152.748 220.793 153.28C219.873 153.811 218.68 153.466 218.127 152.509C217.575 151.553 217.873 150.347 218.793 149.816C219.714 149.284 220.907 149.629 221.459 150.586Z" fill="#FF6A54"/>
<path d="M228.123 146.738C228.676 147.695 228.378 148.901 227.457 149.432C226.537 149.963 225.344 149.619 224.791 148.662C224.239 147.705 224.537 146.499 225.457 145.968C226.378 145.437 227.571 145.782 228.123 146.738Z" fill="#FF6A54"/>
<path d="M234.787 142.891C235.34 143.847 235.042 145.054 234.121 145.585C233.201 146.116 232.008 145.771 231.455 144.815C230.903 143.858 231.201 142.652 232.121 142.121C233.042 141.589 234.235 141.934 234.787 142.891Z" fill="#FF6A54"/>
<path d="M241.451 139.043C242.004 140 241.706 141.206 240.785 141.737C239.865 142.268 238.672 141.924 238.119 140.967C237.567 140.011 237.865 138.804 238.785 138.273C239.706 137.742 240.899 138.087 241.451 139.043Z" fill="#FF6A54"/>
<path d="M248.115 135.196C248.668 136.152 248.37 137.359 247.449 137.89C246.529 138.421 245.336 138.076 244.783 137.12C244.231 136.163 244.529 134.957 245.449 134.426C246.37 133.894 247.563 134.239 248.115 135.196Z" fill="#FF6A54"/>
<path d="M254.779 131.348C255.332 132.305 255.034 133.511 254.113 134.042C253.193 134.574 252 134.229 251.447 133.272C250.895 132.316 251.193 131.109 252.113 130.578C253.034 130.047 254.227 130.392 254.779 131.348Z" fill="#FF6A54"/>
<path d="M261.443 127.501C261.996 128.458 261.698 129.664 260.777 130.195C259.857 130.726 258.664 130.381 258.111 129.425C257.559 128.468 257.857 127.262 258.777 126.731C259.698 126.2 260.891 126.544 261.443 127.501Z" fill="#FF6A54"/>
<path d="M268.107 123.654C268.66 124.61 268.362 125.816 267.441 126.347C266.521 126.879 265.328 126.534 264.775 125.577C264.223 124.621 264.521 123.415 265.441 122.883C266.362 122.352 267.555 122.697 268.107 123.654Z" fill="#FF6A54"/>
<path d="M274.771 119.806C275.324 120.763 275.026 121.969 274.105 122.5C273.185 123.031 271.992 122.686 271.439 121.73C270.887 120.773 271.185 119.567 272.105 119.036C273.026 118.505 274.219 118.849 274.771 119.806Z" fill="#FF6A54"/>
<path d="M281.435 115.959C281.988 116.915 281.69 118.121 280.769 118.653C279.849 119.184 278.656 118.839 278.103 117.882C277.551 116.926 277.849 115.72 278.769 115.188C279.69 114.657 280.883 115.002 281.435 115.959Z" fill="#FF6A54"/>
<path d="M84.6797 221.473C85.2319 222.43 84.9338 223.636 84.0137 224.167C83.0935 224.698 81.8999 224.354 81.3477 223.397C80.7954 222.441 81.0935 221.234 82.0137 220.703C82.9338 220.172 84.1274 220.517 84.6797 221.473Z" fill="#FF6A54"/>
<path d="M91.3436 217.626C91.8959 218.582 91.5978 219.789 90.6776 220.32C89.7575 220.851 88.5639 220.506 88.0117 219.55C87.4594 218.593 87.7575 217.387 88.6776 216.856C89.5978 216.324 90.7914 216.669 91.3436 217.626Z" fill="#FF6A54"/>
<path d="M98.0076 213.778C98.5599 214.735 98.2617 215.941 97.3416 216.472C96.4215 217.004 95.2279 216.659 94.6756 215.702C94.1234 214.746 94.4215 213.539 95.3416 213.008C96.2617 212.477 97.4553 212.822 98.0076 213.778Z" fill="#FF6A54"/>
<path d="M104.672 209.931C105.224 210.888 104.926 212.094 104.006 212.625C103.086 213.156 101.892 212.811 101.34 211.855C100.787 210.898 101.086 209.692 102.006 209.161C102.926 208.63 104.119 208.974 104.672 209.931Z" fill="#FF6A54"/>
<path d="M111.336 206.084C111.888 207.04 111.59 208.246 110.67 208.777C109.75 209.309 108.556 208.964 108.004 208.007C107.451 207.051 107.75 205.845 108.67 205.313C109.59 204.782 110.783 205.127 111.336 206.084Z" fill="#FF6A54"/>
<path d="M118 202.236C118.552 203.193 118.254 204.399 117.334 204.93C116.414 205.461 115.22 205.116 114.668 204.16C114.115 203.203 114.414 201.997 115.334 201.466C116.254 200.935 117.447 201.279 118 202.236Z" fill="#FF6A54"/>
<path d="M124.664 198.389C125.216 199.345 124.918 200.551 123.998 201.083C123.077 201.614 121.884 201.269 121.332 200.312C120.779 199.356 121.077 198.15 121.998 197.618C122.918 197.087 124.111 197.432 124.664 198.389Z" fill="#FF6A54"/>
<path d="M131.328 194.541C131.88 195.498 131.582 196.704 130.662 197.235C129.741 197.766 128.548 197.421 127.996 196.465C127.443 195.508 127.741 194.302 128.662 193.771C129.582 193.24 130.775 193.585 131.328 194.541Z" fill="#FF6A54"/>
<path d="M137.992 190.694C138.544 191.65 138.246 192.856 137.326 193.388C136.405 193.919 135.212 193.574 134.66 192.617C134.107 191.661 134.405 190.455 135.326 189.924C136.246 189.392 137.439 189.737 137.992 190.694Z" fill="#FF6A54"/>
<path d="M144.656 186.846C145.208 187.803 144.91 189.009 143.99 189.54C143.069 190.071 141.876 189.727 141.324 188.77C140.771 187.813 141.069 186.607 141.99 186.076C142.91 185.545 144.103 185.89 144.656 186.846Z" fill="#FF6A54"/>
<path d="M151.32 182.999C151.872 183.955 151.574 185.161 150.654 185.693C149.733 186.224 148.54 185.879 147.988 184.923C147.435 183.966 147.733 182.76 148.654 182.229C149.574 181.697 150.767 182.042 151.32 182.999Z" fill="#FF6A54"/>
<path d="M157.984 179.151C158.536 180.108 158.238 181.314 157.318 181.845C156.397 182.376 155.204 182.032 154.652 181.075C154.099 180.118 154.397 178.912 155.318 178.381C156.238 177.85 157.431 178.195 157.984 179.151Z" fill="#FF6A54"/>
<path d="M164.648 175.304C165.2 176.26 164.902 177.467 163.982 177.998C163.061 178.529 161.868 178.184 161.316 177.228C160.763 176.271 161.061 175.065 161.982 174.534C162.902 174.002 164.095 174.347 164.648 175.304Z" fill="#FF6A54"/>
<path d="M171.312 171.456C171.864 172.413 171.566 173.619 170.646 174.15C169.725 174.682 168.532 174.337 167.98 173.38C167.427 172.424 167.725 171.217 168.646 170.686C169.566 170.155 170.759 170.5 171.312 171.456Z" fill="#FF6A54"/>
<path d="M177.976 167.609C178.528 168.566 178.23 169.772 177.31 170.303C176.389 170.834 175.196 170.489 174.644 169.533C174.091 168.576 174.389 167.37 175.31 166.839C176.23 166.308 177.423 166.652 177.976 167.609Z" fill="#FF6A54"/>
<path d="M184.64 163.761C185.192 164.718 184.894 165.924 183.974 166.455C183.053 166.987 181.86 166.642 181.308 165.685C180.755 164.729 181.053 163.523 181.974 162.991C182.894 162.46 184.087 162.805 184.64 163.761Z" fill="#FF6A54"/>
<path d="M191.304 159.914C191.856 160.871 191.558 162.077 190.638 162.608C189.717 163.139 188.524 162.794 187.972 161.838C187.419 160.881 187.717 159.675 188.638 159.144C189.558 158.613 190.751 158.957 191.304 159.914Z" fill="#FF6A54"/>
<path d="M197.967 156.067C198.52 157.023 198.222 158.229 197.302 158.761C196.381 159.292 195.188 158.947 194.636 157.99C194.083 157.034 194.381 155.828 195.302 155.296C196.222 154.765 197.415 155.11 197.967 156.067Z" fill="#FF6A54"/>
<path d="M204.632 152.219C205.184 153.176 204.886 154.382 203.966 154.913C203.045 155.444 201.852 155.099 201.3 154.143C200.747 153.186 201.045 151.98 201.966 151.449C202.886 150.918 204.079 151.263 204.632 152.219Z" fill="#FF6A54"/>
<path d="M211.295 148.372C211.848 149.328 211.55 150.534 210.629 151.066C209.709 151.597 208.516 151.252 207.963 150.295C207.411 149.339 207.709 148.133 208.629 147.601C209.55 147.07 210.743 147.415 211.295 148.372Z" fill="#FF6A54"/>
<path d="M217.959 144.524C218.512 145.481 218.214 146.687 217.293 147.218C216.373 147.749 215.18 147.405 214.627 146.448C214.075 145.491 214.373 144.285 215.293 143.754C216.214 143.223 217.407 143.568 217.959 144.524Z" fill="#FF6A54"/>
<path d="M224.623 140.677C225.176 141.633 224.878 142.839 223.957 143.371C223.037 143.902 221.844 143.557 221.291 142.6C220.739 141.644 221.037 140.438 221.957 139.907C222.878 139.375 224.071 139.72 224.623 140.677Z" fill="#FF6A54"/>
<path d="M231.287 136.829C231.84 137.786 231.542 138.992 230.621 139.523C229.701 140.054 228.508 139.71 227.955 138.753C227.403 137.796 227.701 136.59 228.621 136.059C229.542 135.528 230.735 135.873 231.287 136.829Z" fill="#FF6A54"/>
<path d="M237.951 132.982C238.504 133.938 238.206 135.145 237.285 135.676C236.365 136.207 235.172 135.862 234.619 134.906C234.067 133.949 234.365 132.743 235.285 132.212C236.206 131.68 237.399 132.025 237.951 132.982Z" fill="#FF6A54"/>
<path d="M244.615 129.134C245.168 130.091 244.87 131.297 243.949 131.828C243.029 132.36 241.836 132.015 241.283 131.058C240.731 130.102 241.029 128.895 241.949 128.364C242.87 127.833 244.063 128.178 244.615 129.134Z" fill="#FF6A54"/>
<path d="M251.279 125.287C251.832 126.244 251.534 127.45 250.613 127.981C249.693 128.512 248.5 128.167 247.947 127.211C247.395 126.254 247.693 125.048 248.613 124.517C249.534 123.986 250.727 124.33 251.279 125.287Z" fill="#FF6A54"/>
<path d="M257.943 121.439C258.496 122.396 258.198 123.602 257.277 124.133C256.357 124.665 255.164 124.32 254.611 123.363C254.059 122.407 254.357 121.201 255.277 120.669C256.198 120.138 257.391 120.483 257.943 121.439Z" fill="#FF6A54"/>
<path d="M264.607 117.592C265.16 118.549 264.862 119.755 263.941 120.286C263.021 120.817 261.828 120.472 261.275 119.516C260.723 118.559 261.021 117.353 261.941 116.822C262.862 116.291 264.055 116.635 264.607 117.592Z" fill="#FF6A54"/>
<path d="M271.271 113.745C271.824 114.701 271.526 115.907 270.605 116.438C269.685 116.97 268.492 116.625 267.939 115.668C267.387 114.712 267.685 113.506 268.605 112.974C269.526 112.443 270.719 112.788 271.271 113.745Z" fill="#FF6A54"/>
<path d="M277.935 109.897C278.488 110.854 278.19 112.06 277.269 112.591C276.349 113.122 275.156 112.777 274.603 111.821C274.051 110.864 274.349 109.658 275.269 109.127C276.19 108.596 277.383 108.941 277.935 109.897Z" fill="#FF6A54"/>
<path d="M81.1797 215.411C81.7319 216.367 81.4338 217.574 80.5137 218.105C79.5935 218.636 78.3999 218.291 77.8477 217.335C77.2954 216.378 77.5935 215.172 78.5137 214.641C79.4338 214.109 80.6274 214.454 81.1797 215.411Z" fill="#FF6A54"/>
<path d="M87.8436 211.563C88.3959 212.52 88.0978 213.726 87.1776 214.257C86.2575 214.789 85.0639 214.444 84.5117 213.487C83.9594 212.531 84.2575 211.324 85.1776 210.793C86.0978 210.262 87.2914 210.607 87.8436 211.563Z" fill="#FF6A54"/>
<path d="M94.5076 207.716C95.0599 208.673 94.7617 209.879 93.8416 210.41C92.9215 210.941 91.7279 210.596 91.1756 209.64C90.6234 208.683 90.9215 207.477 91.8416 206.946C92.7617 206.415 93.9553 206.759 94.5076 207.716Z" fill="#FF6A54"/>
<path d="M101.172 203.868C101.724 204.825 101.426 206.031 100.506 206.562C99.5855 207.094 98.3919 206.749 97.8396 205.792C97.2873 204.836 97.5855 203.63 98.5056 203.098C99.4257 202.567 100.619 202.912 101.172 203.868Z" fill="#FF6A54"/>
<path d="M107.836 200.021C108.388 200.978 108.09 202.184 107.17 202.715C106.25 203.246 105.056 202.901 104.504 201.945C103.951 200.988 104.25 199.782 105.17 199.251C106.09 198.72 107.283 199.064 107.836 200.021Z" fill="#FF6A54"/>
<path d="M114.5 196.174C115.052 197.13 114.754 198.336 113.834 198.867C112.914 199.399 111.72 199.054 111.168 198.097C110.615 197.141 110.914 195.935 111.834 195.403C112.754 194.872 113.947 195.217 114.5 196.174Z" fill="#FF6A54"/>
<path d="M121.164 192.326C121.716 193.283 121.418 194.489 120.498 195.02C119.577 195.551 118.384 195.206 117.832 194.25C117.279 193.293 117.577 192.087 118.498 191.556C119.418 191.025 120.611 191.37 121.164 192.326Z" fill="#FF6A54"/>
<path d="M127.828 188.479C128.38 189.435 128.082 190.641 127.162 191.173C126.241 191.704 125.048 191.359 124.496 190.402C123.943 189.446 124.241 188.24 125.162 187.708C126.082 187.177 127.275 187.522 127.828 188.479Z" fill="#FF6A54"/>
<path d="M134.492 184.631C135.044 185.588 134.746 186.794 133.826 187.325C132.905 187.856 131.712 187.512 131.16 186.555C130.607 185.598 130.905 184.392 131.826 183.861C132.746 183.33 133.939 183.675 134.492 184.631Z" fill="#FF6A54"/>
<path d="M141.156 180.784C141.708 181.74 141.41 182.946 140.49 183.478C139.569 184.009 138.376 183.664 137.824 182.707C137.271 181.751 137.569 180.545 138.49 180.014C139.41 179.482 140.603 179.827 141.156 180.784Z" fill="#FF6A54"/>
<path d="M147.82 176.936C148.372 177.893 148.074 179.099 147.154 179.63C146.233 180.161 145.04 179.817 144.488 178.86C143.935 177.903 144.233 176.697 145.154 176.166C146.074 175.635 147.267 175.98 147.82 176.936Z" fill="#FF6A54"/>
<path d="M154.484 173.089C155.036 174.045 154.738 175.252 153.818 175.783C152.897 176.314 151.704 175.969 151.152 175.013C150.599 174.056 150.897 172.85 151.818 172.319C152.738 171.787 153.931 172.132 154.484 173.089Z" fill="#FF6A54"/>
<path d="M161.148 169.241C161.7 170.198 161.402 171.404 160.482 171.935C159.561 172.467 158.368 172.122 157.816 171.165C157.263 170.209 157.561 169.002 158.482 168.471C159.402 167.94 160.595 168.285 161.148 169.241Z" fill="#FF6A54"/>
<path d="M167.812 165.394C168.364 166.35 168.066 167.557 167.146 168.088C166.225 168.619 165.032 168.274 164.48 167.318C163.927 166.361 164.225 165.155 165.146 164.624C166.066 164.092 167.259 164.437 167.812 165.394Z" fill="#FF6A54"/>
<path d="M174.476 161.546C175.028 162.503 174.73 163.709 173.81 164.24C172.889 164.772 171.696 164.427 171.144 163.47C170.591 162.514 170.889 161.307 171.81 160.776C172.73 160.245 173.923 160.59 174.476 161.546Z" fill="#FF6A54"/>
<path d="M181.14 157.699C181.692 158.656 181.394 159.862 180.474 160.393C179.553 160.924 178.36 160.579 177.808 159.623C177.255 158.666 177.553 157.46 178.474 156.929C179.394 156.398 180.587 156.742 181.14 157.699Z" fill="#FF6A54"/>
<path d="M187.804 153.852C188.356 154.808 188.058 156.014 187.138 156.545C186.217 157.077 185.024 156.732 184.472 155.775C183.919 154.819 184.217 153.613 185.138 153.081C186.058 152.55 187.251 152.895 187.804 153.852Z" fill="#FF6A54"/>
<path d="M194.467 150.004C195.02 150.961 194.722 152.167 193.802 152.698C192.881 153.229 191.688 152.884 191.136 151.928C190.583 150.971 190.881 149.765 191.802 149.234C192.722 148.703 193.915 149.048 194.467 150.004Z" fill="#FF6A54"/>
<path d="M201.132 146.157C201.684 147.113 201.386 148.319 200.466 148.851C199.545 149.382 198.352 149.037 197.8 148.08C197.247 147.124 197.545 145.918 198.466 145.386C199.386 144.855 200.579 145.2 201.132 146.157Z" fill="#FF6A54"/>
<path d="M207.795 142.309C208.348 143.266 208.05 144.472 207.129 145.003C206.209 145.534 205.016 145.189 204.463 144.233C203.911 143.276 204.209 142.07 205.129 141.539C206.05 141.008 207.243 141.353 207.795 142.309Z" fill="#FF6A54"/>
<path d="M214.459 138.462C215.012 139.418 214.714 140.624 213.793 141.156C212.873 141.687 211.68 141.342 211.127 140.385C210.575 139.429 210.873 138.223 211.793 137.692C212.714 137.16 213.907 137.505 214.459 138.462Z" fill="#FF6A54"/>
<path d="M221.123 134.614C221.676 135.571 221.378 136.777 220.457 137.308C219.537 137.839 218.344 137.495 217.791 136.538C217.239 135.581 217.537 134.375 218.457 133.844C219.378 133.313 220.571 133.658 221.123 134.614Z" fill="#FF6A54"/>
<path d="M227.787 130.767C228.34 131.723 228.042 132.929 227.121 133.461C226.201 133.992 225.008 133.647 224.455 132.691C223.903 131.734 224.201 130.528 225.121 129.997C226.042 129.465 227.235 129.81 227.787 130.767Z" fill="#FF6A54"/>
<path d="M234.451 126.919C235.004 127.876 234.706 129.082 233.785 129.613C232.865 130.144 231.672 129.8 231.119 128.843C230.567 127.886 230.865 126.68 231.785 126.149C232.706 125.618 233.899 125.963 234.451 126.919Z" fill="#FF6A54"/>
<path d="M241.115 123.072C241.668 124.028 241.37 125.235 240.449 125.766C239.529 126.297 238.336 125.952 237.783 124.996C237.231 124.039 237.529 122.833 238.449 122.302C239.37 121.77 240.563 122.115 241.115 123.072Z" fill="#FF6A54"/>
<path d="M247.779 119.224C248.332 120.181 248.034 121.387 247.113 121.918C246.193 122.45 245 122.105 244.447 121.148C243.895 120.192 244.193 118.985 245.113 118.454C246.034 117.923 247.227 118.268 247.779 119.224Z" fill="#FF6A54"/>
<path d="M254.443 115.377C254.996 116.334 254.698 117.54 253.777 118.071C252.857 118.602 251.664 118.257 251.111 117.301C250.559 116.344 250.857 115.138 251.777 114.607C252.698 114.076 253.891 114.42 254.443 115.377Z" fill="#FF6A54"/>
<path d="M261.107 111.53C261.66 112.486 261.362 113.692 260.441 114.223C259.521 114.755 258.328 114.41 257.775 113.453C257.223 112.497 257.521 111.291 258.441 110.759C259.362 110.228 260.555 110.573 261.107 111.53Z" fill="#FF6A54"/>
<path d="M267.771 107.682C268.324 108.639 268.026 109.845 267.105 110.376C266.185 110.907 264.992 110.562 264.439 109.606C263.887 108.649 264.185 107.443 265.105 106.912C266.026 106.381 267.219 106.725 267.771 107.682Z" fill="#FF6A54"/>
<path d="M274.435 103.835C274.988 104.791 274.69 105.997 273.769 106.529C272.849 107.06 271.656 106.715 271.103 105.758C270.551 104.802 270.849 103.596 271.769 103.064C272.69 102.533 273.883 102.878 274.435 103.835Z" fill="#FF6A54"/>
<path d="M74.4882 171.054L78.4026 168.794L90.9826 190.583L95.7631 187.823L98.0631 191.806L89.3682 196.826L74.4882 171.054ZM84.3324 165.37L93.2352 160.23L95.3952 163.971L90.4069 166.851L94.3069 173.606L98.2213 171.346L100.481 175.261L96.5669 177.521L100.867 184.968L106.063 181.968L108.323 185.883L99.2124 191.143L84.3324 165.37ZM116.01 181.445L112.69 176.895L109.815 178.555L112.13 183.685L108.631 185.705L96.9036 158.112L101.545 155.432L119.786 179.265L116.01 181.445ZM103.515 164.364L108.011 174.47L110.054 173.29L103.515 164.364ZM120.559 178.819L105.679 153.046L111.671 149.586C113.265 148.666 114.643 148.44 115.806 148.907C116.956 149.352 117.998 150.383 118.931 151.999L127.991 167.692C129.964 171.11 129.484 173.665 126.551 175.359L120.559 178.819ZM111.613 154.284L122.313 172.817L123.248 172.277C123.826 171.944 124.132 171.567 124.166 171.147C124.21 170.69 124.026 170.104 123.613 169.388L115.233 154.874C114.806 154.135 114.402 153.675 114.021 153.495C113.64 153.315 113.207 153.364 112.722 153.644L111.613 154.284ZM140.064 168.019L139.822 168.159C138.69 168.812 137.525 168.9 136.325 168.422C135.136 167.908 134.147 166.97 133.361 165.608L124.061 149.5C121.927 145.804 122.466 143.03 125.676 141.177L126.438 140.737C127.454 140.15 128.372 139.82 129.192 139.747C130.012 139.674 130.746 139.851 131.392 140.278C132.026 140.682 132.562 141.158 133.001 141.705C133.463 142.239 133.948 142.944 134.454 143.822L135.974 146.455L132.164 148.655L130.484 145.745C129.804 144.567 129.048 144.218 128.217 144.698C127.409 145.165 127.344 145.987 128.024 147.165L136.724 162.234C137.431 163.458 138.212 163.823 139.066 163.33C140.036 162.77 140.201 161.935 139.561 160.827L135.841 154.384L134.074 155.404L131.794 151.455L137.268 148.295L146.308 163.952L144.091 165.232C143.16 164.261 142.454 163.544 141.972 163.084C142.134 163.791 142.074 164.672 141.791 165.729C141.517 166.749 140.942 167.512 140.064 168.019ZM132.911 137.323L141.814 132.183L143.974 135.924L138.985 138.804L142.885 145.559L146.8 143.299L149.06 147.214L145.145 149.474L149.445 156.922L154.642 153.922L156.902 157.836L147.791 163.096L132.911 137.323ZM143.161 131.405L146.695 129.365L158.035 141.247L150.055 127.425L153.623 125.365L168.503 151.138L165.316 152.978L153.015 140.312L161.575 155.138L158.041 157.178L143.161 131.405ZM155.204 124.452L164.107 119.312L166.267 123.053L161.279 125.933L165.179 132.688L169.093 130.428L171.353 134.343L167.439 136.603L171.739 144.05L176.935 141.05L179.195 144.965L170.084 150.225L155.204 124.452ZM171.389 119.773L175.489 126.874L176.528 126.274C177.475 125.727 177.595 124.842 176.889 123.618L174.809 120.015C174.462 119.415 174.123 119.041 173.791 118.894C173.46 118.746 173.006 118.839 172.428 119.173L171.389 119.773ZM177.609 130.546L184.249 142.047L180.335 144.307L165.455 118.534L171.794 114.874C173.133 114.101 174.295 113.846 175.278 114.109C176.272 114.336 177.182 115.166 178.008 116.598L180.648 121.17C181.648 122.902 181.716 124.326 180.851 125.441C182.276 125.296 183.382 125.905 184.168 127.267L189.388 136.308C189.802 137.024 190.295 137.586 190.869 137.994L190.969 138.167L187.09 140.407C186.596 140.138 186.062 139.507 185.489 138.514L181.009 130.754C180.662 130.154 180.33 129.791 180.011 129.667C179.68 129.52 179.214 129.619 178.614 129.966L177.609 130.546ZM198.621 133.75L195.301 129.2L192.426 130.86L194.741 135.99L191.242 138.01L179.514 110.417L184.156 107.737L202.396 131.57L198.621 133.75ZM186.126 116.668L190.621 126.775L192.665 125.595L186.126 116.668ZM186.181 106.568L196.642 100.528L198.802 104.269L195.511 106.169L208.231 128.201L204.351 130.441L191.631 108.409L188.341 110.309L186.181 106.568ZM197.276 100.162L207.738 94.1216L209.898 97.8629L206.607 99.7629L219.327 121.795L215.447 124.035L202.727 102.003L199.436 103.903L197.276 100.162ZM212.772 91.2154L227.652 116.988L223.737 119.248L208.857 93.4754L212.772 91.2154ZM228.232 89.8183L236.532 104.194C238.865 108.236 238.369 111.216 235.043 113.136L234.385 113.516C231.013 115.463 228.161 114.416 225.828 110.374L217.548 96.0329C215.268 92.0838 215.802 89.1426 219.151 87.2093L219.809 86.8293C221.61 85.7893 223.185 85.5574 224.534 86.1335C225.906 86.6963 227.138 87.9246 228.232 89.8183ZM232.708 106.771L224.148 91.9451C223.388 90.6287 222.558 90.2305 221.657 90.7505C220.733 91.2839 220.651 92.2087 221.411 93.5251L229.971 108.351C230.731 109.668 231.585 110.053 232.532 109.506C233.409 108.999 233.468 108.088 232.708 106.771ZM226.449 83.3191L229.982 81.2791L241.322 93.1609L233.342 79.3391L236.91 77.2791L251.79 103.052L248.603 104.892L236.302 92.2257L244.862 107.052L241.329 109.092L226.449 83.3191Z" fill="white"/>
</svg>
