<svg width="402" height="363" viewBox="0 0 402 363" fill="none" xmlns="http://www.w3.org/2000/svg">
<path d="M272.05 75C343.794 116.421 368.375 208.16 326.954 279.904L317.048 297.061C314.235 301.934 308.004 303.604 303.131 300.79L260.441 276.143C260.144 275.972 259.879 275.751 259.657 275.491L228.82 239.288C227.667 237.934 227.937 235.881 229.401 234.872L262.037 212.378C264.362 210.776 263.388 207.143 260.574 206.918L221.063 203.756C219.291 203.614 218.031 201.971 218.352 200.222L225.524 161.239C226.035 158.463 222.777 156.582 220.628 158.412L190.453 184.115C189.099 185.267 187.046 184.997 186.037 183.533L163.544 150.897C161.942 148.573 158.309 149.547 158.083 152.36L154.921 191.871C154.779 193.643 153.136 194.904 151.387 194.582L104.617 185.978C104.28 185.916 103.956 185.797 103.66 185.626L60.97 160.979C56.097 158.165 54.4274 151.934 57.2408 147.061L67.1465 129.904C108.568 58.1599 200.306 33.5786 272.05 75Z" fill="white"/>
<path d="M266.8 84.0922C333.522 122.614 356.383 207.931 317.861 274.653L310.938 286.643C309.377 289.348 305.918 290.274 303.214 288.713L71.3864 154.867C68.6823 153.306 67.7556 149.848 69.3168 147.143L76.2397 135.153C114.762 68.4309 200.078 45.5703 266.8 84.0922Z" stroke="#DE523E"/>
<path d="M215.27 169.579C216.703 168.358 218.874 169.612 218.534 171.463L212.203 205.876C211.989 207.042 212.829 208.137 214.011 208.232L248.89 211.023C250.766 211.174 251.415 213.596 249.865 214.664L221.055 234.521C220.079 235.194 219.899 236.562 220.667 237.465L239.486 259.558C240.942 261.268 238.909 263.71 236.963 262.587L127.14 199.18C125.195 198.057 126.293 195.075 128.501 195.481L157.044 200.732C158.21 200.946 159.305 200.106 159.4 198.925L162.191 164.045C162.342 162.169 164.764 161.52 165.832 163.07L185.689 191.88C186.362 192.856 187.73 193.036 188.633 192.268L215.27 169.579Z" fill="white"/>
<path d="M128.122 145.854L107.086 124.802L112.123 119.769C113.368 118.525 114.528 117.951 115.603 118.045C116.696 118.121 117.799 118.716 118.911 119.828L122.134 123.054C123.68 124.601 124.122 126.1 123.462 127.552C125.159 126.798 126.8 127.214 128.383 128.798L132.935 133.354C134.122 134.542 134.782 135.768 134.914 137.031C135.045 138.257 134.535 139.445 133.385 140.595L128.122 145.854ZM122.697 132.105L121.735 133.067L128.351 139.688L129.313 138.726C129.803 138.236 130.02 137.793 129.964 137.397C129.907 137.001 129.634 136.558 129.144 136.068L125.299 132.219C124.827 131.748 124.403 131.493 124.026 131.455C123.63 131.399 123.187 131.615 122.697 132.105ZM114.101 123.504L113.139 124.465L118.596 129.926L119.558 128.965C120.294 128.229 120.172 127.371 119.191 126.391L116.534 123.731C116.063 123.259 115.638 123.005 115.261 122.967C114.903 122.91 114.516 123.089 114.101 123.504ZM122.801 110.168L141.454 133.357L137.932 136.19L119.279 113.001L122.801 110.168ZM146.954 130.231L146.717 130.381C145.613 131.079 144.452 131.213 143.234 130.784C142.025 130.317 141 129.419 140.159 128.089L130.224 112.365C127.945 108.758 128.372 105.965 131.506 103.985L132.25 103.515C133.242 102.888 134.146 102.522 134.962 102.416C135.779 102.31 136.519 102.458 137.182 102.859C137.831 103.237 138.386 103.691 138.847 104.22C139.33 104.735 139.842 105.421 140.383 106.277L142.007 108.847L138.287 111.198L136.493 108.357C135.766 107.207 134.997 106.889 134.185 107.402C133.396 107.9 133.365 108.724 134.092 109.874L143.386 124.584C144.141 125.779 144.935 126.113 145.769 125.586C146.716 124.987 146.848 124.147 146.164 123.065L142.19 116.775L140.465 117.865L138.03 114.01L143.373 110.634L153.03 125.919L150.866 127.286C149.897 126.353 149.163 125.665 148.664 125.224C148.854 125.924 148.828 126.807 148.588 127.874C148.355 128.904 147.811 129.69 146.954 130.231ZM155.868 92.7176L159.843 91.3596L168.007 108.944L163.741 90.0275L167.754 88.6566L173.78 118.047L169.2 119.612L161.821 103.83L165.604 120.84L160.873 122.457L147.73 95.4982L152.045 94.0238L160.197 111.571L155.868 92.7176ZM187.273 92.0117L189.518 108.459C190.149 113.083 188.562 115.655 184.757 116.174L184.004 116.277C180.147 116.803 177.902 114.754 177.271 110.131L175.032 93.7228C174.415 89.2047 176.022 86.6842 179.854 86.1613L180.607 86.0585C182.667 85.7773 184.213 86.1584 185.244 87.2019C186.301 88.2419 186.977 89.8452 187.273 92.0117ZM185.003 109.398L182.688 92.4356C182.483 90.9296 181.865 90.2469 180.834 90.3875C179.777 90.5318 179.352 91.3569 179.557 92.863L181.872 109.826C182.078 111.332 182.722 112.011 183.805 111.863C184.81 111.726 185.209 110.904 185.003 109.398ZM196.985 89.2939L196.868 97.4931L198.068 97.5101C199.161 97.5257 199.718 96.8269 199.738 95.4137L199.797 91.2541C199.807 90.5608 199.707 90.066 199.498 89.7697C199.289 89.4734 198.851 89.3204 198.185 89.311L196.985 89.2939ZM196.808 101.733L196.619 115.011L192.1 114.947L192.523 85.1901L199.842 85.2941C201.388 85.3161 202.516 85.6922 203.226 86.4223C203.963 87.1262 204.319 88.3047 204.296 89.9579L204.221 95.2374C204.192 97.2372 203.521 98.4944 202.207 99.0091C203.505 99.6143 204.143 100.703 204.121 102.277L203.972 112.716C203.961 113.542 204.097 114.278 204.381 114.922L204.378 115.122L199.899 115.058C199.612 114.574 199.477 113.758 199.493 112.612L199.621 103.653C199.631 102.96 199.531 102.478 199.321 102.208C199.112 101.912 198.661 101.759 197.968 101.749L196.808 101.733ZM212.212 103.279L210.085 116.022L205.626 115.278L210.527 85.9242L214.985 86.6684L213.022 98.4257L218.496 87.2546L222.836 87.9791L216.415 100.939L218.37 117.405L213.793 116.641L212.212 103.279ZM227.827 106.118L243.79 112.63L242.611 115.519L226.649 109.006L227.827 106.118ZM243.522 127.924L260.509 103.489L266.355 107.553C267.801 108.557 268.572 109.597 268.669 110.671C268.789 111.761 268.399 112.952 267.501 114.244L264.898 117.988C263.65 119.784 262.253 120.485 260.707 120.092C261.75 121.629 261.632 123.317 260.354 125.156L256.678 130.444C255.719 131.824 254.629 132.69 253.409 133.044C252.226 133.39 250.967 133.1 249.631 132.171L243.522 127.924ZM256.09 120.147L254.974 119.37L249.631 127.056L250.748 127.832C251.317 128.228 251.792 128.363 252.171 128.237C252.551 128.111 252.939 127.764 253.334 127.195L256.44 122.728C256.82 122.18 256.996 121.718 256.966 121.34C256.952 120.94 256.66 120.542 256.09 120.147ZM263.031 110.162L261.915 109.386L257.508 115.725L258.625 116.501C259.479 117.095 260.301 116.822 261.093 115.684L263.239 112.596C263.62 112.049 263.795 111.586 263.765 111.208C263.758 110.846 263.513 110.497 263.031 110.162ZM277.796 116.482L258.166 138.85L254.769 135.869L274.399 113.501L277.796 116.482ZM262.216 143.711L262.027 143.505C261.144 142.542 260.806 141.423 261.012 140.149C261.256 138.876 261.958 137.708 263.118 136.645L276.829 124.076C279.974 121.193 282.799 121.118 285.304 123.85L285.898 124.499C286.691 125.364 287.212 126.188 287.461 126.973C287.71 127.758 287.696 128.512 287.419 129.236C287.162 129.942 286.814 130.569 286.375 131.116C285.954 131.683 285.37 132.308 284.623 132.993L282.382 135.047L279.409 131.804L281.886 129.533C282.888 128.614 283.065 127.801 282.416 127.093C281.786 126.405 280.969 126.521 279.967 127.44L267.14 139.198C266.098 140.153 265.911 140.994 266.577 141.721C267.334 142.547 268.184 142.527 269.128 141.662L274.612 136.635L273.234 135.131L276.595 132.05L280.866 136.708L267.538 148.926L265.808 147.038C266.555 145.92 267.102 145.075 267.447 144.505C266.792 144.816 265.918 144.948 264.826 144.901C263.771 144.855 262.901 144.458 262.216 143.711ZM295.299 144.02L288.295 148.284L288.919 149.309C289.487 150.243 290.375 150.342 291.582 149.607L295.136 147.444C295.728 147.084 296.094 146.736 296.233 146.401C296.373 146.067 296.27 145.615 295.923 145.045L295.299 144.02ZM284.673 150.489L273.329 157.394L270.979 153.533L296.399 138.058L300.206 144.311C301.01 145.632 301.292 146.787 301.051 147.777C300.847 148.775 300.039 149.704 298.627 150.564L294.117 153.309C292.408 154.349 290.987 154.45 289.852 153.611C290.03 155.032 289.447 156.152 288.103 156.97L279.186 162.399C278.48 162.828 277.929 163.335 277.535 163.918L277.364 164.022L275.035 160.196C275.292 159.695 275.911 159.147 276.89 158.551L284.544 153.892C285.136 153.532 285.491 153.191 285.607 152.87C285.747 152.535 285.637 152.072 285.276 151.479L284.673 150.489ZM305.228 153.361L309.303 162.799L305.337 164.512L303.054 159.224L295.892 162.315L297.684 166.465L293.534 168.256L291.743 164.107L283.847 167.515L286.225 173.024L282.075 174.815L277.906 165.157L305.228 153.361ZM312.877 173.297L313.101 174.107C313.591 175.88 313.544 177.263 312.96 178.254C312.377 179.246 311.224 179.979 309.502 180.455L304.798 181.755L303.637 177.553L307.762 176.412C308.893 176.1 309.345 175.532 309.117 174.71C308.982 174.221 308.736 173.93 308.378 173.835C308.02 173.741 307.481 173.793 306.761 173.992L306.221 174.141C305.399 174.368 304.724 174.679 304.197 175.074C303.669 175.469 303.042 176.154 302.316 177.129L299.498 180.896C298.464 182.261 297.508 183.258 296.631 183.888C295.779 184.51 294.557 185.042 292.963 185.482L292.038 185.738C287.566 186.974 284.811 185.716 283.774 181.963L283.539 181.115C282.559 177.568 283.881 175.294 287.505 174.292L293.25 172.704L294.443 177.022L289.431 178.408C288.094 178.777 287.558 179.437 287.82 180.388C287.963 180.902 288.242 181.212 288.659 181.319C289.108 181.443 289.783 181.381 290.682 181.133L291.338 180.952C292.391 180.66 293.173 180.334 293.681 179.972C294.19 179.61 294.852 178.901 295.667 177.846L298.447 174.09C299.38 172.864 300.312 171.928 301.24 171.284C302.202 170.659 303.415 170.144 304.88 169.739L305.805 169.483C309.532 168.453 311.89 169.725 312.877 173.297ZM292.307 188.044L315.415 185.224L315.973 189.791L292.586 192.644C291.183 192.815 290.54 193.377 290.656 194.33C290.776 195.31 291.537 195.714 292.94 195.543L316.326 192.689L316.883 197.255L293.775 200.075C289.248 200.627 286.756 199.024 286.297 195.265L286.2 194.471C285.745 190.739 287.78 188.596 292.307 188.044ZM317.184 203.033L317.116 207.552L291.959 207.175L291.876 212.695L287.277 212.626L287.427 202.587L317.184 203.033ZM316.646 217.812L314.847 229.757L310.575 229.114L311.141 225.356L285.985 221.568L286.652 217.138L311.808 220.926L312.374 217.168L316.646 217.812ZM312.258 240.503L312.014 241.307C311.479 243.068 310.699 244.21 309.676 244.736C308.652 245.261 307.286 245.263 305.576 244.744L300.907 243.325L302.175 239.153L306.27 240.398C307.393 240.739 308.078 240.501 308.326 239.685C308.473 239.2 308.421 238.822 308.169 238.55C307.917 238.279 307.434 238.034 306.72 237.817L306.184 237.654C305.367 237.406 304.631 237.308 303.974 237.359C303.318 237.41 302.421 237.654 301.286 238.089L296.889 239.763C295.286 240.363 293.945 240.694 292.867 240.756C291.814 240.827 290.497 240.622 288.915 240.141L287.996 239.862C283.557 238.513 281.903 235.976 283.035 232.25L283.291 231.408C284.361 227.887 286.695 226.673 290.292 227.767L295.995 229.5L294.692 233.786L289.717 232.274C288.39 231.871 287.583 232.141 287.296 233.085C287.141 233.596 287.211 234.007 287.506 234.32C287.819 234.666 288.422 234.974 289.315 235.246L289.966 235.444C291.012 235.761 291.847 235.904 292.47 235.87C293.094 235.836 294.032 235.592 295.285 235.137L299.643 233.451C301.088 232.915 302.376 232.623 303.505 232.576C304.652 232.562 305.952 232.776 307.406 233.218L308.325 233.497C312.025 234.622 313.336 236.957 312.258 240.503Z" fill="#DE523E"/>
</svg>
