<svg width="338" height="288" viewBox="0 0 338 288" fill="none" xmlns="http://www.w3.org/2000/svg">
<path d="M208.81 74.3687C274.787 112.46 314.129 170.151 302.847 208.938C302.763 209.225 302.447 209.369 302.166 209.265C297.681 207.607 292.523 209.368 290.051 213.649C287.58 217.93 288.635 223.277 292.313 226.333C292.542 226.523 292.576 226.869 292.37 227.085C264.421 256.25 194.788 251.025 128.81 212.933C62.8322 174.84 23.4909 117.148 34.7749 78.3613C34.8584 78.0745 35.1747 77.931 35.455 78.0345C39.9394 79.6903 45.0956 77.9308 47.5667 73.6507C50.0379 69.3706 48.984 64.0246 45.3078 60.9689C45.0781 60.7779 45.0441 60.4322 45.2509 60.2165C73.1996 31.0516 142.833 36.2765 208.81 74.3687ZM171.632 133.964C171.407 134.156 171.065 134.111 170.896 133.867L165.499 126.037C165.232 125.649 164.627 125.812 164.589 126.281L163.831 135.761C163.807 136.056 163.533 136.266 163.242 136.213L153.889 134.492C153.426 134.406 153.112 134.949 153.417 135.308L159.585 142.547C159.777 142.773 159.732 143.115 159.488 143.283L151.657 148.68C151.269 148.947 151.432 149.553 151.901 149.59L161.38 150.349C161.676 150.373 161.886 150.647 161.832 150.938L160.112 160.291C160.026 160.754 160.569 161.067 160.927 160.762L168.167 154.595C168.392 154.403 168.735 154.448 168.903 154.692L174.3 162.523C174.567 162.91 175.173 162.748 175.21 162.279L175.969 152.799C175.993 152.503 176.267 152.293 176.558 152.347L185.911 154.068C186.374 154.153 186.687 153.61 186.382 153.252L180.215 146.012C180.023 145.787 180.068 145.445 180.312 145.277L188.143 139.879C188.53 139.612 188.368 139.007 187.899 138.969L178.419 138.21C178.123 138.186 177.913 137.912 177.967 137.621L179.688 128.268C179.773 127.806 179.23 127.492 178.872 127.797L171.632 133.964ZM132.01 113.766C131.784 113.958 131.442 113.913 131.274 113.669L127.504 108.199C127.237 107.812 126.632 107.974 126.594 108.443L126.064 115.065C126.041 115.36 125.767 115.57 125.475 115.517L118.943 114.315C118.48 114.229 118.167 114.772 118.472 115.131L122.779 120.187C122.971 120.412 122.926 120.755 122.682 120.923L117.213 124.692C116.825 124.959 116.988 125.565 117.457 125.603L124.078 126.132C124.374 126.156 124.584 126.43 124.53 126.721L123.328 133.254C123.243 133.717 123.786 134.03 124.144 133.725L129.2 129.418C129.426 129.225 129.768 129.271 129.936 129.515L133.706 134.984C133.973 135.371 134.578 135.209 134.616 134.74L135.146 128.119C135.169 127.823 135.443 127.613 135.735 127.667L142.267 128.869C142.73 128.954 143.044 128.411 142.738 128.053L138.431 122.997C138.239 122.771 138.284 122.429 138.528 122.261L143.997 118.491C144.385 118.224 144.222 117.618 143.753 117.581L137.132 117.051C136.837 117.027 136.626 116.754 136.68 116.462L137.882 109.929C137.967 109.467 137.424 109.153 137.066 109.458L132.01 113.766ZM210.607 159.144C210.381 159.336 210.039 159.291 209.871 159.047L206.101 153.577C205.834 153.19 205.229 153.352 205.191 153.821L204.661 160.443C204.638 160.738 204.364 160.948 204.072 160.895L197.54 159.692C197.077 159.607 196.763 160.15 197.069 160.508L201.376 165.565C201.568 165.79 201.523 166.133 201.279 166.301L195.81 170.07C195.422 170.337 195.584 170.943 196.053 170.98L202.675 171.51C202.97 171.534 203.181 171.808 203.127 172.099L201.925 178.632C201.839 179.095 202.382 179.408 202.741 179.103L207.798 174.796C208.023 174.604 208.366 174.649 208.534 174.893L212.303 180.362C212.57 180.75 213.176 180.588 213.214 180.119L213.743 173.497C213.767 173.202 214.041 172.992 214.332 173.045L220.865 174.247C221.328 174.333 221.641 173.79 221.336 173.431L217.029 168.375C216.836 168.149 216.882 167.807 217.126 167.639L222.595 163.869C222.982 163.602 222.82 162.997 222.351 162.959L215.73 162.429C215.434 162.406 215.224 162.132 215.278 161.841L216.479 155.307C216.564 154.844 216.021 154.531 215.663 154.836L210.607 159.144ZM101.11 98.605C100.884 98.7971 100.542 98.752 100.374 98.5081L98.2313 95.3998C97.9643 95.0124 97.3587 95.1747 97.3212 95.6437L97.0202 99.4059C96.9966 99.7013 96.7228 99.9114 96.4314 99.8578L92.7182 99.175C92.2555 99.0899 91.9421 99.6327 92.2472 99.9909L94.6951 102.865C94.8872 103.091 94.8421 103.433 94.5982 103.601L91.4904 105.743C91.103 106.01 91.2653 106.615 91.7343 106.653L95.4974 106.954C95.7927 106.978 96.0028 107.252 95.9493 107.543L95.2665 111.256C95.1814 111.719 95.7243 112.032 96.0825 111.727L98.9558 109.279C99.1813 109.087 99.5235 109.132 99.6917 109.376L101.834 112.484C102.101 112.871 102.707 112.709 102.744 112.24L103.045 108.478C103.069 108.183 103.343 107.972 103.634 108.026L107.347 108.709C107.81 108.794 108.123 108.251 107.818 107.893L105.37 105.019C105.178 104.793 105.223 104.451 105.467 104.283L108.575 102.141C108.962 101.874 108.8 101.269 108.331 101.231L104.568 100.93C104.273 100.906 104.063 100.632 104.116 100.341L104.8 96.6284C104.885 96.1657 104.342 95.8522 103.984 96.1573L101.11 98.605ZM240.847 179.282C240.621 179.474 240.279 179.429 240.111 179.185L237.968 176.077C237.701 175.69 237.096 175.852 237.058 176.321L236.757 180.083C236.734 180.379 236.46 180.589 236.168 180.535L232.455 179.852C231.993 179.767 231.679 180.31 231.984 180.668L234.432 183.542C234.624 183.768 234.579 184.11 234.335 184.278L231.228 186.42C230.84 186.687 231.002 187.293 231.471 187.33L235.235 187.632C235.53 187.655 235.74 187.929 235.686 188.22L235.004 191.933C234.918 192.396 235.461 192.709 235.82 192.404L238.693 189.956C238.918 189.764 239.261 189.809 239.429 190.053L241.571 193.161C241.838 193.549 242.444 193.386 242.481 192.917L242.782 189.155C242.806 188.86 243.08 188.65 243.371 188.703L247.084 189.386C247.547 189.471 247.86 188.928 247.555 188.57L245.107 185.696C244.915 185.47 244.96 185.128 245.204 184.96L248.312 182.818C248.7 182.551 248.537 181.946 248.068 181.908L244.305 181.607C244.01 181.583 243.8 181.309 243.853 181.018L244.537 177.306C244.622 176.843 244.079 176.529 243.721 176.835L240.847 179.282ZM78.9444 88.4847C78.7189 88.6768 78.3766 88.6317 78.2085 88.3877L77.6941 87.641C77.4272 87.2535 76.8216 87.4157 76.784 87.8847L76.7114 88.7892C76.6877 89.0845 76.4139 89.2945 76.1226 89.241L75.2297 89.0768C74.767 88.9918 74.4536 89.5346 74.7586 89.8927L75.3472 90.5839C75.5393 90.8095 75.4943 91.1516 75.2504 91.3198L74.5033 91.8349C74.1159 92.102 74.2784 92.7075 74.7474 92.7449L75.6512 92.817C75.9466 92.8406 76.1568 93.1145 76.1032 93.4059L75.9389 94.2989C75.8538 94.7616 76.3967 95.0751 76.7549 94.77L77.4461 94.1812C77.6717 93.989 78.0139 94.0341 78.1821 94.2781L78.6969 95.0252C78.9638 95.4127 79.5695 95.2504 79.607 94.7813L79.6793 93.8769C79.7029 93.5816 79.9767 93.3714 80.2681 93.425L81.1612 93.5893C81.6239 93.6744 81.9374 93.1315 81.6323 92.7733L81.0435 92.0821C80.8513 91.8565 80.8964 91.5143 81.1404 91.3461L81.8875 90.8313C82.275 90.5644 82.1127 89.9587 81.6436 89.9212L80.7392 89.8489C80.4439 89.8253 80.2337 89.5515 80.2873 89.2601L80.4516 88.367C80.5367 87.9043 79.9938 87.5908 79.6357 87.8959L78.9444 88.4847ZM262.354 194.376C262.128 194.568 261.786 194.523 261.618 194.279L261.103 193.532C260.836 193.145 260.231 193.307 260.193 193.776L260.121 194.681C260.097 194.976 259.823 195.186 259.532 195.133L258.639 194.968C258.177 194.883 257.863 195.426 258.168 195.784L258.757 196.475C258.949 196.701 258.904 197.043 258.66 197.211L257.913 197.726C257.525 197.993 257.687 198.599 258.157 198.636L259.061 198.709C259.356 198.732 259.566 199.006 259.513 199.297L259.349 200.19C259.263 200.653 259.806 200.967 260.164 200.662L260.856 200.073C261.081 199.881 261.424 199.926 261.592 200.17L262.106 200.917C262.373 201.304 262.979 201.142 263.017 200.673L263.089 199.769C263.112 199.473 263.386 199.263 263.678 199.317L264.571 199.481C265.034 199.566 265.347 199.023 265.042 198.665L264.453 197.974C264.261 197.748 264.306 197.406 264.55 197.238L265.297 196.723C265.685 196.456 265.522 195.85 265.053 195.813L264.149 195.741C263.853 195.717 263.643 195.443 263.697 195.152L263.861 194.259C263.946 193.796 263.403 193.482 263.045 193.788L262.354 194.376Z" fill="#DE523E"/>
<mask id="path-2-inside-1_374_1821" fill="white">
<path d="M206.309 78.6978C267.918 114.268 305.914 166.804 299.111 203.241C299.066 203.479 298.855 203.646 298.612 203.648C293.468 203.687 288.48 206.373 285.722 211.15C282.964 215.926 283.133 221.589 285.671 226.063C285.791 226.274 285.752 226.54 285.568 226.698C257.415 250.809 192.919 244.172 131.309 208.602C69.6977 173.03 31.7022 120.492 38.5082 84.056C38.5528 83.8174 38.7639 83.6507 39.0066 83.6487C44.1488 83.6081 49.1349 80.9232 51.892 76.1477C54.6492 71.3721 54.482 65.7109 51.9459 61.2372C51.8262 61.0261 51.865 60.7599 52.0494 60.602C80.2014 36.4904 144.698 43.1269 206.309 78.6978Z"/>
</mask>
<path d="M206.309 78.6978L206.809 77.8317V77.8317L206.309 78.6978ZM131.309 208.602L130.809 209.468V209.468L131.309 208.602ZM51.9459 61.2372L52.8158 60.7441L51.9459 61.2372ZM52.0494 60.602L51.3989 59.8425L52.0494 60.602ZM38.5082 84.056L37.5252 83.8724L38.5082 84.056ZM39.0066 83.6487L39.0145 84.6487L39.0066 83.6487ZM285.671 226.063L286.541 225.569L285.671 226.063ZM285.568 226.698L286.218 227.458L285.568 226.698ZM299.111 203.241L300.094 203.424L299.111 203.241ZM298.612 203.648L298.605 202.648L298.612 203.648ZM206.309 78.6978L205.809 79.5638C236.513 97.291 261.304 119.231 277.56 141.239C293.84 163.279 301.455 185.237 298.128 203.057L299.111 203.241L300.094 203.424C303.57 184.808 295.589 162.28 279.169 140.05C262.726 117.789 237.714 95.6748 206.809 77.8317L206.309 78.6978ZM298.612 203.648L298.605 202.648C293.121 202.69 287.799 205.553 284.856 210.65L285.722 211.15L286.588 211.65C289.162 207.192 293.816 204.684 298.62 204.648L298.612 203.648ZM285.722 211.15L284.856 210.65C281.914 215.746 282.096 221.787 284.801 226.556L285.671 226.063L286.541 225.569C284.171 221.391 284.015 216.107 286.588 211.65L285.722 211.15ZM285.568 226.698L284.917 225.939C271.148 237.731 248.324 242.115 221.097 239.037C193.909 235.963 162.514 225.463 131.809 207.736L131.309 208.602L130.809 209.468C161.714 227.311 193.371 237.915 220.872 241.024C248.334 244.129 271.835 239.776 286.218 227.458L285.568 226.698ZM131.309 208.602L131.809 207.736C101.104 190.008 76.3123 168.068 60.0565 146.059C43.777 124.018 36.1625 102.06 39.4912 84.2396L38.5082 84.056L37.5252 83.8724C34.0479 102.488 42.0282 125.017 58.4477 147.247C74.8909 169.509 99.9029 191.624 130.809 209.468L131.309 208.602ZM39.0066 83.6487L39.0145 84.6487C44.4964 84.6054 49.8165 81.7427 52.7581 76.6477L51.892 76.1477L51.026 75.6477C48.4534 80.1037 43.8012 82.6108 38.9987 82.6488L39.0066 83.6487ZM51.892 76.1477L52.7581 76.6477C55.6997 71.5527 55.5195 65.5134 52.8158 60.7441L51.9459 61.2372L51.076 61.7304C53.4445 65.9085 53.5988 71.1915 51.026 75.6477L51.892 76.1477ZM52.0494 60.602L52.6999 61.3615C66.4686 49.5689 89.2924 45.1843 116.52 48.2626C143.708 51.3364 175.104 61.8363 205.809 79.5638L206.309 78.6978L206.809 77.8317C175.903 59.9884 144.246 49.3845 116.744 46.2753C89.2828 43.1705 65.7822 47.5235 51.3989 59.8425L52.0494 60.602ZM51.9459 61.2372L52.8158 60.7441C52.9176 60.9237 52.9008 61.1895 52.6999 61.3615L52.0494 60.602L51.3989 59.8425C50.8293 60.3304 50.7347 61.1285 51.076 61.7304L51.9459 61.2372ZM38.5082 84.056L39.4912 84.2396C39.4427 84.4996 39.2209 84.6471 39.0145 84.6487L39.0066 83.6487L38.9987 82.6488C38.3068 82.6542 37.6629 83.1352 37.5252 83.8724L38.5082 84.056ZM285.671 226.063L284.801 226.556C284.699 226.377 284.716 226.111 284.917 225.939L285.568 226.698L286.218 227.458C286.788 226.97 286.882 226.171 286.541 225.569L285.671 226.063ZM299.111 203.241L298.128 203.057C298.176 202.797 298.398 202.65 298.605 202.648L298.612 203.648L298.62 204.648C299.312 204.643 299.956 204.162 300.094 203.424L299.111 203.241Z" fill="#FF6A54" mask="url(#path-2-inside-1_374_1821)"/>
<path d="M128.753 60.8673L136.88 63.2014L136.045 66.1079L133.489 65.3737L128.573 82.4898L125.559 81.6242L130.475 64.5081L127.918 63.7738L128.753 60.8673ZM137.918 75.8407L134.987 84.5149L131.99 83.502L138.659 63.7663L141.656 64.7792L138.985 72.6841L141.028 73.3743L143.699 65.4694L146.696 66.4823L140.027 86.218L137.03 85.2051L139.961 76.5309L137.918 75.8407ZM148.581 67.1562L155.314 69.6958L154.247 72.5252L150.474 71.1022L148.547 76.2109L151.507 77.3275L150.391 80.2879L147.43 79.1713L145.306 84.8039L149.236 86.2862L148.119 89.2466L141.229 86.6477L148.581 67.1562ZM151.605 90.6651L159.809 71.5166L164.391 73.4795C165.523 73.9646 166.198 74.5688 166.417 75.2918C166.652 76.0222 166.553 76.8935 166.119 77.9059L164.862 80.8399C164.259 82.2469 163.4 82.9247 162.285 82.8733C163.216 83.7801 163.373 84.9542 162.756 86.3954L160.98 90.5391C160.517 91.6201 159.892 92.3677 159.106 92.782C158.343 93.1865 157.439 93.1646 156.392 92.7161L151.605 90.6651ZM159.127 83.5612L158.252 83.1862L155.671 89.2087L156.546 89.5837C156.992 89.7748 157.337 89.8005 157.579 89.6608C157.822 89.521 158.039 89.2281 158.23 88.782L159.73 85.2817C159.914 84.8528 159.969 84.5109 159.895 84.256C159.829 83.9839 159.573 83.7523 159.127 83.5612ZM162.479 75.7371L161.604 75.3621L159.476 80.3294L160.351 80.7043C161.02 80.991 161.546 80.6883 161.928 79.7961L162.964 77.3768C163.148 76.9478 163.203 76.6059 163.13 76.351C163.073 76.1034 162.856 75.8988 162.479 75.7371ZM169.267 75.6016L175.789 78.641L174.512 81.382L170.857 79.679L168.551 84.6281L171.419 85.9645L170.083 88.8324L167.215 87.4961L164.672 92.9528L168.479 94.7267L167.143 97.5946L160.468 94.4843L169.267 75.6016ZM180.787 80.9005L181.313 81.1637C182.465 81.7402 183.162 82.4126 183.403 83.1807C183.645 83.9488 183.486 84.8921 182.926 86.0104L181.397 89.0651L178.668 87.6989L180.009 85.0198C180.377 84.2854 180.293 83.7845 179.759 83.5171C179.442 83.3583 179.175 83.3499 178.958 83.4917C178.741 83.6335 178.515 83.9381 178.281 84.4055L178.106 84.756C177.838 85.2901 177.684 85.7868 177.642 86.2459C177.6 86.705 177.662 87.352 177.829 88.1869L178.466 91.4179C178.691 92.595 178.761 93.5593 178.677 94.3105C178.602 95.0451 178.305 95.9299 177.787 96.9648L177.486 97.5657C176.032 100.47 174.087 101.312 171.65 100.092L171.099 99.8167C168.795 98.6636 168.233 96.9103 169.411 94.5567L171.278 90.826L174.083 92.2297L172.453 95.4847C172.019 96.3527 172.11 96.9413 172.728 97.2504C173.062 97.4175 173.354 97.4177 173.605 97.2508C173.88 97.0757 174.164 96.696 174.457 96.1117L174.67 95.6861C175.012 95.0017 175.209 94.4425 175.259 94.0084C175.309 93.5743 175.251 92.8981 175.085 91.9798L174.435 88.7738C174.235 87.7136 174.185 86.7911 174.286 86.0064C174.412 85.2134 174.712 84.3412 175.189 83.3897L175.49 82.7888C176.701 80.3685 178.467 79.739 180.787 80.9005ZM185.799 83.6455L193.25 87.6422L191.821 90.3071L189.477 89.0498L181.06 104.743L178.297 103.261L186.713 87.5676L184.369 86.3104L185.799 83.6455ZM202.254 98.0691L196.417 108.117C194.776 110.941 192.794 111.678 190.469 110.328L190.009 110.061C187.653 108.692 187.295 106.595 188.936 103.77L194.759 93.7472C196.362 90.9871 198.334 90.2869 200.675 91.6466L201.135 91.9138C202.394 92.6452 203.083 93.5207 203.203 94.5404C203.339 95.5694 203.023 96.7456 202.254 98.0691ZM193.52 106.693L199.54 96.3306C200.075 95.4106 200.027 94.7677 199.398 94.402C198.752 94.0269 198.162 94.2994 197.628 95.2194L191.608 105.582C191.073 106.502 191.137 107.154 191.799 107.538C192.412 107.895 192.986 107.613 193.52 106.693ZM195.104 112.752L206.111 95.065L212.22 98.8672L210.622 101.435L207.199 99.3042L204.299 103.964L207.009 105.65L205.338 108.336L202.628 106.65L197.79 114.423L195.104 112.752ZM215.691 101.093L222.705 105.815L221.016 108.324L218.81 106.838L208.865 121.611L206.263 119.86L216.208 105.087L214.002 103.602L215.691 101.093ZM219.717 118.02L214.382 125.461L211.811 123.617L223.95 106.687L226.521 108.531L221.659 115.312L223.411 116.568L228.273 109.787L230.844 111.631L218.706 128.561L216.134 126.717L221.47 119.276L219.717 118.02ZM232.378 112.766L238.096 117.134L236.261 119.537L233.057 117.09L229.742 121.429L232.256 123.349L230.336 125.864L227.821 123.943L224.167 128.727L227.505 131.276L225.584 133.791L219.732 129.32L232.378 112.766ZM228.512 136.156L241.916 120.21L245.731 123.416C246.674 124.209 247.145 124.983 247.145 125.738C247.158 126.506 246.81 127.311 246.102 128.154L244.048 130.597C243.063 131.769 242.044 132.169 240.992 131.796C241.62 132.934 241.43 134.103 240.421 135.303L237.521 138.754C236.764 139.655 235.949 140.189 235.076 140.357C234.229 140.523 233.37 140.24 232.498 139.507L228.512 136.156ZM237.77 131.539L237.041 130.926L232.826 135.942L233.554 136.554C233.926 136.866 234.248 136.991 234.521 136.928C234.793 136.864 235.086 136.647 235.398 136.275L237.848 133.36C238.149 133.003 238.301 132.692 238.304 132.426C238.32 132.147 238.142 131.851 237.77 131.539ZM243.247 125.023L242.518 124.41L239.041 128.547L239.77 129.159C240.327 129.628 240.918 129.491 241.543 128.748L243.236 126.733C243.536 126.376 243.688 126.064 243.692 125.799C243.71 125.546 243.561 125.287 243.247 125.023ZM249.887 126.962L255.215 131.799L253.182 134.038L250.197 131.328L246.527 135.37L248.869 137.497L246.742 139.839L244.4 137.712L240.353 142.169L243.463 144.993L241.336 147.335L235.884 142.385L249.887 126.962ZM259.52 135.743L259.938 136.158C260.851 137.066 261.303 137.922 261.292 138.727C261.281 139.533 260.835 140.379 259.954 141.266L257.546 143.689L255.381 141.538L257.493 139.413C258.072 138.83 258.149 138.328 257.726 137.907C257.474 137.657 257.223 137.566 256.972 137.632C256.722 137.699 256.412 137.918 256.044 138.289L255.767 138.567C255.346 138.99 255.044 139.414 254.861 139.837C254.677 140.26 254.534 140.894 254.431 141.739L254.026 145.007C253.871 146.195 253.636 147.133 253.322 147.821C253.02 148.495 252.462 149.242 251.646 150.063L251.172 150.54C248.883 152.844 246.771 153.035 244.838 151.114L244.401 150.68C242.574 148.864 242.588 147.023 244.443 145.156L247.384 142.196L249.609 144.407L247.043 146.989C246.359 147.677 246.261 148.265 246.751 148.752C247.016 149.015 247.294 149.107 247.584 149.027C247.9 148.946 248.289 148.675 248.749 148.211L249.085 147.873C249.624 147.331 249.986 146.861 250.169 146.464C250.353 146.068 250.509 145.407 250.638 144.483L251.024 141.235C251.166 140.165 251.407 139.273 251.748 138.559C252.116 137.846 252.674 137.111 253.424 136.357L253.898 135.88C255.806 133.96 257.68 133.914 259.52 135.743ZM263.792 140.328L269.456 146.608L267.21 148.633L265.428 146.658L252.204 158.584L250.104 156.255L263.328 144.329L261.547 142.354L263.792 140.328Z" fill="white"/>
<path d="M77.0884 150.351L83.1736 156.223L85.2733 154.047L83.3591 152.2L95.7244 139.385L93.4677 137.207L81.1024 150.022L79.1882 148.175L77.0884 150.351ZM94.6387 150.803L100.685 143.927L98.3092 141.838L84.5521 157.481L86.9281 159.57L92.4383 153.305L94.0573 154.728L88.5471 160.994L90.923 163.084L104.68 147.44L102.304 145.351L96.2577 152.226L94.6387 150.803ZM92.4489 164.379L98.0147 168.94L99.9315 166.601L96.8128 164.045L100.274 159.822L102.721 161.828L104.726 159.38L102.279 157.375L106.095 152.719L109.343 155.381L111.349 152.934L105.653 148.266L92.4489 164.379ZM114.32 155.243L101.839 171.923L105.83 174.909C106.816 175.647 107.677 175.93 108.412 175.757C109.163 175.596 109.868 175.074 110.527 174.192L112.44 171.637C113.357 170.411 113.514 169.328 112.912 168.388C114.163 168.742 115.259 168.29 116.198 167.035L118.899 163.426C119.603 162.484 119.938 161.569 119.904 160.681C119.873 159.818 119.402 159.046 118.49 158.364L114.32 155.243ZM111.929 165.309L111.167 164.739L115.092 159.493L115.854 160.063C116.243 160.354 116.437 160.64 116.438 160.92C116.438 161.2 116.293 161.534 116.002 161.922L113.721 164.971C113.441 165.345 113.172 165.564 112.915 165.627C112.646 165.706 112.318 165.6 111.929 165.309ZM106.829 172.124L106.067 171.554L109.305 167.227L110.067 167.798C110.65 168.234 110.65 168.841 110.069 169.618L108.492 171.725C108.212 172.099 107.944 172.317 107.686 172.381C107.444 172.456 107.158 172.371 106.829 172.124ZM110.106 178.071L115.999 182.2L117.734 179.723L114.432 177.41L117.565 172.938L120.157 174.753L121.972 172.162L119.381 170.347L122.835 165.416L126.275 167.826L128.09 165.235L122.059 161.009L110.106 178.071ZM120.455 185.398L120.946 185.722C122.021 186.431 122.952 186.698 123.738 186.524C124.524 186.349 125.261 185.74 125.95 184.696L127.831 181.844L125.283 180.164L123.633 182.664C123.181 183.35 122.706 183.528 122.207 183.2C121.911 183.004 121.77 182.777 121.784 182.518C121.799 182.259 121.95 181.912 122.237 181.475L122.453 181.148C122.782 180.65 123.135 180.267 123.511 180.001C123.888 179.736 124.48 179.466 125.286 179.193L128.403 178.129C129.534 177.735 130.405 177.314 131.013 176.866C131.612 176.433 132.23 175.734 132.867 174.768L133.237 174.207C135.025 171.495 134.782 169.39 132.507 167.889L131.993 167.55C129.842 166.131 128.043 166.521 126.593 168.718L124.296 172.201L126.914 173.927L128.918 170.889C129.453 170.078 130.008 169.863 130.585 170.244C130.896 170.449 131.043 170.702 131.023 171.003C131.01 171.329 130.823 171.765 130.463 172.31L130.201 172.707C129.779 173.346 129.393 173.796 129.043 174.057C128.692 174.317 128.077 174.605 127.199 174.92L124.097 175.96C123.079 176.317 122.255 176.736 121.626 177.215C121.002 177.72 120.397 178.417 119.811 179.305L119.441 179.866C117.951 182.126 118.289 183.97 120.455 185.398ZM125.338 188.366L132.525 192.821L134.118 190.251L131.857 188.849L141.24 173.713L138.574 172.061L129.192 187.197L126.931 185.795L125.338 188.366ZM146.057 195.405L151.84 185.326C153.466 182.493 153.113 180.407 150.781 179.069L150.32 178.804C147.956 177.448 145.961 178.187 144.335 181.02L138.566 191.075C136.978 193.843 137.357 195.901 139.705 197.248L140.167 197.513C141.429 198.238 142.532 198.397 143.475 197.991C144.435 197.595 145.295 196.732 146.057 195.405ZM149.158 183.529L143.194 193.924C142.665 194.847 142.084 195.127 141.453 194.765C140.805 194.393 140.746 193.746 141.276 192.823L147.24 182.428C147.769 181.505 148.366 181.234 149.03 181.615C149.645 181.968 149.688 182.606 149.158 183.529ZM155.197 181.871L145.384 200.247L151.731 203.637L153.156 200.969L149.599 199.07L152.184 194.229L155 195.733L156.49 192.942L153.675 191.438L157.988 183.361L155.197 181.871ZM155.394 205.529L162.991 209.243L164.319 206.526L161.929 205.358L169.75 189.359L166.933 187.982L159.112 203.981L156.722 202.812L155.394 205.529ZM172.066 200.553L175.843 192.212L172.96 190.907L164.368 209.885L167.25 211.19L170.692 203.588L172.656 204.478L169.214 212.079L172.097 213.384L180.689 194.407L177.807 193.102L174.03 201.442L172.066 200.553ZM173.847 214.144L180.489 216.913L181.652 214.121L177.931 212.57L180.031 207.53L182.951 208.747L184.168 205.827L181.248 204.61L183.564 199.053L187.44 200.669L188.658 197.748L181.86 194.915L173.847 214.144ZM192.17 199.101L185.062 218.683L189.747 220.383C190.905 220.804 191.811 220.825 192.464 220.446C193.136 220.074 193.659 219.371 194.035 218.336L195.124 215.335C195.646 213.896 195.483 212.814 194.634 212.089C195.934 212.065 196.851 211.315 197.386 209.841L198.925 205.604C199.326 204.499 199.381 203.526 199.091 202.685C198.811 201.869 198.136 201.267 197.066 200.878L192.17 199.101ZM192.8 209.428L191.905 209.103L194.141 202.944L195.036 203.269C195.492 203.435 195.761 203.651 195.843 203.919C195.924 204.187 195.882 204.549 195.716 205.005L194.417 208.585C194.258 209.023 194.064 209.311 193.836 209.446C193.602 209.6 193.257 209.593 192.8 209.428ZM189.896 217.429L189.001 217.104L190.845 212.024L191.74 212.349C192.424 212.598 192.601 213.178 192.269 214.09L191.371 216.564C191.212 217.003 191.019 217.29 190.791 217.426C190.58 217.568 190.282 217.569 189.896 217.429ZM194.895 222.21L201.748 224.405L202.671 221.525L198.831 220.295L200.497 215.096L203.51 216.061L204.475 213.048L201.462 212.082L203.298 206.349L207.298 207.631L208.263 204.617L201.25 202.371L194.895 222.21ZM207.317 226.162L207.884 226.316C209.127 226.653 210.095 226.616 210.787 226.204C211.479 225.792 211.989 224.983 212.316 223.776L213.211 220.479L210.265 219.68L209.481 222.571C209.266 223.364 208.87 223.682 208.293 223.525C207.951 223.433 207.746 223.261 207.679 223.011C207.611 222.76 207.646 222.383 207.783 221.878L207.885 221.5C208.042 220.923 208.257 220.45 208.532 220.08C208.807 219.709 209.284 219.268 209.964 218.757L212.592 216.771C213.544 216.043 214.239 215.371 214.677 214.755C215.11 214.157 215.478 213.299 215.781 212.182L215.957 211.534C216.807 208.399 215.918 206.475 213.287 205.761L212.693 205.6C210.207 204.925 208.619 205.858 207.93 208.398L206.837 212.425L209.864 213.246L210.817 209.733C211.071 208.796 211.532 208.418 212.198 208.599C212.558 208.697 212.776 208.891 212.852 209.183C212.941 209.497 212.9 209.969 212.729 210.6L212.604 211.059C212.404 211.798 212.178 212.346 211.926 212.703C211.674 213.06 211.181 213.526 210.445 214.1L207.824 216.058C206.969 216.716 206.317 217.371 205.87 218.023C205.435 218.698 205.078 219.549 204.8 220.576L204.624 221.224C203.915 223.836 204.813 225.482 207.317 226.162ZM213.424 227.569L221.693 229.334L222.325 226.376L219.723 225.821L223.439 208.405L220.372 207.751L216.656 225.167L214.055 224.612L213.424 227.569Z" fill="white"/>
</svg>
