<svg width="259" height="50" viewBox="0 0 259 50" fill="none" xmlns="http://www.w3.org/2000/svg">
<path fill-rule="evenodd" clip-rule="evenodd" d="M101.657 23.6873C99.5964 23.6873 97.9233 25.3537 97.9233 27.4068C97.9233 29.4644 99.5964 31.1293 101.657 31.1293C103.72 31.1293 105.391 29.4644 105.391 27.4068C105.391 25.3537 103.72 23.6873 101.657 23.6873ZM253.588 20.9561C256.036 20.9561 257.826 22.3221 259 23.6873V17.0917C257.077 15.7918 254.76 15.2714 252.745 15.2714C246.556 15.2714 241.178 19.6893 241.178 27.2897C241.178 34.5672 246.065 39.3109 252.841 39.3109C254.796 39.3109 256.946 39.0158 259 37.6213V31.1526C257.826 32.3571 255.972 33.6255 253.588 33.6255C249.941 33.6255 247.756 30.9303 247.756 27.4849C247.756 23.7489 250.07 20.9561 253.588 20.9561ZM241.878 15.9225H234.383L227.506 25.4709V15.9225H221.121L221.124 38.6606H227.506V28.8809L234.119 38.6606H242.107L233.209 26.933L241.878 15.9225ZM202.263 29.5658V15.9225H196.105V38.6606H202.361L211.192 25.0165V38.6606H217.35V15.9225H211.093L202.263 29.5658ZM183.758 26.1527H181.936V20.9253H183.758C186.495 20.9253 186.885 22.3852 186.885 23.5229C186.885 24.4969 186.592 26.1527 183.758 26.1527ZM185.157 15.9225H175.547V38.6606H181.936V31.1526H185.157C191.611 31.1526 193.468 26.6754 193.468 23.5229C193.468 20.4034 191.643 15.9225 185.157 15.9225ZM156.52 21.3774H161.535V38.6606H167.923V21.3774H172.94V15.9225H156.52V21.3774ZM138.824 29.5658V15.9225H132.668V38.6606H138.925L147.752 25.0165V38.6606H153.911V15.9225H147.657L138.824 29.5658ZM119.797 34.1098H117.061V29.3368H119.797C121.818 29.3368 122.992 29.9225 122.992 31.7105C122.992 33.5278 121.786 34.1098 119.797 34.1098ZM120.418 24.789H117.061V21.3774H127.52V15.9225H110.675L110.674 38.6606L120.418 38.6606C122.077 38.6606 129.377 38.7237 129.377 31.6122C129.377 24.7567 122.144 24.789 120.418 24.789ZM74.9312 27.2897C74.9312 34.5672 79.8186 39.3109 86.5953 39.3109C88.5523 39.3109 90.7022 39.0158 92.7557 37.6213V31.1526C91.5791 32.3571 89.7222 33.6255 87.3448 33.6255C83.6943 33.6255 81.5128 30.9303 81.5128 27.4849C81.5128 23.7489 83.8254 20.9561 87.3448 20.9561C89.7878 20.9561 91.5791 22.3221 92.7557 23.6873V17.0917C90.8288 15.7918 88.5177 15.2714 86.4973 15.2714C80.306 15.2714 74.9312 19.6893 74.9312 27.2897ZM61.5602 21.1514H65.0487V38.6606H70.947V15.9225H61.5602V21.1514Z" fill="#494C5B"/>
<path fill-rule="evenodd" clip-rule="evenodd" d="M25.0765 0C23.2083 0 21.3914 0.209516 19.6407 0.597008V25.0173C19.6407 28.0098 22.0882 30.4504 25.0908 30.4504C28.0919 30.4504 30.5386 28.0098 30.5386 25.0188C30.5386 22.1441 28.2855 19.7846 25.4531 19.5969V15.2481C30.687 15.4374 34.8987 19.7538 34.8987 25.0188C34.8987 30.4031 30.4927 34.7977 25.0908 34.7977C19.6866 34.7977 15.2814 30.4031 15.2814 25.0173V1.97876C14.6622 2.24085 14.0573 2.53147 13.4644 2.84386V25.0173C13.4652 31.3996 18.6885 36.6045 25.0908 36.6045C31.4938 36.6045 36.7149 31.3996 36.7149 25.0188C36.7149 18.7566 31.6904 13.6283 25.4531 13.4353V9.08804C34.0904 9.28254 41.0727 16.364 41.0727 25.0188C41.0727 33.7959 33.8931 40.9518 25.0908 40.9518C16.2863 40.9518 9.10434 33.7959 9.10434 25.0173V5.72752C3.54501 10.3106 0 17.2411 0 24.9985C0 38.8048 11.2271 50 25.0772 50C38.9296 50 50.1537 38.8048 50.1537 24.9985C50.1537 11.1922 38.9296 0 25.0765 0Z" fill="#494C5B"/>
</svg>
