<svg width="207" height="60" viewBox="0 0 207 60" fill="none" xmlns="http://www.w3.org/2000/svg">
<path fill-rule="evenodd" clip-rule="evenodd" d="M78.8951 13.8203V40.8734H88.7333V45.5396H73.6571V13.8203H78.8951ZM107.224 27.2779V24.4249H112.188V45.5396H107.223V42.6843C106.555 43.7418 105.606 44.5729 104.375 45.1765C103.147 45.7801 101.909 46.082 100.665 46.082C99.055 46.082 97.582 45.7872 96.2466 45.1989C94.9466 44.6357 93.7761 43.8106 92.8076 42.775C91.8503 41.7468 91.0937 40.548 90.5769 39.2406C90.04 37.8854 89.7692 36.4391 89.7792 34.9811C89.7792 33.5015 90.0451 32.0891 90.5769 30.744C91.0903 29.4285 91.8471 28.2221 92.8076 27.1883C93.7761 26.1525 94.9467 25.327 96.2466 24.7632C97.582 24.1737 99.055 23.879 100.665 23.879C101.909 23.879 103.147 24.182 104.377 24.7868C105.606 25.3904 106.555 26.2216 107.224 27.2779ZM106.767 37.5641C107.073 36.7379 107.227 35.8634 107.224 34.9823C107.224 34.0745 107.071 33.2138 106.767 32.398C106.482 31.6133 106.05 30.8906 105.493 30.2689C104.936 29.6575 104.262 29.1644 103.512 28.8188C102.736 28.4568 101.879 28.2753 100.937 28.2753C99.9963 28.2753 99.1456 28.4568 98.3868 28.8188C97.6279 29.1819 96.9749 29.6652 96.429 30.2689C95.8738 30.8875 95.4481 31.6115 95.1772 32.398C94.8857 33.2277 94.7393 34.1015 94.7442 34.9811C94.7442 35.8877 94.8877 36.7495 95.1772 37.5629C95.4478 38.3499 95.8735 39.0744 96.429 39.6933C96.98 40.3011 97.6453 40.7939 98.3868 41.1434C99.1456 41.5065 99.9963 41.6869 100.937 41.6869C101.879 41.6869 102.738 41.5065 103.512 41.1446C104.263 40.7993 104.936 40.3061 105.493 39.6945C106.05 39.0725 106.482 38.3493 106.767 37.5641ZM116.104 45.5385V24.4237H129.586V29.2833H121.068V45.5385H116.104ZM147.577 27.2779V24.4249H152.54V45.5396H147.575V42.6843C146.907 43.7418 145.959 44.5729 144.728 45.1765C143.5 45.7801 142.262 46.082 141.017 46.082C139.407 46.082 137.935 45.7872 136.6 45.1989C135.299 44.6357 134.129 43.8106 133.161 42.775C132.203 41.7468 131.447 40.548 130.93 39.2406C130.393 37.8854 130.122 36.4391 130.132 34.9811C130.132 33.5015 130.397 32.0891 130.93 30.744C131.443 29.4285 132.2 28.2221 133.161 27.1883C134.129 26.1525 135.3 25.327 136.6 24.7632C137.935 24.1737 139.407 23.879 141.017 23.879C142.262 23.879 143.5 24.182 144.729 24.7868C145.959 25.3904 146.907 26.2216 147.577 27.2779ZM147.12 37.5641C147.425 36.7379 147.58 35.8633 147.575 34.9823C147.575 34.0745 147.422 33.2138 147.12 32.398C146.835 31.6132 146.402 30.8905 145.845 30.2689C145.288 29.6575 144.614 29.1644 143.863 28.8188C143.089 28.4568 142.232 28.2753 141.29 28.2753C140.349 28.2753 139.499 28.4568 138.74 28.8188C137.981 29.1819 137.328 29.6652 136.782 30.2689C136.226 30.8874 135.8 31.6114 135.529 32.398C135.237 33.2277 135.091 34.1015 135.096 34.9811C135.096 35.8877 135.239 36.7495 135.529 37.5629C135.8 38.35 136.226 39.0745 136.782 39.6933C137.333 40.3011 137.998 40.7939 138.74 41.1434C139.499 41.5065 140.349 41.6869 141.29 41.6869C142.232 41.6869 143.09 41.5065 143.863 41.1446C144.614 40.7993 145.288 40.3061 145.845 39.6945C146.402 39.0726 146.835 38.3494 147.12 37.5641ZM172.443 24.4237H177.471L169.323 45.5385H163.085L154.936 24.4237H159.964L166.204 40.5928L172.443 24.4237ZM188.298 23.8814C195.058 23.8814 199.668 29.8409 198.802 36.8167H182.333C182.333 38.6381 184.181 42.1596 188.571 42.1596C192.347 42.1596 194.877 38.8551 194.879 38.8527L198.232 41.4346C195.235 44.6201 192.779 46.0831 188.934 46.0831C182.063 46.0831 177.408 41.7588 177.408 34.9823C177.408 28.8518 182.22 23.8814 188.298 23.8814ZM182.346 33.1466H194.243C194.206 32.7399 193.562 27.8037 188.259 27.8037C182.956 27.8037 182.384 32.7399 182.346 33.1466ZM202.035 45.5385V13.8203H207V45.5385H202.035ZM58.5492 13.5727C58.5709 13.6527 58.582 13.7351 58.5821 13.8179V26.6967C58.5819 26.8623 58.5379 27.0249 58.4546 27.168C58.3713 27.3111 58.2518 27.4295 58.108 27.5113L47.2439 33.7349V46.0702C47.2434 46.2356 47.1993 46.398 47.116 46.5408C47.0328 46.6837 46.9133 46.802 46.7697 46.8836L24.0931 59.8744C24.0414 59.905 23.9837 59.9227 23.9284 59.9427C23.9061 59.9498 23.8861 59.9628 23.8649 59.9687C23.706 60.0104 23.539 60.0104 23.3802 59.9687C23.3543 59.9616 23.3307 59.9475 23.306 59.938C23.2531 59.9203 23.2001 59.9027 23.1507 59.8744L0.472968 46.886C0.329265 46.804 0.209802 46.6853 0.126727 46.542C0.0436516 46.3987 -7.25779e-05 46.2359 9.04317e-08 46.0702V7.43398C0.000186856 7.35115 0.0112632 7.2687 0.0329431 7.18876C0.0400024 7.16047 0.0564739 7.13571 0.0658862 7.10978C0.0847108 7.06026 0.101182 7.00957 0.127066 6.96359C0.144714 6.93293 0.170598 6.90818 0.190599 6.88106C0.218836 6.84333 0.242367 6.80325 0.27531 6.77024C0.30237 6.74312 0.337666 6.72308 0.368256 6.6995C0.402376 6.67357 0.432966 6.64292 0.471792 6.62052L0.472968 6.61934L11.8124 0.124562C11.9559 0.0429208 12.1181 0 12.283 0C12.448 0 12.6102 0.0429208 12.7537 0.124562L24.0931 6.61934H24.0955C24.1331 6.64291 24.1637 6.67357 24.199 6.6995C24.2296 6.72308 24.2637 6.74312 24.2908 6.77024C24.3237 6.80325 24.3473 6.84333 24.3755 6.87988C24.3967 6.90818 24.4226 6.93293 24.4402 6.96359C24.4661 7.00957 24.4826 7.06026 24.5014 7.10978C24.5108 7.13571 24.5261 7.16047 24.5343 7.18876C24.5556 7.26875 24.5663 7.3512 24.5661 7.43398V31.5657L34.016 26.1532V13.8179C34.0159 13.7352 34.0265 13.6527 34.0478 13.5727C34.056 13.5444 34.0713 13.5208 34.0819 13.4937C34.0996 13.4442 34.1161 13.3935 34.1419 13.3475C34.1596 13.3169 34.1855 13.2921 34.2066 13.265C34.2349 13.2273 34.2584 13.1872 34.2914 13.1554C34.3184 13.1283 34.3525 13.1082 34.3831 13.0846C34.4184 13.0575 34.449 13.0257 34.4878 13.0045V13.0033L45.8273 6.50852C45.9708 6.42643 46.1333 6.38326 46.2985 6.38326C46.4638 6.38326 46.6262 6.42643 46.7697 6.50852L58.108 13.0033C58.148 13.0269 58.1798 13.0575 58.2151 13.0835C58.2445 13.107 58.2798 13.1283 58.3068 13.1542C58.3398 13.1872 58.3633 13.2273 58.3904 13.2638C58.4116 13.2921 58.4374 13.3169 58.4551 13.3475C58.4821 13.3935 58.4974 13.4442 58.5163 13.4937C58.5269 13.5208 58.5421 13.5444 58.5492 13.5727ZM56.6926 26.1532V15.4437L52.7242 17.7167L47.2439 20.8562V31.5657L56.6926 26.1532ZM45.3543 45.5267V34.8101L39.9611 37.873L24.5661 46.6148V57.4316L45.3543 45.5243V45.5267ZM1.88952 9.05974V45.5267L22.6766 57.434V46.6184L11.8171 40.5044L11.8148 40.5009L11.8101 40.4997C11.7724 40.4785 11.743 40.4478 11.7089 40.4219C11.6783 40.3983 11.6454 40.3794 11.6183 40.3535L11.616 40.35C11.5854 40.3205 11.5642 40.2839 11.5383 40.2509C11.5148 40.2203 11.4865 40.1932 11.4677 40.1601L11.4665 40.1566C11.4454 40.1212 11.4324 40.0788 11.4171 40.0387C11.4018 40.0045 11.3818 39.9715 11.3724 39.9338C11.3595 39.889 11.3583 39.8407 11.3524 39.7947C11.3489 39.7593 11.3383 39.7251 11.3383 39.6886V14.4711L5.85916 11.3327L1.88952 9.05974ZM12.283 2.02383L2.83898 7.43516L12.283 12.8441L21.7283 7.43398L12.283 2.02383ZM17.1963 35.7863L22.6766 32.6479V9.05974L18.7093 11.3327L13.2278 14.4722V38.0593L17.1963 35.7863ZM46.2991 8.40897L36.8539 13.8179L46.2991 19.2281L55.7432 13.8179L46.2991 8.40897ZM45.3543 20.8562L39.8729 17.7167L35.9056 15.4437V26.1532L41.3859 29.2927L45.3543 31.5657V20.8562ZM23.6202 44.9891L37.4739 37.1208L44.399 33.1879L34.9608 27.7813L24.0931 34.0061L14.189 39.6791L23.6202 44.9891Z" fill="#494C5B"/>
</svg>
