<svg width="198" height="40" viewBox="0 0 198 40" fill="none" xmlns="http://www.w3.org/2000/svg">
<path d="M131.624 0.0166542H166.112V6.39536H152.431V39.9529H145.59V6.39536H131.624V0.0166542Z" fill="#494C5B"/>
<path d="M74.9043 0.0166542V6.39536H47.2597V16.6567H69.4915V23.0354H47.2597V33.5742H74.9043V39.9529H40.4191V6.39536H40.4163V0.0166542H74.9043Z" fill="#494C5B"/>
<path d="M92.1253 0.0333106H83.1731L115.238 39.9695H124.216L108.182 20.0152L124.191 0.0637794L115.238 0.0776427L103.7 14.4372L92.1253 0.0333106Z" fill="#494C5B"/>
<path d="M101.312 28.56L96.8285 22.9744L83.1474 40H92.1253L101.312 28.56Z" fill="#494C5B"/>
<path fill-rule="evenodd" clip-rule="evenodd" d="M40.6588 39.9529L8.55074 0H0V39.9362H6.8406V8.53634L32.0653 39.9529H40.6588Z" fill="#494C5B"/>
<path d="M167.65 39.7089C167.149 39.7089 166.723 39.5351 166.366 39.1872C166.009 38.8394 165.833 38.4183 165.838 37.9195C165.833 37.4344 166.009 37.0178 166.366 36.67C166.723 36.3222 167.149 36.1483 167.65 36.1483C168.132 36.1483 168.554 36.3222 168.911 36.67C169.272 37.0178 169.453 37.4344 169.458 37.9195C169.453 38.249 169.369 38.551 169.203 38.821C169.031 39.0957 168.814 39.3108 168.54 39.4664C168.271 39.6266 167.974 39.7089 167.65 39.7089Z" fill="#494C5B"/>
<path d="M179.326 22.885H182.357V34.5876C182.352 35.6631 182.12 36.5831 181.667 37.3565C181.208 38.13 180.572 38.7203 179.757 39.1368C178.946 39.5487 177.995 39.7593 176.916 39.7593C175.928 39.7593 175.043 39.5808 174.255 39.233C173.467 38.8851 172.841 38.3634 172.383 37.6769C171.919 36.9904 171.692 36.1345 171.692 35.1094H174.728C174.732 35.5579 174.835 35.9468 175.029 36.2718C175.223 36.5968 175.492 36.8439 175.836 37.0178C176.183 37.1917 176.582 37.2787 177.031 37.2787C177.518 37.2787 177.935 37.178 178.273 36.972C178.612 36.7706 178.871 36.4686 179.052 36.0658C179.228 35.6677 179.321 35.1734 179.326 34.5876V22.885Z" fill="#494C5B"/>
<path d="M194.829 27.4617C194.756 26.7523 194.431 26.1985 193.866 25.8049C193.295 25.4067 192.559 25.21 191.654 25.21C191.02 25.21 190.473 25.3061 190.019 25.4937C189.564 25.6859 189.212 25.9422 188.971 26.2671C188.73 26.5921 188.61 26.9628 188.6 27.3793C188.6 27.7272 188.683 28.0292 188.846 28.2809C189.008 28.5372 189.226 28.7523 189.509 28.9263C189.787 29.1047 190.097 29.2512 190.436 29.3702C190.779 29.4892 191.122 29.5899 191.464 29.6722L193.045 30.0613C193.68 30.2077 194.297 30.4045 194.885 30.6562C195.474 30.9034 196.007 31.2192 196.475 31.599C196.943 31.9789 197.314 32.4366 197.587 32.9721C197.861 33.5075 198 34.1345 198 34.8576C198 35.8324 197.75 36.6883 197.244 37.4297C196.739 38.1665 196.011 38.7432 195.057 39.1597C194.106 39.5717 192.957 39.7822 191.604 39.7822C190.297 39.7822 189.156 39.5808 188.197 39.1781C187.233 38.7799 186.482 38.194 185.94 37.4251C185.397 36.6563 185.105 35.718 185.064 34.6151H188.067C188.109 35.1917 188.294 35.6723 188.61 36.0613C188.929 36.4457 189.346 36.7295 189.856 36.9217C190.371 37.1093 190.945 37.2055 191.581 37.2055C192.243 37.2055 192.827 37.1048 193.332 36.908C193.833 36.7112 194.227 36.4366 194.51 36.0796C194.797 35.7272 194.941 35.3107 194.946 34.8348C194.941 34.4 194.811 34.0384 194.561 33.7546C194.306 33.4709 193.954 33.2329 193.504 33.0407C193.05 32.8485 192.521 32.6745 191.919 32.5235L190 32.0384C188.614 31.686 187.516 31.1505 186.714 30.432C185.907 29.7134 185.508 28.7615 185.508 27.567C185.508 26.5876 185.777 25.7272 186.32 24.9903C186.857 24.2535 187.594 23.6814 188.526 23.274C189.462 22.8621 190.519 22.6607 191.696 22.6607C192.892 22.6607 193.939 22.8621 194.844 23.274C195.747 23.6814 196.457 24.2489 196.971 24.972C197.485 25.6951 197.754 26.5235 197.768 27.4617H194.829Z" fill="#494C5B"/>
</svg>
