<svg width="180" height="110" viewBox="0 0 180 110" fill="none" xmlns="http://www.w3.org/2000/svg">
<g clip-path="url(#clip0_574_7302)">
<path d="M88.9685 110.001C88.3744 110.001 87.7844 109.845 87.2635 109.546L81.8367 106.34C81.0262 105.888 81.4217 105.728 81.689 105.635C82.7698 105.258 82.9891 105.173 84.1426 104.519C84.2639 104.45 84.4226 104.474 84.5467 104.547L88.7158 107.016C88.8663 107.097 89.0799 107.097 89.2195 107.016L105.475 97.6533C105.626 97.5681 105.723 97.3935 105.723 97.2148V78.4978C105.723 78.311 105.626 78.1445 105.472 78.0512L89.2228 68.6967C89.0722 68.6073 88.8728 68.6073 88.7223 68.6967L72.4765 78.0512C72.319 78.1405 72.2189 78.3151 72.2189 78.4937V97.2108C72.2189 97.3894 72.3165 97.56 72.4712 97.6452L76.9226 100.211C79.3396 101.417 80.8167 99.996 80.8167 98.5669V80.0934C80.8167 79.8295 81.0242 79.6265 81.2887 79.6265H83.3476C83.6039 79.6265 83.8155 79.8295 83.8155 80.0934V98.575C83.8155 101.791 82.0577 103.638 79.0019 103.638C78.062 103.638 77.3214 103.638 75.2544 102.623L70.9901 100.171C69.9362 99.5616 69.2852 98.4248 69.2852 97.2108V78.4937C69.2852 77.2757 69.9362 76.1388 70.9901 75.5379L87.2619 66.1713C88.2914 65.5907 89.6586 65.5907 90.6799 66.1713L106.931 75.542C107.981 76.147 108.636 77.2797 108.636 78.4978V97.2148C108.636 98.4288 107.981 99.5616 106.931 100.171L90.6799 109.537C90.159 109.838 89.569 109.992 88.9668 109.992" fill="#494C5B"/>
<path d="M93.9867 97.103C86.8741 97.103 85.3828 93.8452 85.3828 91.1128C85.3828 90.8529 85.5928 90.6458 85.8536 90.6458H87.9532C88.1851 90.6458 88.3804 90.8143 88.4171 91.0429C88.7344 93.1777 89.6784 94.2545 93.9794 94.2545C97.4054 94.2545 98.8621 93.4822 98.8621 91.6694C98.8621 90.626 98.4471 89.8505 93.1249 89.3308C88.6734 88.8923 85.9228 87.9138 85.9228 84.3612C85.9228 81.0888 88.6897 79.1399 93.3242 79.1399C98.5285 79.1399 101.108 80.9426 101.434 84.8159C101.446 84.9499 101.397 85.0799 101.308 85.1773C101.218 85.2707 101.092 85.3275 100.962 85.3275H98.8499C98.6302 85.3275 98.439 85.1732 98.3942 84.9621C97.8856 82.7169 96.6567 81.9982 93.3161 81.9982C89.5767 81.9982 89.1413 83.2975 89.1413 84.2719C89.1413 85.4534 89.654 85.7985 94.6996 86.4643C99.6963 87.1261 102.068 88.06 102.068 91.5638C102.068 95.0961 99.1144 97.1221 93.9631 97.1221M113.763 77.2723H114.308C114.756 77.2723 114.841 76.9596 114.841 76.7769C114.841 76.2978 114.511 76.2978 114.328 76.2978H113.767L113.763 77.2723ZM113.1 75.7376H114.308C114.723 75.7376 115.537 75.7376 115.537 76.6633C115.537 77.3088 115.122 77.4428 114.874 77.524C115.358 77.5565 115.39 77.8732 115.455 78.3198C115.488 78.5999 115.541 79.0831 115.639 79.2455H114.894C114.874 79.0831 114.76 78.1899 114.76 78.1411C114.711 77.9422 114.642 77.8447 114.393 77.8447H113.779V79.2495H113.1V75.7376ZM111.647 77.4834C111.647 78.9369 112.823 80.1143 114.267 80.1143C115.724 80.1143 116.9 78.9126 116.9 77.4834C116.9 76.0258 115.708 74.8687 114.263 74.8687C112.839 74.8687 111.643 76.0096 111.643 77.4793M117.404 77.4915C117.404 79.213 115.993 80.6178 114.271 80.6178C112.562 80.6178 111.138 79.2292 111.138 77.4915C111.138 75.7213 112.595 74.3652 114.271 74.3652C115.96 74.3652 117.4 75.7254 117.4 77.4915" fill="#494C5B"/>
<path fill-rule="evenodd" clip-rule="evenodd" d="M38.6293 36.7642C38.6293 36.0171 38.2346 35.3309 37.5884 34.9594L20.3539 25.065C20.0629 24.8944 19.737 24.8051 19.4066 24.7929H19.2284C18.898 24.8051 18.5721 24.8944 18.2762 25.065L1.04247 34.9594C0.400388 35.333 0 36.0191 0 36.7662L0.0378415 63.4167C0.0378415 63.7862 0.229084 64.1313 0.554602 64.314C0.871983 64.5089 1.27074 64.5089 1.58812 64.314L11.8338 58.4593C12.4808 58.0752 12.8755 57.3964 12.8755 56.6566V44.2063C12.8755 43.4633 13.2702 42.7772 13.9151 42.4077L18.2771 39.901C18.6009 39.7142 18.9566 39.6217 19.3187 39.6217C19.6752 39.6217 20.0389 39.7134 20.3539 39.9006L24.7138 42.4065C25.3591 42.776 25.7554 43.4621 25.7554 44.2051V56.6546C25.7554 57.3935 26.1554 58.0756 26.7991 58.4573L37.0383 64.3079C37.3598 64.4987 37.7597 64.4987 38.08 64.3079C38.3957 64.1252 38.5959 63.7801 38.5959 63.4106L38.6293 36.7642ZM119.955 50.64C119.955 50.8255 119.856 50.9973 119.695 51.089L113.775 54.4938C113.615 54.586 113.416 54.586 113.256 54.4938L107.335 51.089C107.173 50.9969 107.075 50.8251 107.075 50.64V43.8206C107.075 43.6347 107.173 43.4633 107.331 43.3699L113.247 39.9595C113.41 39.8661 113.61 39.8661 113.772 39.9595L119.693 43.3699C119.856 43.4633 119.953 43.6347 119.953 43.8206L119.955 50.64ZM121.554 0.13146C121.231 -0.0479971 120.838 -0.043125 120.519 0.142422C120.202 0.329187 120.006 0.670235 120.006 1.0397V27.4304C120.006 27.6902 119.867 27.9298 119.642 28.0597C119.418 28.1896 119.139 28.1896 118.914 28.0597L114.596 25.5786C113.953 25.2075 113.162 25.2075 112.516 25.5786L95.276 35.5067C94.6319 35.8762 94.2344 36.5624 94.2344 37.3013V57.1633C94.2344 57.9063 94.6319 58.5884 95.276 58.962L112.516 68.897C113.16 69.2665 113.953 69.2665 114.598 68.897L131.839 58.9579C132.482 58.5844 132.88 57.9023 132.88 57.1593V7.65849C132.88 6.90493 132.469 6.21187 131.81 5.84362L121.554 0.13146ZM178.965 43.6412C179.605 43.2701 180 42.5847 180 41.8458V37.0321C180 36.2916 179.605 35.6082 178.963 35.2355L161.833 25.3126C161.186 24.9391 160.392 24.9391 159.745 25.3126L142.509 35.2396C141.862 35.6131 141.468 36.2952 141.468 37.0382V56.8921C141.468 57.6392 141.87 58.3294 142.517 58.6989L159.644 68.4391C160.274 68.8004 161.047 68.8045 161.686 68.4512L172.046 62.7062C172.371 62.5235 172.579 62.1784 172.579 61.8049C172.579 61.4313 172.38 61.0822 172.054 60.8994L154.712 50.9684C154.387 50.7857 154.187 50.4406 154.187 50.0712V43.843C154.187 43.471 154.382 43.1284 154.708 42.9432L160.103 39.8373C160.425 39.6505 160.82 39.6505 161.141 39.8373L166.541 42.9432C166.862 43.1259 167.061 43.471 167.061 43.8405V48.737C167.061 49.1065 167.261 49.4516 167.582 49.6383C167.904 49.821 168.302 49.821 168.624 49.6343L178.965 43.6412Z" fill="#494C5B"/>
<path fill-rule="evenodd" clip-rule="evenodd" d="M160.537 42.7121C160.659 42.6402 160.812 42.6402 160.936 42.7121L164.244 44.6163C164.367 44.6877 164.443 44.8193 164.443 44.9614V48.7738C164.443 48.9159 164.367 49.0475 164.244 49.1189L160.936 51.0231C160.812 51.095 160.659 51.095 160.537 51.0231L157.231 49.1189C157.105 49.0475 157.027 48.9159 157.027 48.7738V44.9614C157.027 44.8193 157.101 44.6877 157.227 44.6163L160.537 42.7121Z" fill="#494C5B"/>
<mask id="mask0_574_7302" style="mask-type:luminance" maskUnits="userSpaceOnUse" x="47" y="25" width="39" height="44">
<path d="M65.3973 25.4118L48.2547 35.2848C47.6126 35.6543 47.2188 36.3364 47.2188 37.0737V56.8334C47.2188 57.5711 47.6126 58.2528 48.2547 58.6223L65.3986 68.5029C66.0394 68.8712 66.8296 68.8712 67.4697 68.5029L84.6107 58.6223C85.2495 58.2528 85.6442 57.5707 85.6442 56.8334V37.0737C85.6442 36.3364 85.2495 35.6543 84.6066 35.2848L67.468 25.4118C67.1466 25.2279 66.7885 25.1357 66.4304 25.1357C66.0724 25.1357 65.7143 25.2279 65.3929 25.4118" fill="white"/>
</mask>
<g mask="url(#mask0_574_7302)">
<path d="M102.967 33.6082L54.6624 9.98242L29.8945 60.3984L78.1982 84.0253L102.967 33.6082Z" fill="#494C5B"/>
</g>
<mask id="mask1_574_7302" style="mask-type:luminance" maskUnits="userSpaceOnUse" x="47" y="25" width="39" height="44">
<path d="M47.6445 58.0881C47.8085 58.3004 48.0136 58.4844 48.2549 58.6224L62.9602 67.0979L65.4097 68.5027C65.7759 68.7138 66.1934 68.8031 66.6035 68.7727C66.7403 68.7617 66.877 68.7361 67.0104 68.6983L85.0906 35.6653C84.9522 35.5151 84.7903 35.3893 84.6088 35.2837L73.3841 28.8159L67.4507 25.4095C67.2823 25.3121 67.0996 25.2431 66.9136 25.1943L47.6445 58.0881Z" fill="white"/>
</mask>
<g mask="url(#mask1_574_7302)">
<path d="M26.7578 40.5962L60.8661 86.6593L105.975 53.4047L71.8645 7.34277L26.7578 40.5962Z" fill="#494C5B"/>
</g>
<mask id="mask2_574_7302" style="mask-type:luminance" maskUnits="userSpaceOnUse" x="48" y="25" width="38" height="44">
<path d="M66.2265 25.1469C65.9388 25.1753 65.6577 25.2646 65.3985 25.4116L48.3047 35.2561L66.7372 68.756C66.9935 68.7195 67.2458 68.6342 67.4737 68.5027L84.6163 58.622C85.1452 58.3159 85.5074 57.7978 85.6173 57.2107L66.8267 25.1806C66.6884 25.1534 66.55 25.1392 66.4076 25.1392C66.3506 25.1392 66.2937 25.142 66.2367 25.1473" fill="white"/>
</mask>
<g mask="url(#mask2_574_7302)">
<path d="M48.3047 25.1392V68.7569H85.6103V25.1392H48.3047Z" fill="#2C2E37"/>
</g>
</g>
<defs>
<clipPath id="clip0_574_7302">
<rect width="180" height="110" fill="white"/>
</clipPath>
</defs>
</svg>
