<svg width="220" height="50" viewBox="0 0 220 50" fill="none" xmlns="http://www.w3.org/2000/svg">
<path d="M62.3584 20.543C60.8041 19.4973 56.7208 19.0508 53.7525 19.8506C53.5932 16.8956 52.0671 14.4049 49.278 12.2318L48.2458 11.5394L47.5577 12.5784C46.2051 14.6301 45.6348 17.3647 45.8365 19.8506C45.9958 21.3823 46.5284 23.1033 47.5577 24.3524C43.694 26.5924 40.1319 26.0838 24.3584 26.0838H0.00539211C-0.065303 29.6435 0.506856 36.4899 4.86356 42.0637C5.34523 42.6798 5.87214 43.2751 6.44524 43.8488C9.98754 47.3935 15.3396 49.9934 23.3423 50C35.5518 50.0113 46.0119 43.4155 52.3754 27.4694C54.4689 27.5033 59.9963 27.8443 62.7016 22.621C62.7675 22.5334 63.3897 21.2363 63.3897 21.2363L62.3584 20.5439V20.543ZM15.8986 17.2884H9.05059V24.1319H15.8986V17.2884ZM24.7449 17.2884H17.8969V24.1319H24.7449V17.2884ZM33.5922 17.2884H26.7442V24.1319H33.5922V17.2884ZM42.4394 17.2884H35.5914V24.1319H42.4394V17.2884ZM7.05133 17.2884H0.203338V24.1319H7.05133V17.2884ZM15.8986 8.64466H9.05059V15.4882H15.8986V8.64466ZM24.7449 8.64466H17.8969V15.4882H24.7449V8.64466ZM33.5922 8.64466H26.7442V15.4882H33.5922V8.64466ZM33.5922 0H26.7442V6.84357H33.5922V0Z" fill="#494C5B"/>
<path d="M219.573 39.4977C219.573 41.2818 218.171 42.6826 216.348 42.6826C214.525 42.6826 213.104 41.2818 213.104 39.4977C213.104 37.7136 214.543 36.3515 216.348 36.3515C218.153 36.3515 219.573 37.7522 219.573 39.4977ZM213.911 39.4977C213.911 40.8985 214.948 42.011 216.368 42.011C217.789 42.011 218.768 40.8985 218.768 39.5175C218.768 38.1365 217.75 36.9845 216.35 36.9845C214.95 36.9845 213.912 38.1168 213.912 39.4977H213.911ZM215.851 41.1481H215.121V38.0018C215.408 37.9444 215.812 37.9058 216.33 37.9058C216.925 37.9058 217.193 38.0018 217.424 38.1365C217.597 38.2703 217.731 38.5199 217.731 38.827C217.731 39.1727 217.463 39.4412 217.08 39.5561V39.5947C217.385 39.7087 217.559 39.9395 217.655 40.3615C217.75 40.841 217.808 41.0332 217.886 41.1481H217.099C217.003 41.0332 216.944 40.7459 216.849 40.3804C216.791 40.0356 216.599 39.882 216.196 39.882H215.851V41.149V41.1481ZM215.869 39.364H216.214C216.617 39.364 216.943 39.2302 216.943 38.9043C216.943 38.616 216.733 38.4229 216.271 38.4229C216.08 38.4229 215.945 38.4427 215.869 38.4634V39.364Z" fill="#494C5B"/>
<path d="M95.8773 7.65651C95.4258 7.21566 94.8838 6.99146 94.2344 6.99146C93.5849 6.99146 93.0269 7.21566 92.5924 7.65651C92.1569 8.09736 91.9439 8.66256 91.9439 9.33608V20.5835C89.7099 18.7381 87.1319 17.8074 84.1995 17.8074C80.791 17.8074 77.8765 19.0377 75.4615 21.5066C73.0466 23.9671 71.8476 26.9438 71.8476 30.4348C71.8476 33.9258 73.0551 36.8941 75.4615 39.363C77.8765 41.8235 80.7835 43.0622 84.1995 43.0622C87.6154 43.0622 90.4904 41.832 92.9374 39.363C95.3523 36.927 96.5513 33.9513 96.5513 30.4348V9.33608C96.5513 8.66256 96.3298 8.09736 95.8773 7.65651ZM91.3359 33.4774V33.4944C90.9334 34.4505 90.3829 35.2898 89.6854 36.0048C88.9879 36.7283 88.1659 37.2935 87.2299 37.7174C86.2854 38.1412 85.2834 38.3494 84.2079 38.3494C83.1324 38.3494 82.1059 38.1412 81.1615 37.7174C80.217 37.2935 79.4035 36.7283 78.7145 36.0133C78.0245 35.2983 77.4749 34.459 77.0724 33.5029C76.67 32.5383 76.4645 31.5162 76.4645 30.4348C76.4645 29.3534 76.67 28.3313 77.0724 27.3667C77.4749 26.4021 78.0254 25.5713 78.7145 24.8563C79.4044 24.1414 80.2254 23.5762 81.1615 23.1523C82.1059 22.7284 83.1164 22.5202 84.2079 22.5202C85.2995 22.5202 86.2854 22.7284 87.2299 23.1523C88.1744 23.5762 88.9879 24.1414 89.6854 24.8648C90.3829 25.5883 90.9334 26.4276 91.3359 27.3752C91.7384 28.3313 91.9439 29.3459 91.9439 30.4263C91.9439 31.5068 91.7384 32.5298 91.3359 33.4774Z" fill="#494C5B"/>
<path d="M197.924 25.5883C197.325 24.0914 196.411 22.7369 195.213 21.5226L195.197 21.5142C192.758 19.0537 189.841 17.8149 186.459 17.8149C183.077 17.8149 180.136 19.0452 177.721 21.5142C175.306 23.9746 174.108 26.9513 174.108 30.4424C174.108 33.9334 175.315 36.9016 177.721 39.3705C180.136 41.831 183.043 43.0697 186.459 43.0697C189.562 43.0697 192.248 42.0477 194.532 40.0026C194.974 39.5373 195.197 38.9721 195.197 38.3146C195.197 37.6571 194.984 37.0759 194.548 36.635C194.113 36.1942 193.563 35.97 192.906 35.97C192.332 35.9869 191.822 36.1781 191.387 36.5606C190.697 37.1587 189.95 37.6166 189.137 37.9161C188.324 38.2157 187.437 38.3654 186.469 38.3654C185.614 38.3654 184.793 38.2326 184.013 37.9585C183.232 37.6844 182.502 37.3095 181.853 36.8196C181.195 36.3289 180.629 35.7476 180.145 35.0572C179.66 34.3752 179.291 33.6187 179.045 32.7879H196.513C197.161 32.7879 197.703 32.5637 198.155 32.1229C198.608 31.682 198.829 31.1168 198.829 30.4433C198.829 28.6978 198.524 27.0766 197.926 25.5883H197.924ZM179.027 28.0987C179.265 27.2754 179.627 26.519 180.111 25.8294C180.596 25.1474 181.17 24.5577 181.827 24.0669C182.493 23.5762 183.215 23.2022 184.011 22.9281C184.807 22.654 185.62 22.5211 186.459 22.5211C187.299 22.5211 188.11 22.654 188.897 22.9281C189.686 23.2022 190.41 23.5762 191.057 24.0669C191.715 24.5577 192.289 25.1389 192.774 25.8294C193.266 26.5114 193.637 27.2678 193.892 28.0987H179.026H179.027Z" fill="#494C5B"/>
<path d="M219.391 19.3947C218.98 18.9877 218.463 18.6712 217.839 18.4385C217.215 18.2059 216.533 18.0476 215.786 17.9562C215.047 17.8649 214.348 17.8234 213.701 17.8234C212.229 17.8234 210.85 18.0646 209.553 18.5469C208.255 19.0292 207.056 19.7187 205.955 20.6164V20.168C205.955 19.52 205.734 18.9708 205.281 18.5139C204.831 18.057 204.296 17.8244 203.665 17.8244C203.033 17.8244 202.473 18.057 202.023 18.5139C201.57 18.9708 201.349 19.5284 201.349 20.168V40.727C201.349 41.3751 201.57 41.9243 202.023 42.3812C202.473 42.838 203.015 43.0707 203.665 43.0707C204.314 43.0707 204.838 42.838 205.281 42.3812C205.734 41.9243 205.955 41.3666 205.955 40.727V30.4433C205.955 29.3459 206.161 28.3153 206.563 27.3507C206.966 26.3861 207.516 25.5553 208.214 24.8403C208.913 24.1254 209.734 23.5602 210.669 23.1523C211.614 22.7369 212.617 22.5287 213.693 22.5287C214.77 22.5287 215.786 22.7199 216.715 23.0939C217.084 23.2606 217.405 23.3435 217.684 23.3435C218.005 23.3435 218.308 23.2851 218.587 23.1608C218.866 23.0364 219.113 22.8697 219.318 22.654C219.524 22.4382 219.687 22.1886 219.811 21.8975C219.934 21.6149 220 21.3069 220 20.9744C220 20.3263 219.795 19.8026 219.384 19.3947H219.392H219.391Z" fill="#494C5B"/>
<path d="M122.961 25.5967C122.362 24.1084 121.466 22.7453 120.26 21.5151C117.821 19.0546 114.906 17.8159 111.522 17.8159C108.138 17.8159 105.199 19.0461 102.784 21.5151C100.369 23.9756 99.1708 26.9523 99.1708 30.4433C99.1708 33.9343 100.378 36.9025 102.784 39.3715C105.199 41.832 108.106 43.0707 111.522 43.0707C114.938 43.0707 117.813 41.8405 120.26 39.3715C122.675 36.9355 123.874 33.9597 123.874 30.4433C123.857 28.6978 123.553 27.0851 122.962 25.5967H122.961ZM118.658 33.4774V33.4944C118.256 34.4505 117.705 35.2898 117.008 36.0048C116.31 36.7283 115.488 37.2935 114.552 37.7174C113.616 38.1412 112.606 38.3494 111.53 38.3494C110.455 38.3494 109.428 38.1412 108.484 37.7174C107.539 37.2935 106.726 36.7283 106.037 36.0133C105.347 35.2983 104.797 34.459 104.395 33.5029C103.992 32.5383 103.787 31.5162 103.787 30.4348C103.787 29.3534 103.992 28.3313 104.395 27.3667C104.797 26.4021 105.348 25.5713 106.037 24.8563C106.727 24.1414 107.548 23.5762 108.484 23.1523C109.428 22.7284 110.439 22.5202 111.53 22.5202C112.622 22.5202 113.608 22.7284 114.552 23.1523C115.497 23.5762 116.31 24.1414 117.008 24.8648C117.705 25.5883 118.256 26.4276 118.658 27.3752C119.061 28.3313 119.266 29.3459 119.266 30.4263C119.266 31.5068 119.061 32.5298 118.658 33.4774Z" fill="#494C5B"/>
<path d="M172.366 20.1596C172.366 19.844 172.3 19.5444 172.177 19.2618C172.054 18.9792 171.89 18.7221 171.684 18.5054C171.479 18.2897 171.233 18.1145 170.954 17.9986C170.675 17.8828 170.371 17.8159 170.051 17.8159C169.591 17.8159 169.18 17.9327 168.819 18.1738L155.63 26.9447V9.35304C155.63 8.68799 155.408 8.13127 154.957 7.67347C154.505 7.2166 153.972 6.98393 153.339 6.98393C152.707 6.98393 152.149 7.2166 151.696 7.67347C151.245 8.13033 151.023 8.68799 151.023 9.35304V40.694C151.023 41.3421 151.245 41.8998 151.696 42.3651C152.148 42.8305 152.69 43.0632 153.339 43.0632C153.989 43.0632 154.514 42.8305 154.957 42.3651C155.408 41.8998 155.63 41.3421 155.63 40.694V32.5552L158.324 30.7513L168.515 42.448C168.926 42.855 169.444 43.0547 170.059 43.0547C170.38 43.0547 170.683 42.9963 170.962 42.8719C171.241 42.7551 171.488 42.5809 171.693 42.3651C171.898 42.1494 172.062 41.8998 172.186 41.6087C172.309 41.3261 172.374 41.0181 172.374 40.711C172.374 40.0959 172.161 39.5467 171.733 39.0653L162.248 28.1505L171.486 22.0153C172.077 21.6084 172.365 20.9848 172.365 20.1445V20.1615L172.366 20.1596Z" fill="#494C5B"/>
<path d="M133.317 24.8403C134.023 24.1254 134.845 23.5602 135.79 23.1523C136.734 22.7369 137.736 22.5287 138.812 22.5287C139.781 22.5287 140.676 22.6954 141.506 23.027C142.327 23.3595 143.116 23.8503 143.862 24.4899C144.305 24.8469 144.807 25.0297 145.365 25.0297C146.03 25.0297 146.572 24.8055 147.008 24.3561C147.443 23.9068 147.656 23.3416 147.656 22.6681C147.656 21.9946 147.393 21.371 146.86 20.8896C144.593 18.8445 141.908 17.8215 138.812 17.8215C135.403 17.8215 132.489 19.0518 130.074 21.5207C127.659 23.9812 126.461 26.9579 126.461 30.4489C126.461 33.94 127.668 36.9082 130.074 39.3771C132.489 41.8376 135.396 43.0763 138.812 43.0763C141.9 43.0763 144.585 42.0543 146.86 40.0083C147.344 39.51 147.591 38.9363 147.591 38.2712C147.591 37.6062 147.377 37.0325 146.943 36.5917C146.507 36.1508 145.958 35.9266 145.301 35.9266C144.743 35.9436 144.257 36.1094 143.847 36.4249C143.108 37.073 142.336 37.5553 141.507 37.8794C140.686 38.2034 139.79 38.3617 138.813 38.3617C137.737 38.3617 136.735 38.1535 135.791 37.7381C134.846 37.3227 134.025 36.7575 133.318 36.051C132.612 35.3445 132.053 34.4967 131.651 33.5406C131.248 32.576 131.043 31.5454 131.043 30.448C131.043 29.3506 131.248 28.32 131.651 27.3554C132.053 26.3908 132.611 25.56 133.318 24.845V24.8366L133.317 24.8403Z" fill="#494C5B"/>
</svg>
