<svg width="196" height="60" viewBox="0 0 196 60" fill="none" xmlns="http://www.w3.org/2000/svg">
<path d="M137.867 14.3296H133.668L133.687 45.6834H150.697V41.8052H137.887L137.867 14.3296Z" fill="#494C5B"/>
<path d="M166.883 40.1815C165.824 41.2813 164.071 42.3811 161.682 42.3811C158.484 42.3811 157.194 40.7989 157.194 38.7344C157.194 35.628 159.351 34.1423 163.936 34.1423C164.803 34.1423 166.19 34.2387 166.902 34.3738V40.1815H166.883ZM162.53 21.1763C159.139 21.1763 156.019 22.3725 153.592 24.3985L155.075 26.984C156.789 25.9806 158.889 24.9773 161.913 24.9773C165.361 24.9773 166.883 26.7524 166.883 29.7238V31.2481C166.209 31.113 164.822 31.0165 163.974 31.0165C156.616 31.0165 152.879 33.602 152.879 39.0045C152.879 43.8475 155.845 46.2786 160.334 46.2786C163.358 46.2786 166.267 44.8894 167.268 42.6319L168.039 45.6998H171.005V29.6466C170.986 24.5721 168.79 21.1763 162.53 21.1763Z" fill="#494C5B"/>
<path d="M184.555 42.5249C182.975 42.5249 181.588 42.332 180.548 41.8496V28.8643V27.3593C181.974 26.1631 183.746 25.2948 186 25.2948C190.064 25.2948 191.624 28.1697 191.624 32.8197C191.624 39.4185 189.101 42.5249 184.555 42.5249ZM186.327 21.185C182.571 21.185 180.548 23.7512 180.548 23.7512V19.6994L180.529 14.3354H178.641H176.426L176.445 44.9174C178.506 45.7857 181.319 46.2488 184.381 46.2488C192.222 46.2488 195.997 41.2322 195.997 32.5689C195.978 25.7193 192.491 21.185 186.327 21.185Z" fill="#494C5B"/>
<path d="M92.1466 17.7315C95.8643 17.7315 98.2722 18.9664 99.8325 20.2205L101.643 17.0755C99.1969 14.9145 95.8836 13.7568 92.3392 13.7568C83.4011 13.7568 77.1406 19.2172 77.1406 30.2345C77.1406 41.7727 83.902 46.2683 91.6265 46.2683C95.4984 46.2683 98.7923 45.3615 100.95 44.4546L100.853 32.1253V30.6782V28.2471H89.392V32.1253H96.7119L96.8082 41.4832C95.8451 41.9656 94.1885 42.3515 91.9347 42.3515C85.732 42.3515 81.5711 38.4347 81.5711 30.1959C81.5519 21.8027 85.8475 17.7315 92.1466 17.7315Z" fill="#494C5B"/>
<path d="M121.72 14.3252H117.617L117.636 19.5926V21.7536V23.0078V25.2074V37.7489V37.7875C117.636 42.862 119.832 46.2578 126.093 46.2578C126.96 46.2578 127.807 46.1806 128.616 46.0263V42.341C128.019 42.4375 127.384 42.4761 126.709 42.4761C123.261 42.4761 121.739 40.701 121.739 37.7296V25.1881H128.616V21.7536H121.739L121.72 14.3252Z" fill="#494C5B"/>
<path d="M107.184 45.6836H111.287V21.7583H107.184V45.6836Z" fill="#494C5B"/>
<path d="M107.184 18.4589H111.287V14.3491H107.184V18.4589Z" fill="#494C5B"/>
<path d="M32.5149 59.9998L44.4963 23.085H20.5508L32.5149 59.9998Z" fill="#494C5B"/>
<path d="M3.77018 23.085L0.121557 34.3002C-0.208612 35.3185 0.147947 36.4426 1.01941 37.0774L32.5163 59.9997L3.77018 23.085Z" fill="#2C2E37"/>
<path d="M3.76953 23.0851H20.5515L13.329 0.853064C12.9594 -0.284355 11.3484 -0.284355 10.9655 0.853064L3.76953 23.0851Z" fill="#494C5B"/>
<path d="M61.2791 23.085L64.9146 34.3002C65.2448 35.3185 64.8882 36.4426 64.0167 37.0774L32.5156 59.9998L61.2791 23.085Z" fill="#2C2E37"/>
<path d="M61.2781 23.0851H44.4961L51.7053 0.853064C52.075 -0.284355 53.6859 -0.284355 54.0689 0.853064L61.2781 23.0851Z" fill="#494C5B"/>
<path d="M32.5156 59.9998L44.4971 23.085H61.2791L32.5156 59.9998Z" fill="#1C1E28"/>
<path d="M32.5156 59.9998L3.76953 23.085H20.5515L32.5156 59.9998Z" fill="#1C1E28"/>
</svg>
