<svg width="213" height="74" viewBox="0 0 213 74" fill="none" xmlns="http://www.w3.org/2000/svg">
<path d="M40.5909 44.7207C44.9088 44.7207 48.4091 41.1867 48.4091 36.8273C48.4091 32.4679 44.9088 28.9339 40.5909 28.9339C36.273 28.9339 32.7727 32.4679 32.7727 36.8273C32.7727 41.1867 36.273 44.7207 40.5909 44.7207Z" fill="#494C5B"/>
<path d="M40.5909 44.7207C44.9088 44.7207 48.4091 41.1867 48.4091 36.8273C48.4091 32.4679 44.9088 28.9339 40.5909 28.9339C36.273 28.9339 32.7727 32.4679 32.7727 36.8273C32.7727 41.1867 36.273 44.7207 40.5909 44.7207Z" stroke="#494C5B" stroke-width="3"/>
<path d="M40.5909 54.5875C62.1802 54.5875 79.6818 46.636 79.6818 36.8273C79.6818 27.0186 62.1802 19.0671 40.5909 19.0671C19.0016 19.0671 1.5 27.0186 1.5 36.8273C1.5 46.636 19.0016 54.5875 40.5909 54.5875Z" stroke="#494C5B" stroke-width="3"/>
<path d="M25.3567 45.7074C36.1514 64.5843 51.7228 75.9112 60.1364 71.0069C68.55 66.1025 66.6197 46.824 55.8251 27.9472C45.0304 9.07031 29.4591 -2.25665 21.0455 2.64771C12.6318 7.55206 14.5621 26.8305 25.3567 45.7074Z" stroke="#494C5B" stroke-width="3"/>
<path d="M25.3567 27.9472C14.5621 46.8241 12.6319 66.1025 21.0455 71.0069C29.4591 75.9112 45.0304 64.5843 55.8251 45.7074C66.6197 26.8305 68.55 7.55206 60.1364 2.64771C51.7228 -2.25664 36.1514 9.07031 25.3567 27.9472Z" stroke="#494C5B" stroke-width="3"/>
<path d="M103.684 51.5747V21.8271H114.866C116.526 21.8271 118.003 21.9955 119.297 22.3321C120.619 22.6687 121.744 23.2016 122.672 23.9309C123.601 24.6602 124.304 25.628 124.782 26.8342C125.289 28.0123 125.542 29.4429 125.542 31.1259C125.542 32.7809 125.232 34.1974 124.613 35.3755C123.995 36.5256 123.179 37.4653 122.166 38.1946C121.153 38.9239 120.056 39.4569 118.875 39.7935L125.12 51.5747H121.111L115.161 40.4246H107.355V51.5747H103.684ZM107.355 37.1006H113.684C114.781 37.1006 115.808 37.0165 116.765 36.8482C117.749 36.6799 118.607 36.3854 119.339 35.9646C120.098 35.5158 120.689 34.8987 121.111 34.1133C121.533 33.2998 121.758 32.2619 121.786 30.9997C121.814 29.5691 121.547 28.433 120.984 27.5915C120.422 26.722 119.592 26.1048 118.495 25.7402C117.398 25.3475 116.061 25.1511 114.486 25.1511H107.355V37.1006Z" fill="#494C5B"/>
<path d="M139.823 51.8271C137.46 51.8271 135.505 51.3503 133.958 50.3966C132.41 49.4148 131.257 48.0684 130.497 46.3573C129.738 44.6462 129.358 42.6967 129.358 40.5088C129.358 38.2928 129.752 36.3433 130.54 34.6602C131.355 32.9492 132.537 31.6027 134.084 30.621C135.631 29.6392 137.53 29.1483 139.781 29.1483C141.525 29.1483 143.016 29.4849 144.254 30.1581C145.52 30.8033 146.56 31.6729 147.376 32.7668C148.192 33.8608 148.783 35.067 149.149 36.3854C149.514 37.6757 149.669 38.98 149.613 40.2984C149.585 40.5509 149.556 40.8033 149.528 41.0558C149.528 41.3082 149.514 41.5607 149.486 41.8131H132.987C133.1 43.1034 133.423 44.2675 133.958 45.3054C134.492 46.3433 135.252 47.1708 136.236 47.7879C137.221 48.3769 138.445 48.6715 139.907 48.6715C140.639 48.6715 141.37 48.5873 142.102 48.419C142.861 48.2227 143.536 47.9001 144.127 47.4513C144.746 47.0025 145.182 46.3994 145.435 45.642H149.106C148.769 47.0726 148.136 48.2507 147.208 49.1764C146.279 50.074 145.168 50.7472 143.874 51.196C142.58 51.6168 141.23 51.8271 139.823 51.8271ZM133.071 38.6995H145.942C145.913 37.4372 145.632 36.3293 145.098 35.3755C144.563 34.4218 143.832 33.6785 142.903 33.1455C142.003 32.6126 140.92 32.3461 139.654 32.3461C138.276 32.3461 137.108 32.6406 136.152 33.2297C135.223 33.8187 134.506 34.5901 134 35.5438C133.493 36.4976 133.184 37.5494 133.071 38.6995Z" fill="#494C5B"/>
<path d="M161.523 51.8271C160.51 51.8271 159.525 51.7009 158.569 51.4485C157.64 51.168 156.797 50.7612 156.037 50.2283C155.306 49.6673 154.715 48.98 154.265 48.1666C153.843 47.325 153.632 46.3573 153.632 45.2633C153.632 44.0011 153.857 42.9351 154.307 42.0656C154.785 41.196 155.418 40.5088 156.206 40.0039C156.993 39.499 157.908 39.1343 158.949 38.9099C159.989 38.6855 161.073 38.5733 162.198 38.5733H168.738C168.738 37.311 168.556 36.217 168.19 35.2914C167.852 34.3657 167.29 33.6504 166.502 33.1455C165.714 32.6126 164.673 32.3461 163.379 32.3461C162.592 32.3461 161.86 32.4302 161.185 32.5985C160.51 32.7668 159.933 33.0333 159.455 33.398C158.977 33.7626 158.625 34.2535 158.4 34.8706H154.56C154.757 33.8608 155.137 33.0053 155.699 32.304C156.29 31.5747 156.993 30.9856 157.809 30.5368C158.653 30.06 159.553 29.7093 160.51 29.4849C161.466 29.2605 162.423 29.1483 163.379 29.1483C166.586 29.1483 168.865 30.088 170.215 31.9674C171.566 33.8468 172.241 36.3854 172.241 39.5831V51.5747H169.245L169.034 48.7556C168.415 49.5971 167.669 50.2423 166.797 50.6911C165.925 51.1399 165.025 51.4344 164.097 51.5747C163.196 51.743 162.338 51.8271 161.523 51.8271ZM161.86 48.6715C163.267 48.6715 164.476 48.4471 165.489 47.9983C166.53 47.5214 167.332 46.8342 167.894 45.9365C168.457 45.0389 168.738 43.945 168.738 42.6546V41.5607H164.814C163.886 41.5607 162.971 41.5747 162.071 41.6027C161.171 41.6308 160.355 41.743 159.624 41.9394C158.892 42.1357 158.302 42.4723 157.851 42.9492C157.429 43.426 157.218 44.1133 157.218 45.0109C157.218 45.8524 157.429 46.5396 157.851 47.0726C158.302 47.6055 158.878 48.0123 159.582 48.2928C160.313 48.5452 161.073 48.6715 161.86 48.6715Z" fill="#494C5B"/>
<path d="M187.292 51.8271C184.957 51.8271 183.016 51.3503 181.469 50.3966C179.95 49.4148 178.81 48.0684 178.051 46.3573C177.319 44.6462 176.954 42.7107 176.954 40.5508C176.954 38.4471 177.333 36.5396 178.093 34.8286C178.881 33.0894 180.062 31.7149 181.638 30.7051C183.241 29.6673 185.267 29.1483 187.714 29.1483C189.233 29.1483 190.583 29.4008 191.765 29.9057C192.975 30.4106 193.973 31.1539 194.761 32.1357C195.549 33.0894 196.097 34.2956 196.407 35.7542H192.735C192.313 34.52 191.638 33.6504 190.71 33.1455C189.81 32.6126 188.741 32.3461 187.503 32.3461C185.815 32.3461 184.465 32.7388 183.452 33.5242C182.439 34.3096 181.694 35.3335 181.216 36.5957C180.765 37.83 180.54 39.1483 180.54 40.5508C180.54 42.0095 180.78 43.3559 181.258 44.5901C181.736 45.8243 182.482 46.8201 183.494 47.5775C184.507 48.3068 185.815 48.6715 187.419 48.6715C188.6 48.6715 189.711 48.419 190.752 47.9141C191.821 47.4092 192.524 46.5116 192.862 45.2213H196.575C196.294 46.736 195.689 47.9842 194.761 48.966C193.861 49.9478 192.75 50.6771 191.427 51.1539C190.133 51.6027 188.755 51.8271 187.292 51.8271Z" fill="#494C5B"/>
<path d="M210.152 51.5747C208.464 51.5747 207.099 51.3222 206.059 50.8173C205.046 50.3124 204.3 49.527 203.822 48.4611C203.372 47.3952 203.147 46.0487 203.147 44.4218V32.5565H199.518V29.4008H203.147V22.7949H206.734V29.4008H212.684V32.5565H206.734V44.0431C206.734 45.5579 207.001 46.6799 207.536 47.4092C208.098 48.1105 209.223 48.4611 210.911 48.4611H212.557V51.5747H210.152Z" fill="#494C5B"/>
</svg>
