<svg width="333" height="321" viewBox="0 0 333 321" fill="none" xmlns="http://www.w3.org/2000/svg">
<g filter="url(#filter0_d_261_6766)">
<path d="M350.656 122.442C409.572 200.297 443.018 295.36 443.018 295.36C443.018 295.36 362.447 225.351 320.719 187.155C278.99 148.959 250.618 126.706 250.618 126.706L201.951 247.966C201.951 247.966 111.745 150.594 75.9665 99.5492C30.6569 34.9067 0.00106182 -51.0001 0.00106182 -51.0001C0.00106182 -51.0001 88.9367 27.4814 122.301 57.2048C149.252 81.2151 174.5 104.961 174.5 104.961L223.167 -16.2996C223.167 -16.2996 289.577 41.7278 350.656 122.442Z" fill="white" fill-opacity="0.03" shape-rendering="crispEdges"/>
</g>
<defs>
<filter id="filter0_d_261_6766" x="0" y="-51.0001" width="443.02" height="371.36" filterUnits="userSpaceOnUse" color-interpolation-filters="sRGB">
<feFlood flood-opacity="0" result="BackgroundImageFix"/>
<feColorMatrix in="SourceAlpha" type="matrix" values="0 0 0 0 0 0 0 0 0 0 0 0 0 0 0 0 0 0 127 0" result="hardAlpha"/>
<feOffset dy="25"/>
<feComposite in2="hardAlpha" operator="out"/>
<feColorMatrix type="matrix" values="0 0 0 0 1 0 0 0 0 1 0 0 0 0 1 0 0 0 0.01 0"/>
<feBlend mode="normal" in2="BackgroundImageFix" result="effect1_dropShadow_261_6766"/>
<feBlend mode="normal" in="SourceGraphic" in2="effect1_dropShadow_261_6766" result="shape"/>
</filter>
</defs>
</svg>
