<svg width="301" height="338" viewBox="0 0 301 338" fill="none" xmlns="http://www.w3.org/2000/svg">
<g filter="url(#filter0_d_274_2155)">
<path d="M236.96 309.352C224.554 318.339 212.318 322.852 200.253 322.89C188.39 322.781 177.143 315.389 166.512 300.714L121.773 238.955C117.196 232.636 112.691 228.13 108.258 225.436C104.029 222.594 99.3184 221.656 94.1255 222.621C88.9325 223.585 82.5736 226.793 75.0489 232.244L48.4711 195.556C55.9959 190.105 61.0997 185.164 63.7825 180.735C66.3177 176.101 66.8944 171.332 65.5126 166.428C64.1865 161.173 61.161 155.284 56.436 148.762L11.9183 87.3085C1.28717 72.633 -2.23146 59.6425 1.36237 48.337C5.15957 36.8842 13.261 26.6644 25.6667 17.6775L57.0878 -5.08434L84.33 32.5215L63.8911 47.3277C59.6202 50.4216 57.2619 53.3731 56.8162 56.1823C56.3704 58.9915 57.0056 61.7946 58.7218 64.5917C60.4379 67.3888 62.3296 70.2141 64.3967 73.0677L103.156 126.572C109.357 135.133 113.527 143.456 115.663 151.543C118.004 159.482 117.729 167.45 114.84 175.448C120.624 175.299 125.963 176.248 130.858 178.296C135.753 180.345 140.407 183.344 144.819 187.296C149.232 191.247 153.506 196.076 157.64 201.784L196.4 255.288C198.467 258.141 200.562 260.819 202.685 263.322C204.807 265.824 207.273 267.301 210.081 267.753C212.889 268.205 216.429 266.884 220.7 263.79L241.139 248.984L268.381 286.59L236.96 309.352Z" fill="white" fill-opacity="0.03" shape-rendering="crispEdges"/>
<path d="M342.275 233.06L310.854 255.822L283.612 218.216L304.051 203.41C308.525 200.169 310.883 197.217 311.125 194.555C311.571 191.746 310.936 188.943 309.22 186.146C307.504 183.349 305.612 180.523 303.545 177.67L264.786 124.166C260.651 118.458 257.395 112.893 255.015 107.468C252.636 102.043 251.236 96.6864 250.816 91.3969C250.598 85.9602 251.36 80.591 253.101 75.2894C244.602 75.5418 236.843 73.3927 229.825 68.842C223.011 64.144 216.503 57.5146 210.301 48.954L171.542 -4.55025C169.475 -7.40381 167.38 -10.0818 165.257 -12.5842C163.134 -15.0866 160.669 -16.5638 157.86 -17.0158C155.256 -17.6151 151.716 -16.2942 147.242 -13.053L126.803 1.75322L99.5607 -35.8526L130.982 -58.6145C143.387 -67.6013 155.522 -72.0404 167.384 -71.9317C179.45 -71.9702 190.798 -64.6518 201.429 -49.9764L245.947 11.477C250.672 17.9995 255.223 22.7833 259.6 25.8285C264.032 28.5226 268.845 29.3872 274.038 28.4225C279.286 27.1066 285.571 23.7967 292.893 18.493L319.47 55.1816C312.149 60.4853 307.119 65.5277 304.381 70.3086C301.845 74.9423 301.167 79.7847 302.345 84.836C303.727 89.74 306.707 95.3513 311.284 101.67L356.023 163.429C366.654 178.105 370.071 191.169 366.274 202.621C362.68 213.927 354.681 224.073 342.275 233.06Z" fill="white" fill-opacity="0.03" shape-rendering="crispEdges"/>
</g>
<defs>
<filter id="filter0_d_274_2155" x="0" y="-71.9336" width="367.773" height="409.824" filterUnits="userSpaceOnUse" color-interpolation-filters="sRGB">
<feFlood flood-opacity="0" result="BackgroundImageFix"/>
<feColorMatrix in="SourceAlpha" type="matrix" values="0 0 0 0 0 0 0 0 0 0 0 0 0 0 0 0 0 0 127 0" result="hardAlpha"/>
<feOffset dy="15"/>
<feComposite in2="hardAlpha" operator="out"/>
<feColorMatrix type="matrix" values="0 0 0 0 1 0 0 0 0 1 0 0 0 0 1 0 0 0 0.01 0"/>
<feBlend mode="normal" in2="BackgroundImageFix" result="effect1_dropShadow_274_2155"/>
<feBlend mode="normal" in="SourceGraphic" in2="effect1_dropShadow_274_2155" result="shape"/>
</filter>
</defs>
</svg>
