<svg width="72" height="72" viewBox="0 0 72 72" fill="none" xmlns="http://www.w3.org/2000/svg">
<rect width="72" height="72" rx="36" fill="#DE523E"/>
<path d="M41.1894 46.968C43.3438 46.8451 46.6025 48 46.6025 48L50 38.3942C50 38.3942 48.8995 37.9937 48.1594 37.7636C46.9627 37.3914 45.8405 37.0785 45.1089 35.8862C44.7121 35.2396 44.45 34.326 43.8458 33.442C43.2319 32.5437 42.6127 32.2644 42.0041 31.3624C41.2172 30.1963 40.7864 29.7577 40.5117 28.0647C40.1481 25.8236 40.5083 24.4604 40.5083 24.4604C40.5083 24.4604 41.3436 22.0852 39.5016 22.0015C38.5234 21.957 37.9387 22.9384 37.2382 24.1435C36.3786 25.6221 36.1387 27.7154 36.1387 27.7154C36.1387 27.7154 36.2537 29.4948 35.5354 30.1684C35.264 30.4228 34.7248 30.6591 34.7248 30.6591C34.7248 30.6591 31.7404 29.1911 30.682 29.4819C29.8455 29.7117 29.1995 29.9031 28.7771 30.662C28.3566 31.4175 28.2529 31.9894 28.383 32.8345C27.6457 33.3374 27.2821 33.8139 26.9877 34.6627C26.6333 35.6849 26.6759 36.4539 27.1399 37.4076C26.4559 37.7308 26.087 38.1609 25.8659 38.8929C25.5452 39.9545 25.8996 40.9457 26.8069 41.5243C24.8385 40.7519 25.7856 40.9889 23.6782 40.7413C22.7028 40.6267 21.5207 40.4764 21.0666 41.7668C20.4627 43.4824 24.1666 44.7557 24.1666 44.7557C24.1666 44.7557 29.2288 47.2651 35.849 47.7098C37.2607 47.8046 38.6515 47.4833 39.4562 47.2009C40.2608 46.9184 40.5082 47.0068 41.1894 46.968Z" fill="#FFBC50"/>
<path d="M28.383 32.8345C28.2529 31.9894 28.3566 31.4175 28.7771 30.662C29.1995 29.9031 29.8455 29.7117 30.682 29.4819C31.7404 29.1911 34.7248 30.6591 34.7248 30.6591C34.7248 30.6591 35.264 30.4228 35.5354 30.1684C36.2537 29.4948 36.1387 27.7154 36.1387 27.7154C36.1387 27.7154 36.3786 25.6221 37.2382 24.1435C37.9387 22.9384 38.5234 21.957 39.5016 22.0015C41.3436 22.0852 40.5083 24.4604 40.5083 24.4604C40.5083 24.4604 40.1481 25.8236 40.5117 28.0647C40.7864 29.7577 41.2172 30.1963 42.0041 31.3624C42.6127 32.2644 43.2319 32.5437 43.8458 33.442C44.45 34.326 44.7121 35.2396 45.1089 35.8862C45.8405 37.0785 46.9627 37.3914 48.1594 37.7636C48.8995 37.9937 50 38.3942 50 38.3942L46.6025 48C46.6025 48 43.3438 46.8451 41.1894 46.968C40.5082 47.0068 40.2608 46.9184 39.4562 47.2009C38.6515 47.4833 37.2607 47.8046 35.849 47.7098C29.2288 47.2651 24.1666 44.7557 24.1666 44.7557C24.1666 44.7557 20.4627 43.4824 21.0666 41.7668C21.5207 40.4764 22.7028 40.6267 23.6782 40.7413C25.7856 40.9889 24.8385 40.7519 26.8069 41.5243M28.383 32.8345C30.3258 34.1504 31.6258 34.6874 33.9355 35.1278C34.6271 35.2597 35.7256 35.3585 35.7256 35.3585M28.383 32.8345C27.6457 33.3374 27.2821 33.8139 26.9877 34.6627C26.6333 35.6849 26.6759 36.4539 27.1399 37.4076M27.1399 37.4076C28.8131 38.3662 29.8974 38.7389 31.8124 39.0138C32.8083 39.1567 34.3913 39.131 34.3913 39.131M27.1399 37.4076C26.4559 37.7308 26.087 38.1609 25.8659 38.8929C25.5452 39.9545 25.8996 40.9457 26.8069 41.5243M26.8069 41.5243C28.418 42.3144 29.451 42.593 31.2494 42.7223C32.1286 42.7855 33.511 42.6749 33.511 42.6749" stroke="#1D1F27" stroke-width="1.5"/>
<circle cx="36" cy="36" r="30.5" stroke="#FF6A54"/>
</svg>
