<svg width="72" height="72" viewBox="0 0 72 72" fill="none" xmlns="http://www.w3.org/2000/svg">
<rect width="72" height="72" rx="36" fill="#DE523E"/>
<path d="M29.0814 46.9775C27.1324 46.5075 23.9982 46.2587 23.9982 46.2587L23.9982 35.9468C23.9982 35.9468 25.084 35.8366 26.5215 35.4772C27.959 35.1178 34.4279 30.1956 35.8655 27.5708C37.303 24.946 37.0223 24.8977 37.6624 23.6176C38.7405 21.4613 40.3594 22.1771 40.8968 23.2582C41.9686 25.4145 40.5374 26.4927 40.1717 29.7271C40.0446 30.8515 40.0036 31.6011 40.5311 32.6022C41.5655 34.5654 44.9294 32.4143 45.9218 34.3991C46.1203 34.796 46.2472 35.0347 46.2812 35.4772C46.3534 36.4159 45.9974 37.1281 45.2031 37.6335C45.9282 37.9929 47.0056 38.3523 47 39.4304C46.996 40.1862 46.5073 40.7426 45.9275 41.2274C46.2869 41.9461 46.6912 42.53 46.6912 43.3837C46.6912 44.1024 46.196 44.6626 45.5624 45.1806C46.6912 46.9775 45.5624 48.0556 44.1755 48.415C41.8854 49.0084 37.4966 49.3618 33.394 48.415C31.6642 48.0158 30.8072 47.3937 29.0814 46.9775Z" fill="#FFBC50"/>
<path d="M45.2031 37.6335C45.9974 37.1281 46.3534 36.4159 46.2812 35.4772C46.2472 35.0347 46.1203 34.796 45.9218 34.3991C44.9294 32.4143 41.5655 34.5654 40.5311 32.6022C40.0036 31.6011 40.0446 30.8515 40.1717 29.7271C40.5374 26.4927 41.9686 25.4145 40.8968 23.2582C40.3594 22.1771 38.7405 21.4613 37.6624 23.6176C37.0223 24.8977 37.303 24.946 35.8655 27.5708C34.4279 30.1956 27.959 35.1178 26.5215 35.4772C25.084 35.8366 23.9982 35.9468 23.9982 35.9468L23.9982 46.2587C23.9982 46.2587 27.1324 46.5075 29.0814 46.9775C30.8072 47.3937 31.6642 48.0158 33.394 48.415C37.4966 49.3618 41.8854 49.0084 44.1755 48.415C45.5624 48.0556 46.6912 46.9775 45.5624 45.1806M45.2031 37.6335C43.9399 37.6335 41.9686 37.6335 41.9686 37.6335M45.2031 37.6335C45.9282 37.9929 47.0056 38.3523 47 39.4304C46.996 40.1862 46.5073 40.7426 45.9275 41.2274M45.9275 41.2274C44.3836 41.2274 42.328 41.2274 42.328 41.2274M45.9275 41.2274C46.2869 41.9461 46.6912 42.53 46.6912 43.3837C46.6912 44.1024 46.196 44.6626 45.5624 45.1806M45.5624 45.1806C44.2993 45.1806 42.328 45.1806 42.328 45.1806" stroke="#1D1F27" stroke-width="1.5"/>
<circle cx="36" cy="36" r="30.5" stroke="#FF6A54"/>
</svg>
