<svg width="72" height="72" viewBox="0 0 72 72" fill="none" xmlns="http://www.w3.org/2000/svg">
<rect width="72" height="72" rx="36" fill="#DE523E"/>
<path d="M29.3406 50C29.3406 50 28.8507 47.1515 28.1681 45.4355C27.9523 44.8928 27.1051 43.5656 26.9519 43.0011C26.8374 42.5794 26.3977 41.0855 25.9196 39.3451C25.7576 38.7556 25.5912 38.1377 25.4316 37.5237C24.7986 35.0893 24.8312 34.3211 25.734 33.8663C26.3298 33.5663 27.3759 33.562 27.8623 34.7792C27.8623 34.7792 27.5584 32.3448 28.4706 31.7362C29.3828 31.1276 30.4731 32.0419 30.9031 32.9534C30.9057 32.9581 30.9084 32.9627 30.911 32.9674C30.9851 33.0547 31.4823 33.05 31.5112 32.9534C32.4233 29.9104 32.1192 27.4817 32.4233 23.8301C32.4873 23.0615 33.258 21.9209 33.9454 22.0043C34.7954 22.1074 35.1003 22.9754 35.1616 23.8301C35.4235 27.4817 35.8972 33.2678 36.0738 33.2635C36.2504 33.2591 37 27.7605 37 25C37 23.7828 37.7007 22.9172 38.5063 22.9172C39.3763 22.9172 39.6326 23.9931 39.7226 25.3516C39.9845 29.3075 39.7226 30.4814 39.7226 35.3936C39.7226 36.0022 40.5331 36.1866 41.2007 36.3065C42.5462 36.5481 43.2622 35.4606 44.2414 34.4806C44.8495 33.872 45.6977 33.5496 46.412 34.1764C47.1318 34.808 47.1376 36.118 46.716 36.6108C46.2945 37.1035 39.8218 44.927 39.4185 45.4355C38.6748 46.373 37.8245 47.2426 37.8555 48.3224C37.8747 48.9902 37.8572 50 37.8572 50H29.3406Z" fill="#FFBC50"/>
<path d="M27.8623 34.7792C27.3759 33.562 26.3298 33.5663 25.734 33.8663C24.8312 34.3211 24.7986 35.0893 25.4316 37.5237C25.5912 38.1377 25.7576 38.7556 25.9196 39.3451M27.8623 34.7792C27.8623 34.7792 28.2182 35.9277 28.4704 36.605C28.7123 37.2543 28.9528 38.1279 28.9528 38.1279M27.8623 34.7792C27.8623 34.7792 27.5584 32.3448 28.4706 31.7362C29.3828 31.1276 30.4731 32.0419 30.9031 32.9534M28.9528 38.1279C28.9528 38.1279 28.5481 39.0366 28.0406 39.3451C27.3327 39.7756 25.9196 39.3451 25.9196 39.3451M28.9528 38.1279C28.9528 38.1279 30.2586 39.0024 31.0813 38.7365C31.8353 38.4928 31.9935 37.5179 31.9935 36.605C31.9935 35.9246 31.5112 34.026 30.9031 32.9534M30.9031 32.9534C30.9335 33.0549 31.4808 33.0549 31.5112 32.9534C32.4233 29.9104 32.1192 27.4817 32.4233 23.8301C32.4873 23.0615 33.258 21.9209 33.9454 22.0043C34.7954 22.1074 35.1003 22.9754 35.1616 23.8301C35.4235 27.4817 35.8972 33.2678 36.0738 33.2635C36.2504 33.2591 37 27.7605 37 25C37 23.7828 37.7007 22.9172 38.5063 22.9172C39.3763 22.9172 39.6326 23.9931 39.7226 25.3516C39.9845 29.3075 39.7226 30.4814 39.7226 35.3936C39.7226 36.0022 40.5331 36.1866 41.2007 36.3065C42.5462 36.5481 43.2622 35.4606 44.2414 34.4806C44.8495 33.872 45.6977 33.5496 46.412 34.1764C47.1318 34.808 47.1376 36.118 46.716 36.6108C46.2945 37.1035 39.8218 44.927 39.4185 45.4355C38.6748 46.373 37.8245 47.2426 37.8555 48.3224C37.8747 48.9902 37.8572 50 37.8572 50H29.3406C29.3406 50 28.8507 47.1515 28.1681 45.4355C27.9523 44.8928 27.1051 43.5656 26.9519 43.0011C26.8374 42.5794 26.3977 41.0855 25.9196 39.3451" stroke="#1D1F27" stroke-width="1.5"/>
<circle cx="36" cy="36" r="30.5" stroke="#FF6A54"/>
</svg>
