<svg width="873" height="675" viewBox="0 0 873 675" fill="none" xmlns="http://www.w3.org/2000/svg">
<g opacity="0.4">
<g filter="url(#filter0_f_2045_14747)">
<circle cx="437.25" cy="768.5" r="518.5" fill="#DE523E"/>
</g>
<g filter="url(#filter1_f_2045_14747)">
<circle cx="437.25" cy="768.5" r="518.5" fill="#DE523E"/>
</g>
<g filter="url(#filter2_f_2045_14747)">
<circle cx="437.25" cy="768.5" r="518.5" fill="#DE523E"/>
</g>
<g filter="url(#filter3_f_2045_14747)">
<circle cx="437.25" cy="768.5" r="518.5" fill="#DE523E"/>
</g>
</g>
<g clip-path="url(#clip0_2045_14747)">
<rect x="-81.75" y="250" width="1037" height="1037" rx="518.5" fill="#1C1E28"/>
<g opacity="0.6" filter="url(#filter4_f_2045_14747)">
<path d="M952.25 612.5C952.25 662.337 939.214 711.685 913.885 757.728C888.557 803.771 851.433 845.607 804.632 880.847C757.831 916.087 702.271 944.041 641.122 963.112C579.974 982.184 514.436 992 448.25 992C382.064 992 316.526 982.184 255.378 963.112C194.229 944.041 138.669 916.087 91.8682 880.847C45.0674 845.607 7.94307 803.771 -17.3853 757.728C-42.7137 711.685 -55.75 662.337 -55.75 612.5C-55.75 562.663 -42.7136 513.315 -17.3853 467.272C7.94311 421.229 45.0675 379.393 91.8682 344.153C138.669 308.913 194.23 280.959 255.378 261.888C316.526 242.816 382.064 233 448.25 233C514.436 233 579.974 242.816 641.123 261.888C702.271 280.959 757.831 308.913 804.632 344.153C851.433 379.393 888.557 421.229 913.885 467.272C939.214 513.315 952.25 562.663 952.25 612.5L952.25 612.5Z" stroke="#DE523E" stroke-width="130"/>
</g>
<g opacity="0.6" filter="url(#filter5_f_2045_14747)">
<path d="M952.25 612.5C952.25 662.337 939.214 711.685 913.885 757.728C888.557 803.771 851.433 845.607 804.632 880.847C757.831 916.087 702.271 944.041 641.122 963.112C579.974 982.184 514.436 992 448.25 992C382.064 992 316.526 982.184 255.378 963.112C194.229 944.041 138.669 916.087 91.8682 880.847C45.0674 845.607 7.94307 803.771 -17.3853 757.728C-42.7137 711.685 -55.75 662.337 -55.75 612.5C-55.75 562.663 -42.7136 513.315 -17.3853 467.272C7.94311 421.229 45.0675 379.393 91.8682 344.153C138.669 308.913 194.23 280.959 255.378 261.888C316.526 242.816 382.064 233 448.25 233C514.436 233 579.974 242.816 641.123 261.888C702.271 280.959 757.831 308.913 804.632 344.153C851.433 379.393 888.557 421.229 913.885 467.272C939.214 513.315 952.25 562.663 952.25 612.5L952.25 612.5Z" stroke="#DE523E" stroke-width="130"/>
</g>
<g opacity="0.6" filter="url(#filter6_f_2045_14747)">
<path d="M952.25 612.5C952.25 662.337 939.214 711.685 913.885 757.728C888.557 803.771 851.433 845.607 804.632 880.847C757.831 916.087 702.271 944.041 641.122 963.112C579.974 982.184 514.436 992 448.25 992C382.064 992 316.526 982.184 255.378 963.112C194.229 944.041 138.669 916.087 91.8682 880.847C45.0674 845.607 7.94307 803.771 -17.3853 757.728C-42.7137 711.685 -55.75 662.337 -55.75 612.5C-55.75 562.663 -42.7136 513.315 -17.3853 467.272C7.94311 421.229 45.0675 379.393 91.8682 344.153C138.669 308.913 194.23 280.959 255.378 261.888C316.526 242.816 382.064 233 448.25 233C514.436 233 579.974 242.816 641.123 261.888C702.271 280.959 757.831 308.913 804.632 344.153C851.433 379.393 888.557 421.229 913.885 467.272C939.214 513.315 952.25 562.663 952.25 612.5L952.25 612.5Z" stroke="#DE523E" stroke-width="130"/>
</g>
<g opacity="0.6" filter="url(#filter7_f_2045_14747)">
<path d="M952.25 612.5C952.25 662.337 939.214 711.685 913.885 757.728C888.557 803.771 851.433 845.607 804.632 880.847C757.831 916.087 702.271 944.041 641.122 963.112C579.974 982.184 514.436 992 448.25 992C382.064 992 316.526 982.184 255.378 963.112C194.229 944.041 138.669 916.087 91.8682 880.847C45.0674 845.607 7.94307 803.771 -17.3853 757.728C-42.7137 711.685 -55.75 662.337 -55.75 612.5C-55.75 562.663 -42.7136 513.315 -17.3853 467.272C7.94311 421.229 45.0675 379.393 91.8682 344.153C138.669 308.913 194.23 280.959 255.378 261.888C316.526 242.816 382.064 233 448.25 233C514.436 233 579.974 242.816 641.123 261.888C702.271 280.959 757.831 308.913 804.632 344.153C851.433 379.393 888.557 421.229 913.885 467.272C939.214 513.315 952.25 562.663 952.25 612.5L952.25 612.5Z" stroke="#DE523E" stroke-width="130"/>
</g>
</g>
<defs>
<filter id="filter0_f_2045_14747" x="-331.25" y="0" width="1537" height="1537" filterUnits="userSpaceOnUse" color-interpolation-filters="sRGB">
<feFlood flood-opacity="0" result="BackgroundImageFix"/>
<feBlend mode="normal" in="SourceGraphic" in2="BackgroundImageFix" result="shape"/>
<feGaussianBlur stdDeviation="125" result="effect1_foregroundBlur_2045_14747"/>
</filter>
<filter id="filter1_f_2045_14747" x="-231.25" y="100" width="1337" height="1337" filterUnits="userSpaceOnUse" color-interpolation-filters="sRGB">
<feFlood flood-opacity="0" result="BackgroundImageFix"/>
<feBlend mode="normal" in="SourceGraphic" in2="BackgroundImageFix" result="shape"/>
<feGaussianBlur stdDeviation="75" result="effect1_foregroundBlur_2045_14747"/>
</filter>
<filter id="filter2_f_2045_14747" x="-181.25" y="150" width="1237" height="1237" filterUnits="userSpaceOnUse" color-interpolation-filters="sRGB">
<feFlood flood-opacity="0" result="BackgroundImageFix"/>
<feBlend mode="normal" in="SourceGraphic" in2="BackgroundImageFix" result="shape"/>
<feGaussianBlur stdDeviation="50" result="effect1_foregroundBlur_2045_14747"/>
</filter>
<filter id="filter3_f_2045_14747" x="-101.25" y="230" width="1077" height="1077" filterUnits="userSpaceOnUse" color-interpolation-filters="sRGB">
<feFlood flood-opacity="0" result="BackgroundImageFix"/>
<feBlend mode="normal" in="SourceGraphic" in2="BackgroundImageFix" result="shape"/>
<feGaussianBlur stdDeviation="10" result="effect1_foregroundBlur_2045_14747"/>
</filter>
<filter id="filter4_f_2045_14747" x="-470.75" y="-182" width="1838" height="1589" filterUnits="userSpaceOnUse" color-interpolation-filters="sRGB">
<feFlood flood-opacity="0" result="BackgroundImageFix"/>
<feBlend mode="normal" in="SourceGraphic" in2="BackgroundImageFix" result="shape"/>
<feGaussianBlur stdDeviation="175" result="effect1_foregroundBlur_2045_14747"/>
</filter>
<filter id="filter5_f_2045_14747" x="-370.75" y="-82" width="1638" height="1389" filterUnits="userSpaceOnUse" color-interpolation-filters="sRGB">
<feFlood flood-opacity="0" result="BackgroundImageFix"/>
<feBlend mode="normal" in="SourceGraphic" in2="BackgroundImageFix" result="shape"/>
<feGaussianBlur stdDeviation="125" result="effect1_foregroundBlur_2045_14747"/>
</filter>
<filter id="filter6_f_2045_14747" x="-270.75" y="18" width="1438" height="1189" filterUnits="userSpaceOnUse" color-interpolation-filters="sRGB">
<feFlood flood-opacity="0" result="BackgroundImageFix"/>
<feBlend mode="normal" in="SourceGraphic" in2="BackgroundImageFix" result="shape"/>
<feGaussianBlur stdDeviation="75" result="effect1_foregroundBlur_2045_14747"/>
</filter>
<filter id="filter7_f_2045_14747" x="-170.75" y="118" width="1238" height="989" filterUnits="userSpaceOnUse" color-interpolation-filters="sRGB">
<feFlood flood-opacity="0" result="BackgroundImageFix"/>
<feBlend mode="normal" in="SourceGraphic" in2="BackgroundImageFix" result="shape"/>
<feGaussianBlur stdDeviation="25" result="effect1_foregroundBlur_2045_14747"/>
</filter>
<clipPath id="clip0_2045_14747">
<rect x="-81.75" y="250" width="1037" height="1037" rx="518.5" fill="white"/>
</clipPath>
</defs>
</svg>
