<svg width="1820" height="264" viewBox="0 0 1820 264" fill="none" xmlns="http://www.w3.org/2000/svg">
<path d="M76.6083 260.204V156.674H56.9386V260.204H0V3.45098H56.9386V96.6274H76.6083V3.45098H133.547V260.204H76.6083Z" fill="#2C2E37"/>
<path d="M222.206 260.204L218.065 222.588H191.839L188.043 260.204H138.696L171.479 3.45098H241.531L277.419 260.204H222.206ZM204.952 93.8667L197.015 171.859H212.889L204.952 93.8667Z" fill="#2C2E37"/>
<path d="M280.379 260.204V3.45098H337.318V206.024H352.157V3.45098H409.095V206.024H423.934V3.45098H481.218V260.204H280.379Z" fill="#2C2E37"/>
<path d="M545.492 3.45098V131.827L573.098 3.45098H626.241V260.204H573.098V132.518L545.492 260.204H492.349V3.45098H545.492Z" fill="#2C2E37"/>
<path d="M758.51 260.204L732.974 157.71V260.204H676.035V3.45098H732.974V94.5568L759.545 3.45098H816.139L781.286 117.678L818.209 260.204H758.51Z" fill="#2C2E37"/>
<path d="M952.228 72.4706V194.29C952.228 216.376 946.592 233.516 935.319 245.71C924.046 257.903 908.518 264 888.733 264H877.69C856.985 264 841.112 258.018 830.069 246.055C819.026 233.861 813.505 216.607 813.505 194.29V72.4706C813.505 24.1569 834.785 0 877.345 0H888.388C930.948 0 952.228 24.1569 952.228 72.4706ZM893.219 198.086V66.6039C893.219 56.9412 889.768 52.1098 882.867 52.1098C875.965 52.1098 872.514 56.9412 872.514 66.6039V198.086C872.514 206.599 876.08 210.855 883.212 210.855C889.883 210.855 893.219 206.599 893.219 198.086Z" fill="#2C2E37"/>
<path d="M1038.05 260.204V156.674H1018.38V260.204H961.446V3.45098H1018.38V96.6274H1038.05V3.45098H1094.99V260.204H1038.05Z" fill="#2C2E37"/>
<path d="M1103.94 3.45098H1224.72V56.5961H1192.62V260.204H1136.03V56.5961H1103.94V3.45098Z" fill="#2C2E37"/>
<path d="M1293.17 260.204L1289.03 222.588H1262.81L1259.01 260.204H1209.66L1242.45 3.45098H1312.5L1348.39 260.204H1293.17ZM1275.92 93.8667L1267.98 171.859H1283.86L1275.92 93.8667Z" fill="#2C2E37"/>
<path d="M1434.86 260.204L1409.32 157.71V260.204H1352.38V3.45098H1409.32V94.5568L1435.89 3.45098H1492.49L1457.63 117.678L1494.56 260.204H1434.86Z" fill="#2C2E37"/>
<path d="M1495.19 3.45098H1615.97V56.5961H1583.87V260.204H1527.28V56.5961H1495.19V3.45098Z" fill="#2C2E37"/>
<path d="M1679.9 94.5568H1707.16C1721.88 94.5568 1733.27 99.1582 1741.32 108.361C1749.6 117.563 1753.74 130.677 1753.74 147.702V208.439C1753.74 225.924 1749.83 238.923 1742.01 247.435C1734.42 255.948 1722.23 260.204 1705.43 260.204H1623.3V3.45098H1679.9V94.5568ZM1679.9 215.341H1686.8C1690.71 215.341 1693.35 214.306 1694.74 212.235C1696.12 210.165 1696.81 206.944 1696.81 202.573V154.259C1696.81 149.888 1696.12 146.782 1694.74 144.941C1693.35 142.871 1690.71 141.835 1686.8 141.835H1679.9V215.341ZM1820 3.45098V260.204H1763.06V3.45098H1820Z" fill="#2C2E37"/>
</svg>
