<svg width="1820" height="278" viewBox="0 0 1820 278" fill="none" xmlns="http://www.w3.org/2000/svg">
<path d="M72.7207 170.574V274.008H0V3.99218H72.7207V96.1749H88.3556V3.99218H161.076V274.008H88.3556V170.574H72.7207Z" fill="#2C2E37"/>
<path d="M171.859 3.99218H296.212V68.9556H242.762V101.256H286.758V167.671H242.762V208.319H298.03V274.008H171.859V3.99218Z" fill="#2C2E37"/>
<path d="M397.649 274.008L394.376 240.619H367.833L364.561 274.008H302.021L337.29 3.99218H428.555L467.824 274.008H397.649ZM380.923 108.877L374.014 180.01H388.195L380.923 108.877Z" fill="#2C2E37"/>
<path d="M486.959 274.008L444.417 3.99218H521.865L536.772 162.227L551.68 3.99218H622.583L583.677 274.008H486.959Z" fill="#2C2E37"/>
<path d="M784.463 3.99218L741.194 176.744V274.008H668.837V176.744L621.932 3.99218H693.926L707.016 84.9243L719.014 3.99218H784.463Z" fill="#2C2E37"/>
<path d="M828.362 3.99218H966.168V68.9556H933.444V274.008H861.087V68.9556H828.362V3.99218Z" fill="#2C2E37"/>
<path d="M1048.13 55.5274V110.692H1053.95C1059.04 110.692 1061.58 107.547 1061.58 101.256V65.3264C1061.58 61.6971 1061.1 59.1567 1060.13 57.705C1059.16 56.2533 1057.22 55.5274 1054.31 55.5274H1048.13ZM1048.13 168.76V274.008H975.409V3.99218H1088.49C1101.58 3.99218 1112.37 8.22629 1120.85 16.6945C1129.58 25.1628 1133.94 37.7441 1133.94 54.4386V81.2951C1133.94 104.038 1125.33 119.523 1108.12 127.749C1115.15 130.411 1121.34 135.25 1126.67 142.266C1132 149.041 1134.67 157.025 1134.67 166.219V252.958C1134.67 261.668 1135.88 268.08 1138.3 272.193V274.008H1066.67C1063.28 269.411 1061.58 263.604 1061.58 256.587V178.559C1061.58 175.171 1061.1 172.752 1060.13 171.3C1059.16 169.607 1057.1 168.76 1053.95 168.76H1048.13Z" fill="#2C2E37"/>
<path d="M1236.35 274.008L1233.08 240.619H1206.54L1203.26 274.008H1140.72L1175.99 3.99218H1267.26L1306.53 274.008H1236.35ZM1219.63 108.877L1212.72 180.01H1226.9L1219.63 108.877Z" fill="#2C2E37"/>
<path d="M1310.96 274.008V3.99218H1433.86V68.9556H1381.86V101.256H1424.04V167.671H1381.86V274.008H1310.96Z" fill="#2C2E37"/>
<path d="M1443.41 274.008V3.99218H1566.3V68.9556H1514.31V101.256H1556.49V167.671H1514.31V274.008H1443.41Z" fill="#2C2E37"/>
<path d="M1648.57 3.99218V274.008H1575.85V3.99218H1648.57Z" fill="#2C2E37"/>
<path d="M1748.73 205.052V157.146H1820V207.593C1820 227.433 1813.94 244.127 1801.82 257.676C1789.94 271.225 1771.88 278 1747.64 278H1735.64C1684.5 278 1658.92 251.507 1658.92 198.52V77.6658C1658.92 53.7128 1665.1 34.8407 1677.47 21.0496C1689.83 7.01654 1709.1 0 1735.28 0H1747.28C1771.52 0 1789.7 5.92777 1801.82 17.7833C1813.94 29.6388 1820 46.0914 1820 67.141V110.329H1748.73V70.0444C1748.73 62.7859 1746.31 59.1567 1741.46 59.1567C1736.61 59.1567 1734.19 62.7859 1734.19 70.0444V205.052C1734.19 213.037 1736.61 217.029 1741.46 217.029C1746.31 217.029 1748.73 213.037 1748.73 205.052Z" fill="#2C2E37"/>
</svg>
