<svg width="300" height="174" viewBox="0 0 300 174" fill="none" xmlns="http://www.w3.org/2000/svg">
<path d="M27.8104 49.3548V80H0V0H27.8104V27.3118H33.7896V0H61.6V80H33.7896V49.3548H27.8104Z" fill="#2C2E37"/>
<path d="M65.7237 0H113.279V19.2473H92.8388V28.8172H109.664V48.4946H92.8388V60.5376H113.975V80H65.7237V0Z" fill="#2C2E37"/>
<path d="M152.072 80L150.82 70.1075H140.669L139.418 80H115.501L128.989 0H163.891L178.909 80H152.072ZM145.675 31.0753L143.033 52.1505H148.456L145.675 31.0753Z" fill="#2C2E37"/>
<path d="M186.226 80L169.957 0H199.575L205.276 46.8817L210.977 0H238.093L223.214 80H186.226Z" fill="#2C2E37"/>
<path d="M300 0L283.453 51.1828V80H255.782V51.1828L237.844 0H265.376L270.382 23.9785L274.971 0H300Z" fill="#2C2E37"/>
<path d="M0 91.2063H41.6904V110.836H31.7903V172.794H9.90006V110.836H0V91.2063Z" fill="#2C2E37"/>
<path d="M66.4861 106.778V123.446H68.2461C69.7861 123.446 70.5561 122.496 70.5561 120.595V109.739C70.5561 108.642 70.4095 107.875 70.1161 107.436C69.8228 106.997 69.2361 106.778 68.3561 106.778H66.4861ZM66.4861 140.992V172.794H44.4859V91.2063H78.6962C82.6562 91.2063 85.9196 92.4856 88.4863 95.0444C91.1263 97.6031 92.4463 101.405 92.4463 106.449V114.564C92.4463 121.436 89.843 126.115 84.6363 128.601C86.7629 129.405 88.6329 130.867 90.2463 132.987C91.8596 135.034 92.6663 137.446 92.6663 140.225V166.433C92.6663 169.065 93.033 171.003 93.7663 172.245V172.794H72.0962C71.0695 171.405 70.5561 169.65 70.5561 167.53V143.953C70.5561 142.93 70.4095 142.198 70.1161 141.76C69.8228 141.248 69.1994 140.992 68.2461 140.992H66.4861Z" fill="#2C2E37"/>
<path d="M123.429 172.794L122.439 162.705H114.409L113.419 172.794H94.4985L105.169 91.2063H132.779L144.659 172.794H123.429ZM118.369 122.898L116.279 144.392H120.569L118.369 122.898Z" fill="#2C2E37"/>
<path d="M146 172.794V91.2063H183.181V110.836H167.451V120.595H180.211V140.663H167.451V172.794H146Z" fill="#2C2E37"/>
<path d="M186.069 172.794V91.2063H223.249V110.836H207.519V120.595H220.279V140.663H207.519V172.794H186.069Z" fill="#2C2E37"/>
<path d="M248.138 91.2063V172.794H226.138V91.2063H248.138Z" fill="#2C2E37"/>
<path d="M278.44 151.958V137.483H300V152.726C300 158.721 298.167 163.765 294.5 167.859C290.907 171.953 285.443 174 278.11 174H274.48C259.006 174 251.27 165.995 251.27 149.984V113.467C251.27 106.23 253.14 100.527 256.88 96.3603C260.62 92.1201 266.45 90 274.37 90H278C285.333 90 290.833 91.7911 294.5 95.3734C298.167 98.9556 300 103.927 300 110.287V123.337H278.44V111.164C278.44 108.971 277.706 107.875 276.24 107.875C274.773 107.875 274.04 108.971 274.04 111.164V151.958C274.04 154.371 274.773 155.577 276.24 155.577C277.706 155.577 278.44 154.371 278.44 151.958Z" fill="#2C2E37"/>
</svg>
